%TF.GenerationSoftware,KiCad,Pcbnew,8.0.4*%
%TF.CreationDate,2024-11-25T19:05:08-08:00*%
%TF.ProjectId,Senior Design,53656e69-6f72-4204-9465-7369676e2e6b,rev?*%
%TF.SameCoordinates,Original*%
%TF.FileFunction,Legend,Top*%
%TF.FilePolarity,Positive*%
%FSLAX46Y46*%
G04 Gerber Fmt 4.6, Leading zero omitted, Abs format (unit mm)*
G04 Created by KiCad (PCBNEW 8.0.4) date 2024-11-25 19:05:08*
%MOMM*%
%LPD*%
G01*
G04 APERTURE LIST*
%ADD10C,0.100000*%
%ADD11C,0.150000*%
%ADD12C,0.120000*%
%ADD13C,0.200000*%
%ADD14C,0.010000*%
%ADD15C,0.000000*%
G04 APERTURE END LIST*
D10*
X136160000Y-62450000D02*
X158000000Y-62450000D01*
X158000000Y-81500000D01*
X136160000Y-81500000D01*
X136160000Y-62450000D01*
X136580000Y-108950000D02*
X158420000Y-108950000D01*
X158420000Y-128000000D01*
X136580000Y-128000000D01*
X136580000Y-108950000D01*
X54240000Y-117000000D02*
X76240000Y-117000000D01*
X76240000Y-127000000D01*
X54240000Y-127000000D01*
X54240000Y-117000000D01*
D11*
X122233333Y-109459580D02*
X122185714Y-109507200D01*
X122185714Y-109507200D02*
X122042857Y-109554819D01*
X122042857Y-109554819D02*
X121947619Y-109554819D01*
X121947619Y-109554819D02*
X121804762Y-109507200D01*
X121804762Y-109507200D02*
X121709524Y-109411961D01*
X121709524Y-109411961D02*
X121661905Y-109316723D01*
X121661905Y-109316723D02*
X121614286Y-109126247D01*
X121614286Y-109126247D02*
X121614286Y-108983390D01*
X121614286Y-108983390D02*
X121661905Y-108792914D01*
X121661905Y-108792914D02*
X121709524Y-108697676D01*
X121709524Y-108697676D02*
X121804762Y-108602438D01*
X121804762Y-108602438D02*
X121947619Y-108554819D01*
X121947619Y-108554819D02*
X122042857Y-108554819D01*
X122042857Y-108554819D02*
X122185714Y-108602438D01*
X122185714Y-108602438D02*
X122233333Y-108650057D01*
X122566667Y-108554819D02*
X123185714Y-108554819D01*
X123185714Y-108554819D02*
X122852381Y-108935771D01*
X122852381Y-108935771D02*
X122995238Y-108935771D01*
X122995238Y-108935771D02*
X123090476Y-108983390D01*
X123090476Y-108983390D02*
X123138095Y-109031009D01*
X123138095Y-109031009D02*
X123185714Y-109126247D01*
X123185714Y-109126247D02*
X123185714Y-109364342D01*
X123185714Y-109364342D02*
X123138095Y-109459580D01*
X123138095Y-109459580D02*
X123090476Y-109507200D01*
X123090476Y-109507200D02*
X122995238Y-109554819D01*
X122995238Y-109554819D02*
X122709524Y-109554819D01*
X122709524Y-109554819D02*
X122614286Y-109507200D01*
X122614286Y-109507200D02*
X122566667Y-109459580D01*
X121266666Y-125794819D02*
X121266666Y-126509104D01*
X121266666Y-126509104D02*
X121219047Y-126651961D01*
X121219047Y-126651961D02*
X121123809Y-126747200D01*
X121123809Y-126747200D02*
X120980952Y-126794819D01*
X120980952Y-126794819D02*
X120885714Y-126794819D01*
X122171428Y-125794819D02*
X121980952Y-125794819D01*
X121980952Y-125794819D02*
X121885714Y-125842438D01*
X121885714Y-125842438D02*
X121838095Y-125890057D01*
X121838095Y-125890057D02*
X121742857Y-126032914D01*
X121742857Y-126032914D02*
X121695238Y-126223390D01*
X121695238Y-126223390D02*
X121695238Y-126604342D01*
X121695238Y-126604342D02*
X121742857Y-126699580D01*
X121742857Y-126699580D02*
X121790476Y-126747200D01*
X121790476Y-126747200D02*
X121885714Y-126794819D01*
X121885714Y-126794819D02*
X122076190Y-126794819D01*
X122076190Y-126794819D02*
X122171428Y-126747200D01*
X122171428Y-126747200D02*
X122219047Y-126699580D01*
X122219047Y-126699580D02*
X122266666Y-126604342D01*
X122266666Y-126604342D02*
X122266666Y-126366247D01*
X122266666Y-126366247D02*
X122219047Y-126271009D01*
X122219047Y-126271009D02*
X122171428Y-126223390D01*
X122171428Y-126223390D02*
X122076190Y-126175771D01*
X122076190Y-126175771D02*
X121885714Y-126175771D01*
X121885714Y-126175771D02*
X121790476Y-126223390D01*
X121790476Y-126223390D02*
X121742857Y-126271009D01*
X121742857Y-126271009D02*
X121695238Y-126366247D01*
X62738095Y-70606819D02*
X63309523Y-70606819D01*
X63023809Y-71606819D02*
X63023809Y-70606819D01*
X63642857Y-71606819D02*
X63642857Y-70606819D01*
X63642857Y-70606819D02*
X64023809Y-70606819D01*
X64023809Y-70606819D02*
X64119047Y-70654438D01*
X64119047Y-70654438D02*
X64166666Y-70702057D01*
X64166666Y-70702057D02*
X64214285Y-70797295D01*
X64214285Y-70797295D02*
X64214285Y-70940152D01*
X64214285Y-70940152D02*
X64166666Y-71035390D01*
X64166666Y-71035390D02*
X64119047Y-71083009D01*
X64119047Y-71083009D02*
X64023809Y-71130628D01*
X64023809Y-71130628D02*
X63642857Y-71130628D01*
X64547619Y-70606819D02*
X65166666Y-70606819D01*
X65166666Y-70606819D02*
X64833333Y-70987771D01*
X64833333Y-70987771D02*
X64976190Y-70987771D01*
X64976190Y-70987771D02*
X65071428Y-71035390D01*
X65071428Y-71035390D02*
X65119047Y-71083009D01*
X65119047Y-71083009D02*
X65166666Y-71178247D01*
X65166666Y-71178247D02*
X65166666Y-71416342D01*
X65166666Y-71416342D02*
X65119047Y-71511580D01*
X65119047Y-71511580D02*
X65071428Y-71559200D01*
X65071428Y-71559200D02*
X64976190Y-71606819D01*
X64976190Y-71606819D02*
X64690476Y-71606819D01*
X64690476Y-71606819D02*
X64595238Y-71559200D01*
X64595238Y-71559200D02*
X64547619Y-71511580D01*
X122709580Y-65416666D02*
X122757200Y-65464285D01*
X122757200Y-65464285D02*
X122804819Y-65607142D01*
X122804819Y-65607142D02*
X122804819Y-65702380D01*
X122804819Y-65702380D02*
X122757200Y-65845237D01*
X122757200Y-65845237D02*
X122661961Y-65940475D01*
X122661961Y-65940475D02*
X122566723Y-65988094D01*
X122566723Y-65988094D02*
X122376247Y-66035713D01*
X122376247Y-66035713D02*
X122233390Y-66035713D01*
X122233390Y-66035713D02*
X122042914Y-65988094D01*
X122042914Y-65988094D02*
X121947676Y-65940475D01*
X121947676Y-65940475D02*
X121852438Y-65845237D01*
X121852438Y-65845237D02*
X121804819Y-65702380D01*
X121804819Y-65702380D02*
X121804819Y-65607142D01*
X121804819Y-65607142D02*
X121852438Y-65464285D01*
X121852438Y-65464285D02*
X121900057Y-65416666D01*
X121804819Y-64559523D02*
X121804819Y-64749999D01*
X121804819Y-64749999D02*
X121852438Y-64845237D01*
X121852438Y-64845237D02*
X121900057Y-64892856D01*
X121900057Y-64892856D02*
X122042914Y-64988094D01*
X122042914Y-64988094D02*
X122233390Y-65035713D01*
X122233390Y-65035713D02*
X122614342Y-65035713D01*
X122614342Y-65035713D02*
X122709580Y-64988094D01*
X122709580Y-64988094D02*
X122757200Y-64940475D01*
X122757200Y-64940475D02*
X122804819Y-64845237D01*
X122804819Y-64845237D02*
X122804819Y-64654761D01*
X122804819Y-64654761D02*
X122757200Y-64559523D01*
X122757200Y-64559523D02*
X122709580Y-64511904D01*
X122709580Y-64511904D02*
X122614342Y-64464285D01*
X122614342Y-64464285D02*
X122376247Y-64464285D01*
X122376247Y-64464285D02*
X122281009Y-64511904D01*
X122281009Y-64511904D02*
X122233390Y-64559523D01*
X122233390Y-64559523D02*
X122185771Y-64654761D01*
X122185771Y-64654761D02*
X122185771Y-64845237D01*
X122185771Y-64845237D02*
X122233390Y-64940475D01*
X122233390Y-64940475D02*
X122281009Y-64988094D01*
X122281009Y-64988094D02*
X122376247Y-65035713D01*
X133454819Y-98242857D02*
X132978628Y-98576190D01*
X133454819Y-98814285D02*
X132454819Y-98814285D01*
X132454819Y-98814285D02*
X132454819Y-98433333D01*
X132454819Y-98433333D02*
X132502438Y-98338095D01*
X132502438Y-98338095D02*
X132550057Y-98290476D01*
X132550057Y-98290476D02*
X132645295Y-98242857D01*
X132645295Y-98242857D02*
X132788152Y-98242857D01*
X132788152Y-98242857D02*
X132883390Y-98290476D01*
X132883390Y-98290476D02*
X132931009Y-98338095D01*
X132931009Y-98338095D02*
X132978628Y-98433333D01*
X132978628Y-98433333D02*
X132978628Y-98814285D01*
X133454819Y-97290476D02*
X133454819Y-97861904D01*
X133454819Y-97576190D02*
X132454819Y-97576190D01*
X132454819Y-97576190D02*
X132597676Y-97671428D01*
X132597676Y-97671428D02*
X132692914Y-97766666D01*
X132692914Y-97766666D02*
X132740533Y-97861904D01*
X132454819Y-96671428D02*
X132454819Y-96576190D01*
X132454819Y-96576190D02*
X132502438Y-96480952D01*
X132502438Y-96480952D02*
X132550057Y-96433333D01*
X132550057Y-96433333D02*
X132645295Y-96385714D01*
X132645295Y-96385714D02*
X132835771Y-96338095D01*
X132835771Y-96338095D02*
X133073866Y-96338095D01*
X133073866Y-96338095D02*
X133264342Y-96385714D01*
X133264342Y-96385714D02*
X133359580Y-96433333D01*
X133359580Y-96433333D02*
X133407200Y-96480952D01*
X133407200Y-96480952D02*
X133454819Y-96576190D01*
X133454819Y-96576190D02*
X133454819Y-96671428D01*
X133454819Y-96671428D02*
X133407200Y-96766666D01*
X133407200Y-96766666D02*
X133359580Y-96814285D01*
X133359580Y-96814285D02*
X133264342Y-96861904D01*
X133264342Y-96861904D02*
X133073866Y-96909523D01*
X133073866Y-96909523D02*
X132835771Y-96909523D01*
X132835771Y-96909523D02*
X132645295Y-96861904D01*
X132645295Y-96861904D02*
X132550057Y-96814285D01*
X132550057Y-96814285D02*
X132502438Y-96766666D01*
X132502438Y-96766666D02*
X132454819Y-96671428D01*
X88454819Y-87666666D02*
X87978628Y-87999999D01*
X88454819Y-88238094D02*
X87454819Y-88238094D01*
X87454819Y-88238094D02*
X87454819Y-87857142D01*
X87454819Y-87857142D02*
X87502438Y-87761904D01*
X87502438Y-87761904D02*
X87550057Y-87714285D01*
X87550057Y-87714285D02*
X87645295Y-87666666D01*
X87645295Y-87666666D02*
X87788152Y-87666666D01*
X87788152Y-87666666D02*
X87883390Y-87714285D01*
X87883390Y-87714285D02*
X87931009Y-87761904D01*
X87931009Y-87761904D02*
X87978628Y-87857142D01*
X87978628Y-87857142D02*
X87978628Y-88238094D01*
X88454819Y-87190475D02*
X88454819Y-86999999D01*
X88454819Y-86999999D02*
X88407200Y-86904761D01*
X88407200Y-86904761D02*
X88359580Y-86857142D01*
X88359580Y-86857142D02*
X88216723Y-86761904D01*
X88216723Y-86761904D02*
X88026247Y-86714285D01*
X88026247Y-86714285D02*
X87645295Y-86714285D01*
X87645295Y-86714285D02*
X87550057Y-86761904D01*
X87550057Y-86761904D02*
X87502438Y-86809523D01*
X87502438Y-86809523D02*
X87454819Y-86904761D01*
X87454819Y-86904761D02*
X87454819Y-87095237D01*
X87454819Y-87095237D02*
X87502438Y-87190475D01*
X87502438Y-87190475D02*
X87550057Y-87238094D01*
X87550057Y-87238094D02*
X87645295Y-87285713D01*
X87645295Y-87285713D02*
X87883390Y-87285713D01*
X87883390Y-87285713D02*
X87978628Y-87238094D01*
X87978628Y-87238094D02*
X88026247Y-87190475D01*
X88026247Y-87190475D02*
X88073866Y-87095237D01*
X88073866Y-87095237D02*
X88073866Y-86904761D01*
X88073866Y-86904761D02*
X88026247Y-86809523D01*
X88026247Y-86809523D02*
X87978628Y-86761904D01*
X87978628Y-86761904D02*
X87883390Y-86714285D01*
X61562295Y-101266666D02*
X62133723Y-101266666D01*
X62133723Y-101266666D02*
X62248009Y-101304761D01*
X62248009Y-101304761D02*
X62324200Y-101380952D01*
X62324200Y-101380952D02*
X62362295Y-101495237D01*
X62362295Y-101495237D02*
X62362295Y-101571428D01*
X61828961Y-100542856D02*
X62362295Y-100542856D01*
X61524200Y-100733332D02*
X62095628Y-100923809D01*
X62095628Y-100923809D02*
X62095628Y-100428570D01*
X68359580Y-95670666D02*
X68407200Y-95718285D01*
X68407200Y-95718285D02*
X68454819Y-95861142D01*
X68454819Y-95861142D02*
X68454819Y-95956380D01*
X68454819Y-95956380D02*
X68407200Y-96099237D01*
X68407200Y-96099237D02*
X68311961Y-96194475D01*
X68311961Y-96194475D02*
X68216723Y-96242094D01*
X68216723Y-96242094D02*
X68026247Y-96289713D01*
X68026247Y-96289713D02*
X67883390Y-96289713D01*
X67883390Y-96289713D02*
X67692914Y-96242094D01*
X67692914Y-96242094D02*
X67597676Y-96194475D01*
X67597676Y-96194475D02*
X67502438Y-96099237D01*
X67502438Y-96099237D02*
X67454819Y-95956380D01*
X67454819Y-95956380D02*
X67454819Y-95861142D01*
X67454819Y-95861142D02*
X67502438Y-95718285D01*
X67502438Y-95718285D02*
X67550057Y-95670666D01*
X68454819Y-95194475D02*
X68454819Y-95003999D01*
X68454819Y-95003999D02*
X68407200Y-94908761D01*
X68407200Y-94908761D02*
X68359580Y-94861142D01*
X68359580Y-94861142D02*
X68216723Y-94765904D01*
X68216723Y-94765904D02*
X68026247Y-94718285D01*
X68026247Y-94718285D02*
X67645295Y-94718285D01*
X67645295Y-94718285D02*
X67550057Y-94765904D01*
X67550057Y-94765904D02*
X67502438Y-94813523D01*
X67502438Y-94813523D02*
X67454819Y-94908761D01*
X67454819Y-94908761D02*
X67454819Y-95099237D01*
X67454819Y-95099237D02*
X67502438Y-95194475D01*
X67502438Y-95194475D02*
X67550057Y-95242094D01*
X67550057Y-95242094D02*
X67645295Y-95289713D01*
X67645295Y-95289713D02*
X67883390Y-95289713D01*
X67883390Y-95289713D02*
X67978628Y-95242094D01*
X67978628Y-95242094D02*
X68026247Y-95194475D01*
X68026247Y-95194475D02*
X68073866Y-95099237D01*
X68073866Y-95099237D02*
X68073866Y-94908761D01*
X68073866Y-94908761D02*
X68026247Y-94813523D01*
X68026247Y-94813523D02*
X67978628Y-94765904D01*
X67978628Y-94765904D02*
X67883390Y-94718285D01*
X137134819Y-99642857D02*
X136658628Y-99976190D01*
X137134819Y-100214285D02*
X136134819Y-100214285D01*
X136134819Y-100214285D02*
X136134819Y-99833333D01*
X136134819Y-99833333D02*
X136182438Y-99738095D01*
X136182438Y-99738095D02*
X136230057Y-99690476D01*
X136230057Y-99690476D02*
X136325295Y-99642857D01*
X136325295Y-99642857D02*
X136468152Y-99642857D01*
X136468152Y-99642857D02*
X136563390Y-99690476D01*
X136563390Y-99690476D02*
X136611009Y-99738095D01*
X136611009Y-99738095D02*
X136658628Y-99833333D01*
X136658628Y-99833333D02*
X136658628Y-100214285D01*
X137134819Y-98690476D02*
X137134819Y-99261904D01*
X137134819Y-98976190D02*
X136134819Y-98976190D01*
X136134819Y-98976190D02*
X136277676Y-99071428D01*
X136277676Y-99071428D02*
X136372914Y-99166666D01*
X136372914Y-99166666D02*
X136420533Y-99261904D01*
X136468152Y-97833333D02*
X137134819Y-97833333D01*
X136087200Y-98071428D02*
X136801485Y-98309523D01*
X136801485Y-98309523D02*
X136801485Y-97690476D01*
X126757142Y-77824819D02*
X126423809Y-77348628D01*
X126185714Y-77824819D02*
X126185714Y-76824819D01*
X126185714Y-76824819D02*
X126566666Y-76824819D01*
X126566666Y-76824819D02*
X126661904Y-76872438D01*
X126661904Y-76872438D02*
X126709523Y-76920057D01*
X126709523Y-76920057D02*
X126757142Y-77015295D01*
X126757142Y-77015295D02*
X126757142Y-77158152D01*
X126757142Y-77158152D02*
X126709523Y-77253390D01*
X126709523Y-77253390D02*
X126661904Y-77301009D01*
X126661904Y-77301009D02*
X126566666Y-77348628D01*
X126566666Y-77348628D02*
X126185714Y-77348628D01*
X127709523Y-77824819D02*
X127138095Y-77824819D01*
X127423809Y-77824819D02*
X127423809Y-76824819D01*
X127423809Y-76824819D02*
X127328571Y-76967676D01*
X127328571Y-76967676D02*
X127233333Y-77062914D01*
X127233333Y-77062914D02*
X127138095Y-77110533D01*
X128280952Y-77253390D02*
X128185714Y-77205771D01*
X128185714Y-77205771D02*
X128138095Y-77158152D01*
X128138095Y-77158152D02*
X128090476Y-77062914D01*
X128090476Y-77062914D02*
X128090476Y-77015295D01*
X128090476Y-77015295D02*
X128138095Y-76920057D01*
X128138095Y-76920057D02*
X128185714Y-76872438D01*
X128185714Y-76872438D02*
X128280952Y-76824819D01*
X128280952Y-76824819D02*
X128471428Y-76824819D01*
X128471428Y-76824819D02*
X128566666Y-76872438D01*
X128566666Y-76872438D02*
X128614285Y-76920057D01*
X128614285Y-76920057D02*
X128661904Y-77015295D01*
X128661904Y-77015295D02*
X128661904Y-77062914D01*
X128661904Y-77062914D02*
X128614285Y-77158152D01*
X128614285Y-77158152D02*
X128566666Y-77205771D01*
X128566666Y-77205771D02*
X128471428Y-77253390D01*
X128471428Y-77253390D02*
X128280952Y-77253390D01*
X128280952Y-77253390D02*
X128185714Y-77301009D01*
X128185714Y-77301009D02*
X128138095Y-77348628D01*
X128138095Y-77348628D02*
X128090476Y-77443866D01*
X128090476Y-77443866D02*
X128090476Y-77634342D01*
X128090476Y-77634342D02*
X128138095Y-77729580D01*
X128138095Y-77729580D02*
X128185714Y-77777200D01*
X128185714Y-77777200D02*
X128280952Y-77824819D01*
X128280952Y-77824819D02*
X128471428Y-77824819D01*
X128471428Y-77824819D02*
X128566666Y-77777200D01*
X128566666Y-77777200D02*
X128614285Y-77729580D01*
X128614285Y-77729580D02*
X128661904Y-77634342D01*
X128661904Y-77634342D02*
X128661904Y-77443866D01*
X128661904Y-77443866D02*
X128614285Y-77348628D01*
X128614285Y-77348628D02*
X128566666Y-77301009D01*
X128566666Y-77301009D02*
X128471428Y-77253390D01*
X60101485Y-83366666D02*
X59625294Y-83699999D01*
X60101485Y-83938094D02*
X59101485Y-83938094D01*
X59101485Y-83938094D02*
X59101485Y-83557142D01*
X59101485Y-83557142D02*
X59149104Y-83461904D01*
X59149104Y-83461904D02*
X59196723Y-83414285D01*
X59196723Y-83414285D02*
X59291961Y-83366666D01*
X59291961Y-83366666D02*
X59434818Y-83366666D01*
X59434818Y-83366666D02*
X59530056Y-83414285D01*
X59530056Y-83414285D02*
X59577675Y-83461904D01*
X59577675Y-83461904D02*
X59625294Y-83557142D01*
X59625294Y-83557142D02*
X59625294Y-83938094D01*
X59434818Y-82509523D02*
X60101485Y-82509523D01*
X59053866Y-82747618D02*
X59768151Y-82985713D01*
X59768151Y-82985713D02*
X59768151Y-82366666D01*
X72477333Y-53868819D02*
X72144000Y-53392628D01*
X71905905Y-53868819D02*
X71905905Y-52868819D01*
X71905905Y-52868819D02*
X72286857Y-52868819D01*
X72286857Y-52868819D02*
X72382095Y-52916438D01*
X72382095Y-52916438D02*
X72429714Y-52964057D01*
X72429714Y-52964057D02*
X72477333Y-53059295D01*
X72477333Y-53059295D02*
X72477333Y-53202152D01*
X72477333Y-53202152D02*
X72429714Y-53297390D01*
X72429714Y-53297390D02*
X72382095Y-53345009D01*
X72382095Y-53345009D02*
X72286857Y-53392628D01*
X72286857Y-53392628D02*
X71905905Y-53392628D01*
X73334476Y-52868819D02*
X73144000Y-52868819D01*
X73144000Y-52868819D02*
X73048762Y-52916438D01*
X73048762Y-52916438D02*
X73001143Y-52964057D01*
X73001143Y-52964057D02*
X72905905Y-53106914D01*
X72905905Y-53106914D02*
X72858286Y-53297390D01*
X72858286Y-53297390D02*
X72858286Y-53678342D01*
X72858286Y-53678342D02*
X72905905Y-53773580D01*
X72905905Y-53773580D02*
X72953524Y-53821200D01*
X72953524Y-53821200D02*
X73048762Y-53868819D01*
X73048762Y-53868819D02*
X73239238Y-53868819D01*
X73239238Y-53868819D02*
X73334476Y-53821200D01*
X73334476Y-53821200D02*
X73382095Y-53773580D01*
X73382095Y-53773580D02*
X73429714Y-53678342D01*
X73429714Y-53678342D02*
X73429714Y-53440247D01*
X73429714Y-53440247D02*
X73382095Y-53345009D01*
X73382095Y-53345009D02*
X73334476Y-53297390D01*
X73334476Y-53297390D02*
X73239238Y-53249771D01*
X73239238Y-53249771D02*
X73048762Y-53249771D01*
X73048762Y-53249771D02*
X72953524Y-53297390D01*
X72953524Y-53297390D02*
X72905905Y-53345009D01*
X72905905Y-53345009D02*
X72858286Y-53440247D01*
X65668151Y-83366666D02*
X65191960Y-83699999D01*
X65668151Y-83938094D02*
X64668151Y-83938094D01*
X64668151Y-83938094D02*
X64668151Y-83557142D01*
X64668151Y-83557142D02*
X64715770Y-83461904D01*
X64715770Y-83461904D02*
X64763389Y-83414285D01*
X64763389Y-83414285D02*
X64858627Y-83366666D01*
X64858627Y-83366666D02*
X65001484Y-83366666D01*
X65001484Y-83366666D02*
X65096722Y-83414285D01*
X65096722Y-83414285D02*
X65144341Y-83461904D01*
X65144341Y-83461904D02*
X65191960Y-83557142D01*
X65191960Y-83557142D02*
X65191960Y-83938094D01*
X64668151Y-83033332D02*
X64668151Y-82414285D01*
X64668151Y-82414285D02*
X65049103Y-82747618D01*
X65049103Y-82747618D02*
X65049103Y-82604761D01*
X65049103Y-82604761D02*
X65096722Y-82509523D01*
X65096722Y-82509523D02*
X65144341Y-82461904D01*
X65144341Y-82461904D02*
X65239579Y-82414285D01*
X65239579Y-82414285D02*
X65477674Y-82414285D01*
X65477674Y-82414285D02*
X65572912Y-82461904D01*
X65572912Y-82461904D02*
X65620532Y-82509523D01*
X65620532Y-82509523D02*
X65668151Y-82604761D01*
X65668151Y-82604761D02*
X65668151Y-82890475D01*
X65668151Y-82890475D02*
X65620532Y-82985713D01*
X65620532Y-82985713D02*
X65572912Y-83033332D01*
X139890057Y-72460238D02*
X139842438Y-72555476D01*
X139842438Y-72555476D02*
X139747200Y-72650714D01*
X139747200Y-72650714D02*
X139604342Y-72793571D01*
X139604342Y-72793571D02*
X139556723Y-72888809D01*
X139556723Y-72888809D02*
X139556723Y-72984047D01*
X139794819Y-72936428D02*
X139747200Y-73031666D01*
X139747200Y-73031666D02*
X139651961Y-73126904D01*
X139651961Y-73126904D02*
X139461485Y-73174523D01*
X139461485Y-73174523D02*
X139128152Y-73174523D01*
X139128152Y-73174523D02*
X138937676Y-73126904D01*
X138937676Y-73126904D02*
X138842438Y-73031666D01*
X138842438Y-73031666D02*
X138794819Y-72936428D01*
X138794819Y-72936428D02*
X138794819Y-72745952D01*
X138794819Y-72745952D02*
X138842438Y-72650714D01*
X138842438Y-72650714D02*
X138937676Y-72555476D01*
X138937676Y-72555476D02*
X139128152Y-72507857D01*
X139128152Y-72507857D02*
X139461485Y-72507857D01*
X139461485Y-72507857D02*
X139651961Y-72555476D01*
X139651961Y-72555476D02*
X139747200Y-72650714D01*
X139747200Y-72650714D02*
X139794819Y-72745952D01*
X139794819Y-72745952D02*
X139794819Y-72936428D01*
X139128152Y-71650714D02*
X139794819Y-71650714D01*
X138747200Y-71888809D02*
X139461485Y-72126904D01*
X139461485Y-72126904D02*
X139461485Y-71507857D01*
X71066666Y-130204819D02*
X71066666Y-130919104D01*
X71066666Y-130919104D02*
X71019047Y-131061961D01*
X71019047Y-131061961D02*
X70923809Y-131157200D01*
X70923809Y-131157200D02*
X70780952Y-131204819D01*
X70780952Y-131204819D02*
X70685714Y-131204819D01*
X72066666Y-131204819D02*
X71495238Y-131204819D01*
X71780952Y-131204819D02*
X71780952Y-130204819D01*
X71780952Y-130204819D02*
X71685714Y-130347676D01*
X71685714Y-130347676D02*
X71590476Y-130442914D01*
X71590476Y-130442914D02*
X71495238Y-130490533D01*
X117833333Y-80454819D02*
X117500000Y-79978628D01*
X117261905Y-80454819D02*
X117261905Y-79454819D01*
X117261905Y-79454819D02*
X117642857Y-79454819D01*
X117642857Y-79454819D02*
X117738095Y-79502438D01*
X117738095Y-79502438D02*
X117785714Y-79550057D01*
X117785714Y-79550057D02*
X117833333Y-79645295D01*
X117833333Y-79645295D02*
X117833333Y-79788152D01*
X117833333Y-79788152D02*
X117785714Y-79883390D01*
X117785714Y-79883390D02*
X117738095Y-79931009D01*
X117738095Y-79931009D02*
X117642857Y-79978628D01*
X117642857Y-79978628D02*
X117261905Y-79978628D01*
X118404762Y-79883390D02*
X118309524Y-79835771D01*
X118309524Y-79835771D02*
X118261905Y-79788152D01*
X118261905Y-79788152D02*
X118214286Y-79692914D01*
X118214286Y-79692914D02*
X118214286Y-79645295D01*
X118214286Y-79645295D02*
X118261905Y-79550057D01*
X118261905Y-79550057D02*
X118309524Y-79502438D01*
X118309524Y-79502438D02*
X118404762Y-79454819D01*
X118404762Y-79454819D02*
X118595238Y-79454819D01*
X118595238Y-79454819D02*
X118690476Y-79502438D01*
X118690476Y-79502438D02*
X118738095Y-79550057D01*
X118738095Y-79550057D02*
X118785714Y-79645295D01*
X118785714Y-79645295D02*
X118785714Y-79692914D01*
X118785714Y-79692914D02*
X118738095Y-79788152D01*
X118738095Y-79788152D02*
X118690476Y-79835771D01*
X118690476Y-79835771D02*
X118595238Y-79883390D01*
X118595238Y-79883390D02*
X118404762Y-79883390D01*
X118404762Y-79883390D02*
X118309524Y-79931009D01*
X118309524Y-79931009D02*
X118261905Y-79978628D01*
X118261905Y-79978628D02*
X118214286Y-80073866D01*
X118214286Y-80073866D02*
X118214286Y-80264342D01*
X118214286Y-80264342D02*
X118261905Y-80359580D01*
X118261905Y-80359580D02*
X118309524Y-80407200D01*
X118309524Y-80407200D02*
X118404762Y-80454819D01*
X118404762Y-80454819D02*
X118595238Y-80454819D01*
X118595238Y-80454819D02*
X118690476Y-80407200D01*
X118690476Y-80407200D02*
X118738095Y-80359580D01*
X118738095Y-80359580D02*
X118785714Y-80264342D01*
X118785714Y-80264342D02*
X118785714Y-80073866D01*
X118785714Y-80073866D02*
X118738095Y-79978628D01*
X118738095Y-79978628D02*
X118690476Y-79931009D01*
X118690476Y-79931009D02*
X118595238Y-79883390D01*
X132190476Y-51454819D02*
X132190476Y-52169104D01*
X132190476Y-52169104D02*
X132142857Y-52311961D01*
X132142857Y-52311961D02*
X132047619Y-52407200D01*
X132047619Y-52407200D02*
X131904762Y-52454819D01*
X131904762Y-52454819D02*
X131809524Y-52454819D01*
X133190476Y-52454819D02*
X132619048Y-52454819D01*
X132904762Y-52454819D02*
X132904762Y-51454819D01*
X132904762Y-51454819D02*
X132809524Y-51597676D01*
X132809524Y-51597676D02*
X132714286Y-51692914D01*
X132714286Y-51692914D02*
X132619048Y-51740533D01*
X133809524Y-51454819D02*
X133904762Y-51454819D01*
X133904762Y-51454819D02*
X134000000Y-51502438D01*
X134000000Y-51502438D02*
X134047619Y-51550057D01*
X134047619Y-51550057D02*
X134095238Y-51645295D01*
X134095238Y-51645295D02*
X134142857Y-51835771D01*
X134142857Y-51835771D02*
X134142857Y-52073866D01*
X134142857Y-52073866D02*
X134095238Y-52264342D01*
X134095238Y-52264342D02*
X134047619Y-52359580D01*
X134047619Y-52359580D02*
X134000000Y-52407200D01*
X134000000Y-52407200D02*
X133904762Y-52454819D01*
X133904762Y-52454819D02*
X133809524Y-52454819D01*
X133809524Y-52454819D02*
X133714286Y-52407200D01*
X133714286Y-52407200D02*
X133666667Y-52359580D01*
X133666667Y-52359580D02*
X133619048Y-52264342D01*
X133619048Y-52264342D02*
X133571429Y-52073866D01*
X133571429Y-52073866D02*
X133571429Y-51835771D01*
X133571429Y-51835771D02*
X133619048Y-51645295D01*
X133619048Y-51645295D02*
X133666667Y-51550057D01*
X133666667Y-51550057D02*
X133714286Y-51502438D01*
X133714286Y-51502438D02*
X133809524Y-51454819D01*
X76920057Y-73635238D02*
X76872438Y-73730476D01*
X76872438Y-73730476D02*
X76777200Y-73825714D01*
X76777200Y-73825714D02*
X76634342Y-73968571D01*
X76634342Y-73968571D02*
X76586723Y-74063809D01*
X76586723Y-74063809D02*
X76586723Y-74159047D01*
X76824819Y-74111428D02*
X76777200Y-74206666D01*
X76777200Y-74206666D02*
X76681961Y-74301904D01*
X76681961Y-74301904D02*
X76491485Y-74349523D01*
X76491485Y-74349523D02*
X76158152Y-74349523D01*
X76158152Y-74349523D02*
X75967676Y-74301904D01*
X75967676Y-74301904D02*
X75872438Y-74206666D01*
X75872438Y-74206666D02*
X75824819Y-74111428D01*
X75824819Y-74111428D02*
X75824819Y-73920952D01*
X75824819Y-73920952D02*
X75872438Y-73825714D01*
X75872438Y-73825714D02*
X75967676Y-73730476D01*
X75967676Y-73730476D02*
X76158152Y-73682857D01*
X76158152Y-73682857D02*
X76491485Y-73682857D01*
X76491485Y-73682857D02*
X76681961Y-73730476D01*
X76681961Y-73730476D02*
X76777200Y-73825714D01*
X76777200Y-73825714D02*
X76824819Y-73920952D01*
X76824819Y-73920952D02*
X76824819Y-74111428D01*
X75920057Y-73301904D02*
X75872438Y-73254285D01*
X75872438Y-73254285D02*
X75824819Y-73159047D01*
X75824819Y-73159047D02*
X75824819Y-72920952D01*
X75824819Y-72920952D02*
X75872438Y-72825714D01*
X75872438Y-72825714D02*
X75920057Y-72778095D01*
X75920057Y-72778095D02*
X76015295Y-72730476D01*
X76015295Y-72730476D02*
X76110533Y-72730476D01*
X76110533Y-72730476D02*
X76253390Y-72778095D01*
X76253390Y-72778095D02*
X76824819Y-73349523D01*
X76824819Y-73349523D02*
X76824819Y-72730476D01*
X133374819Y-114042857D02*
X132898628Y-114376190D01*
X133374819Y-114614285D02*
X132374819Y-114614285D01*
X132374819Y-114614285D02*
X132374819Y-114233333D01*
X132374819Y-114233333D02*
X132422438Y-114138095D01*
X132422438Y-114138095D02*
X132470057Y-114090476D01*
X132470057Y-114090476D02*
X132565295Y-114042857D01*
X132565295Y-114042857D02*
X132708152Y-114042857D01*
X132708152Y-114042857D02*
X132803390Y-114090476D01*
X132803390Y-114090476D02*
X132851009Y-114138095D01*
X132851009Y-114138095D02*
X132898628Y-114233333D01*
X132898628Y-114233333D02*
X132898628Y-114614285D01*
X133374819Y-113090476D02*
X133374819Y-113661904D01*
X133374819Y-113376190D02*
X132374819Y-113376190D01*
X132374819Y-113376190D02*
X132517676Y-113471428D01*
X132517676Y-113471428D02*
X132612914Y-113566666D01*
X132612914Y-113566666D02*
X132660533Y-113661904D01*
X133374819Y-112138095D02*
X133374819Y-112709523D01*
X133374819Y-112423809D02*
X132374819Y-112423809D01*
X132374819Y-112423809D02*
X132517676Y-112519047D01*
X132517676Y-112519047D02*
X132612914Y-112614285D01*
X132612914Y-112614285D02*
X132660533Y-112709523D01*
X140310057Y-118685238D02*
X140262438Y-118780476D01*
X140262438Y-118780476D02*
X140167200Y-118875714D01*
X140167200Y-118875714D02*
X140024342Y-119018571D01*
X140024342Y-119018571D02*
X139976723Y-119113809D01*
X139976723Y-119113809D02*
X139976723Y-119209047D01*
X140214819Y-119161428D02*
X140167200Y-119256666D01*
X140167200Y-119256666D02*
X140071961Y-119351904D01*
X140071961Y-119351904D02*
X139881485Y-119399523D01*
X139881485Y-119399523D02*
X139548152Y-119399523D01*
X139548152Y-119399523D02*
X139357676Y-119351904D01*
X139357676Y-119351904D02*
X139262438Y-119256666D01*
X139262438Y-119256666D02*
X139214819Y-119161428D01*
X139214819Y-119161428D02*
X139214819Y-118970952D01*
X139214819Y-118970952D02*
X139262438Y-118875714D01*
X139262438Y-118875714D02*
X139357676Y-118780476D01*
X139357676Y-118780476D02*
X139548152Y-118732857D01*
X139548152Y-118732857D02*
X139881485Y-118732857D01*
X139881485Y-118732857D02*
X140071961Y-118780476D01*
X140071961Y-118780476D02*
X140167200Y-118875714D01*
X140167200Y-118875714D02*
X140214819Y-118970952D01*
X140214819Y-118970952D02*
X140214819Y-119161428D01*
X139214819Y-117828095D02*
X139214819Y-118304285D01*
X139214819Y-118304285D02*
X139691009Y-118351904D01*
X139691009Y-118351904D02*
X139643390Y-118304285D01*
X139643390Y-118304285D02*
X139595771Y-118209047D01*
X139595771Y-118209047D02*
X139595771Y-117970952D01*
X139595771Y-117970952D02*
X139643390Y-117875714D01*
X139643390Y-117875714D02*
X139691009Y-117828095D01*
X139691009Y-117828095D02*
X139786247Y-117780476D01*
X139786247Y-117780476D02*
X140024342Y-117780476D01*
X140024342Y-117780476D02*
X140119580Y-117828095D01*
X140119580Y-117828095D02*
X140167200Y-117875714D01*
X140167200Y-117875714D02*
X140214819Y-117970952D01*
X140214819Y-117970952D02*
X140214819Y-118209047D01*
X140214819Y-118209047D02*
X140167200Y-118304285D01*
X140167200Y-118304285D02*
X140119580Y-118351904D01*
X77454819Y-83166666D02*
X76978628Y-83499999D01*
X77454819Y-83738094D02*
X76454819Y-83738094D01*
X76454819Y-83738094D02*
X76454819Y-83357142D01*
X76454819Y-83357142D02*
X76502438Y-83261904D01*
X76502438Y-83261904D02*
X76550057Y-83214285D01*
X76550057Y-83214285D02*
X76645295Y-83166666D01*
X76645295Y-83166666D02*
X76788152Y-83166666D01*
X76788152Y-83166666D02*
X76883390Y-83214285D01*
X76883390Y-83214285D02*
X76931009Y-83261904D01*
X76931009Y-83261904D02*
X76978628Y-83357142D01*
X76978628Y-83357142D02*
X76978628Y-83738094D01*
X76550057Y-82785713D02*
X76502438Y-82738094D01*
X76502438Y-82738094D02*
X76454819Y-82642856D01*
X76454819Y-82642856D02*
X76454819Y-82404761D01*
X76454819Y-82404761D02*
X76502438Y-82309523D01*
X76502438Y-82309523D02*
X76550057Y-82261904D01*
X76550057Y-82261904D02*
X76645295Y-82214285D01*
X76645295Y-82214285D02*
X76740533Y-82214285D01*
X76740533Y-82214285D02*
X76883390Y-82261904D01*
X76883390Y-82261904D02*
X77454819Y-82833332D01*
X77454819Y-82833332D02*
X77454819Y-82214285D01*
X83454819Y-87666666D02*
X82978628Y-87999999D01*
X83454819Y-88238094D02*
X82454819Y-88238094D01*
X82454819Y-88238094D02*
X82454819Y-87857142D01*
X82454819Y-87857142D02*
X82502438Y-87761904D01*
X82502438Y-87761904D02*
X82550057Y-87714285D01*
X82550057Y-87714285D02*
X82645295Y-87666666D01*
X82645295Y-87666666D02*
X82788152Y-87666666D01*
X82788152Y-87666666D02*
X82883390Y-87714285D01*
X82883390Y-87714285D02*
X82931009Y-87761904D01*
X82931009Y-87761904D02*
X82978628Y-87857142D01*
X82978628Y-87857142D02*
X82978628Y-88238094D01*
X82454819Y-87333332D02*
X82454819Y-86666666D01*
X82454819Y-86666666D02*
X83454819Y-87095237D01*
X54556819Y-83366666D02*
X54080628Y-83699999D01*
X54556819Y-83938094D02*
X53556819Y-83938094D01*
X53556819Y-83938094D02*
X53556819Y-83557142D01*
X53556819Y-83557142D02*
X53604438Y-83461904D01*
X53604438Y-83461904D02*
X53652057Y-83414285D01*
X53652057Y-83414285D02*
X53747295Y-83366666D01*
X53747295Y-83366666D02*
X53890152Y-83366666D01*
X53890152Y-83366666D02*
X53985390Y-83414285D01*
X53985390Y-83414285D02*
X54033009Y-83461904D01*
X54033009Y-83461904D02*
X54080628Y-83557142D01*
X54080628Y-83557142D02*
X54080628Y-83938094D01*
X54556819Y-82414285D02*
X54556819Y-82985713D01*
X54556819Y-82699999D02*
X53556819Y-82699999D01*
X53556819Y-82699999D02*
X53699676Y-82795237D01*
X53699676Y-82795237D02*
X53794914Y-82890475D01*
X53794914Y-82890475D02*
X53842533Y-82985713D01*
X147774819Y-99992857D02*
X147298628Y-100326190D01*
X147774819Y-100564285D02*
X146774819Y-100564285D01*
X146774819Y-100564285D02*
X146774819Y-100183333D01*
X146774819Y-100183333D02*
X146822438Y-100088095D01*
X146822438Y-100088095D02*
X146870057Y-100040476D01*
X146870057Y-100040476D02*
X146965295Y-99992857D01*
X146965295Y-99992857D02*
X147108152Y-99992857D01*
X147108152Y-99992857D02*
X147203390Y-100040476D01*
X147203390Y-100040476D02*
X147251009Y-100088095D01*
X147251009Y-100088095D02*
X147298628Y-100183333D01*
X147298628Y-100183333D02*
X147298628Y-100564285D01*
X147774819Y-99040476D02*
X147774819Y-99611904D01*
X147774819Y-99326190D02*
X146774819Y-99326190D01*
X146774819Y-99326190D02*
X146917676Y-99421428D01*
X146917676Y-99421428D02*
X147012914Y-99516666D01*
X147012914Y-99516666D02*
X147060533Y-99611904D01*
X146774819Y-98183333D02*
X146774819Y-98373809D01*
X146774819Y-98373809D02*
X146822438Y-98469047D01*
X146822438Y-98469047D02*
X146870057Y-98516666D01*
X146870057Y-98516666D02*
X147012914Y-98611904D01*
X147012914Y-98611904D02*
X147203390Y-98659523D01*
X147203390Y-98659523D02*
X147584342Y-98659523D01*
X147584342Y-98659523D02*
X147679580Y-98611904D01*
X147679580Y-98611904D02*
X147727200Y-98564285D01*
X147727200Y-98564285D02*
X147774819Y-98469047D01*
X147774819Y-98469047D02*
X147774819Y-98278571D01*
X147774819Y-98278571D02*
X147727200Y-98183333D01*
X147727200Y-98183333D02*
X147679580Y-98135714D01*
X147679580Y-98135714D02*
X147584342Y-98088095D01*
X147584342Y-98088095D02*
X147346247Y-98088095D01*
X147346247Y-98088095D02*
X147251009Y-98135714D01*
X147251009Y-98135714D02*
X147203390Y-98183333D01*
X147203390Y-98183333D02*
X147155771Y-98278571D01*
X147155771Y-98278571D02*
X147155771Y-98469047D01*
X147155771Y-98469047D02*
X147203390Y-98564285D01*
X147203390Y-98564285D02*
X147251009Y-98611904D01*
X147251009Y-98611904D02*
X147346247Y-98659523D01*
X58674095Y-51508819D02*
X58674095Y-50508819D01*
X58674095Y-50985009D02*
X59245523Y-50985009D01*
X59245523Y-51508819D02*
X59245523Y-50508819D01*
X60245523Y-51508819D02*
X59674095Y-51508819D01*
X59959809Y-51508819D02*
X59959809Y-50508819D01*
X59959809Y-50508819D02*
X59864571Y-50651676D01*
X59864571Y-50651676D02*
X59769333Y-50746914D01*
X59769333Y-50746914D02*
X59674095Y-50794533D01*
X110005905Y-94434819D02*
X110005905Y-93434819D01*
X110005905Y-93434819D02*
X110244000Y-93434819D01*
X110244000Y-93434819D02*
X110386857Y-93482438D01*
X110386857Y-93482438D02*
X110482095Y-93577676D01*
X110482095Y-93577676D02*
X110529714Y-93672914D01*
X110529714Y-93672914D02*
X110577333Y-93863390D01*
X110577333Y-93863390D02*
X110577333Y-94006247D01*
X110577333Y-94006247D02*
X110529714Y-94196723D01*
X110529714Y-94196723D02*
X110482095Y-94291961D01*
X110482095Y-94291961D02*
X110386857Y-94387200D01*
X110386857Y-94387200D02*
X110244000Y-94434819D01*
X110244000Y-94434819D02*
X110005905Y-94434819D01*
X110958286Y-93530057D02*
X111005905Y-93482438D01*
X111005905Y-93482438D02*
X111101143Y-93434819D01*
X111101143Y-93434819D02*
X111339238Y-93434819D01*
X111339238Y-93434819D02*
X111434476Y-93482438D01*
X111434476Y-93482438D02*
X111482095Y-93530057D01*
X111482095Y-93530057D02*
X111529714Y-93625295D01*
X111529714Y-93625295D02*
X111529714Y-93720533D01*
X111529714Y-93720533D02*
X111482095Y-93863390D01*
X111482095Y-93863390D02*
X110910667Y-94434819D01*
X110910667Y-94434819D02*
X111529714Y-94434819D01*
X97788095Y-89254819D02*
X97788095Y-88254819D01*
X98359523Y-89254819D02*
X97930952Y-88683390D01*
X98359523Y-88254819D02*
X97788095Y-88826247D01*
X71238095Y-68806819D02*
X71809523Y-68806819D01*
X71523809Y-69806819D02*
X71523809Y-68806819D01*
X72142857Y-69806819D02*
X72142857Y-68806819D01*
X72142857Y-68806819D02*
X72523809Y-68806819D01*
X72523809Y-68806819D02*
X72619047Y-68854438D01*
X72619047Y-68854438D02*
X72666666Y-68902057D01*
X72666666Y-68902057D02*
X72714285Y-68997295D01*
X72714285Y-68997295D02*
X72714285Y-69140152D01*
X72714285Y-69140152D02*
X72666666Y-69235390D01*
X72666666Y-69235390D02*
X72619047Y-69283009D01*
X72619047Y-69283009D02*
X72523809Y-69330628D01*
X72523809Y-69330628D02*
X72142857Y-69330628D01*
X73571428Y-69140152D02*
X73571428Y-69806819D01*
X73333333Y-68759200D02*
X73095238Y-69473485D01*
X73095238Y-69473485D02*
X73714285Y-69473485D01*
X109666666Y-50528069D02*
X109666666Y-51242354D01*
X109666666Y-51242354D02*
X109619047Y-51385211D01*
X109619047Y-51385211D02*
X109523809Y-51480450D01*
X109523809Y-51480450D02*
X109380952Y-51528069D01*
X109380952Y-51528069D02*
X109285714Y-51528069D01*
X110190476Y-51528069D02*
X110380952Y-51528069D01*
X110380952Y-51528069D02*
X110476190Y-51480450D01*
X110476190Y-51480450D02*
X110523809Y-51432830D01*
X110523809Y-51432830D02*
X110619047Y-51289973D01*
X110619047Y-51289973D02*
X110666666Y-51099497D01*
X110666666Y-51099497D02*
X110666666Y-50718545D01*
X110666666Y-50718545D02*
X110619047Y-50623307D01*
X110619047Y-50623307D02*
X110571428Y-50575688D01*
X110571428Y-50575688D02*
X110476190Y-50528069D01*
X110476190Y-50528069D02*
X110285714Y-50528069D01*
X110285714Y-50528069D02*
X110190476Y-50575688D01*
X110190476Y-50575688D02*
X110142857Y-50623307D01*
X110142857Y-50623307D02*
X110095238Y-50718545D01*
X110095238Y-50718545D02*
X110095238Y-50956640D01*
X110095238Y-50956640D02*
X110142857Y-51051878D01*
X110142857Y-51051878D02*
X110190476Y-51099497D01*
X110190476Y-51099497D02*
X110285714Y-51147116D01*
X110285714Y-51147116D02*
X110476190Y-51147116D01*
X110476190Y-51147116D02*
X110571428Y-51099497D01*
X110571428Y-51099497D02*
X110619047Y-51051878D01*
X110619047Y-51051878D02*
X110666666Y-50956640D01*
X106630057Y-102085238D02*
X106582438Y-102180476D01*
X106582438Y-102180476D02*
X106487200Y-102275714D01*
X106487200Y-102275714D02*
X106344342Y-102418571D01*
X106344342Y-102418571D02*
X106296723Y-102513809D01*
X106296723Y-102513809D02*
X106296723Y-102609047D01*
X106534819Y-102561428D02*
X106487200Y-102656666D01*
X106487200Y-102656666D02*
X106391961Y-102751904D01*
X106391961Y-102751904D02*
X106201485Y-102799523D01*
X106201485Y-102799523D02*
X105868152Y-102799523D01*
X105868152Y-102799523D02*
X105677676Y-102751904D01*
X105677676Y-102751904D02*
X105582438Y-102656666D01*
X105582438Y-102656666D02*
X105534819Y-102561428D01*
X105534819Y-102561428D02*
X105534819Y-102370952D01*
X105534819Y-102370952D02*
X105582438Y-102275714D01*
X105582438Y-102275714D02*
X105677676Y-102180476D01*
X105677676Y-102180476D02*
X105868152Y-102132857D01*
X105868152Y-102132857D02*
X106201485Y-102132857D01*
X106201485Y-102132857D02*
X106391961Y-102180476D01*
X106391961Y-102180476D02*
X106487200Y-102275714D01*
X106487200Y-102275714D02*
X106534819Y-102370952D01*
X106534819Y-102370952D02*
X106534819Y-102561428D01*
X105534819Y-101799523D02*
X105534819Y-101180476D01*
X105534819Y-101180476D02*
X105915771Y-101513809D01*
X105915771Y-101513809D02*
X105915771Y-101370952D01*
X105915771Y-101370952D02*
X105963390Y-101275714D01*
X105963390Y-101275714D02*
X106011009Y-101228095D01*
X106011009Y-101228095D02*
X106106247Y-101180476D01*
X106106247Y-101180476D02*
X106344342Y-101180476D01*
X106344342Y-101180476D02*
X106439580Y-101228095D01*
X106439580Y-101228095D02*
X106487200Y-101275714D01*
X106487200Y-101275714D02*
X106534819Y-101370952D01*
X106534819Y-101370952D02*
X106534819Y-101656666D01*
X106534819Y-101656666D02*
X106487200Y-101751904D01*
X106487200Y-101751904D02*
X106439580Y-101799523D01*
X117574819Y-92042857D02*
X117098628Y-92376190D01*
X117574819Y-92614285D02*
X116574819Y-92614285D01*
X116574819Y-92614285D02*
X116574819Y-92233333D01*
X116574819Y-92233333D02*
X116622438Y-92138095D01*
X116622438Y-92138095D02*
X116670057Y-92090476D01*
X116670057Y-92090476D02*
X116765295Y-92042857D01*
X116765295Y-92042857D02*
X116908152Y-92042857D01*
X116908152Y-92042857D02*
X117003390Y-92090476D01*
X117003390Y-92090476D02*
X117051009Y-92138095D01*
X117051009Y-92138095D02*
X117098628Y-92233333D01*
X117098628Y-92233333D02*
X117098628Y-92614285D01*
X117574819Y-91090476D02*
X117574819Y-91661904D01*
X117574819Y-91376190D02*
X116574819Y-91376190D01*
X116574819Y-91376190D02*
X116717676Y-91471428D01*
X116717676Y-91471428D02*
X116812914Y-91566666D01*
X116812914Y-91566666D02*
X116860533Y-91661904D01*
X117574819Y-90614285D02*
X117574819Y-90423809D01*
X117574819Y-90423809D02*
X117527200Y-90328571D01*
X117527200Y-90328571D02*
X117479580Y-90280952D01*
X117479580Y-90280952D02*
X117336723Y-90185714D01*
X117336723Y-90185714D02*
X117146247Y-90138095D01*
X117146247Y-90138095D02*
X116765295Y-90138095D01*
X116765295Y-90138095D02*
X116670057Y-90185714D01*
X116670057Y-90185714D02*
X116622438Y-90233333D01*
X116622438Y-90233333D02*
X116574819Y-90328571D01*
X116574819Y-90328571D02*
X116574819Y-90519047D01*
X116574819Y-90519047D02*
X116622438Y-90614285D01*
X116622438Y-90614285D02*
X116670057Y-90661904D01*
X116670057Y-90661904D02*
X116765295Y-90709523D01*
X116765295Y-90709523D02*
X117003390Y-90709523D01*
X117003390Y-90709523D02*
X117098628Y-90661904D01*
X117098628Y-90661904D02*
X117146247Y-90614285D01*
X117146247Y-90614285D02*
X117193866Y-90519047D01*
X117193866Y-90519047D02*
X117193866Y-90328571D01*
X117193866Y-90328571D02*
X117146247Y-90233333D01*
X117146247Y-90233333D02*
X117098628Y-90185714D01*
X117098628Y-90185714D02*
X117003390Y-90138095D01*
X122859580Y-97642857D02*
X122907200Y-97690476D01*
X122907200Y-97690476D02*
X122954819Y-97833333D01*
X122954819Y-97833333D02*
X122954819Y-97928571D01*
X122954819Y-97928571D02*
X122907200Y-98071428D01*
X122907200Y-98071428D02*
X122811961Y-98166666D01*
X122811961Y-98166666D02*
X122716723Y-98214285D01*
X122716723Y-98214285D02*
X122526247Y-98261904D01*
X122526247Y-98261904D02*
X122383390Y-98261904D01*
X122383390Y-98261904D02*
X122192914Y-98214285D01*
X122192914Y-98214285D02*
X122097676Y-98166666D01*
X122097676Y-98166666D02*
X122002438Y-98071428D01*
X122002438Y-98071428D02*
X121954819Y-97928571D01*
X121954819Y-97928571D02*
X121954819Y-97833333D01*
X121954819Y-97833333D02*
X122002438Y-97690476D01*
X122002438Y-97690476D02*
X122050057Y-97642857D01*
X122954819Y-96690476D02*
X122954819Y-97261904D01*
X122954819Y-96976190D02*
X121954819Y-96976190D01*
X121954819Y-96976190D02*
X122097676Y-97071428D01*
X122097676Y-97071428D02*
X122192914Y-97166666D01*
X122192914Y-97166666D02*
X122240533Y-97261904D01*
X121954819Y-96071428D02*
X121954819Y-95976190D01*
X121954819Y-95976190D02*
X122002438Y-95880952D01*
X122002438Y-95880952D02*
X122050057Y-95833333D01*
X122050057Y-95833333D02*
X122145295Y-95785714D01*
X122145295Y-95785714D02*
X122335771Y-95738095D01*
X122335771Y-95738095D02*
X122573866Y-95738095D01*
X122573866Y-95738095D02*
X122764342Y-95785714D01*
X122764342Y-95785714D02*
X122859580Y-95833333D01*
X122859580Y-95833333D02*
X122907200Y-95880952D01*
X122907200Y-95880952D02*
X122954819Y-95976190D01*
X122954819Y-95976190D02*
X122954819Y-96071428D01*
X122954819Y-96071428D02*
X122907200Y-96166666D01*
X122907200Y-96166666D02*
X122859580Y-96214285D01*
X122859580Y-96214285D02*
X122764342Y-96261904D01*
X122764342Y-96261904D02*
X122573866Y-96309523D01*
X122573866Y-96309523D02*
X122335771Y-96309523D01*
X122335771Y-96309523D02*
X122145295Y-96261904D01*
X122145295Y-96261904D02*
X122050057Y-96214285D01*
X122050057Y-96214285D02*
X122002438Y-96166666D01*
X122002438Y-96166666D02*
X121954819Y-96071428D01*
X151214286Y-90806819D02*
X151785714Y-90806819D01*
X151500000Y-91806819D02*
X151500000Y-90806819D01*
X152119048Y-91806819D02*
X152119048Y-90806819D01*
X152119048Y-90806819D02*
X152500000Y-90806819D01*
X152500000Y-90806819D02*
X152595238Y-90854438D01*
X152595238Y-90854438D02*
X152642857Y-90902057D01*
X152642857Y-90902057D02*
X152690476Y-90997295D01*
X152690476Y-90997295D02*
X152690476Y-91140152D01*
X152690476Y-91140152D02*
X152642857Y-91235390D01*
X152642857Y-91235390D02*
X152595238Y-91283009D01*
X152595238Y-91283009D02*
X152500000Y-91330628D01*
X152500000Y-91330628D02*
X152119048Y-91330628D01*
X153785714Y-91902057D02*
X153690476Y-91854438D01*
X153690476Y-91854438D02*
X153595238Y-91759200D01*
X153595238Y-91759200D02*
X153452381Y-91616342D01*
X153452381Y-91616342D02*
X153357143Y-91568723D01*
X153357143Y-91568723D02*
X153261905Y-91568723D01*
X153309524Y-91806819D02*
X153214286Y-91759200D01*
X153214286Y-91759200D02*
X153119048Y-91663961D01*
X153119048Y-91663961D02*
X153071429Y-91473485D01*
X153071429Y-91473485D02*
X153071429Y-91140152D01*
X153071429Y-91140152D02*
X153119048Y-90949676D01*
X153119048Y-90949676D02*
X153214286Y-90854438D01*
X153214286Y-90854438D02*
X153309524Y-90806819D01*
X153309524Y-90806819D02*
X153500000Y-90806819D01*
X153500000Y-90806819D02*
X153595238Y-90854438D01*
X153595238Y-90854438D02*
X153690476Y-90949676D01*
X153690476Y-90949676D02*
X153738095Y-91140152D01*
X153738095Y-91140152D02*
X153738095Y-91473485D01*
X153738095Y-91473485D02*
X153690476Y-91663961D01*
X153690476Y-91663961D02*
X153595238Y-91759200D01*
X153595238Y-91759200D02*
X153500000Y-91806819D01*
X153500000Y-91806819D02*
X153309524Y-91806819D01*
X154119048Y-90902057D02*
X154166667Y-90854438D01*
X154166667Y-90854438D02*
X154261905Y-90806819D01*
X154261905Y-90806819D02*
X154500000Y-90806819D01*
X154500000Y-90806819D02*
X154595238Y-90854438D01*
X154595238Y-90854438D02*
X154642857Y-90902057D01*
X154642857Y-90902057D02*
X154690476Y-90997295D01*
X154690476Y-90997295D02*
X154690476Y-91092533D01*
X154690476Y-91092533D02*
X154642857Y-91235390D01*
X154642857Y-91235390D02*
X154071429Y-91806819D01*
X154071429Y-91806819D02*
X154690476Y-91806819D01*
X118714285Y-68771104D02*
X119190475Y-68771104D01*
X118619047Y-69056819D02*
X118952380Y-68056819D01*
X118952380Y-68056819D02*
X119285713Y-69056819D01*
X119619047Y-68390152D02*
X119619047Y-69056819D01*
X119619047Y-68485390D02*
X119666666Y-68437771D01*
X119666666Y-68437771D02*
X119761904Y-68390152D01*
X119761904Y-68390152D02*
X119904761Y-68390152D01*
X119904761Y-68390152D02*
X119999999Y-68437771D01*
X119999999Y-68437771D02*
X120047618Y-68533009D01*
X120047618Y-68533009D02*
X120047618Y-69056819D01*
X120952380Y-69056819D02*
X120952380Y-68533009D01*
X120952380Y-68533009D02*
X120904761Y-68437771D01*
X120904761Y-68437771D02*
X120809523Y-68390152D01*
X120809523Y-68390152D02*
X120619047Y-68390152D01*
X120619047Y-68390152D02*
X120523809Y-68437771D01*
X120952380Y-69009200D02*
X120857142Y-69056819D01*
X120857142Y-69056819D02*
X120619047Y-69056819D01*
X120619047Y-69056819D02*
X120523809Y-69009200D01*
X120523809Y-69009200D02*
X120476190Y-68913961D01*
X120476190Y-68913961D02*
X120476190Y-68818723D01*
X120476190Y-68818723D02*
X120523809Y-68723485D01*
X120523809Y-68723485D02*
X120619047Y-68675866D01*
X120619047Y-68675866D02*
X120857142Y-68675866D01*
X120857142Y-68675866D02*
X120952380Y-68628247D01*
X121571428Y-69056819D02*
X121476190Y-69009200D01*
X121476190Y-69009200D02*
X121428571Y-68913961D01*
X121428571Y-68913961D02*
X121428571Y-68056819D01*
X122095238Y-69056819D02*
X122000000Y-69009200D01*
X122000000Y-69009200D02*
X121952381Y-68961580D01*
X121952381Y-68961580D02*
X121904762Y-68866342D01*
X121904762Y-68866342D02*
X121904762Y-68580628D01*
X121904762Y-68580628D02*
X121952381Y-68485390D01*
X121952381Y-68485390D02*
X122000000Y-68437771D01*
X122000000Y-68437771D02*
X122095238Y-68390152D01*
X122095238Y-68390152D02*
X122238095Y-68390152D01*
X122238095Y-68390152D02*
X122333333Y-68437771D01*
X122333333Y-68437771D02*
X122380952Y-68485390D01*
X122380952Y-68485390D02*
X122428571Y-68580628D01*
X122428571Y-68580628D02*
X122428571Y-68866342D01*
X122428571Y-68866342D02*
X122380952Y-68961580D01*
X122380952Y-68961580D02*
X122333333Y-69009200D01*
X122333333Y-69009200D02*
X122238095Y-69056819D01*
X122238095Y-69056819D02*
X122095238Y-69056819D01*
X123285714Y-68390152D02*
X123285714Y-69199676D01*
X123285714Y-69199676D02*
X123238095Y-69294914D01*
X123238095Y-69294914D02*
X123190476Y-69342533D01*
X123190476Y-69342533D02*
X123095238Y-69390152D01*
X123095238Y-69390152D02*
X122952381Y-69390152D01*
X122952381Y-69390152D02*
X122857143Y-69342533D01*
X123285714Y-69009200D02*
X123190476Y-69056819D01*
X123190476Y-69056819D02*
X123000000Y-69056819D01*
X123000000Y-69056819D02*
X122904762Y-69009200D01*
X122904762Y-69009200D02*
X122857143Y-68961580D01*
X122857143Y-68961580D02*
X122809524Y-68866342D01*
X122809524Y-68866342D02*
X122809524Y-68580628D01*
X122809524Y-68580628D02*
X122857143Y-68485390D01*
X122857143Y-68485390D02*
X122904762Y-68437771D01*
X122904762Y-68437771D02*
X123000000Y-68390152D01*
X123000000Y-68390152D02*
X123190476Y-68390152D01*
X123190476Y-68390152D02*
X123285714Y-68437771D01*
X124285714Y-69056819D02*
X123714286Y-69056819D01*
X124000000Y-69056819D02*
X124000000Y-68056819D01*
X124000000Y-68056819D02*
X123904762Y-68199676D01*
X123904762Y-68199676D02*
X123809524Y-68294914D01*
X123809524Y-68294914D02*
X123714286Y-68342533D01*
X148357142Y-89174819D02*
X148023809Y-88698628D01*
X147785714Y-89174819D02*
X147785714Y-88174819D01*
X147785714Y-88174819D02*
X148166666Y-88174819D01*
X148166666Y-88174819D02*
X148261904Y-88222438D01*
X148261904Y-88222438D02*
X148309523Y-88270057D01*
X148309523Y-88270057D02*
X148357142Y-88365295D01*
X148357142Y-88365295D02*
X148357142Y-88508152D01*
X148357142Y-88508152D02*
X148309523Y-88603390D01*
X148309523Y-88603390D02*
X148261904Y-88651009D01*
X148261904Y-88651009D02*
X148166666Y-88698628D01*
X148166666Y-88698628D02*
X147785714Y-88698628D01*
X149309523Y-89174819D02*
X148738095Y-89174819D01*
X149023809Y-89174819D02*
X149023809Y-88174819D01*
X149023809Y-88174819D02*
X148928571Y-88317676D01*
X148928571Y-88317676D02*
X148833333Y-88412914D01*
X148833333Y-88412914D02*
X148738095Y-88460533D01*
X149642857Y-88174819D02*
X150309523Y-88174819D01*
X150309523Y-88174819D02*
X149880952Y-89174819D01*
X123980952Y-118902057D02*
X124028571Y-118854438D01*
X124028571Y-118854438D02*
X124123809Y-118806819D01*
X124123809Y-118806819D02*
X124361904Y-118806819D01*
X124361904Y-118806819D02*
X124457142Y-118854438D01*
X124457142Y-118854438D02*
X124504761Y-118902057D01*
X124504761Y-118902057D02*
X124552380Y-118997295D01*
X124552380Y-118997295D02*
X124552380Y-119092533D01*
X124552380Y-119092533D02*
X124504761Y-119235390D01*
X124504761Y-119235390D02*
X123933333Y-119806819D01*
X123933333Y-119806819D02*
X124552380Y-119806819D01*
X125171428Y-118806819D02*
X125266666Y-118806819D01*
X125266666Y-118806819D02*
X125361904Y-118854438D01*
X125361904Y-118854438D02*
X125409523Y-118902057D01*
X125409523Y-118902057D02*
X125457142Y-118997295D01*
X125457142Y-118997295D02*
X125504761Y-119187771D01*
X125504761Y-119187771D02*
X125504761Y-119425866D01*
X125504761Y-119425866D02*
X125457142Y-119616342D01*
X125457142Y-119616342D02*
X125409523Y-119711580D01*
X125409523Y-119711580D02*
X125361904Y-119759200D01*
X125361904Y-119759200D02*
X125266666Y-119806819D01*
X125266666Y-119806819D02*
X125171428Y-119806819D01*
X125171428Y-119806819D02*
X125076190Y-119759200D01*
X125076190Y-119759200D02*
X125028571Y-119711580D01*
X125028571Y-119711580D02*
X124980952Y-119616342D01*
X124980952Y-119616342D02*
X124933333Y-119425866D01*
X124933333Y-119425866D02*
X124933333Y-119187771D01*
X124933333Y-119187771D02*
X124980952Y-118997295D01*
X124980952Y-118997295D02*
X125028571Y-118902057D01*
X125028571Y-118902057D02*
X125076190Y-118854438D01*
X125076190Y-118854438D02*
X125171428Y-118806819D01*
X125838095Y-119140152D02*
X126076190Y-119806819D01*
X126076190Y-119806819D02*
X126314285Y-119140152D01*
X127219047Y-119806819D02*
X126647619Y-119806819D01*
X126933333Y-119806819D02*
X126933333Y-118806819D01*
X126933333Y-118806819D02*
X126838095Y-118949676D01*
X126838095Y-118949676D02*
X126742857Y-119044914D01*
X126742857Y-119044914D02*
X126647619Y-119092533D01*
X124971428Y-54054819D02*
X124971428Y-53054819D01*
X124971428Y-53054819D02*
X125352380Y-53054819D01*
X125352380Y-53054819D02*
X125447618Y-53102438D01*
X125447618Y-53102438D02*
X125495237Y-53150057D01*
X125495237Y-53150057D02*
X125542856Y-53245295D01*
X125542856Y-53245295D02*
X125542856Y-53388152D01*
X125542856Y-53388152D02*
X125495237Y-53483390D01*
X125495237Y-53483390D02*
X125447618Y-53531009D01*
X125447618Y-53531009D02*
X125352380Y-53578628D01*
X125352380Y-53578628D02*
X124971428Y-53578628D01*
X125923809Y-53769104D02*
X126399999Y-53769104D01*
X125828571Y-54054819D02*
X126161904Y-53054819D01*
X126161904Y-53054819D02*
X126495237Y-54054819D01*
X127019047Y-53054819D02*
X127209523Y-53054819D01*
X127209523Y-53054819D02*
X127304761Y-53102438D01*
X127304761Y-53102438D02*
X127399999Y-53197676D01*
X127399999Y-53197676D02*
X127447618Y-53388152D01*
X127447618Y-53388152D02*
X127447618Y-53721485D01*
X127447618Y-53721485D02*
X127399999Y-53911961D01*
X127399999Y-53911961D02*
X127304761Y-54007200D01*
X127304761Y-54007200D02*
X127209523Y-54054819D01*
X127209523Y-54054819D02*
X127019047Y-54054819D01*
X127019047Y-54054819D02*
X126923809Y-54007200D01*
X126923809Y-54007200D02*
X126828571Y-53911961D01*
X126828571Y-53911961D02*
X126780952Y-53721485D01*
X126780952Y-53721485D02*
X126780952Y-53388152D01*
X126780952Y-53388152D02*
X126828571Y-53197676D01*
X126828571Y-53197676D02*
X126923809Y-53102438D01*
X126923809Y-53102438D02*
X127019047Y-53054819D01*
X128304761Y-53388152D02*
X128304761Y-54054819D01*
X127876190Y-53388152D02*
X127876190Y-53911961D01*
X127876190Y-53911961D02*
X127923809Y-54007200D01*
X127923809Y-54007200D02*
X128019047Y-54054819D01*
X128019047Y-54054819D02*
X128161904Y-54054819D01*
X128161904Y-54054819D02*
X128257142Y-54007200D01*
X128257142Y-54007200D02*
X128304761Y-53959580D01*
X128638095Y-53388152D02*
X129019047Y-53388152D01*
X128780952Y-53054819D02*
X128780952Y-53911961D01*
X128780952Y-53911961D02*
X128828571Y-54007200D01*
X128828571Y-54007200D02*
X128923809Y-54054819D01*
X128923809Y-54054819D02*
X129019047Y-54054819D01*
X129876190Y-54054819D02*
X129304762Y-54054819D01*
X129590476Y-54054819D02*
X129590476Y-53054819D01*
X129590476Y-53054819D02*
X129495238Y-53197676D01*
X129495238Y-53197676D02*
X129400000Y-53292914D01*
X129400000Y-53292914D02*
X129304762Y-53340533D01*
X101433333Y-94059580D02*
X101385714Y-94107200D01*
X101385714Y-94107200D02*
X101242857Y-94154819D01*
X101242857Y-94154819D02*
X101147619Y-94154819D01*
X101147619Y-94154819D02*
X101004762Y-94107200D01*
X101004762Y-94107200D02*
X100909524Y-94011961D01*
X100909524Y-94011961D02*
X100861905Y-93916723D01*
X100861905Y-93916723D02*
X100814286Y-93726247D01*
X100814286Y-93726247D02*
X100814286Y-93583390D01*
X100814286Y-93583390D02*
X100861905Y-93392914D01*
X100861905Y-93392914D02*
X100909524Y-93297676D01*
X100909524Y-93297676D02*
X101004762Y-93202438D01*
X101004762Y-93202438D02*
X101147619Y-93154819D01*
X101147619Y-93154819D02*
X101242857Y-93154819D01*
X101242857Y-93154819D02*
X101385714Y-93202438D01*
X101385714Y-93202438D02*
X101433333Y-93250057D01*
X102290476Y-93488152D02*
X102290476Y-94154819D01*
X102052381Y-93107200D02*
X101814286Y-93821485D01*
X101814286Y-93821485D02*
X102433333Y-93821485D01*
X79904819Y-114261904D02*
X80714342Y-114261904D01*
X80714342Y-114261904D02*
X80809580Y-114214285D01*
X80809580Y-114214285D02*
X80857200Y-114166666D01*
X80857200Y-114166666D02*
X80904819Y-114071428D01*
X80904819Y-114071428D02*
X80904819Y-113880952D01*
X80904819Y-113880952D02*
X80857200Y-113785714D01*
X80857200Y-113785714D02*
X80809580Y-113738095D01*
X80809580Y-113738095D02*
X80714342Y-113690476D01*
X80714342Y-113690476D02*
X79904819Y-113690476D01*
X80000057Y-113261904D02*
X79952438Y-113214285D01*
X79952438Y-113214285D02*
X79904819Y-113119047D01*
X79904819Y-113119047D02*
X79904819Y-112880952D01*
X79904819Y-112880952D02*
X79952438Y-112785714D01*
X79952438Y-112785714D02*
X80000057Y-112738095D01*
X80000057Y-112738095D02*
X80095295Y-112690476D01*
X80095295Y-112690476D02*
X80190533Y-112690476D01*
X80190533Y-112690476D02*
X80333390Y-112738095D01*
X80333390Y-112738095D02*
X80904819Y-113309523D01*
X80904819Y-113309523D02*
X80904819Y-112690476D01*
X63266666Y-130204819D02*
X63266666Y-130919104D01*
X63266666Y-130919104D02*
X63219047Y-131061961D01*
X63219047Y-131061961D02*
X63123809Y-131157200D01*
X63123809Y-131157200D02*
X62980952Y-131204819D01*
X62980952Y-131204819D02*
X62885714Y-131204819D01*
X63695238Y-130300057D02*
X63742857Y-130252438D01*
X63742857Y-130252438D02*
X63838095Y-130204819D01*
X63838095Y-130204819D02*
X64076190Y-130204819D01*
X64076190Y-130204819D02*
X64171428Y-130252438D01*
X64171428Y-130252438D02*
X64219047Y-130300057D01*
X64219047Y-130300057D02*
X64266666Y-130395295D01*
X64266666Y-130395295D02*
X64266666Y-130490533D01*
X64266666Y-130490533D02*
X64219047Y-130633390D01*
X64219047Y-130633390D02*
X63647619Y-131204819D01*
X63647619Y-131204819D02*
X64266666Y-131204819D01*
X83866666Y-130649819D02*
X83866666Y-131364104D01*
X83866666Y-131364104D02*
X83819047Y-131506961D01*
X83819047Y-131506961D02*
X83723809Y-131602200D01*
X83723809Y-131602200D02*
X83580952Y-131649819D01*
X83580952Y-131649819D02*
X83485714Y-131649819D01*
X84247619Y-130649819D02*
X84914285Y-130649819D01*
X84914285Y-130649819D02*
X84485714Y-131649819D01*
X77866666Y-130449819D02*
X77866666Y-131164104D01*
X77866666Y-131164104D02*
X77819047Y-131306961D01*
X77819047Y-131306961D02*
X77723809Y-131402200D01*
X77723809Y-131402200D02*
X77580952Y-131449819D01*
X77580952Y-131449819D02*
X77485714Y-131449819D01*
X78247619Y-130449819D02*
X78866666Y-130449819D01*
X78866666Y-130449819D02*
X78533333Y-130830771D01*
X78533333Y-130830771D02*
X78676190Y-130830771D01*
X78676190Y-130830771D02*
X78771428Y-130878390D01*
X78771428Y-130878390D02*
X78819047Y-130926009D01*
X78819047Y-130926009D02*
X78866666Y-131021247D01*
X78866666Y-131021247D02*
X78866666Y-131259342D01*
X78866666Y-131259342D02*
X78819047Y-131354580D01*
X78819047Y-131354580D02*
X78771428Y-131402200D01*
X78771428Y-131402200D02*
X78676190Y-131449819D01*
X78676190Y-131449819D02*
X78390476Y-131449819D01*
X78390476Y-131449819D02*
X78295238Y-131402200D01*
X78295238Y-131402200D02*
X78247619Y-131354580D01*
X133109580Y-127026666D02*
X133157200Y-127074285D01*
X133157200Y-127074285D02*
X133204819Y-127217142D01*
X133204819Y-127217142D02*
X133204819Y-127312380D01*
X133204819Y-127312380D02*
X133157200Y-127455237D01*
X133157200Y-127455237D02*
X133061961Y-127550475D01*
X133061961Y-127550475D02*
X132966723Y-127598094D01*
X132966723Y-127598094D02*
X132776247Y-127645713D01*
X132776247Y-127645713D02*
X132633390Y-127645713D01*
X132633390Y-127645713D02*
X132442914Y-127598094D01*
X132442914Y-127598094D02*
X132347676Y-127550475D01*
X132347676Y-127550475D02*
X132252438Y-127455237D01*
X132252438Y-127455237D02*
X132204819Y-127312380D01*
X132204819Y-127312380D02*
X132204819Y-127217142D01*
X132204819Y-127217142D02*
X132252438Y-127074285D01*
X132252438Y-127074285D02*
X132300057Y-127026666D01*
X132204819Y-126121904D02*
X132204819Y-126598094D01*
X132204819Y-126598094D02*
X132681009Y-126645713D01*
X132681009Y-126645713D02*
X132633390Y-126598094D01*
X132633390Y-126598094D02*
X132585771Y-126502856D01*
X132585771Y-126502856D02*
X132585771Y-126264761D01*
X132585771Y-126264761D02*
X132633390Y-126169523D01*
X132633390Y-126169523D02*
X132681009Y-126121904D01*
X132681009Y-126121904D02*
X132776247Y-126074285D01*
X132776247Y-126074285D02*
X133014342Y-126074285D01*
X133014342Y-126074285D02*
X133109580Y-126121904D01*
X133109580Y-126121904D02*
X133157200Y-126169523D01*
X133157200Y-126169523D02*
X133204819Y-126264761D01*
X133204819Y-126264761D02*
X133204819Y-126502856D01*
X133204819Y-126502856D02*
X133157200Y-126598094D01*
X133157200Y-126598094D02*
X133109580Y-126645713D01*
X77775580Y-95670666D02*
X77823200Y-95718285D01*
X77823200Y-95718285D02*
X77870819Y-95861142D01*
X77870819Y-95861142D02*
X77870819Y-95956380D01*
X77870819Y-95956380D02*
X77823200Y-96099237D01*
X77823200Y-96099237D02*
X77727961Y-96194475D01*
X77727961Y-96194475D02*
X77632723Y-96242094D01*
X77632723Y-96242094D02*
X77442247Y-96289713D01*
X77442247Y-96289713D02*
X77299390Y-96289713D01*
X77299390Y-96289713D02*
X77108914Y-96242094D01*
X77108914Y-96242094D02*
X77013676Y-96194475D01*
X77013676Y-96194475D02*
X76918438Y-96099237D01*
X76918438Y-96099237D02*
X76870819Y-95956380D01*
X76870819Y-95956380D02*
X76870819Y-95861142D01*
X76870819Y-95861142D02*
X76918438Y-95718285D01*
X76918438Y-95718285D02*
X76966057Y-95670666D01*
X77299390Y-95099237D02*
X77251771Y-95194475D01*
X77251771Y-95194475D02*
X77204152Y-95242094D01*
X77204152Y-95242094D02*
X77108914Y-95289713D01*
X77108914Y-95289713D02*
X77061295Y-95289713D01*
X77061295Y-95289713D02*
X76966057Y-95242094D01*
X76966057Y-95242094D02*
X76918438Y-95194475D01*
X76918438Y-95194475D02*
X76870819Y-95099237D01*
X76870819Y-95099237D02*
X76870819Y-94908761D01*
X76870819Y-94908761D02*
X76918438Y-94813523D01*
X76918438Y-94813523D02*
X76966057Y-94765904D01*
X76966057Y-94765904D02*
X77061295Y-94718285D01*
X77061295Y-94718285D02*
X77108914Y-94718285D01*
X77108914Y-94718285D02*
X77204152Y-94765904D01*
X77204152Y-94765904D02*
X77251771Y-94813523D01*
X77251771Y-94813523D02*
X77299390Y-94908761D01*
X77299390Y-94908761D02*
X77299390Y-95099237D01*
X77299390Y-95099237D02*
X77347009Y-95194475D01*
X77347009Y-95194475D02*
X77394628Y-95242094D01*
X77394628Y-95242094D02*
X77489866Y-95289713D01*
X77489866Y-95289713D02*
X77680342Y-95289713D01*
X77680342Y-95289713D02*
X77775580Y-95242094D01*
X77775580Y-95242094D02*
X77823200Y-95194475D01*
X77823200Y-95194475D02*
X77870819Y-95099237D01*
X77870819Y-95099237D02*
X77870819Y-94908761D01*
X77870819Y-94908761D02*
X77823200Y-94813523D01*
X77823200Y-94813523D02*
X77775580Y-94765904D01*
X77775580Y-94765904D02*
X77680342Y-94718285D01*
X77680342Y-94718285D02*
X77489866Y-94718285D01*
X77489866Y-94718285D02*
X77394628Y-94765904D01*
X77394628Y-94765904D02*
X77347009Y-94813523D01*
X77347009Y-94813523D02*
X77299390Y-94908761D01*
X152503057Y-77057238D02*
X152455438Y-77152476D01*
X152455438Y-77152476D02*
X152360200Y-77247714D01*
X152360200Y-77247714D02*
X152217342Y-77390571D01*
X152217342Y-77390571D02*
X152169723Y-77485809D01*
X152169723Y-77485809D02*
X152169723Y-77581047D01*
X152407819Y-77533428D02*
X152360200Y-77628666D01*
X152360200Y-77628666D02*
X152264961Y-77723904D01*
X152264961Y-77723904D02*
X152074485Y-77771523D01*
X152074485Y-77771523D02*
X151741152Y-77771523D01*
X151741152Y-77771523D02*
X151550676Y-77723904D01*
X151550676Y-77723904D02*
X151455438Y-77628666D01*
X151455438Y-77628666D02*
X151407819Y-77533428D01*
X151407819Y-77533428D02*
X151407819Y-77342952D01*
X151407819Y-77342952D02*
X151455438Y-77247714D01*
X151455438Y-77247714D02*
X151550676Y-77152476D01*
X151550676Y-77152476D02*
X151741152Y-77104857D01*
X151741152Y-77104857D02*
X152074485Y-77104857D01*
X152074485Y-77104857D02*
X152264961Y-77152476D01*
X152264961Y-77152476D02*
X152360200Y-77247714D01*
X152360200Y-77247714D02*
X152407819Y-77342952D01*
X152407819Y-77342952D02*
X152407819Y-77533428D01*
X151407819Y-76771523D02*
X151407819Y-76104857D01*
X151407819Y-76104857D02*
X152407819Y-76533428D01*
X126661905Y-83334819D02*
X126661905Y-82334819D01*
X126661905Y-82334819D02*
X126900000Y-82334819D01*
X126900000Y-82334819D02*
X127042857Y-82382438D01*
X127042857Y-82382438D02*
X127138095Y-82477676D01*
X127138095Y-82477676D02*
X127185714Y-82572914D01*
X127185714Y-82572914D02*
X127233333Y-82763390D01*
X127233333Y-82763390D02*
X127233333Y-82906247D01*
X127233333Y-82906247D02*
X127185714Y-83096723D01*
X127185714Y-83096723D02*
X127138095Y-83191961D01*
X127138095Y-83191961D02*
X127042857Y-83287200D01*
X127042857Y-83287200D02*
X126900000Y-83334819D01*
X126900000Y-83334819D02*
X126661905Y-83334819D01*
X128185714Y-83334819D02*
X127614286Y-83334819D01*
X127900000Y-83334819D02*
X127900000Y-82334819D01*
X127900000Y-82334819D02*
X127804762Y-82477676D01*
X127804762Y-82477676D02*
X127709524Y-82572914D01*
X127709524Y-82572914D02*
X127614286Y-82620533D01*
X120788095Y-84054819D02*
X120788095Y-83054819D01*
X121359523Y-84054819D02*
X120930952Y-83483390D01*
X121359523Y-83054819D02*
X120788095Y-83626247D01*
X87726666Y-50494819D02*
X87726666Y-51209104D01*
X87726666Y-51209104D02*
X87679047Y-51351961D01*
X87679047Y-51351961D02*
X87583809Y-51447200D01*
X87583809Y-51447200D02*
X87440952Y-51494819D01*
X87440952Y-51494819D02*
X87345714Y-51494819D01*
X88345714Y-50923390D02*
X88250476Y-50875771D01*
X88250476Y-50875771D02*
X88202857Y-50828152D01*
X88202857Y-50828152D02*
X88155238Y-50732914D01*
X88155238Y-50732914D02*
X88155238Y-50685295D01*
X88155238Y-50685295D02*
X88202857Y-50590057D01*
X88202857Y-50590057D02*
X88250476Y-50542438D01*
X88250476Y-50542438D02*
X88345714Y-50494819D01*
X88345714Y-50494819D02*
X88536190Y-50494819D01*
X88536190Y-50494819D02*
X88631428Y-50542438D01*
X88631428Y-50542438D02*
X88679047Y-50590057D01*
X88679047Y-50590057D02*
X88726666Y-50685295D01*
X88726666Y-50685295D02*
X88726666Y-50732914D01*
X88726666Y-50732914D02*
X88679047Y-50828152D01*
X88679047Y-50828152D02*
X88631428Y-50875771D01*
X88631428Y-50875771D02*
X88536190Y-50923390D01*
X88536190Y-50923390D02*
X88345714Y-50923390D01*
X88345714Y-50923390D02*
X88250476Y-50971009D01*
X88250476Y-50971009D02*
X88202857Y-51018628D01*
X88202857Y-51018628D02*
X88155238Y-51113866D01*
X88155238Y-51113866D02*
X88155238Y-51304342D01*
X88155238Y-51304342D02*
X88202857Y-51399580D01*
X88202857Y-51399580D02*
X88250476Y-51447200D01*
X88250476Y-51447200D02*
X88345714Y-51494819D01*
X88345714Y-51494819D02*
X88536190Y-51494819D01*
X88536190Y-51494819D02*
X88631428Y-51447200D01*
X88631428Y-51447200D02*
X88679047Y-51399580D01*
X88679047Y-51399580D02*
X88726666Y-51304342D01*
X88726666Y-51304342D02*
X88726666Y-51113866D01*
X88726666Y-51113866D02*
X88679047Y-51018628D01*
X88679047Y-51018628D02*
X88631428Y-50971009D01*
X88631428Y-50971009D02*
X88536190Y-50923390D01*
X50478095Y-124111819D02*
X51049523Y-124111819D01*
X50763809Y-125111819D02*
X50763809Y-124111819D01*
X51382857Y-125111819D02*
X51382857Y-124111819D01*
X51382857Y-124111819D02*
X51763809Y-124111819D01*
X51763809Y-124111819D02*
X51859047Y-124159438D01*
X51859047Y-124159438D02*
X51906666Y-124207057D01*
X51906666Y-124207057D02*
X51954285Y-124302295D01*
X51954285Y-124302295D02*
X51954285Y-124445152D01*
X51954285Y-124445152D02*
X51906666Y-124540390D01*
X51906666Y-124540390D02*
X51859047Y-124588009D01*
X51859047Y-124588009D02*
X51763809Y-124635628D01*
X51763809Y-124635628D02*
X51382857Y-124635628D01*
X52906666Y-125111819D02*
X52335238Y-125111819D01*
X52620952Y-125111819D02*
X52620952Y-124111819D01*
X52620952Y-124111819D02*
X52525714Y-124254676D01*
X52525714Y-124254676D02*
X52430476Y-124349914D01*
X52430476Y-124349914D02*
X52335238Y-124397533D01*
X64438095Y-124724819D02*
X64438095Y-125534342D01*
X64438095Y-125534342D02*
X64485714Y-125629580D01*
X64485714Y-125629580D02*
X64533333Y-125677200D01*
X64533333Y-125677200D02*
X64628571Y-125724819D01*
X64628571Y-125724819D02*
X64819047Y-125724819D01*
X64819047Y-125724819D02*
X64914285Y-125677200D01*
X64914285Y-125677200D02*
X64961904Y-125629580D01*
X64961904Y-125629580D02*
X65009523Y-125534342D01*
X65009523Y-125534342D02*
X65009523Y-124724819D01*
X66009523Y-125724819D02*
X65438095Y-125724819D01*
X65723809Y-125724819D02*
X65723809Y-124724819D01*
X65723809Y-124724819D02*
X65628571Y-124867676D01*
X65628571Y-124867676D02*
X65533333Y-124962914D01*
X65533333Y-124962914D02*
X65438095Y-125010533D01*
X107757142Y-111374819D02*
X107423809Y-110898628D01*
X107185714Y-111374819D02*
X107185714Y-110374819D01*
X107185714Y-110374819D02*
X107566666Y-110374819D01*
X107566666Y-110374819D02*
X107661904Y-110422438D01*
X107661904Y-110422438D02*
X107709523Y-110470057D01*
X107709523Y-110470057D02*
X107757142Y-110565295D01*
X107757142Y-110565295D02*
X107757142Y-110708152D01*
X107757142Y-110708152D02*
X107709523Y-110803390D01*
X107709523Y-110803390D02*
X107661904Y-110851009D01*
X107661904Y-110851009D02*
X107566666Y-110898628D01*
X107566666Y-110898628D02*
X107185714Y-110898628D01*
X108709523Y-111374819D02*
X108138095Y-111374819D01*
X108423809Y-111374819D02*
X108423809Y-110374819D01*
X108423809Y-110374819D02*
X108328571Y-110517676D01*
X108328571Y-110517676D02*
X108233333Y-110612914D01*
X108233333Y-110612914D02*
X108138095Y-110660533D01*
X109090476Y-110470057D02*
X109138095Y-110422438D01*
X109138095Y-110422438D02*
X109233333Y-110374819D01*
X109233333Y-110374819D02*
X109471428Y-110374819D01*
X109471428Y-110374819D02*
X109566666Y-110422438D01*
X109566666Y-110422438D02*
X109614285Y-110470057D01*
X109614285Y-110470057D02*
X109661904Y-110565295D01*
X109661904Y-110565295D02*
X109661904Y-110660533D01*
X109661904Y-110660533D02*
X109614285Y-110803390D01*
X109614285Y-110803390D02*
X109042857Y-111374819D01*
X109042857Y-111374819D02*
X109661904Y-111374819D01*
X60859580Y-113666666D02*
X60907200Y-113714285D01*
X60907200Y-113714285D02*
X60954819Y-113857142D01*
X60954819Y-113857142D02*
X60954819Y-113952380D01*
X60954819Y-113952380D02*
X60907200Y-114095237D01*
X60907200Y-114095237D02*
X60811961Y-114190475D01*
X60811961Y-114190475D02*
X60716723Y-114238094D01*
X60716723Y-114238094D02*
X60526247Y-114285713D01*
X60526247Y-114285713D02*
X60383390Y-114285713D01*
X60383390Y-114285713D02*
X60192914Y-114238094D01*
X60192914Y-114238094D02*
X60097676Y-114190475D01*
X60097676Y-114190475D02*
X60002438Y-114095237D01*
X60002438Y-114095237D02*
X59954819Y-113952380D01*
X59954819Y-113952380D02*
X59954819Y-113857142D01*
X59954819Y-113857142D02*
X60002438Y-113714285D01*
X60002438Y-113714285D02*
X60050057Y-113666666D01*
X60954819Y-112714285D02*
X60954819Y-113285713D01*
X60954819Y-112999999D02*
X59954819Y-112999999D01*
X59954819Y-112999999D02*
X60097676Y-113095237D01*
X60097676Y-113095237D02*
X60192914Y-113190475D01*
X60192914Y-113190475D02*
X60240533Y-113285713D01*
X150114095Y-137868819D02*
X150114095Y-136868819D01*
X150114095Y-137345009D02*
X150685523Y-137345009D01*
X150685523Y-137868819D02*
X150685523Y-136868819D01*
X151114095Y-136964057D02*
X151161714Y-136916438D01*
X151161714Y-136916438D02*
X151256952Y-136868819D01*
X151256952Y-136868819D02*
X151495047Y-136868819D01*
X151495047Y-136868819D02*
X151590285Y-136916438D01*
X151590285Y-136916438D02*
X151637904Y-136964057D01*
X151637904Y-136964057D02*
X151685523Y-137059295D01*
X151685523Y-137059295D02*
X151685523Y-137154533D01*
X151685523Y-137154533D02*
X151637904Y-137297390D01*
X151637904Y-137297390D02*
X151066476Y-137868819D01*
X151066476Y-137868819D02*
X151685523Y-137868819D01*
X53904761Y-71150057D02*
X53809523Y-71102438D01*
X53809523Y-71102438D02*
X53714285Y-71007200D01*
X53714285Y-71007200D02*
X53571428Y-70864342D01*
X53571428Y-70864342D02*
X53476190Y-70816723D01*
X53476190Y-70816723D02*
X53380952Y-70816723D01*
X53428571Y-71054819D02*
X53333333Y-71007200D01*
X53333333Y-71007200D02*
X53238095Y-70911961D01*
X53238095Y-70911961D02*
X53190476Y-70721485D01*
X53190476Y-70721485D02*
X53190476Y-70388152D01*
X53190476Y-70388152D02*
X53238095Y-70197676D01*
X53238095Y-70197676D02*
X53333333Y-70102438D01*
X53333333Y-70102438D02*
X53428571Y-70054819D01*
X53428571Y-70054819D02*
X53619047Y-70054819D01*
X53619047Y-70054819D02*
X53714285Y-70102438D01*
X53714285Y-70102438D02*
X53809523Y-70197676D01*
X53809523Y-70197676D02*
X53857142Y-70388152D01*
X53857142Y-70388152D02*
X53857142Y-70721485D01*
X53857142Y-70721485D02*
X53809523Y-70911961D01*
X53809523Y-70911961D02*
X53714285Y-71007200D01*
X53714285Y-71007200D02*
X53619047Y-71054819D01*
X53619047Y-71054819D02*
X53428571Y-71054819D01*
X54809523Y-71054819D02*
X54238095Y-71054819D01*
X54523809Y-71054819D02*
X54523809Y-70054819D01*
X54523809Y-70054819D02*
X54428571Y-70197676D01*
X54428571Y-70197676D02*
X54333333Y-70292914D01*
X54333333Y-70292914D02*
X54238095Y-70340533D01*
X70359580Y-113666666D02*
X70407200Y-113714285D01*
X70407200Y-113714285D02*
X70454819Y-113857142D01*
X70454819Y-113857142D02*
X70454819Y-113952380D01*
X70454819Y-113952380D02*
X70407200Y-114095237D01*
X70407200Y-114095237D02*
X70311961Y-114190475D01*
X70311961Y-114190475D02*
X70216723Y-114238094D01*
X70216723Y-114238094D02*
X70026247Y-114285713D01*
X70026247Y-114285713D02*
X69883390Y-114285713D01*
X69883390Y-114285713D02*
X69692914Y-114238094D01*
X69692914Y-114238094D02*
X69597676Y-114190475D01*
X69597676Y-114190475D02*
X69502438Y-114095237D01*
X69502438Y-114095237D02*
X69454819Y-113952380D01*
X69454819Y-113952380D02*
X69454819Y-113857142D01*
X69454819Y-113857142D02*
X69502438Y-113714285D01*
X69502438Y-113714285D02*
X69550057Y-113666666D01*
X69550057Y-113285713D02*
X69502438Y-113238094D01*
X69502438Y-113238094D02*
X69454819Y-113142856D01*
X69454819Y-113142856D02*
X69454819Y-112904761D01*
X69454819Y-112904761D02*
X69502438Y-112809523D01*
X69502438Y-112809523D02*
X69550057Y-112761904D01*
X69550057Y-112761904D02*
X69645295Y-112714285D01*
X69645295Y-112714285D02*
X69740533Y-112714285D01*
X69740533Y-112714285D02*
X69883390Y-112761904D01*
X69883390Y-112761904D02*
X70454819Y-113333332D01*
X70454819Y-113333332D02*
X70454819Y-112714285D01*
X95904761Y-126439819D02*
X95571428Y-125963628D01*
X95333333Y-126439819D02*
X95333333Y-125439819D01*
X95333333Y-125439819D02*
X95714285Y-125439819D01*
X95714285Y-125439819D02*
X95809523Y-125487438D01*
X95809523Y-125487438D02*
X95857142Y-125535057D01*
X95857142Y-125535057D02*
X95904761Y-125630295D01*
X95904761Y-125630295D02*
X95904761Y-125773152D01*
X95904761Y-125773152D02*
X95857142Y-125868390D01*
X95857142Y-125868390D02*
X95809523Y-125916009D01*
X95809523Y-125916009D02*
X95714285Y-125963628D01*
X95714285Y-125963628D02*
X95333333Y-125963628D01*
X96190476Y-125439819D02*
X96523809Y-126439819D01*
X96523809Y-126439819D02*
X96857142Y-125439819D01*
X97714285Y-126439819D02*
X97142857Y-126439819D01*
X97428571Y-126439819D02*
X97428571Y-125439819D01*
X97428571Y-125439819D02*
X97333333Y-125582676D01*
X97333333Y-125582676D02*
X97238095Y-125677914D01*
X97238095Y-125677914D02*
X97142857Y-125725533D01*
X152442057Y-119475238D02*
X152394438Y-119570476D01*
X152394438Y-119570476D02*
X152299200Y-119665714D01*
X152299200Y-119665714D02*
X152156342Y-119808571D01*
X152156342Y-119808571D02*
X152108723Y-119903809D01*
X152108723Y-119903809D02*
X152108723Y-119999047D01*
X152346819Y-119951428D02*
X152299200Y-120046666D01*
X152299200Y-120046666D02*
X152203961Y-120141904D01*
X152203961Y-120141904D02*
X152013485Y-120189523D01*
X152013485Y-120189523D02*
X151680152Y-120189523D01*
X151680152Y-120189523D02*
X151489676Y-120141904D01*
X151489676Y-120141904D02*
X151394438Y-120046666D01*
X151394438Y-120046666D02*
X151346819Y-119951428D01*
X151346819Y-119951428D02*
X151346819Y-119760952D01*
X151346819Y-119760952D02*
X151394438Y-119665714D01*
X151394438Y-119665714D02*
X151489676Y-119570476D01*
X151489676Y-119570476D02*
X151680152Y-119522857D01*
X151680152Y-119522857D02*
X152013485Y-119522857D01*
X152013485Y-119522857D02*
X152203961Y-119570476D01*
X152203961Y-119570476D02*
X152299200Y-119665714D01*
X152299200Y-119665714D02*
X152346819Y-119760952D01*
X152346819Y-119760952D02*
X152346819Y-119951428D01*
X151346819Y-118665714D02*
X151346819Y-118856190D01*
X151346819Y-118856190D02*
X151394438Y-118951428D01*
X151394438Y-118951428D02*
X151442057Y-118999047D01*
X151442057Y-118999047D02*
X151584914Y-119094285D01*
X151584914Y-119094285D02*
X151775390Y-119141904D01*
X151775390Y-119141904D02*
X152156342Y-119141904D01*
X152156342Y-119141904D02*
X152251580Y-119094285D01*
X152251580Y-119094285D02*
X152299200Y-119046666D01*
X152299200Y-119046666D02*
X152346819Y-118951428D01*
X152346819Y-118951428D02*
X152346819Y-118760952D01*
X152346819Y-118760952D02*
X152299200Y-118665714D01*
X152299200Y-118665714D02*
X152251580Y-118618095D01*
X152251580Y-118618095D02*
X152156342Y-118570476D01*
X152156342Y-118570476D02*
X151918247Y-118570476D01*
X151918247Y-118570476D02*
X151823009Y-118618095D01*
X151823009Y-118618095D02*
X151775390Y-118665714D01*
X151775390Y-118665714D02*
X151727771Y-118760952D01*
X151727771Y-118760952D02*
X151727771Y-118951428D01*
X151727771Y-118951428D02*
X151775390Y-119046666D01*
X151775390Y-119046666D02*
X151823009Y-119094285D01*
X151823009Y-119094285D02*
X151918247Y-119141904D01*
X149352095Y-51000819D02*
X149352095Y-50000819D01*
X149352095Y-50477009D02*
X149923523Y-50477009D01*
X149923523Y-51000819D02*
X149923523Y-50000819D01*
X150304476Y-50000819D02*
X150923523Y-50000819D01*
X150923523Y-50000819D02*
X150590190Y-50381771D01*
X150590190Y-50381771D02*
X150733047Y-50381771D01*
X150733047Y-50381771D02*
X150828285Y-50429390D01*
X150828285Y-50429390D02*
X150875904Y-50477009D01*
X150875904Y-50477009D02*
X150923523Y-50572247D01*
X150923523Y-50572247D02*
X150923523Y-50810342D01*
X150923523Y-50810342D02*
X150875904Y-50905580D01*
X150875904Y-50905580D02*
X150828285Y-50953200D01*
X150828285Y-50953200D02*
X150733047Y-51000819D01*
X150733047Y-51000819D02*
X150447333Y-51000819D01*
X150447333Y-51000819D02*
X150352095Y-50953200D01*
X150352095Y-50953200D02*
X150304476Y-50905580D01*
X116784819Y-117571904D02*
X117594342Y-117571904D01*
X117594342Y-117571904D02*
X117689580Y-117524285D01*
X117689580Y-117524285D02*
X117737200Y-117476666D01*
X117737200Y-117476666D02*
X117784819Y-117381428D01*
X117784819Y-117381428D02*
X117784819Y-117190952D01*
X117784819Y-117190952D02*
X117737200Y-117095714D01*
X117737200Y-117095714D02*
X117689580Y-117048095D01*
X117689580Y-117048095D02*
X117594342Y-117000476D01*
X117594342Y-117000476D02*
X116784819Y-117000476D01*
X116784819Y-116619523D02*
X116784819Y-116000476D01*
X116784819Y-116000476D02*
X117165771Y-116333809D01*
X117165771Y-116333809D02*
X117165771Y-116190952D01*
X117165771Y-116190952D02*
X117213390Y-116095714D01*
X117213390Y-116095714D02*
X117261009Y-116048095D01*
X117261009Y-116048095D02*
X117356247Y-116000476D01*
X117356247Y-116000476D02*
X117594342Y-116000476D01*
X117594342Y-116000476D02*
X117689580Y-116048095D01*
X117689580Y-116048095D02*
X117737200Y-116095714D01*
X117737200Y-116095714D02*
X117784819Y-116190952D01*
X117784819Y-116190952D02*
X117784819Y-116476666D01*
X117784819Y-116476666D02*
X117737200Y-116571904D01*
X117737200Y-116571904D02*
X117689580Y-116619523D01*
X51308095Y-130502819D02*
X51308095Y-129502819D01*
X51308095Y-129979009D02*
X51879523Y-129979009D01*
X51879523Y-130502819D02*
X51879523Y-129502819D01*
X52784285Y-129836152D02*
X52784285Y-130502819D01*
X52546190Y-129455200D02*
X52308095Y-130169485D01*
X52308095Y-130169485D02*
X52927142Y-130169485D01*
X63508095Y-91306819D02*
X64079523Y-91306819D01*
X63793809Y-92306819D02*
X63793809Y-91306819D01*
X64412857Y-92306819D02*
X64412857Y-91306819D01*
X64412857Y-91306819D02*
X64793809Y-91306819D01*
X64793809Y-91306819D02*
X64889047Y-91354438D01*
X64889047Y-91354438D02*
X64936666Y-91402057D01*
X64936666Y-91402057D02*
X64984285Y-91497295D01*
X64984285Y-91497295D02*
X64984285Y-91640152D01*
X64984285Y-91640152D02*
X64936666Y-91735390D01*
X64936666Y-91735390D02*
X64889047Y-91783009D01*
X64889047Y-91783009D02*
X64793809Y-91830628D01*
X64793809Y-91830628D02*
X64412857Y-91830628D01*
X65365238Y-91402057D02*
X65412857Y-91354438D01*
X65412857Y-91354438D02*
X65508095Y-91306819D01*
X65508095Y-91306819D02*
X65746190Y-91306819D01*
X65746190Y-91306819D02*
X65841428Y-91354438D01*
X65841428Y-91354438D02*
X65889047Y-91402057D01*
X65889047Y-91402057D02*
X65936666Y-91497295D01*
X65936666Y-91497295D02*
X65936666Y-91592533D01*
X65936666Y-91592533D02*
X65889047Y-91735390D01*
X65889047Y-91735390D02*
X65317619Y-92306819D01*
X65317619Y-92306819D02*
X65936666Y-92306819D01*
X96204819Y-96642857D02*
X95728628Y-96976190D01*
X96204819Y-97214285D02*
X95204819Y-97214285D01*
X95204819Y-97214285D02*
X95204819Y-96833333D01*
X95204819Y-96833333D02*
X95252438Y-96738095D01*
X95252438Y-96738095D02*
X95300057Y-96690476D01*
X95300057Y-96690476D02*
X95395295Y-96642857D01*
X95395295Y-96642857D02*
X95538152Y-96642857D01*
X95538152Y-96642857D02*
X95633390Y-96690476D01*
X95633390Y-96690476D02*
X95681009Y-96738095D01*
X95681009Y-96738095D02*
X95728628Y-96833333D01*
X95728628Y-96833333D02*
X95728628Y-97214285D01*
X96204819Y-95690476D02*
X96204819Y-96261904D01*
X96204819Y-95976190D02*
X95204819Y-95976190D01*
X95204819Y-95976190D02*
X95347676Y-96071428D01*
X95347676Y-96071428D02*
X95442914Y-96166666D01*
X95442914Y-96166666D02*
X95490533Y-96261904D01*
X95204819Y-95357142D02*
X95204819Y-94738095D01*
X95204819Y-94738095D02*
X95585771Y-95071428D01*
X95585771Y-95071428D02*
X95585771Y-94928571D01*
X95585771Y-94928571D02*
X95633390Y-94833333D01*
X95633390Y-94833333D02*
X95681009Y-94785714D01*
X95681009Y-94785714D02*
X95776247Y-94738095D01*
X95776247Y-94738095D02*
X96014342Y-94738095D01*
X96014342Y-94738095D02*
X96109580Y-94785714D01*
X96109580Y-94785714D02*
X96157200Y-94833333D01*
X96157200Y-94833333D02*
X96204819Y-94928571D01*
X96204819Y-94928571D02*
X96204819Y-95214285D01*
X96204819Y-95214285D02*
X96157200Y-95309523D01*
X96157200Y-95309523D02*
X96109580Y-95357142D01*
X103757142Y-83534819D02*
X103423809Y-83058628D01*
X103185714Y-83534819D02*
X103185714Y-82534819D01*
X103185714Y-82534819D02*
X103566666Y-82534819D01*
X103566666Y-82534819D02*
X103661904Y-82582438D01*
X103661904Y-82582438D02*
X103709523Y-82630057D01*
X103709523Y-82630057D02*
X103757142Y-82725295D01*
X103757142Y-82725295D02*
X103757142Y-82868152D01*
X103757142Y-82868152D02*
X103709523Y-82963390D01*
X103709523Y-82963390D02*
X103661904Y-83011009D01*
X103661904Y-83011009D02*
X103566666Y-83058628D01*
X103566666Y-83058628D02*
X103185714Y-83058628D01*
X104709523Y-83534819D02*
X104138095Y-83534819D01*
X104423809Y-83534819D02*
X104423809Y-82534819D01*
X104423809Y-82534819D02*
X104328571Y-82677676D01*
X104328571Y-82677676D02*
X104233333Y-82772914D01*
X104233333Y-82772914D02*
X104138095Y-82820533D01*
X105614285Y-82534819D02*
X105138095Y-82534819D01*
X105138095Y-82534819D02*
X105090476Y-83011009D01*
X105090476Y-83011009D02*
X105138095Y-82963390D01*
X105138095Y-82963390D02*
X105233333Y-82915771D01*
X105233333Y-82915771D02*
X105471428Y-82915771D01*
X105471428Y-82915771D02*
X105566666Y-82963390D01*
X105566666Y-82963390D02*
X105614285Y-83011009D01*
X105614285Y-83011009D02*
X105661904Y-83106247D01*
X105661904Y-83106247D02*
X105661904Y-83344342D01*
X105661904Y-83344342D02*
X105614285Y-83439580D01*
X105614285Y-83439580D02*
X105566666Y-83487200D01*
X105566666Y-83487200D02*
X105471428Y-83534819D01*
X105471428Y-83534819D02*
X105233333Y-83534819D01*
X105233333Y-83534819D02*
X105138095Y-83487200D01*
X105138095Y-83487200D02*
X105090476Y-83439580D01*
X105614286Y-94006819D02*
X106185714Y-94006819D01*
X105900000Y-95006819D02*
X105900000Y-94006819D01*
X106519048Y-95006819D02*
X106519048Y-94006819D01*
X106519048Y-94006819D02*
X106900000Y-94006819D01*
X106900000Y-94006819D02*
X106995238Y-94054438D01*
X106995238Y-94054438D02*
X107042857Y-94102057D01*
X107042857Y-94102057D02*
X107090476Y-94197295D01*
X107090476Y-94197295D02*
X107090476Y-94340152D01*
X107090476Y-94340152D02*
X107042857Y-94435390D01*
X107042857Y-94435390D02*
X106995238Y-94483009D01*
X106995238Y-94483009D02*
X106900000Y-94530628D01*
X106900000Y-94530628D02*
X106519048Y-94530628D01*
X108185714Y-95102057D02*
X108090476Y-95054438D01*
X108090476Y-95054438D02*
X107995238Y-94959200D01*
X107995238Y-94959200D02*
X107852381Y-94816342D01*
X107852381Y-94816342D02*
X107757143Y-94768723D01*
X107757143Y-94768723D02*
X107661905Y-94768723D01*
X107709524Y-95006819D02*
X107614286Y-94959200D01*
X107614286Y-94959200D02*
X107519048Y-94863961D01*
X107519048Y-94863961D02*
X107471429Y-94673485D01*
X107471429Y-94673485D02*
X107471429Y-94340152D01*
X107471429Y-94340152D02*
X107519048Y-94149676D01*
X107519048Y-94149676D02*
X107614286Y-94054438D01*
X107614286Y-94054438D02*
X107709524Y-94006819D01*
X107709524Y-94006819D02*
X107900000Y-94006819D01*
X107900000Y-94006819D02*
X107995238Y-94054438D01*
X107995238Y-94054438D02*
X108090476Y-94149676D01*
X108090476Y-94149676D02*
X108138095Y-94340152D01*
X108138095Y-94340152D02*
X108138095Y-94673485D01*
X108138095Y-94673485D02*
X108090476Y-94863961D01*
X108090476Y-94863961D02*
X107995238Y-94959200D01*
X107995238Y-94959200D02*
X107900000Y-95006819D01*
X107900000Y-95006819D02*
X107709524Y-95006819D01*
X109090476Y-95006819D02*
X108519048Y-95006819D01*
X108804762Y-95006819D02*
X108804762Y-94006819D01*
X108804762Y-94006819D02*
X108709524Y-94149676D01*
X108709524Y-94149676D02*
X108614286Y-94244914D01*
X108614286Y-94244914D02*
X108519048Y-94292533D01*
X70553333Y-103518819D02*
X70220000Y-103042628D01*
X69981905Y-103518819D02*
X69981905Y-102518819D01*
X69981905Y-102518819D02*
X70362857Y-102518819D01*
X70362857Y-102518819D02*
X70458095Y-102566438D01*
X70458095Y-102566438D02*
X70505714Y-102614057D01*
X70505714Y-102614057D02*
X70553333Y-102709295D01*
X70553333Y-102709295D02*
X70553333Y-102852152D01*
X70553333Y-102852152D02*
X70505714Y-102947390D01*
X70505714Y-102947390D02*
X70458095Y-102995009D01*
X70458095Y-102995009D02*
X70362857Y-103042628D01*
X70362857Y-103042628D02*
X69981905Y-103042628D01*
X71458095Y-102518819D02*
X70981905Y-102518819D01*
X70981905Y-102518819D02*
X70934286Y-102995009D01*
X70934286Y-102995009D02*
X70981905Y-102947390D01*
X70981905Y-102947390D02*
X71077143Y-102899771D01*
X71077143Y-102899771D02*
X71315238Y-102899771D01*
X71315238Y-102899771D02*
X71410476Y-102947390D01*
X71410476Y-102947390D02*
X71458095Y-102995009D01*
X71458095Y-102995009D02*
X71505714Y-103090247D01*
X71505714Y-103090247D02*
X71505714Y-103328342D01*
X71505714Y-103328342D02*
X71458095Y-103423580D01*
X71458095Y-103423580D02*
X71410476Y-103471200D01*
X71410476Y-103471200D02*
X71315238Y-103518819D01*
X71315238Y-103518819D02*
X71077143Y-103518819D01*
X71077143Y-103518819D02*
X70981905Y-103471200D01*
X70981905Y-103471200D02*
X70934286Y-103423580D01*
X111266666Y-125794819D02*
X111266666Y-126509104D01*
X111266666Y-126509104D02*
X111219047Y-126651961D01*
X111219047Y-126651961D02*
X111123809Y-126747200D01*
X111123809Y-126747200D02*
X110980952Y-126794819D01*
X110980952Y-126794819D02*
X110885714Y-126794819D01*
X112219047Y-125794819D02*
X111742857Y-125794819D01*
X111742857Y-125794819D02*
X111695238Y-126271009D01*
X111695238Y-126271009D02*
X111742857Y-126223390D01*
X111742857Y-126223390D02*
X111838095Y-126175771D01*
X111838095Y-126175771D02*
X112076190Y-126175771D01*
X112076190Y-126175771D02*
X112171428Y-126223390D01*
X112171428Y-126223390D02*
X112219047Y-126271009D01*
X112219047Y-126271009D02*
X112266666Y-126366247D01*
X112266666Y-126366247D02*
X112266666Y-126604342D01*
X112266666Y-126604342D02*
X112219047Y-126699580D01*
X112219047Y-126699580D02*
X112171428Y-126747200D01*
X112171428Y-126747200D02*
X112076190Y-126794819D01*
X112076190Y-126794819D02*
X111838095Y-126794819D01*
X111838095Y-126794819D02*
X111742857Y-126747200D01*
X111742857Y-126747200D02*
X111695238Y-126699580D01*
D12*
%TO.C,C3*%
X119930000Y-110230000D02*
X119930000Y-110545000D01*
X119930000Y-110230000D02*
X124870000Y-110230000D01*
X119930000Y-112655000D02*
X119930000Y-112970000D01*
X119930000Y-112970000D02*
X124870000Y-112970000D01*
X124870000Y-110230000D02*
X124870000Y-110545000D01*
X124870000Y-112655000D02*
X124870000Y-112970000D01*
%TO.C,J6*%
X120540000Y-127340000D02*
X121600000Y-127340000D01*
X120540000Y-128400000D02*
X120540000Y-127340000D01*
X120540000Y-129400000D02*
X120540000Y-135460000D01*
X120540000Y-129400000D02*
X122660000Y-129400000D01*
X120540000Y-135460000D02*
X122660000Y-135460000D01*
X122660000Y-129400000D02*
X122660000Y-135460000D01*
%TO.C,TP3*%
X64950000Y-72800000D02*
G75*
G02*
X63050000Y-72800000I-950000J0D01*
G01*
X63050000Y-72800000D02*
G75*
G02*
X64950000Y-72800000I950000J0D01*
G01*
%TO.C,C6*%
X123520000Y-65170000D02*
X133680000Y-65170000D01*
X123520000Y-65210000D02*
X133680000Y-65210000D01*
X123520000Y-65250000D02*
X133680000Y-65250000D01*
X123521000Y-65130000D02*
X133679000Y-65130000D01*
X123522000Y-65090000D02*
X133678000Y-65090000D01*
X123523000Y-65050000D02*
X133677000Y-65050000D01*
X123525000Y-65010000D02*
X127560000Y-65010000D01*
X123527000Y-64970000D02*
X127560000Y-64970000D01*
X123530000Y-64930000D02*
X127560000Y-64930000D01*
X123532000Y-64890000D02*
X127560000Y-64890000D01*
X123535000Y-64850000D02*
X127560000Y-64850000D01*
X123538000Y-64810000D02*
X127560000Y-64810000D01*
X123542000Y-64770000D02*
X127560000Y-64770000D01*
X123546000Y-64730000D02*
X127560000Y-64730000D01*
X123550000Y-64690000D02*
X127560000Y-64690000D01*
X123555000Y-64650000D02*
X127560000Y-64650000D01*
X123560000Y-64610000D02*
X127560000Y-64610000D01*
X123565000Y-64570000D02*
X127560000Y-64570000D01*
X123570000Y-64529000D02*
X127560000Y-64529000D01*
X123576000Y-64489000D02*
X127560000Y-64489000D01*
X123582000Y-64449000D02*
X127560000Y-64449000D01*
X123589000Y-64409000D02*
X127560000Y-64409000D01*
X123596000Y-64369000D02*
X127560000Y-64369000D01*
X123603000Y-64329000D02*
X127560000Y-64329000D01*
X123610000Y-64289000D02*
X127560000Y-64289000D01*
X123618000Y-64249000D02*
X127560000Y-64249000D01*
X123626000Y-64209000D02*
X127560000Y-64209000D01*
X123635000Y-64169000D02*
X127560000Y-64169000D01*
X123644000Y-64129000D02*
X127560000Y-64129000D01*
X123653000Y-64089000D02*
X127560000Y-64089000D01*
X123662000Y-64049000D02*
X127560000Y-64049000D01*
X123672000Y-64009000D02*
X127560000Y-64009000D01*
X123682000Y-63969000D02*
X127560000Y-63969000D01*
X123693000Y-63929000D02*
X127560000Y-63929000D01*
X123703000Y-63889000D02*
X127560000Y-63889000D01*
X123715000Y-63849000D02*
X127560000Y-63849000D01*
X123726000Y-63809000D02*
X127560000Y-63809000D01*
X123738000Y-63769000D02*
X127560000Y-63769000D01*
X123750000Y-63729000D02*
X127560000Y-63729000D01*
X123763000Y-63689000D02*
X127560000Y-63689000D01*
X123776000Y-63649000D02*
X127560000Y-63649000D01*
X123789000Y-63609000D02*
X127560000Y-63609000D01*
X123803000Y-63569000D02*
X127560000Y-63569000D01*
X123817000Y-63529000D02*
X127560000Y-63529000D01*
X123832000Y-63489000D02*
X127560000Y-63489000D01*
X123846000Y-63449000D02*
X127560000Y-63449000D01*
X123862000Y-63409000D02*
X127560000Y-63409000D01*
X123877000Y-63369000D02*
X127560000Y-63369000D01*
X123893000Y-63329000D02*
X127560000Y-63329000D01*
X123910000Y-63289000D02*
X127560000Y-63289000D01*
X123926000Y-63249000D02*
X127560000Y-63249000D01*
X123943000Y-63209000D02*
X127560000Y-63209000D01*
X123961000Y-63169000D02*
X127560000Y-63169000D01*
X123979000Y-63129000D02*
X127560000Y-63129000D01*
X123997000Y-63089000D02*
X127560000Y-63089000D01*
X124016000Y-63049000D02*
X127560000Y-63049000D01*
X124036000Y-63009000D02*
X127560000Y-63009000D01*
X124055000Y-62969000D02*
X127560000Y-62969000D01*
X124075000Y-62929000D02*
X133125000Y-62929000D01*
X124096000Y-62889000D02*
X133104000Y-62889000D01*
X124117000Y-62849000D02*
X133083000Y-62849000D01*
X124138000Y-62809000D02*
X133062000Y-62809000D01*
X124160000Y-62769000D02*
X133040000Y-62769000D01*
X124183000Y-62729000D02*
X133017000Y-62729000D01*
X124205000Y-62689000D02*
X132995000Y-62689000D01*
X124229000Y-62649000D02*
X132971000Y-62649000D01*
X124253000Y-62609000D02*
X132947000Y-62609000D01*
X124277000Y-62569000D02*
X132923000Y-62569000D01*
X124302000Y-62529000D02*
X132898000Y-62529000D01*
X124327000Y-62489000D02*
X132873000Y-62489000D01*
X124353000Y-62449000D02*
X132847000Y-62449000D01*
X124379000Y-62409000D02*
X132821000Y-62409000D01*
X124406000Y-62369000D02*
X132794000Y-62369000D01*
X124434000Y-62329000D02*
X132766000Y-62329000D01*
X124462000Y-62289000D02*
X132738000Y-62289000D01*
X124490000Y-62249000D02*
X132710000Y-62249000D01*
X124520000Y-62209000D02*
X132680000Y-62209000D01*
X124550000Y-62169000D02*
X132650000Y-62169000D01*
X124580000Y-62129000D02*
X132620000Y-62129000D01*
X124611000Y-62089000D02*
X132589000Y-62089000D01*
X124643000Y-62049000D02*
X132557000Y-62049000D01*
X124675000Y-62009000D02*
X132525000Y-62009000D01*
X124708000Y-61969000D02*
X132492000Y-61969000D01*
X124742000Y-61929000D02*
X132458000Y-61929000D01*
X124776000Y-61889000D02*
X132424000Y-61889000D01*
X124811000Y-61849000D02*
X132389000Y-61849000D01*
X124847000Y-61809000D02*
X132353000Y-61809000D01*
X124884000Y-61769000D02*
X132316000Y-61769000D01*
X124921000Y-61729000D02*
X132279000Y-61729000D01*
X124960000Y-61689000D02*
X132240000Y-61689000D01*
X124999000Y-61649000D02*
X132201000Y-61649000D01*
X125039000Y-61609000D02*
X132161000Y-61609000D01*
X125080000Y-61569000D02*
X132120000Y-61569000D01*
X125122000Y-61529000D02*
X132078000Y-61529000D01*
X125164000Y-61489000D02*
X132036000Y-61489000D01*
X125208000Y-61449000D02*
X131992000Y-61449000D01*
X125225000Y-70229646D02*
X126225000Y-70229646D01*
X125253000Y-61409000D02*
X131947000Y-61409000D01*
X125299000Y-61369000D02*
X131901000Y-61369000D01*
X125346000Y-61329000D02*
X131854000Y-61329000D01*
X125394000Y-61289000D02*
X131806000Y-61289000D01*
X125444000Y-61249000D02*
X131756000Y-61249000D01*
X125494000Y-61209000D02*
X131706000Y-61209000D01*
X125546000Y-61169000D02*
X131654000Y-61169000D01*
X125600000Y-61129000D02*
X131600000Y-61129000D01*
X125655000Y-61089000D02*
X131545000Y-61089000D01*
X125711000Y-61049000D02*
X131489000Y-61049000D01*
X125725000Y-70729646D02*
X125725000Y-69729646D01*
X125770000Y-61009000D02*
X131430000Y-61009000D01*
X125830000Y-60969000D02*
X131370000Y-60969000D01*
X125891000Y-60929000D02*
X131309000Y-60929000D01*
X125955000Y-60889000D02*
X131245000Y-60889000D01*
X126021000Y-60849000D02*
X131179000Y-60849000D01*
X126090000Y-60809000D02*
X131110000Y-60809000D01*
X126161000Y-60769000D02*
X131039000Y-60769000D01*
X126235000Y-60729000D02*
X130965000Y-60729000D01*
X126311000Y-60689000D02*
X130889000Y-60689000D01*
X126391000Y-60649000D02*
X130809000Y-60649000D01*
X126475000Y-60609000D02*
X130725000Y-60609000D01*
X126563000Y-60569000D02*
X130637000Y-60569000D01*
X126656000Y-60529000D02*
X130544000Y-60529000D01*
X126754000Y-60489000D02*
X130446000Y-60489000D01*
X126858000Y-60449000D02*
X130342000Y-60449000D01*
X126970000Y-60409000D02*
X130230000Y-60409000D01*
X127090000Y-60369000D02*
X130110000Y-60369000D01*
X127222000Y-60329000D02*
X129978000Y-60329000D01*
X127370000Y-60289000D02*
X129830000Y-60289000D01*
X127538000Y-60249000D02*
X129662000Y-60249000D01*
X127738000Y-60209000D02*
X129462000Y-60209000D01*
X128001000Y-60169000D02*
X129199000Y-60169000D01*
X129640000Y-62969000D02*
X133145000Y-62969000D01*
X129640000Y-63009000D02*
X133164000Y-63009000D01*
X129640000Y-63049000D02*
X133184000Y-63049000D01*
X129640000Y-63089000D02*
X133203000Y-63089000D01*
X129640000Y-63129000D02*
X133221000Y-63129000D01*
X129640000Y-63169000D02*
X133239000Y-63169000D01*
X129640000Y-63209000D02*
X133257000Y-63209000D01*
X129640000Y-63249000D02*
X133274000Y-63249000D01*
X129640000Y-63289000D02*
X133290000Y-63289000D01*
X129640000Y-63329000D02*
X133307000Y-63329000D01*
X129640000Y-63369000D02*
X133323000Y-63369000D01*
X129640000Y-63409000D02*
X133338000Y-63409000D01*
X129640000Y-63449000D02*
X133354000Y-63449000D01*
X129640000Y-63489000D02*
X133368000Y-63489000D01*
X129640000Y-63529000D02*
X133383000Y-63529000D01*
X129640000Y-63569000D02*
X133397000Y-63569000D01*
X129640000Y-63609000D02*
X133411000Y-63609000D01*
X129640000Y-63649000D02*
X133424000Y-63649000D01*
X129640000Y-63689000D02*
X133437000Y-63689000D01*
X129640000Y-63729000D02*
X133450000Y-63729000D01*
X129640000Y-63769000D02*
X133462000Y-63769000D01*
X129640000Y-63809000D02*
X133474000Y-63809000D01*
X129640000Y-63849000D02*
X133485000Y-63849000D01*
X129640000Y-63889000D02*
X133497000Y-63889000D01*
X129640000Y-63929000D02*
X133507000Y-63929000D01*
X129640000Y-63969000D02*
X133518000Y-63969000D01*
X129640000Y-64009000D02*
X133528000Y-64009000D01*
X129640000Y-64049000D02*
X133538000Y-64049000D01*
X129640000Y-64089000D02*
X133547000Y-64089000D01*
X129640000Y-64129000D02*
X133556000Y-64129000D01*
X129640000Y-64169000D02*
X133565000Y-64169000D01*
X129640000Y-64209000D02*
X133574000Y-64209000D01*
X129640000Y-64249000D02*
X133582000Y-64249000D01*
X129640000Y-64289000D02*
X133590000Y-64289000D01*
X129640000Y-64329000D02*
X133597000Y-64329000D01*
X129640000Y-64369000D02*
X133604000Y-64369000D01*
X129640000Y-64409000D02*
X133611000Y-64409000D01*
X129640000Y-64449000D02*
X133618000Y-64449000D01*
X129640000Y-64489000D02*
X133624000Y-64489000D01*
X129640000Y-64529000D02*
X133630000Y-64529000D01*
X129640000Y-64570000D02*
X133635000Y-64570000D01*
X129640000Y-64610000D02*
X133640000Y-64610000D01*
X129640000Y-64650000D02*
X133645000Y-64650000D01*
X129640000Y-64690000D02*
X133650000Y-64690000D01*
X129640000Y-64730000D02*
X133654000Y-64730000D01*
X129640000Y-64770000D02*
X133658000Y-64770000D01*
X129640000Y-64810000D02*
X133662000Y-64810000D01*
X129640000Y-64850000D02*
X133665000Y-64850000D01*
X129640000Y-64890000D02*
X133668000Y-64890000D01*
X129640000Y-64930000D02*
X133670000Y-64930000D01*
X129640000Y-64970000D02*
X133673000Y-64970000D01*
X129640000Y-65010000D02*
X133675000Y-65010000D01*
X133720000Y-65250000D02*
G75*
G02*
X123480000Y-65250000I-5120000J0D01*
G01*
X123480000Y-65250000D02*
G75*
G02*
X133720000Y-65250000I5120000J0D01*
G01*
%TO.C,R10*%
X128480000Y-92980000D02*
X128480000Y-102220000D01*
X128480000Y-102220000D02*
X131920000Y-102220000D01*
X130200000Y-92290000D02*
X130200000Y-92980000D01*
X130200000Y-102910000D02*
X130200000Y-102220000D01*
X131920000Y-92980000D02*
X128480000Y-92980000D01*
X131920000Y-102220000D02*
X131920000Y-92980000D01*
%TO.C,R9*%
X86280000Y-91380000D02*
X86280000Y-100620000D01*
X86280000Y-100620000D02*
X89720000Y-100620000D01*
X88000000Y-90690000D02*
X88000000Y-91380000D01*
X88000000Y-101310000D02*
X88000000Y-100620000D01*
X89720000Y-91380000D02*
X86280000Y-91380000D01*
X89720000Y-100620000D02*
X89720000Y-91380000D01*
D13*
%TO.C,J4*%
X51745000Y-94490000D02*
X51745000Y-92220000D01*
X51745000Y-95130000D02*
X51745000Y-99650000D01*
X51745000Y-100290000D02*
X51745000Y-104810000D01*
X51745000Y-105450000D02*
X51745000Y-107700000D01*
X51745000Y-107700000D02*
X60795000Y-107700000D01*
X60795000Y-92220000D02*
X51745000Y-92220000D01*
X60795000Y-107700000D02*
X60795000Y-92220000D01*
X51745000Y-95130000D02*
G75*
G02*
X51745000Y-94490000I125001J320000D01*
G01*
X51745000Y-100290000D02*
G75*
G02*
X51745000Y-99650000I125001J320000D01*
G01*
X51745000Y-105450000D02*
G75*
G02*
X51745000Y-104810000I125001J320000D01*
G01*
X58240000Y-103860000D02*
G75*
G02*
X58040000Y-103860000I-100000J0D01*
G01*
X58040000Y-103860000D02*
G75*
G02*
X58240000Y-103860000I100000J0D01*
G01*
D14*
X60695000Y-102210000D02*
X59445000Y-102210000D01*
X59445000Y-97710000D01*
X60695000Y-97710000D01*
X60695000Y-102210000D01*
G36*
X60695000Y-102210000D02*
G01*
X59445000Y-102210000D01*
X59445000Y-97710000D01*
X60695000Y-97710000D01*
X60695000Y-102210000D01*
G37*
D12*
%TO.C,C9*%
X69496000Y-93034000D02*
X69496000Y-97974000D01*
X69811000Y-93034000D02*
X69496000Y-93034000D01*
X69811000Y-97974000D02*
X69496000Y-97974000D01*
X72236000Y-93034000D02*
X71921000Y-93034000D01*
X72236000Y-93034000D02*
X72236000Y-97974000D01*
X72236000Y-97974000D02*
X71921000Y-97974000D01*
%TO.C,R14*%
X137680000Y-94380000D02*
X137680000Y-103620000D01*
X137680000Y-103620000D02*
X141120000Y-103620000D01*
X139400000Y-93690000D02*
X139400000Y-94380000D01*
X139400000Y-104310000D02*
X139400000Y-103620000D01*
X141120000Y-94380000D02*
X137680000Y-94380000D01*
X141120000Y-103620000D02*
X141120000Y-94380000D01*
%TO.C,R18*%
X122090000Y-74650000D02*
X122780000Y-74650000D01*
X122780000Y-72930000D02*
X122780000Y-76370000D01*
X122780000Y-76370000D02*
X132020000Y-76370000D01*
X132020000Y-72930000D02*
X122780000Y-72930000D01*
X132020000Y-76370000D02*
X132020000Y-72930000D01*
X132710000Y-74650000D02*
X132020000Y-74650000D01*
%TO.C,R4*%
X60646666Y-78580000D02*
X60646666Y-87820000D01*
X60646666Y-87820000D02*
X64086666Y-87820000D01*
X62366666Y-77890000D02*
X62366666Y-78580000D01*
X62366666Y-88510000D02*
X62366666Y-87820000D01*
X64086666Y-78580000D02*
X60646666Y-78580000D01*
X64086666Y-87820000D02*
X64086666Y-78580000D01*
%TO.C,R6*%
X67334000Y-56134000D02*
X68024000Y-56134000D01*
X68024000Y-54414000D02*
X68024000Y-57854000D01*
X68024000Y-57854000D02*
X77264000Y-57854000D01*
X77264000Y-54414000D02*
X68024000Y-54414000D01*
X77264000Y-57854000D02*
X77264000Y-54414000D01*
X77954000Y-56134000D02*
X77264000Y-56134000D01*
%TO.C,R3*%
X66213332Y-78580000D02*
X66213332Y-87820000D01*
X66213332Y-87820000D02*
X69653332Y-87820000D01*
X67933332Y-77890000D02*
X67933332Y-78580000D01*
X67933332Y-88510000D02*
X67933332Y-87820000D01*
X69653332Y-78580000D02*
X66213332Y-78580000D01*
X69653332Y-87820000D02*
X69653332Y-78580000D01*
%TO.C,Q4*%
X145380000Y-74175000D02*
X145380000Y-70575000D01*
X141180000Y-71265000D02*
G75*
G02*
X142431629Y-70019542I2350000J-1110000D01*
G01*
X142426158Y-74742199D02*
G75*
G02*
X141180000Y-73515000I1103842J2367199D01*
G01*
X144652795Y-70050816D02*
G75*
G02*
X145380000Y-70575000I-1122795J-2324184D01*
G01*
X145380000Y-74175000D02*
G75*
G02*
X144652795Y-74699184I-1850000J1800000D01*
G01*
D11*
%TO.C,J1*%
X73150000Y-133500000D02*
G75*
G02*
X69650000Y-133500000I-1750000J0D01*
G01*
X69650000Y-133500000D02*
G75*
G02*
X73150000Y-133500000I1750000J0D01*
G01*
D12*
%TO.C,R8*%
X122090000Y-79800000D02*
X122780000Y-79800000D01*
X122780000Y-78080000D02*
X122780000Y-81520000D01*
X122780000Y-81520000D02*
X132020000Y-81520000D01*
X132020000Y-78080000D02*
X122780000Y-78080000D01*
X132020000Y-81520000D02*
X132020000Y-78080000D01*
X132710000Y-79800000D02*
X132020000Y-79800000D01*
%TO.C,J10*%
X135320000Y-61261000D02*
X135320000Y-51340000D01*
X136645000Y-57069000D02*
X136692000Y-57023000D01*
X136850000Y-57275000D02*
X136885000Y-57239000D01*
X138954000Y-54761000D02*
X138989000Y-54726000D01*
X139147000Y-54977000D02*
X139194000Y-54931000D01*
X145600000Y-51340000D02*
X135320000Y-51340000D01*
X145600000Y-51900000D02*
X135320000Y-51900000D01*
X145600000Y-53400000D02*
X135320000Y-53400000D01*
X145600000Y-58301000D02*
X135320000Y-58301000D01*
X145600000Y-61261000D02*
X135320000Y-61261000D01*
X145600000Y-61261000D02*
X145600000Y-51340000D01*
X145840000Y-51100000D02*
X145340000Y-51100000D01*
X145840000Y-51840000D02*
X145840000Y-51100000D01*
X141464573Y-56683042D02*
G75*
G02*
X141465000Y-55316000I1535427J683042D01*
G01*
X142316682Y-54465244D02*
G75*
G02*
X143000000Y-54320000I683318J-1534756D01*
G01*
X142971195Y-54319747D02*
G75*
G02*
X143684000Y-54465000I28806J-1680254D01*
G01*
X143683042Y-57535427D02*
G75*
G02*
X142316000Y-57535000I-683041J1535420D01*
G01*
X144535427Y-55316958D02*
G75*
G02*
X144535000Y-56684000I-1535420J-683041D01*
G01*
X139600000Y-56000000D02*
G75*
G02*
X136240000Y-56000000I-1680000J0D01*
G01*
X136240000Y-56000000D02*
G75*
G02*
X139600000Y-56000000I1680000J0D01*
G01*
%TO.C,Q2*%
X77210000Y-73540000D02*
X77210000Y-72740000D01*
X77210000Y-73540000D02*
X77210000Y-74340000D01*
X80330000Y-73540000D02*
X80330000Y-72740000D01*
X80330000Y-73540000D02*
X80330000Y-74340000D01*
X77260000Y-74840000D02*
X76930000Y-75080000D01*
X76930000Y-74600000D01*
X77260000Y-74840000D01*
G36*
X77260000Y-74840000D02*
G01*
X76930000Y-75080000D01*
X76930000Y-74600000D01*
X77260000Y-74840000D01*
G37*
%TO.C,R11*%
X128480000Y-108780000D02*
X128480000Y-118020000D01*
X128480000Y-118020000D02*
X131920000Y-118020000D01*
X130200000Y-108090000D02*
X130200000Y-108780000D01*
X130200000Y-118710000D02*
X130200000Y-118020000D01*
X131920000Y-108780000D02*
X128480000Y-108780000D01*
X131920000Y-118020000D02*
X131920000Y-108780000D01*
%TO.C,Q5*%
X145800000Y-120400000D02*
X145800000Y-116800000D01*
X141600000Y-117490000D02*
G75*
G02*
X142851629Y-116244542I2350000J-1110000D01*
G01*
X142846158Y-120967199D02*
G75*
G02*
X141600000Y-119740000I1103842J2367199D01*
G01*
X145072795Y-116275816D02*
G75*
G02*
X145800000Y-116800000I-1122795J-2324184D01*
G01*
X145800000Y-120400000D02*
G75*
G02*
X145072795Y-120924184I-1850000J1800000D01*
G01*
%TO.C,R2*%
X71780000Y-78580000D02*
X71780000Y-87820000D01*
X71780000Y-87820000D02*
X75220000Y-87820000D01*
X73500000Y-77890000D02*
X73500000Y-78580000D01*
X73500000Y-88510000D02*
X73500000Y-87820000D01*
X75220000Y-78580000D02*
X71780000Y-78580000D01*
X75220000Y-87820000D02*
X75220000Y-78580000D01*
%TO.C,R7*%
X81280000Y-91380000D02*
X81280000Y-100620000D01*
X81280000Y-100620000D02*
X84720000Y-100620000D01*
X83000000Y-90690000D02*
X83000000Y-91380000D01*
X83000000Y-101310000D02*
X83000000Y-100620000D01*
X84720000Y-91380000D02*
X81280000Y-91380000D01*
X84720000Y-100620000D02*
X84720000Y-91380000D01*
%TO.C,R1*%
X55080000Y-78580000D02*
X55080000Y-87820000D01*
X55080000Y-87820000D02*
X58520000Y-87820000D01*
X56800000Y-77890000D02*
X56800000Y-78580000D01*
X56800000Y-88510000D02*
X56800000Y-87820000D01*
X58520000Y-78580000D02*
X55080000Y-78580000D01*
X58520000Y-87820000D02*
X58520000Y-78580000D01*
%TO.C,R16*%
X142880000Y-94730000D02*
X142880000Y-103970000D01*
X142880000Y-103970000D02*
X146320000Y-103970000D01*
X144600000Y-94040000D02*
X144600000Y-94730000D01*
X144600000Y-104660000D02*
X144600000Y-103970000D01*
X146320000Y-94730000D02*
X142880000Y-94730000D01*
X146320000Y-103970000D02*
X146320000Y-94730000D01*
%TO.C,D2*%
X99490000Y-91000000D02*
X100480000Y-91000000D01*
X100480000Y-89080000D02*
X100480000Y-92920000D01*
X100480000Y-92920000D02*
X108320000Y-92920000D01*
X101620000Y-89080000D02*
X101620000Y-92920000D01*
X101740000Y-89080000D02*
X101740000Y-92920000D01*
X101860000Y-89080000D02*
X101860000Y-92920000D01*
X108320000Y-89080000D02*
X100480000Y-89080000D01*
X108320000Y-92920000D02*
X108320000Y-89080000D01*
X109310000Y-91000000D02*
X108320000Y-91000000D01*
%TO.C,TP4*%
X73450000Y-71000000D02*
G75*
G02*
X71550000Y-71000000I-950000J0D01*
G01*
X71550000Y-71000000D02*
G75*
G02*
X73450000Y-71000000I950000J0D01*
G01*
%TO.C,J9*%
X111670000Y-51270000D02*
X113000000Y-51270000D01*
X111670000Y-52600000D02*
X111670000Y-51270000D01*
X111670000Y-53870000D02*
X111670000Y-81870000D01*
X111670000Y-53870000D02*
X114330000Y-53870000D01*
X111670000Y-81870000D02*
X114330000Y-81870000D01*
X114330000Y-53870000D02*
X114330000Y-81870000D01*
%TO.C,Q3*%
X112120000Y-103800000D02*
X112120000Y-100200000D01*
X107920000Y-100890000D02*
G75*
G02*
X109171629Y-99644542I2350000J-1110000D01*
G01*
X109166158Y-104367199D02*
G75*
G02*
X107920000Y-103140000I1103842J2367199D01*
G01*
X111392795Y-99675816D02*
G75*
G02*
X112120000Y-100200000I-1122795J-2324184D01*
G01*
X112120000Y-103800000D02*
G75*
G02*
X111392795Y-104324184I-1850000J1800000D01*
G01*
%TO.C,R19*%
X112680000Y-86780000D02*
X112680000Y-96020000D01*
X112680000Y-96020000D02*
X116120000Y-96020000D01*
X114400000Y-86090000D02*
X114400000Y-86780000D01*
X114400000Y-96710000D02*
X114400000Y-96020000D01*
X116120000Y-86780000D02*
X112680000Y-86780000D01*
X116120000Y-96020000D02*
X116120000Y-86780000D01*
%TO.C,C10*%
X123630000Y-94530000D02*
X123945000Y-94530000D01*
X123630000Y-99470000D02*
X123630000Y-94530000D01*
X123630000Y-99470000D02*
X123945000Y-99470000D01*
X126055000Y-94530000D02*
X126370000Y-94530000D01*
X126055000Y-99470000D02*
X126370000Y-99470000D01*
X126370000Y-99470000D02*
X126370000Y-94530000D01*
%TO.C,TPQ2*%
X153950000Y-93000000D02*
G75*
G02*
X152050000Y-93000000I-950000J0D01*
G01*
X152050000Y-93000000D02*
G75*
G02*
X153950000Y-93000000I950000J0D01*
G01*
%TO.C,Analog1*%
X122450000Y-70250000D02*
G75*
G02*
X120550000Y-70250000I-950000J0D01*
G01*
X120550000Y-70250000D02*
G75*
G02*
X122450000Y-70250000I950000J0D01*
G01*
%TO.C,R17*%
X143690000Y-86000000D02*
X144380000Y-86000000D01*
X144380000Y-84280000D02*
X144380000Y-87720000D01*
X144380000Y-87720000D02*
X153620000Y-87720000D01*
X153620000Y-84280000D02*
X144380000Y-84280000D01*
X153620000Y-87720000D02*
X153620000Y-84280000D01*
X154310000Y-86000000D02*
X153620000Y-86000000D01*
%TO.C,20v1*%
X126550000Y-121000000D02*
G75*
G02*
X124650000Y-121000000I-950000J0D01*
G01*
X124650000Y-121000000D02*
G75*
G02*
X126550000Y-121000000I950000J0D01*
G01*
%TO.C,PAOut1*%
X128950000Y-56000000D02*
G75*
G02*
X127050000Y-56000000I-950000J0D01*
G01*
X127050000Y-56000000D02*
G75*
G02*
X128950000Y-56000000I950000J0D01*
G01*
%TO.C,C4*%
X99130000Y-94830000D02*
X99130000Y-95145000D01*
X99130000Y-94830000D02*
X104070000Y-94830000D01*
X99130000Y-97255000D02*
X99130000Y-97570000D01*
X99130000Y-97570000D02*
X104070000Y-97570000D01*
X104070000Y-94830000D02*
X104070000Y-95145000D01*
X104070000Y-97255000D02*
X104070000Y-97570000D01*
D11*
%TO.C,U2*%
X82875000Y-109875000D02*
X82875000Y-110200000D01*
X82875000Y-109875000D02*
X83200000Y-109875000D01*
X82875000Y-117125000D02*
X82875000Y-116800000D01*
X82875000Y-117125000D02*
X83100000Y-117125000D01*
X90125000Y-109875000D02*
X89800000Y-109875000D01*
X90125000Y-109875000D02*
X90125000Y-110200000D01*
X90125000Y-117125000D02*
X89800000Y-117125000D01*
X90125000Y-117125000D02*
X90125000Y-116800000D01*
D12*
X83160000Y-117890000D02*
X82690000Y-118230000D01*
X82690000Y-117550000D01*
X83160000Y-117890000D01*
G36*
X83160000Y-117890000D02*
G01*
X82690000Y-118230000D01*
X82690000Y-117550000D01*
X83160000Y-117890000D01*
G37*
D11*
%TO.C,J2*%
X65350000Y-133500000D02*
G75*
G02*
X61850000Y-133500000I-1750000J0D01*
G01*
X61850000Y-133500000D02*
G75*
G02*
X65350000Y-133500000I1750000J0D01*
G01*
D12*
%TO.C,J7*%
X82870000Y-132195000D02*
X84200000Y-132195000D01*
X82870000Y-133525000D02*
X82870000Y-132195000D01*
X82870000Y-134795000D02*
X82870000Y-137395000D01*
X82870000Y-134795000D02*
X85530000Y-134795000D01*
X82870000Y-137395000D02*
X85530000Y-137395000D01*
X85530000Y-134795000D02*
X85530000Y-137395000D01*
%TO.C,J3*%
X76870000Y-131995000D02*
X78200000Y-131995000D01*
X76870000Y-133325000D02*
X76870000Y-131995000D01*
X76870000Y-134595000D02*
X76870000Y-137195000D01*
X76870000Y-134595000D02*
X79530000Y-134595000D01*
X76870000Y-137195000D02*
X79530000Y-137195000D01*
X79530000Y-134595000D02*
X79530000Y-137195000D01*
%TO.C,C5*%
X128830000Y-124730000D02*
X128830000Y-129670000D01*
X129145000Y-124730000D02*
X128830000Y-124730000D01*
X129145000Y-129670000D02*
X128830000Y-129670000D01*
X131570000Y-124730000D02*
X131255000Y-124730000D01*
X131570000Y-124730000D02*
X131570000Y-129670000D01*
X131570000Y-129670000D02*
X131255000Y-129670000D01*
%TO.C,C8*%
X73546000Y-93034000D02*
X73546000Y-97974000D01*
X73861000Y-93034000D02*
X73546000Y-93034000D01*
X73861000Y-97974000D02*
X73546000Y-97974000D01*
X76286000Y-93034000D02*
X75971000Y-93034000D01*
X76286000Y-93034000D02*
X76286000Y-97974000D01*
X76286000Y-97974000D02*
X75971000Y-97974000D01*
%TO.C,Q7*%
X152807000Y-67115000D02*
X152807000Y-77355000D01*
X155938000Y-67115000D02*
X155938000Y-77355000D01*
X157448000Y-67115000D02*
X152807000Y-67115000D01*
X157448000Y-67115000D02*
X157448000Y-77355000D01*
X157448000Y-70385000D02*
X155938000Y-70385000D01*
X157448000Y-74086000D02*
X155938000Y-74086000D01*
X157448000Y-77355000D02*
X152807000Y-77355000D01*
D15*
%TO.C,G\u002A\u002A\u002A*%
G36*
X76392894Y-66598015D02*
G01*
X76405848Y-66702900D01*
X76410323Y-66877348D01*
X76410336Y-66889821D01*
X76406337Y-67068509D01*
X76393897Y-67177308D01*
X76372352Y-67221800D01*
X76370797Y-67222530D01*
X76351140Y-67210413D01*
X76338772Y-67148740D01*
X76332559Y-67027988D01*
X76331258Y-66889821D01*
X76333525Y-66717451D01*
X76341084Y-66611444D01*
X76355064Y-66562276D01*
X76370797Y-66557111D01*
X76392894Y-66598015D01*
G37*
G36*
X78816235Y-61613436D02*
G01*
X78915285Y-61675822D01*
X78980477Y-61763737D01*
X79006248Y-61866891D01*
X78987033Y-61974997D01*
X78917267Y-62077764D01*
X78829770Y-62144357D01*
X78701819Y-62191753D01*
X78553317Y-62206622D01*
X78414523Y-62187722D01*
X78355666Y-62163823D01*
X78274843Y-62105155D01*
X78237986Y-62029167D01*
X78229625Y-61920949D01*
X78257848Y-61795520D01*
X78344178Y-61696202D01*
X78489435Y-61622158D01*
X78538823Y-61606404D01*
X78688893Y-61586867D01*
X78816235Y-61613436D01*
G37*
G36*
X78167534Y-66577957D02*
G01*
X78218060Y-66651981D01*
X78222704Y-66661436D01*
X78277339Y-66749855D01*
X78330017Y-66766747D01*
X78390255Y-66712124D01*
X78423930Y-66661677D01*
X78485269Y-66577010D01*
X78528070Y-66548051D01*
X78545377Y-66579263D01*
X78545454Y-66583723D01*
X78528959Y-66633392D01*
X78486636Y-66721878D01*
X78450560Y-66788863D01*
X78376068Y-66962568D01*
X78355666Y-67094961D01*
X78345951Y-67198596D01*
X78317655Y-67232229D01*
X78281859Y-67206687D01*
X78267627Y-67154752D01*
X78260861Y-67061556D01*
X78260772Y-67049290D01*
X78239906Y-66919994D01*
X78183448Y-66767849D01*
X78166170Y-66732424D01*
X78115033Y-66624905D01*
X78099085Y-66567092D01*
X78115558Y-66547854D01*
X78120194Y-66547605D01*
X78167534Y-66577957D01*
G37*
G36*
X70487360Y-66555124D02*
G01*
X70591033Y-66571009D01*
X70643906Y-66596281D01*
X70642780Y-66623943D01*
X70584451Y-66646996D01*
X70532872Y-66654605D01*
X70454292Y-66668672D01*
X70423051Y-66698670D01*
X70422162Y-66749665D01*
X70453624Y-66819276D01*
X70518991Y-66844816D01*
X70589338Y-66868196D01*
X70601319Y-66899911D01*
X70556471Y-66923836D01*
X70511083Y-66927845D01*
X70443265Y-66938076D01*
X70418455Y-66981567D01*
X70416189Y-67022904D01*
X70422907Y-67083691D01*
X70454821Y-67111027D01*
X70529575Y-67117896D01*
X70545350Y-67117964D01*
X70633693Y-67127863D01*
X70666418Y-67151938D01*
X70648310Y-67181760D01*
X70584154Y-67208898D01*
X70484873Y-67224517D01*
X70321295Y-67236010D01*
X70321295Y-66889821D01*
X70321295Y-66543631D01*
X70487360Y-66555124D01*
G37*
G36*
X71601857Y-66551985D02*
G01*
X71661024Y-66567513D01*
X71681070Y-66597769D01*
X71681444Y-66604641D01*
X71653947Y-66650514D01*
X71602366Y-66661677D01*
X71562143Y-66665231D01*
X71538566Y-66686572D01*
X71527191Y-66741720D01*
X71523578Y-66846692D01*
X71523287Y-66946857D01*
X71520802Y-67097281D01*
X71511820Y-67185579D01*
X71494054Y-67225502D01*
X71475840Y-67232036D01*
X71450813Y-67217097D01*
X71436123Y-67163113D01*
X71429480Y-67056330D01*
X71428393Y-66946857D01*
X71426899Y-66801048D01*
X71420086Y-66715496D01*
X71404458Y-66674441D01*
X71376518Y-66662124D01*
X71365130Y-66661677D01*
X71313610Y-66637902D01*
X71301868Y-66604641D01*
X71316443Y-66571523D01*
X71368112Y-66553742D01*
X71468789Y-66547717D01*
X71491656Y-66547605D01*
X71601857Y-66551985D01*
G37*
G36*
X77358769Y-66551985D02*
G01*
X77417936Y-66567513D01*
X77437982Y-66597769D01*
X77438356Y-66604641D01*
X77410859Y-66650514D01*
X77359277Y-66661677D01*
X77319055Y-66665231D01*
X77295477Y-66686572D01*
X77284103Y-66741720D01*
X77280490Y-66846692D01*
X77280199Y-66946857D01*
X77276405Y-67108625D01*
X77263805Y-67201251D01*
X77240569Y-67231173D01*
X77206392Y-67206687D01*
X77195785Y-67158431D01*
X77188211Y-67056227D01*
X77185305Y-66922154D01*
X77185305Y-66921507D01*
X77183516Y-66783646D01*
X77175483Y-66705349D01*
X77157203Y-66670178D01*
X77124673Y-66661696D01*
X77122042Y-66661677D01*
X77070521Y-66637902D01*
X77058779Y-66604641D01*
X77073355Y-66571523D01*
X77125024Y-66553742D01*
X77225700Y-66547717D01*
X77248568Y-66547605D01*
X77358769Y-66551985D01*
G37*
G36*
X66436152Y-66576761D02*
G01*
X66551486Y-66658279D01*
X66619805Y-66773956D01*
X66639570Y-66915614D01*
X66604399Y-67043140D01*
X66522562Y-67145595D01*
X66402331Y-67212038D01*
X66273494Y-67232036D01*
X66177584Y-67232036D01*
X66177584Y-66889821D01*
X66272478Y-66889821D01*
X66274152Y-67016261D01*
X66283302Y-67084526D01*
X66306116Y-67112473D01*
X66348785Y-67117959D01*
X66351556Y-67117964D01*
X66433376Y-67091518D01*
X66493898Y-67041916D01*
X66545158Y-66936531D01*
X66545139Y-66825278D01*
X66501052Y-66729524D01*
X66420106Y-66670637D01*
X66365578Y-66661677D01*
X66314044Y-66664828D01*
X66286228Y-66686232D01*
X66274816Y-66743813D01*
X66272495Y-66855494D01*
X66272478Y-66889821D01*
X66177584Y-66889821D01*
X66177584Y-66547605D01*
X66289864Y-66547605D01*
X66436152Y-66576761D01*
G37*
G36*
X69506787Y-66555124D02*
G01*
X69610142Y-66570980D01*
X69663224Y-66596241D01*
X69662680Y-66623890D01*
X69605160Y-66646910D01*
X69554234Y-66654466D01*
X69475371Y-66669463D01*
X69441834Y-66703570D01*
X69435616Y-66759032D01*
X69449143Y-66829807D01*
X69501706Y-66851478D01*
X69514695Y-66851797D01*
X69574140Y-66864813D01*
X69593773Y-66889821D01*
X69566704Y-66918404D01*
X69514695Y-66927845D01*
X69454500Y-66943549D01*
X69435950Y-67005386D01*
X69435616Y-67022904D01*
X69442334Y-67083691D01*
X69474248Y-67111027D01*
X69549002Y-67117896D01*
X69564778Y-67117964D01*
X69653120Y-67127863D01*
X69685845Y-67151938D01*
X69667737Y-67181760D01*
X69603581Y-67208898D01*
X69504300Y-67224517D01*
X69340722Y-67236010D01*
X69340722Y-66889821D01*
X69340722Y-66543631D01*
X69506787Y-66555124D01*
G37*
G36*
X58179409Y-66553711D02*
G01*
X58227986Y-66574851D01*
X58238107Y-66604641D01*
X58214100Y-66646826D01*
X58137480Y-66661574D01*
X58127397Y-66661677D01*
X58052528Y-66668779D01*
X58021879Y-66700740D01*
X58016687Y-66756737D01*
X58029752Y-66829097D01*
X58081193Y-66851395D01*
X58095766Y-66851797D01*
X58155211Y-66864813D01*
X58174844Y-66889821D01*
X58147775Y-66918404D01*
X58095766Y-66927845D01*
X58035571Y-66943549D01*
X58017021Y-67005386D01*
X58016687Y-67022904D01*
X58024959Y-67087190D01*
X58062181Y-67113507D01*
X58127397Y-67117964D01*
X58209280Y-67130332D01*
X58237907Y-67169806D01*
X58238107Y-67175000D01*
X58221175Y-67210868D01*
X58162555Y-67228386D01*
X58079950Y-67232036D01*
X57921793Y-67232036D01*
X57921793Y-66889821D01*
X57921793Y-66547605D01*
X58079950Y-66547605D01*
X58179409Y-66553711D01*
G37*
G36*
X60235449Y-66553711D02*
G01*
X60284026Y-66574851D01*
X60294147Y-66604641D01*
X60270139Y-66646826D01*
X60193520Y-66661574D01*
X60183437Y-66661677D01*
X60108568Y-66668779D01*
X60077919Y-66700740D01*
X60072727Y-66756737D01*
X60085792Y-66829097D01*
X60137233Y-66851395D01*
X60151805Y-66851797D01*
X60211251Y-66864813D01*
X60230884Y-66889821D01*
X60203814Y-66918404D01*
X60151805Y-66927845D01*
X60091611Y-66943549D01*
X60073061Y-67005386D01*
X60072727Y-67022904D01*
X60080998Y-67087190D01*
X60118221Y-67113507D01*
X60183437Y-67117964D01*
X60265320Y-67130332D01*
X60293947Y-67169806D01*
X60294147Y-67175000D01*
X60277215Y-67210868D01*
X60218595Y-67228386D01*
X60135990Y-67232036D01*
X59977833Y-67232036D01*
X59977833Y-66889821D01*
X59977833Y-66547605D01*
X60135990Y-66547605D01*
X60235449Y-66553711D01*
G37*
G36*
X63130163Y-66571628D02*
G01*
X63187164Y-66607150D01*
X63269547Y-66711270D01*
X63306482Y-66843170D01*
X63298599Y-66981017D01*
X63246529Y-67102975D01*
X63170744Y-67176156D01*
X63056674Y-67225630D01*
X62958785Y-67211420D01*
X62858716Y-67133596D01*
X62783861Y-67019111D01*
X62760717Y-66893857D01*
X62762475Y-66883214D01*
X62856289Y-66883214D01*
X62880578Y-66999187D01*
X62942080Y-67077675D01*
X63023749Y-67113067D01*
X63108537Y-67099752D01*
X63179397Y-67032118D01*
X63197392Y-66995489D01*
X63216616Y-66878798D01*
X63191490Y-66769047D01*
X63131742Y-66689142D01*
X63055663Y-66661677D01*
X62954388Y-66693124D01*
X62882326Y-66774971D01*
X62856289Y-66883214D01*
X62762475Y-66883214D01*
X62780983Y-66771135D01*
X62836360Y-66664248D01*
X62918549Y-66586500D01*
X63019250Y-66551192D01*
X63130163Y-66571628D01*
G37*
G36*
X62047429Y-66607357D02*
G01*
X62088149Y-66663235D01*
X62083641Y-66687602D01*
X62027474Y-66686228D01*
X61970610Y-66676278D01*
X61888174Y-66665887D01*
X61851255Y-66680140D01*
X61844084Y-66713080D01*
X61870116Y-66766073D01*
X61935721Y-66828022D01*
X61970610Y-66851797D01*
X62052551Y-66911535D01*
X62089528Y-66971779D01*
X62097135Y-67041351D01*
X62071702Y-67147066D01*
X62007508Y-67212679D01*
X61922708Y-67231281D01*
X61835460Y-67195964D01*
X61796462Y-67155755D01*
X61756959Y-67085485D01*
X61767058Y-67056003D01*
X61819857Y-67073891D01*
X61855765Y-67099192D01*
X61935749Y-67140070D01*
X61985983Y-67116725D01*
X62002241Y-67037732D01*
X61971083Y-66962761D01*
X61893834Y-66907538D01*
X61800151Y-66835343D01*
X61760793Y-66746275D01*
X61779418Y-66651357D01*
X61798689Y-66620928D01*
X61882009Y-66558383D01*
X61976034Y-66557486D01*
X62047429Y-66607357D01*
G37*
G36*
X74512982Y-66581170D02*
G01*
X74528142Y-66668167D01*
X74530864Y-66788045D01*
X74522256Y-66920257D01*
X74503426Y-67044252D01*
X74475479Y-67139481D01*
X74450280Y-67178744D01*
X74347046Y-67228047D01*
X74242331Y-67208014D01*
X74180324Y-67155988D01*
X74145012Y-67097998D01*
X74125470Y-67016779D01*
X74117740Y-66890929D01*
X74117061Y-66813773D01*
X74119851Y-66669159D01*
X74129884Y-66586393D01*
X74149654Y-66551486D01*
X74164508Y-66547605D01*
X74190342Y-66563313D01*
X74205100Y-66619772D01*
X74211289Y-66730984D01*
X74211955Y-66812435D01*
X74214690Y-66957540D01*
X74225391Y-67045409D01*
X74247801Y-67094680D01*
X74273021Y-67116551D01*
X74344654Y-67133346D01*
X74395544Y-67079075D01*
X74425208Y-66954717D01*
X74433375Y-66792045D01*
X74436219Y-66656199D01*
X74446886Y-66580839D01*
X74468574Y-66550602D01*
X74484279Y-66547605D01*
X74512982Y-66581170D01*
G37*
G36*
X64358934Y-66582968D02*
G01*
X64370054Y-66678591D01*
X64374571Y-66818781D01*
X64374595Y-66830629D01*
X64372397Y-66980205D01*
X64363102Y-67073558D01*
X64342653Y-67130426D01*
X64306998Y-67170545D01*
X64304294Y-67172844D01*
X64198304Y-67227013D01*
X64101063Y-67206799D01*
X64028946Y-67131848D01*
X63993573Y-67045933D01*
X63970044Y-66927645D01*
X63959005Y-66797841D01*
X63961101Y-66677380D01*
X63976981Y-66587119D01*
X64007289Y-66547916D01*
X64010834Y-66547605D01*
X64037726Y-66564401D01*
X64052523Y-66624280D01*
X64058025Y-66741481D01*
X64058281Y-66788867D01*
X64062949Y-66936006D01*
X64079763Y-67029033D01*
X64112935Y-67089286D01*
X64118970Y-67096153D01*
X64165695Y-67138563D01*
X64202349Y-67130242D01*
X64245496Y-67083034D01*
X64285295Y-67016704D01*
X64305497Y-66924889D01*
X64311324Y-66783205D01*
X64311332Y-66775749D01*
X64316134Y-66654226D01*
X64328679Y-66571838D01*
X64342964Y-66547605D01*
X64358934Y-66582968D01*
G37*
G36*
X72590268Y-66597090D02*
G01*
X72613146Y-66621761D01*
X72644826Y-66668562D01*
X72637803Y-66688429D01*
X72582024Y-66690559D01*
X72540393Y-66688303D01*
X72444348Y-66692763D01*
X72408359Y-66720078D01*
X72432549Y-66768759D01*
X72517039Y-66837317D01*
X72527584Y-66844398D01*
X72615095Y-66913139D01*
X72655164Y-66978196D01*
X72662017Y-67031067D01*
X72636338Y-67139516D01*
X72569793Y-67206966D01*
X72478124Y-67226376D01*
X72377070Y-67190707D01*
X72350076Y-67170600D01*
X72301765Y-67111689D01*
X72309373Y-67070379D01*
X72354162Y-67059760D01*
X72395195Y-67095979D01*
X72454107Y-67138177D01*
X72494710Y-67139163D01*
X72543182Y-67120191D01*
X72553894Y-67117964D01*
X72565095Y-67086396D01*
X72567038Y-67051422D01*
X72540335Y-66991320D01*
X72472036Y-66925191D01*
X72448420Y-66908833D01*
X72356729Y-66823424D01*
X72316766Y-66725006D01*
X72332914Y-66626836D01*
X72347148Y-66602548D01*
X72415719Y-66555756D01*
X72505970Y-66554602D01*
X72590268Y-66597090D01*
G37*
G36*
X57233234Y-66560941D02*
G01*
X57247653Y-66609614D01*
X57255144Y-66706618D01*
X57257509Y-66864952D01*
X57257534Y-66889821D01*
X57255685Y-67056774D01*
X57248937Y-67160767D01*
X57235487Y-67214796D01*
X57213535Y-67231856D01*
X57210087Y-67232036D01*
X57177095Y-67206921D01*
X57163501Y-67123667D01*
X57162640Y-67079940D01*
X57162640Y-66927845D01*
X57036114Y-66927845D01*
X56909589Y-66927845D01*
X56909589Y-67079940D01*
X56901754Y-67185697D01*
X56875782Y-67229276D01*
X56862142Y-67232036D01*
X56838994Y-67218700D01*
X56824576Y-67170028D01*
X56817085Y-67073023D01*
X56814720Y-66914689D01*
X56814695Y-66889821D01*
X56816544Y-66722867D01*
X56823292Y-66618874D01*
X56836741Y-66564846D01*
X56858694Y-66547785D01*
X56862142Y-66547605D01*
X56895133Y-66572720D01*
X56908728Y-66655974D01*
X56909589Y-66699701D01*
X56909589Y-66851797D01*
X57036114Y-66851797D01*
X57162640Y-66851797D01*
X57162640Y-66699701D01*
X57170475Y-66593944D01*
X57196446Y-66550365D01*
X57210087Y-66547605D01*
X57233234Y-66560941D01*
G37*
G36*
X75642699Y-66560941D02*
G01*
X75657117Y-66609614D01*
X75664608Y-66706618D01*
X75666973Y-66864952D01*
X75666998Y-66889821D01*
X75664207Y-67065990D01*
X75655171Y-67174966D01*
X75638894Y-67225340D01*
X75627459Y-67231233D01*
X75590625Y-67202254D01*
X75529678Y-67126450D01*
X75456829Y-67019255D01*
X75445579Y-67001340D01*
X75303238Y-66772249D01*
X75287422Y-66989677D01*
X75271858Y-67116431D01*
X75248919Y-67200450D01*
X75232067Y-67222739D01*
X75212328Y-67210440D01*
X75199942Y-67148377D01*
X75193769Y-67027026D01*
X75192528Y-66892989D01*
X75195676Y-66735073D01*
X75204240Y-66617165D01*
X75216905Y-66554135D01*
X75223134Y-66547605D01*
X75256205Y-66575870D01*
X75313777Y-66650055D01*
X75383524Y-66754244D01*
X75385092Y-66756737D01*
X75454537Y-66861326D01*
X75511499Y-66936323D01*
X75543892Y-66965850D01*
X75544273Y-66965868D01*
X75559516Y-66931483D01*
X75569625Y-66842784D01*
X75572104Y-66756737D01*
X75576364Y-66630618D01*
X75591311Y-66565687D01*
X75619551Y-66547605D01*
X75642699Y-66560941D01*
G37*
G36*
X59144213Y-66572442D02*
G01*
X59232842Y-66637979D01*
X59280243Y-66730756D01*
X59278919Y-66837310D01*
X59234011Y-66928488D01*
X59205382Y-66979652D01*
X59214629Y-67030449D01*
X59249827Y-67089575D01*
X59300684Y-67175769D01*
X59308922Y-67219407D01*
X59276481Y-67231913D01*
X59274035Y-67231927D01*
X59231621Y-67202846D01*
X59179105Y-67131620D01*
X59171233Y-67117964D01*
X59105723Y-67029865D01*
X59048307Y-67003924D01*
X59008987Y-67040141D01*
X58997260Y-67117964D01*
X58983114Y-67208527D01*
X58949813Y-67232036D01*
X58926665Y-67218700D01*
X58912247Y-67170028D01*
X58904756Y-67073023D01*
X58902391Y-66914689D01*
X58902366Y-66889821D01*
X58902366Y-66775749D01*
X58997260Y-66775749D01*
X59003441Y-66857705D01*
X59033503Y-66885304D01*
X59084246Y-66882840D01*
X59149403Y-66858628D01*
X59170655Y-66796923D01*
X59171233Y-66775749D01*
X59157324Y-66702620D01*
X59103549Y-66671959D01*
X59084246Y-66668657D01*
X59023776Y-66668757D01*
X59000586Y-66706719D01*
X58997260Y-66775749D01*
X58902366Y-66775749D01*
X58902366Y-66547605D01*
X59021853Y-66547605D01*
X59144213Y-66572442D01*
G37*
G36*
X65489025Y-66560941D02*
G01*
X65503444Y-66609614D01*
X65510934Y-66706618D01*
X65513300Y-66864952D01*
X65513325Y-66889821D01*
X65510438Y-67040519D01*
X65502707Y-67157359D01*
X65491522Y-67223378D01*
X65485254Y-67232036D01*
X65452896Y-67204394D01*
X65394504Y-67131763D01*
X65322447Y-67029586D01*
X65319189Y-67024703D01*
X65247448Y-66921419D01*
X65189745Y-66846564D01*
X65158101Y-66815679D01*
X65157472Y-66815572D01*
X65144489Y-66848916D01*
X65135872Y-66936830D01*
X65133748Y-67022904D01*
X65126656Y-67153395D01*
X65107166Y-67224363D01*
X65077961Y-67229468D01*
X65058368Y-67201205D01*
X65053166Y-67152145D01*
X65052824Y-67050985D01*
X65056356Y-66920310D01*
X65062778Y-66782707D01*
X65071104Y-66660761D01*
X65080351Y-66577058D01*
X65086604Y-66553578D01*
X65112473Y-66570176D01*
X65162621Y-66630167D01*
X65187803Y-66665018D01*
X65262711Y-66771649D01*
X65334662Y-66872425D01*
X65346260Y-66888431D01*
X65416431Y-66984880D01*
X65417431Y-66766243D01*
X65422019Y-66636709D01*
X65436373Y-66568590D01*
X65463644Y-66547670D01*
X65465878Y-66547605D01*
X65489025Y-66560941D01*
G37*
G36*
X68662155Y-66614284D02*
G01*
X68674218Y-66753395D01*
X68676463Y-66889821D01*
X68674473Y-67057954D01*
X68667383Y-67162681D01*
X68653519Y-67216530D01*
X68631203Y-67232031D01*
X68630669Y-67232036D01*
X68600232Y-67206162D01*
X68581945Y-67121664D01*
X68575314Y-67032410D01*
X68565753Y-66832785D01*
X68490687Y-67032410D01*
X68443759Y-67140478D01*
X68400230Y-67212969D01*
X68376367Y-67232036D01*
X68343100Y-67199544D01*
X68302718Y-67116935D01*
X68282752Y-67060928D01*
X68245556Y-66961113D01*
X68212015Y-66899457D01*
X68199376Y-66889821D01*
X68182071Y-66923812D01*
X68171691Y-67009813D01*
X68170361Y-67060928D01*
X68161607Y-67168875D01*
X68139667Y-67227303D01*
X68111026Y-67226673D01*
X68088804Y-67180948D01*
X68082007Y-67119583D01*
X68079404Y-67005930D01*
X68081490Y-66863617D01*
X68081889Y-66851280D01*
X68093155Y-66680194D01*
X68113835Y-66584081D01*
X68145366Y-66562475D01*
X68189185Y-66614907D01*
X68246730Y-66740911D01*
X68266255Y-66791318D01*
X68314540Y-66913417D01*
X68354062Y-67002603D01*
X68377036Y-67041461D01*
X68378264Y-67041916D01*
X68398887Y-67009965D01*
X68436866Y-66925805D01*
X68484346Y-66806973D01*
X68488973Y-66794761D01*
X68553189Y-66640208D01*
X68602731Y-66558243D01*
X68638690Y-66549417D01*
X68662155Y-66614284D01*
G37*
G36*
X55815699Y-66580936D02*
G01*
X55852849Y-66667169D01*
X55880195Y-66756784D01*
X55913317Y-66865729D01*
X55943194Y-66934188D01*
X55959713Y-66947550D01*
X55981699Y-66902470D01*
X56008568Y-66809866D01*
X56020002Y-66759640D01*
X56056052Y-66631148D01*
X56096078Y-66560336D01*
X56135027Y-66555496D01*
X56140819Y-66561395D01*
X56140616Y-66605207D01*
X56123606Y-66699472D01*
X56095002Y-66824261D01*
X56060012Y-66959649D01*
X56023849Y-67085708D01*
X55991724Y-67182512D01*
X55968846Y-67230135D01*
X55965446Y-67232036D01*
X55941144Y-67199790D01*
X55903302Y-67116114D01*
X55868550Y-67022907D01*
X55826517Y-66915472D01*
X55790063Y-66847355D01*
X55770254Y-66833234D01*
X55746150Y-66877816D01*
X55712906Y-66970830D01*
X55691657Y-67042364D01*
X55657957Y-67148773D01*
X55627912Y-67217593D01*
X55614457Y-67232036D01*
X55589861Y-67199656D01*
X55556355Y-67117811D01*
X55540992Y-67070434D01*
X55479523Y-66862149D01*
X55439682Y-66715137D01*
X55419615Y-66620056D01*
X55417466Y-66567563D01*
X55431382Y-66548317D01*
X55437215Y-66547605D01*
X55471654Y-66579995D01*
X55513068Y-66660257D01*
X55551378Y-66763032D01*
X55576507Y-66862959D01*
X55581071Y-66909602D01*
X55590291Y-66965342D01*
X55614336Y-66956621D01*
X55647779Y-66891024D01*
X55685196Y-66776137D01*
X55690395Y-66756737D01*
X55726344Y-66643816D01*
X55762777Y-66567882D01*
X55785289Y-66547605D01*
X55815699Y-66580936D01*
G37*
G36*
X57221219Y-62182360D02*
G01*
X57286694Y-62216029D01*
X57303248Y-62244333D01*
X57307740Y-62306341D01*
X57307308Y-62428081D01*
X57302313Y-62593503D01*
X57293112Y-62786557D01*
X57289841Y-62843210D01*
X57272577Y-63146905D01*
X57261724Y-63382483D01*
X57257462Y-63557505D01*
X57259974Y-63679534D01*
X57269442Y-63756130D01*
X57286047Y-63794856D01*
X57309971Y-63803273D01*
X57312889Y-63802712D01*
X57360474Y-63754171D01*
X57409511Y-63630981D01*
X57459630Y-63434511D01*
X57510465Y-63166126D01*
X57546403Y-62935330D01*
X57579763Y-62723405D01*
X57611641Y-62575820D01*
X57647590Y-62481340D01*
X57693163Y-62428728D01*
X57753915Y-62406749D01*
X57809221Y-62403576D01*
X57866623Y-62404911D01*
X57909817Y-62414298D01*
X57940365Y-62440987D01*
X57959832Y-62494224D01*
X57969781Y-62583259D01*
X57971776Y-62717341D01*
X57967380Y-62905718D01*
X57958156Y-63157638D01*
X57954145Y-63260796D01*
X57944160Y-63545697D01*
X57935435Y-63848094D01*
X57928538Y-64144026D01*
X57924032Y-64409531D01*
X57922489Y-64602517D01*
X57920116Y-64848461D01*
X57911877Y-65031613D01*
X57895011Y-65165137D01*
X57866756Y-65262194D01*
X57824351Y-65335950D01*
X57765036Y-65399568D01*
X57753058Y-65410334D01*
X57668220Y-65467524D01*
X57582066Y-65498978D01*
X57515629Y-65498937D01*
X57493923Y-65481288D01*
X57487725Y-65428790D01*
X57485766Y-65311158D01*
X57487765Y-65139114D01*
X57493444Y-64923378D01*
X57502523Y-64674671D01*
X57514722Y-64403714D01*
X57529082Y-64133084D01*
X57546458Y-63828892D01*
X57450140Y-64009506D01*
X57391339Y-64112958D01*
X57343427Y-64166818D01*
X57285388Y-64187165D01*
X57214060Y-64190120D01*
X57118056Y-64181109D01*
X57049313Y-64142620D01*
X56977415Y-64057473D01*
X56976128Y-64055713D01*
X56877957Y-63921306D01*
X56877957Y-63107270D01*
X56878161Y-62838581D01*
X56879320Y-62635745D01*
X56882254Y-62488564D01*
X56887785Y-62386844D01*
X56896733Y-62320390D01*
X56909920Y-62279005D01*
X56928165Y-62252493D01*
X56948258Y-62234043D01*
X57030577Y-62190746D01*
X57128705Y-62173726D01*
X57221219Y-62182360D01*
G37*
G36*
X55826736Y-59811943D02*
G01*
X56140891Y-59867612D01*
X56419224Y-59952362D01*
X56655964Y-60064734D01*
X56845343Y-60203267D01*
X56981591Y-60366503D01*
X57006502Y-60410664D01*
X57054847Y-60564794D01*
X57064771Y-60741948D01*
X57035720Y-60907381D01*
X57015240Y-60958139D01*
X56929975Y-61071654D01*
X56802949Y-61168932D01*
X56655663Y-61234390D01*
X56622112Y-61243099D01*
X56531256Y-61246697D01*
X56434328Y-61226012D01*
X56349334Y-61188608D01*
X56294279Y-61142048D01*
X56284390Y-61101215D01*
X56318992Y-61057850D01*
X56392811Y-60999292D01*
X56486341Y-60938642D01*
X56580077Y-60889002D01*
X56629060Y-60869713D01*
X56679048Y-60823361D01*
X56687893Y-60744144D01*
X56657802Y-60654581D01*
X56601183Y-60585359D01*
X56461918Y-60499423D01*
X56270669Y-60428866D01*
X56037664Y-60375266D01*
X55773132Y-60340204D01*
X55487300Y-60325259D01*
X55190398Y-60332012D01*
X55039674Y-60344152D01*
X54587768Y-60405136D01*
X54182122Y-60491731D01*
X53825664Y-60602841D01*
X53521321Y-60737369D01*
X53272022Y-60894220D01*
X53080693Y-61072298D01*
X53074284Y-61079851D01*
X52967756Y-61231232D01*
X52920746Y-61364518D01*
X52932741Y-61485600D01*
X53003224Y-61600369D01*
X53026599Y-61625427D01*
X53145053Y-61719459D01*
X53321222Y-61822129D01*
X53550207Y-61931218D01*
X53827108Y-62044505D01*
X54147026Y-62159774D01*
X54363262Y-62230765D01*
X54756451Y-62360943D01*
X55093727Y-62484868D01*
X55381957Y-62605644D01*
X55628010Y-62726372D01*
X55838756Y-62850157D01*
X56019543Y-62978904D01*
X56234157Y-63165117D01*
X56391685Y-63344632D01*
X56497080Y-63525619D01*
X56555298Y-63716247D01*
X56571355Y-63888817D01*
X56545136Y-64108616D01*
X56460700Y-64299008D01*
X56318283Y-64459663D01*
X56118123Y-64590251D01*
X56039726Y-64626569D01*
X55885845Y-64671588D01*
X55685916Y-64699593D01*
X55455597Y-64710337D01*
X55210545Y-64703572D01*
X54966419Y-64679052D01*
X54781915Y-64646401D01*
X54382868Y-64543614D01*
X54020472Y-64418434D01*
X53698204Y-64273391D01*
X53419538Y-64111010D01*
X53187950Y-63933819D01*
X53006916Y-63744346D01*
X52879912Y-63545118D01*
X52810413Y-63338662D01*
X52797717Y-63203559D01*
X52825512Y-63001196D01*
X52905259Y-62838094D01*
X53032297Y-62719574D01*
X53201966Y-62650956D01*
X53293485Y-62637581D01*
X53419645Y-62637150D01*
X53485430Y-62658989D01*
X53490641Y-62701906D01*
X53435080Y-62764708D01*
X53327335Y-62840765D01*
X53180716Y-62944729D01*
X53089192Y-63042386D01*
X53045838Y-63142430D01*
X53040016Y-63201446D01*
X53070533Y-63350067D01*
X53157767Y-63499117D01*
X53295239Y-63645459D01*
X53476475Y-63785953D01*
X53694995Y-63917462D01*
X53944325Y-64036845D01*
X54217986Y-64140965D01*
X54509503Y-64226684D01*
X54812398Y-64290862D01*
X55120194Y-64330361D01*
X55394124Y-64342216D01*
X55665221Y-64332764D01*
X55879039Y-64303000D01*
X56039725Y-64250804D01*
X56151426Y-64174063D01*
X56218288Y-64070658D01*
X56244457Y-63938474D01*
X56245173Y-63907818D01*
X56223239Y-63766165D01*
X56156138Y-63628255D01*
X56041481Y-63492478D01*
X55876879Y-63357222D01*
X55659942Y-63220877D01*
X55388283Y-63081833D01*
X55059512Y-62938479D01*
X54671240Y-62789205D01*
X54489788Y-62724335D01*
X54194885Y-62620563D01*
X53952796Y-62534338D01*
X53755483Y-62462411D01*
X53594909Y-62401534D01*
X53463036Y-62348462D01*
X53351825Y-62299945D01*
X53253240Y-62252737D01*
X53159241Y-62203590D01*
X53061792Y-62149256D01*
X53050560Y-62142848D01*
X52850249Y-62019413D01*
X52703966Y-61905180D01*
X52604472Y-61790394D01*
X52544531Y-61665303D01*
X52516904Y-61520151D01*
X52512827Y-61418168D01*
X52543534Y-61163977D01*
X52633990Y-60925145D01*
X52781697Y-60703461D01*
X52984156Y-60500712D01*
X53238869Y-60318684D01*
X53543339Y-60159166D01*
X53895067Y-60023944D01*
X54291555Y-59914806D01*
X54727023Y-59834017D01*
X55114033Y-59793686D01*
X55482527Y-59786815D01*
X55826736Y-59811943D01*
G37*
G36*
X68520310Y-60223635D02*
G01*
X68729585Y-60238155D01*
X68896666Y-60262218D01*
X68922116Y-60267863D01*
X69196113Y-60347201D01*
X69444635Y-60446185D01*
X69661707Y-60560475D01*
X69841356Y-60685733D01*
X69977608Y-60817622D01*
X70064490Y-60951802D01*
X70096027Y-61083936D01*
X70094234Y-61119076D01*
X70075648Y-61178790D01*
X70031822Y-61208565D01*
X69954173Y-61208629D01*
X69834116Y-61179209D01*
X69688456Y-61129794D01*
X69379334Y-61020145D01*
X69119621Y-60933876D01*
X68899220Y-60868552D01*
X68708034Y-60821740D01*
X68535965Y-60791006D01*
X68372915Y-60773915D01*
X68208788Y-60768033D01*
X68187477Y-60767964D01*
X67885273Y-60784952D01*
X67577323Y-60833041D01*
X67281074Y-60907915D01*
X67013970Y-61005262D01*
X66814763Y-61107388D01*
X66664114Y-61225708D01*
X66565807Y-61359403D01*
X66522056Y-61500535D01*
X66535076Y-61641164D01*
X66607082Y-61773351D01*
X66623653Y-61792560D01*
X66678459Y-61848342D01*
X66736416Y-61894913D01*
X66803743Y-61933274D01*
X66886659Y-61964425D01*
X66991380Y-61989367D01*
X67124126Y-62009100D01*
X67291115Y-62024623D01*
X67498565Y-62036937D01*
X67752694Y-62047043D01*
X68059721Y-62055939D01*
X68296886Y-62061694D01*
X68629403Y-62069914D01*
X68905026Y-62078181D01*
X69130121Y-62087112D01*
X69311055Y-62097325D01*
X69454194Y-62109438D01*
X69565905Y-62124068D01*
X69652555Y-62141833D01*
X69720510Y-62163349D01*
X69776136Y-62189235D01*
X69808029Y-62208266D01*
X69862131Y-62250205D01*
X69881736Y-62286271D01*
X69863266Y-62317241D01*
X69803141Y-62343891D01*
X69697779Y-62367000D01*
X69543603Y-62387344D01*
X69337032Y-62405699D01*
X69074487Y-62422844D01*
X68752387Y-62439555D01*
X68739726Y-62440154D01*
X68433900Y-62455230D01*
X68182325Y-62469623D01*
X67976010Y-62484634D01*
X67805965Y-62501564D01*
X67663199Y-62521714D01*
X67538721Y-62546386D01*
X67423541Y-62576880D01*
X67308669Y-62614497D01*
X67185114Y-62660539D01*
X67166310Y-62667849D01*
X66920543Y-62777456D01*
X66734260Y-62892826D01*
X66603704Y-63017720D01*
X66525118Y-63155895D01*
X66494744Y-63311111D01*
X66494106Y-63340451D01*
X66524392Y-63528437D01*
X66614387Y-63692412D01*
X66763653Y-63831931D01*
X66971751Y-63946551D01*
X67160178Y-64014132D01*
X67312731Y-64045714D01*
X67510310Y-64066371D01*
X67735332Y-64076065D01*
X67970212Y-64074759D01*
X68197365Y-64062416D01*
X68399206Y-64038996D01*
X68511732Y-64017039D01*
X68843240Y-63921077D01*
X69117410Y-63805565D01*
X69338842Y-63666433D01*
X69512137Y-63499609D01*
X69641893Y-63301021D01*
X69732713Y-63066599D01*
X69771334Y-62902277D01*
X69810155Y-62718014D01*
X69846626Y-62600831D01*
X69885431Y-62542233D01*
X69931255Y-62533724D01*
X69965536Y-62550063D01*
X70040912Y-62638056D01*
X70095055Y-62779740D01*
X70125963Y-62956360D01*
X70131639Y-63149161D01*
X70110082Y-63339386D01*
X70065989Y-63492277D01*
X69938743Y-63725464D01*
X69756360Y-63938484D01*
X69525467Y-64127623D01*
X69252691Y-64289170D01*
X68944659Y-64419412D01*
X68607998Y-64514637D01*
X68249335Y-64571132D01*
X68122691Y-64580907D01*
X67966330Y-64587270D01*
X67814127Y-64589176D01*
X67689997Y-64586488D01*
X67648443Y-64583626D01*
X67323171Y-64531341D01*
X67026271Y-64441976D01*
X66764174Y-64319306D01*
X66543311Y-64167102D01*
X66370113Y-63989138D01*
X66251012Y-63789187D01*
X66237599Y-63755917D01*
X66192440Y-63571628D01*
X66177717Y-63359486D01*
X66193329Y-63150907D01*
X66239176Y-62977306D01*
X66240095Y-62975125D01*
X66288296Y-62889115D01*
X66361564Y-62787528D01*
X66445252Y-62687408D01*
X66524712Y-62605797D01*
X66585297Y-62559740D01*
X66601070Y-62555090D01*
X66640374Y-62536191D01*
X66703458Y-62491441D01*
X66784267Y-62427793D01*
X66593683Y-62323796D01*
X66388402Y-62181328D01*
X66229671Y-62007581D01*
X66120709Y-61810646D01*
X66064738Y-61598614D01*
X66064977Y-61379578D01*
X66124647Y-61161630D01*
X66128025Y-61153718D01*
X66175850Y-61070277D01*
X66254398Y-60958764D01*
X66346832Y-60841253D01*
X66436314Y-60739819D01*
X66467298Y-60708891D01*
X66580846Y-60625121D01*
X66744874Y-60536449D01*
X66947166Y-60448149D01*
X67175510Y-60365495D01*
X67417689Y-60293759D01*
X67445547Y-60286532D01*
X67606710Y-60256614D01*
X67812040Y-60235147D01*
X68044265Y-60222349D01*
X68286113Y-60218439D01*
X68520310Y-60223635D01*
G37*
G36*
X79775390Y-62305842D02*
G01*
X79883332Y-62399938D01*
X79966920Y-62544069D01*
X80018673Y-62729578D01*
X80032129Y-62899430D01*
X80010474Y-63102035D01*
X79947264Y-63254894D01*
X79845133Y-63351902D01*
X79834553Y-63357471D01*
X79756070Y-63382997D01*
X79712238Y-63358540D01*
X79699589Y-63277398D01*
X79714651Y-63132866D01*
X79715495Y-63127479D01*
X79735396Y-62964927D01*
X79745256Y-62805427D01*
X79744949Y-62668127D01*
X79734347Y-62572175D01*
X79719399Y-62538741D01*
X79676106Y-62543770D01*
X79630685Y-62611527D01*
X79585855Y-62728917D01*
X79544334Y-62882843D01*
X79508840Y-63060211D01*
X79482093Y-63247923D01*
X79466810Y-63432883D01*
X79465710Y-63601997D01*
X79475970Y-63711467D01*
X79521166Y-63843066D01*
X79600490Y-63927489D01*
X79700253Y-63952269D01*
X79733317Y-63945853D01*
X79821652Y-63890723D01*
X79922311Y-63783511D01*
X80026508Y-63639761D01*
X80125454Y-63475015D01*
X80210364Y-63304818D01*
X80272452Y-63144712D01*
X80302929Y-63010241D01*
X80301126Y-62941426D01*
X80304632Y-62827614D01*
X80352836Y-62730456D01*
X80430888Y-62674510D01*
X80465769Y-62669162D01*
X80567154Y-62656464D01*
X80704598Y-62623068D01*
X80855257Y-62576016D01*
X80996289Y-62522352D01*
X81093859Y-62475496D01*
X81183634Y-62430870D01*
X81255578Y-62405330D01*
X81272236Y-62402994D01*
X81345257Y-62434206D01*
X81417908Y-62510881D01*
X81466944Y-62607579D01*
X81470227Y-62619687D01*
X81471619Y-62705394D01*
X81427012Y-62776503D01*
X81331484Y-62836749D01*
X81180114Y-62889867D01*
X81080835Y-62915180D01*
X80955172Y-62947242D01*
X80857030Y-62977460D01*
X80800087Y-63001351D01*
X80791282Y-63010076D01*
X80818477Y-63037036D01*
X80886327Y-63070945D01*
X80912628Y-63081067D01*
X81052439Y-63151670D01*
X81192208Y-63255631D01*
X81308890Y-63373961D01*
X81362735Y-63451932D01*
X81409156Y-63589602D01*
X81423702Y-63775530D01*
X81419334Y-63906773D01*
X81399119Y-63995403D01*
X81352869Y-64074546D01*
X81317911Y-64119536D01*
X81198444Y-64226518D01*
X81048481Y-64302657D01*
X80888963Y-64341826D01*
X80740826Y-64337895D01*
X80663693Y-64311025D01*
X80523891Y-64198815D01*
X80431627Y-64036440D01*
X80428152Y-64026690D01*
X80387982Y-63877510D01*
X80390635Y-63763537D01*
X80438761Y-63661229D01*
X80474569Y-63614391D01*
X80555117Y-63536262D01*
X80633313Y-63510988D01*
X80672265Y-63512750D01*
X80731499Y-63523406D01*
X80763334Y-63550905D01*
X80777918Y-63615050D01*
X80785289Y-63733381D01*
X80809245Y-63911535D01*
X80860371Y-64026408D01*
X80937023Y-64074678D01*
X80955020Y-64076048D01*
X81010742Y-64044578D01*
X81050081Y-63981010D01*
X81065961Y-63853391D01*
X81034020Y-63700270D01*
X80959402Y-63537729D01*
X80865060Y-63402718D01*
X80776371Y-63309507D01*
X80680134Y-63229430D01*
X80590024Y-63171190D01*
X80519715Y-63143490D01*
X80482885Y-63155033D01*
X80481576Y-63158657D01*
X80432413Y-63305095D01*
X80363654Y-63469416D01*
X80282855Y-63637764D01*
X80197572Y-63796278D01*
X80115362Y-63931100D01*
X80043781Y-64028370D01*
X79990384Y-64074230D01*
X79981389Y-64076048D01*
X79942677Y-64099005D01*
X79896874Y-64142590D01*
X79842228Y-64181183D01*
X79757339Y-64202154D01*
X79626791Y-64209075D01*
X79609701Y-64209132D01*
X79444944Y-64196381D01*
X79324449Y-64151501D01*
X79231970Y-64064545D01*
X79153276Y-63929790D01*
X79092119Y-63802544D01*
X79026225Y-63929790D01*
X78964127Y-64033473D01*
X78899466Y-64118648D01*
X78892513Y-64126007D01*
X78801746Y-64179173D01*
X78687891Y-64196090D01*
X78578902Y-64176155D01*
X78514785Y-64134131D01*
X78438453Y-64016062D01*
X78380269Y-63863485D01*
X78355283Y-63716478D01*
X78355170Y-63709074D01*
X78354674Y-63600749D01*
X78220736Y-63776763D01*
X78105953Y-63914661D01*
X78010299Y-63995493D01*
X77920564Y-64027551D01*
X77831726Y-64021065D01*
X77716203Y-63959802D01*
X77637082Y-63836637D01*
X77594640Y-63652102D01*
X77587805Y-63556032D01*
X77578712Y-63433675D01*
X77563156Y-63345467D01*
X77549033Y-63315569D01*
X77520232Y-63335509D01*
X77483177Y-63410110D01*
X77444056Y-63519996D01*
X77409055Y-63645786D01*
X77384359Y-63768102D01*
X77376065Y-63857410D01*
X77350282Y-64005912D01*
X77279812Y-64106463D01*
X77171501Y-64150317D01*
X77145766Y-64151514D01*
X77084400Y-64149773D01*
X77038194Y-64139005D01*
X77004904Y-64109705D01*
X76982290Y-64052370D01*
X76968109Y-63957494D01*
X76960120Y-63815575D01*
X76956079Y-63617109D01*
X76953745Y-63352590D01*
X76953630Y-63337047D01*
X76948069Y-62587010D01*
X77036820Y-62495002D01*
X77136293Y-62425675D01*
X77241355Y-62405113D01*
X77330600Y-62435952D01*
X77351587Y-62456217D01*
X77371502Y-62498511D01*
X77379888Y-62570747D01*
X77376230Y-62682948D01*
X77360017Y-62845139D01*
X77330735Y-63067342D01*
X77314538Y-63180144D01*
X77296576Y-63327453D01*
X77295252Y-63405740D01*
X77309990Y-63413578D01*
X77340214Y-63349541D01*
X77360042Y-63292889D01*
X77457834Y-63044957D01*
X77564786Y-62862382D01*
X77678258Y-62748661D01*
X77795613Y-62707293D01*
X77801892Y-62707186D01*
X77883550Y-62735964D01*
X77937538Y-62806721D01*
X77948101Y-62896092D01*
X77942903Y-62916318D01*
X77931270Y-62987078D01*
X77921853Y-63111966D01*
X77916078Y-63269066D01*
X77915050Y-63344087D01*
X77915261Y-63510302D01*
X77919852Y-63614424D01*
X77930933Y-63670361D01*
X77950613Y-63692018D01*
X77968182Y-63694326D01*
X78019887Y-63661851D01*
X78089383Y-63577151D01*
X78166383Y-63456152D01*
X78240600Y-63314776D01*
X78294051Y-63189855D01*
X78332589Y-63046550D01*
X78353673Y-62888143D01*
X78354971Y-62849776D01*
X78374502Y-62681153D01*
X78430971Y-62573157D01*
X78523481Y-62526945D01*
X78601811Y-62530450D01*
X78688104Y-62557354D01*
X78737780Y-62606986D01*
X78757704Y-62695279D01*
X78754745Y-62838171D01*
X78751724Y-62878294D01*
X78729814Y-63166292D01*
X78716291Y-63388395D01*
X78710938Y-63554048D01*
X78713538Y-63672699D01*
X78723874Y-63753794D01*
X78731019Y-63780636D01*
X78764667Y-63852424D01*
X78802582Y-63868589D01*
X78846506Y-63825867D01*
X78898176Y-63720993D01*
X78959333Y-63550702D01*
X79031716Y-63311729D01*
X79087190Y-63112192D01*
X79173642Y-62825612D01*
X79260486Y-62607127D01*
X79351865Y-62448920D01*
X79451924Y-62343172D01*
X79516361Y-62302395D01*
X79650572Y-62270442D01*
X79775390Y-62305842D01*
G37*
G36*
X70795848Y-61060341D02*
G01*
X70821642Y-61075261D01*
X70857170Y-61103197D01*
X70882135Y-61138607D01*
X70897122Y-61192456D01*
X70902717Y-61275713D01*
X70899504Y-61399345D01*
X70888067Y-61574318D01*
X70868992Y-61811600D01*
X70864046Y-61870659D01*
X70830890Y-62290623D01*
X70804460Y-62678576D01*
X70785177Y-63025787D01*
X70773465Y-63323525D01*
X70769745Y-63563058D01*
X70774074Y-63729969D01*
X70793608Y-63912984D01*
X70824538Y-64035702D01*
X70864859Y-64092767D01*
X70906808Y-64084179D01*
X70938936Y-64030746D01*
X70986829Y-63916831D01*
X71046048Y-63754015D01*
X71112151Y-63553880D01*
X71121339Y-63524701D01*
X71161286Y-63398525D01*
X71209980Y-63246584D01*
X71235416Y-63167909D01*
X71272165Y-63042368D01*
X71296298Y-62936263D01*
X71301092Y-62896225D01*
X71715521Y-62896225D01*
X71735601Y-62929658D01*
X71780108Y-62934747D01*
X71853586Y-62923241D01*
X71889823Y-62906229D01*
X71925847Y-62843397D01*
X71946403Y-62741466D01*
X71951783Y-62623461D01*
X71942279Y-62512406D01*
X71918184Y-62431324D01*
X71883430Y-62402994D01*
X71844004Y-62436843D01*
X71799431Y-62524977D01*
X71757644Y-62647277D01*
X71726580Y-62783623D01*
X71722218Y-62811752D01*
X71715521Y-62896225D01*
X71301092Y-62896225D01*
X71301868Y-62889743D01*
X71314683Y-62821550D01*
X71348623Y-62707338D01*
X71396932Y-62569353D01*
X71408251Y-62539488D01*
X71505187Y-62330665D01*
X71612169Y-62176609D01*
X71722975Y-62084713D01*
X71810956Y-62060921D01*
X71930273Y-62096419D01*
X72043376Y-62191561D01*
X72141879Y-62329986D01*
X72217398Y-62495335D01*
X72261549Y-62671248D01*
X72265947Y-62841365D01*
X72250681Y-62918921D01*
X72182053Y-63043771D01*
X72058576Y-63148152D01*
X71887446Y-63226428D01*
X71839601Y-63240836D01*
X71739909Y-63274130D01*
X71666753Y-63309493D01*
X71642389Y-63330596D01*
X71625073Y-63405710D01*
X71619370Y-63529302D01*
X71624677Y-63675233D01*
X71640389Y-63817364D01*
X71655379Y-63893266D01*
X71711166Y-64030261D01*
X71791038Y-64097890D01*
X71891959Y-64095492D01*
X72010898Y-64022409D01*
X72055884Y-63980349D01*
X72143697Y-63868654D01*
X72243938Y-63704877D01*
X72346911Y-63508180D01*
X72442918Y-63297727D01*
X72522261Y-63092679D01*
X72552277Y-62999449D01*
X72651385Y-62710960D01*
X72757157Y-62496451D01*
X72871162Y-62354101D01*
X72994974Y-62282088D01*
X73130164Y-62278593D01*
X73166067Y-62288258D01*
X73288347Y-62355568D01*
X73377246Y-62472664D01*
X73439208Y-62649327D01*
X73455988Y-62728458D01*
X73474319Y-62948117D01*
X73444086Y-63135591D01*
X73367284Y-63281056D01*
X73337065Y-63313529D01*
X73251653Y-63382168D01*
X73193420Y-63396688D01*
X73160256Y-63352831D01*
X73150052Y-63246337D01*
X73160696Y-63072947D01*
X73170979Y-62978276D01*
X73186237Y-62819032D01*
X73193031Y-62682219D01*
X73190504Y-62589848D01*
X73186831Y-62570697D01*
X73167843Y-62528924D01*
X73142743Y-62535912D01*
X73096796Y-62597528D01*
X73088542Y-62609829D01*
X73030008Y-62734235D01*
X72977719Y-62912908D01*
X72936147Y-63124100D01*
X72909767Y-63346059D01*
X72902610Y-63513917D01*
X72905769Y-63660639D01*
X72919548Y-63756316D01*
X72949201Y-63825679D01*
X72977332Y-63865639D01*
X73060198Y-63942201D01*
X73147870Y-63954400D01*
X73254644Y-63903169D01*
X73279624Y-63885338D01*
X73400534Y-63765719D01*
X73517077Y-63587014D01*
X73634260Y-63341381D01*
X73648061Y-63308348D01*
X73710826Y-63109566D01*
X73756740Y-62855245D01*
X73786784Y-62538602D01*
X73799368Y-62260404D01*
X73773539Y-62224509D01*
X73723157Y-62212874D01*
X73635219Y-62197591D01*
X73552206Y-62159816D01*
X73496088Y-62111658D01*
X73484433Y-62081292D01*
X73513021Y-62004671D01*
X73594819Y-61958772D01*
X73696363Y-61946707D01*
X73832378Y-61946707D01*
X73832378Y-61794611D01*
X73855578Y-61643462D01*
X73917541Y-61541205D01*
X74006814Y-61495128D01*
X74111941Y-61512516D01*
X74189779Y-61567247D01*
X74245125Y-61635393D01*
X74258989Y-61714320D01*
X74253169Y-61776379D01*
X74245171Y-61864647D01*
X74263640Y-61901118D01*
X74322956Y-61908639D01*
X74336421Y-61908683D01*
X74454648Y-61928315D01*
X74532634Y-61982430D01*
X74559900Y-62061392D01*
X74546168Y-62113879D01*
X74497891Y-62149053D01*
X74404447Y-62172043D01*
X74306849Y-62183598D01*
X74196139Y-62193863D01*
X74176345Y-62460030D01*
X74167228Y-62620046D01*
X74160439Y-62814134D01*
X74155988Y-63027896D01*
X74153885Y-63246933D01*
X74154143Y-63456845D01*
X74156773Y-63643234D01*
X74161784Y-63791700D01*
X74169189Y-63887845D01*
X74175229Y-63915345D01*
X74203044Y-63936691D01*
X74241109Y-63907602D01*
X74292441Y-63823030D01*
X74360054Y-63677927D01*
X74446963Y-63467243D01*
X74455126Y-63446681D01*
X74522935Y-63270598D01*
X74566237Y-63141001D01*
X74589938Y-63037043D01*
X74598941Y-62937881D01*
X74598573Y-62837012D01*
X74598377Y-62700748D01*
X74610867Y-62614452D01*
X74641641Y-62552525D01*
X74667850Y-62520182D01*
X74752266Y-62457486D01*
X74817763Y-62447392D01*
X74864253Y-62465701D01*
X74888623Y-62514078D01*
X74900183Y-62613665D01*
X74901570Y-62637694D01*
X74911111Y-62815358D01*
X75079125Y-62794513D01*
X75189184Y-62788857D01*
X75255845Y-62802649D01*
X75267900Y-62814049D01*
X75271792Y-62865601D01*
X75267011Y-62976024D01*
X75254613Y-63129046D01*
X75235844Y-63306814D01*
X75210251Y-63562477D01*
X75201732Y-63750291D01*
X75210611Y-63875742D01*
X75237208Y-63944314D01*
X75274267Y-63961976D01*
X75312737Y-63927644D01*
X75365268Y-63832571D01*
X75427159Y-63688647D01*
X75493713Y-63507757D01*
X75560230Y-63301790D01*
X75609689Y-63126343D01*
X76014944Y-63126343D01*
X76024802Y-63288436D01*
X76050938Y-63449766D01*
X76088195Y-63588354D01*
X76131414Y-63682221D01*
X76150308Y-63703180D01*
X76236101Y-63731772D01*
X76315507Y-63686764D01*
X76354252Y-63630982D01*
X76390111Y-63517354D01*
X76409432Y-63354631D01*
X76412319Y-63167085D01*
X76398876Y-62978991D01*
X76369206Y-62814621D01*
X76350496Y-62754615D01*
X76286314Y-62627453D01*
X76219774Y-62570691D01*
X76155547Y-62579155D01*
X76098308Y-62647667D01*
X76052726Y-62771053D01*
X76023476Y-62944136D01*
X76014944Y-63126343D01*
X75609689Y-63126343D01*
X75622011Y-63082634D01*
X75622292Y-63081556D01*
X75688914Y-62849093D01*
X75754288Y-62676734D01*
X75825882Y-62549260D01*
X75911159Y-62451449D01*
X75946441Y-62420736D01*
X76095875Y-62339301D01*
X76250219Y-62326018D01*
X76399987Y-62374985D01*
X76535697Y-62480299D01*
X76647865Y-62636059D01*
X76727008Y-62836362D01*
X76745557Y-62918074D01*
X76767015Y-63159600D01*
X76743755Y-63384882D01*
X76682533Y-63587338D01*
X76590106Y-63760386D01*
X76473230Y-63897442D01*
X76338659Y-63991924D01*
X76193150Y-64037251D01*
X76043459Y-64026838D01*
X75896341Y-63954105D01*
X75788392Y-63850682D01*
X75669425Y-63707672D01*
X75542110Y-63944322D01*
X75416055Y-64137144D01*
X75284239Y-64256079D01*
X75144251Y-64303181D01*
X75119389Y-64304192D01*
X75036694Y-64270218D01*
X74955615Y-64181474D01*
X74890320Y-64057724D01*
X74857721Y-63939182D01*
X74849868Y-63827436D01*
X74850040Y-63666930D01*
X74857062Y-63484146D01*
X74869759Y-63305562D01*
X74886957Y-63157660D01*
X74894240Y-63115943D01*
X74901493Y-63038943D01*
X74876281Y-63012311D01*
X74864086Y-63011377D01*
X74819566Y-63017668D01*
X74812951Y-63023721D01*
X74801387Y-63081939D01*
X74770567Y-63192151D01*
X74726305Y-63336528D01*
X74674411Y-63497240D01*
X74620699Y-63656459D01*
X74570979Y-63796355D01*
X74531063Y-63899099D01*
X74518398Y-63927340D01*
X74404361Y-64120125D01*
X74281383Y-64255180D01*
X74156036Y-64328309D01*
X74034892Y-64335319D01*
X73947209Y-64291922D01*
X73886729Y-64211158D01*
X73831077Y-64080968D01*
X73789049Y-63927827D01*
X73769443Y-63778207D01*
X73768973Y-63755577D01*
X73767393Y-63700322D01*
X73757175Y-63679425D01*
X73729847Y-63698575D01*
X73676936Y-63763466D01*
X73595828Y-63871896D01*
X73441273Y-64052026D01*
X73290103Y-64165736D01*
X73130590Y-64220448D01*
X73033046Y-64228085D01*
X72858665Y-64196147D01*
X72717407Y-64099586D01*
X72607369Y-63937031D01*
X72596176Y-63913034D01*
X72514519Y-63731008D01*
X72427228Y-63894022D01*
X72274989Y-64112471D01*
X72084299Y-64279832D01*
X71917562Y-64366652D01*
X71742690Y-64406633D01*
X71595827Y-64380433D01*
X71470823Y-64285884D01*
X71395841Y-64182557D01*
X71340969Y-64078175D01*
X71307116Y-63988108D01*
X71301868Y-63956271D01*
X71290027Y-63894588D01*
X71260420Y-63897673D01*
X71221919Y-63961314D01*
X71206440Y-64001549D01*
X71119716Y-64199329D01*
X71013877Y-64356614D01*
X70897570Y-64466066D01*
X70779443Y-64520350D01*
X70668142Y-64512127D01*
X70629478Y-64491116D01*
X70554221Y-64397453D01*
X70491332Y-64232146D01*
X70441771Y-63998351D01*
X70414182Y-63782543D01*
X70402695Y-63651489D01*
X70395420Y-63519050D01*
X70392497Y-63373249D01*
X70394069Y-63202112D01*
X70400277Y-62993662D01*
X70411262Y-62735924D01*
X70427165Y-62416923D01*
X70431221Y-62339556D01*
X70447101Y-62059010D01*
X70463836Y-61799588D01*
X70480566Y-61572093D01*
X70496433Y-61387327D01*
X70510576Y-61256093D01*
X70522139Y-61189194D01*
X70522862Y-61187112D01*
X70591340Y-61088433D01*
X70689301Y-61043568D01*
X70795848Y-61060341D01*
G37*
G36*
X60292193Y-62080116D02*
G01*
X60405370Y-62144906D01*
X60512999Y-62257765D01*
X60604467Y-62405892D01*
X60669156Y-62576484D01*
X60691134Y-62687705D01*
X60692737Y-62857201D01*
X60647637Y-62992860D01*
X60551461Y-63100509D01*
X60399835Y-63185975D01*
X60286239Y-63227214D01*
X60174449Y-63264019D01*
X60110222Y-63294679D01*
X60079818Y-63331842D01*
X60069499Y-63388155D01*
X60067535Y-63428557D01*
X60065848Y-63603810D01*
X60072907Y-63773413D01*
X60087097Y-63914585D01*
X60106805Y-64004544D01*
X60108664Y-64009057D01*
X60172864Y-64082869D01*
X60266883Y-64099044D01*
X60378106Y-64056347D01*
X60404866Y-64038017D01*
X60539077Y-63902777D01*
X60675235Y-63696834D01*
X60810131Y-63425281D01*
X60849581Y-63332493D01*
X60917018Y-63157497D01*
X60954272Y-63026106D01*
X60964940Y-62917625D01*
X60952621Y-62811361D01*
X60945674Y-62779748D01*
X60940639Y-62695348D01*
X60975041Y-62609422D01*
X61006493Y-62561111D01*
X61096488Y-62469558D01*
X61181455Y-62443842D01*
X61249445Y-62477964D01*
X61288509Y-62565926D01*
X61286698Y-62701730D01*
X61286692Y-62701769D01*
X61267578Y-62816649D01*
X61444443Y-62794706D01*
X61543423Y-62787417D01*
X61607845Y-62802036D01*
X61641837Y-62849504D01*
X61649528Y-62940762D01*
X61635044Y-63086754D01*
X61612066Y-63239038D01*
X61574836Y-63512403D01*
X61560240Y-63722149D01*
X61568282Y-63866013D01*
X61598964Y-63941733D01*
X61610897Y-63950093D01*
X61670956Y-63939283D01*
X61720044Y-63882358D01*
X61758737Y-63803407D01*
X61808965Y-63677255D01*
X61864132Y-63523675D01*
X61888870Y-63449129D01*
X62361832Y-63449129D01*
X62375157Y-63571547D01*
X62401757Y-63697221D01*
X62431042Y-63796287D01*
X62448029Y-63833163D01*
X62508987Y-63874245D01*
X62592342Y-63883751D01*
X62666128Y-63860984D01*
X62688754Y-63838398D01*
X62715287Y-63778949D01*
X62753649Y-63672986D01*
X62787521Y-63568847D01*
X62835993Y-63357220D01*
X62858470Y-63133714D01*
X62855033Y-62919764D01*
X62825760Y-62736801D01*
X62784006Y-62627518D01*
X62726104Y-62542613D01*
X62671842Y-62491513D01*
X62660426Y-62486705D01*
X62595121Y-62507385D01*
X62531274Y-62590167D01*
X62472540Y-62721151D01*
X62422573Y-62886440D01*
X62385030Y-63072132D01*
X62363564Y-63264328D01*
X62361832Y-63449129D01*
X61888870Y-63449129D01*
X61917637Y-63362442D01*
X61962886Y-63213327D01*
X61993278Y-63096106D01*
X62002503Y-63035826D01*
X62020064Y-62937920D01*
X62066481Y-62802817D01*
X62131558Y-62653148D01*
X62205101Y-62511544D01*
X62276912Y-62400636D01*
X62302153Y-62370690D01*
X62445281Y-62261675D01*
X62593257Y-62224286D01*
X62736613Y-62257480D01*
X62865884Y-62360212D01*
X62923453Y-62439230D01*
X62989073Y-62521599D01*
X63066930Y-62552555D01*
X63114686Y-62555090D01*
X63172620Y-62559562D01*
X63214820Y-62579561D01*
X63243163Y-62624965D01*
X63259525Y-62705652D01*
X63265785Y-62831498D01*
X63263819Y-63012380D01*
X63255506Y-63258176D01*
X63254288Y-63289537D01*
X63233182Y-63828892D01*
X63298305Y-63733833D01*
X63342160Y-63656253D01*
X63402230Y-63532441D01*
X63467755Y-63384951D01*
X63489435Y-63333245D01*
X63550485Y-63180012D01*
X63587803Y-63063356D01*
X63607193Y-62953372D01*
X63614458Y-62820155D01*
X63615442Y-62683960D01*
X63616985Y-62516757D01*
X63623736Y-62407028D01*
X63638876Y-62336239D01*
X63665588Y-62285853D01*
X63688651Y-62257527D01*
X63762058Y-62205573D01*
X63856221Y-62177048D01*
X63949696Y-62173643D01*
X64021037Y-62197044D01*
X64046042Y-62229380D01*
X64049731Y-62283331D01*
X64049388Y-62400056D01*
X64045326Y-62566461D01*
X64037860Y-62769451D01*
X64027974Y-62982803D01*
X64015011Y-63260973D01*
X64008296Y-63471759D01*
X64008181Y-63623493D01*
X64015015Y-63724508D01*
X64029151Y-63783136D01*
X64050937Y-63807709D01*
X64062789Y-63809880D01*
X64094632Y-63774812D01*
X64133913Y-63679218D01*
X64177336Y-63537522D01*
X64221603Y-63364143D01*
X64263418Y-63173501D01*
X64299482Y-62980019D01*
X64326499Y-62798115D01*
X64341172Y-62642212D01*
X64342868Y-62584946D01*
X64369696Y-62482130D01*
X64447796Y-62420673D01*
X64556258Y-62402994D01*
X64639687Y-62410148D01*
X64694555Y-62439517D01*
X64725005Y-62502962D01*
X64735180Y-62612344D01*
X64729221Y-62779522D01*
X64722264Y-62878294D01*
X64713204Y-63025535D01*
X64703411Y-63232720D01*
X64693492Y-63483765D01*
X64684053Y-63762583D01*
X64675700Y-64053088D01*
X64671419Y-64228144D01*
X64663263Y-64549468D01*
X64654723Y-64802173D01*
X64645329Y-64993689D01*
X64634608Y-65131445D01*
X64622092Y-65222869D01*
X64607308Y-65275392D01*
X64604709Y-65280667D01*
X64533132Y-65376934D01*
X64441486Y-65453175D01*
X64348632Y-65497874D01*
X64273433Y-65499518D01*
X64259232Y-65491572D01*
X64245949Y-65457945D01*
X64238533Y-65377005D01*
X64236886Y-65241517D01*
X64240907Y-65044244D01*
X64249666Y-64798503D01*
X64258608Y-64569231D01*
X64266456Y-64355588D01*
X64272653Y-64173708D01*
X64276644Y-64039728D01*
X64277848Y-63980988D01*
X64279311Y-63828892D01*
X64229869Y-63942880D01*
X64161449Y-64078308D01*
X64092379Y-64154656D01*
X64005996Y-64186412D01*
X63945481Y-64190120D01*
X63846244Y-64178769D01*
X63776523Y-64133245D01*
X63730222Y-64074929D01*
X63670116Y-63958629D01*
X63631694Y-63829593D01*
X63629926Y-63818267D01*
X63615682Y-63718438D01*
X63605715Y-63653246D01*
X63604658Y-63647250D01*
X63586358Y-63658498D01*
X63545635Y-63719527D01*
X63514175Y-63775064D01*
X63436841Y-63905007D01*
X63346784Y-64038416D01*
X63320024Y-64074392D01*
X63234189Y-64217300D01*
X63181265Y-64391225D01*
X63172570Y-64437466D01*
X63097206Y-64750382D01*
X62990737Y-65000993D01*
X62854635Y-65187570D01*
X62690373Y-65308386D01*
X62499424Y-65361714D01*
X62384889Y-65361767D01*
X62208207Y-65321873D01*
X62079976Y-65235560D01*
X61996919Y-65100190D01*
X61975789Y-65032433D01*
X61960251Y-64895562D01*
X62290613Y-64895562D01*
X62295953Y-65002268D01*
X62324881Y-65057066D01*
X62381796Y-65098459D01*
X62448458Y-65082173D01*
X62502624Y-65042393D01*
X62586455Y-64943062D01*
X62666721Y-64801161D01*
X62726835Y-64648540D01*
X62744026Y-64578858D01*
X62754332Y-64495059D01*
X62737074Y-64461633D01*
X62697044Y-64456288D01*
X62587801Y-64483478D01*
X62483598Y-64555430D01*
X62393374Y-64657713D01*
X62326066Y-64775900D01*
X62290613Y-64895562D01*
X61960251Y-64895562D01*
X61957272Y-64869316D01*
X61991678Y-64719621D01*
X62082929Y-64567175D01*
X62091240Y-64556376D01*
X62186450Y-64464126D01*
X62321755Y-64369953D01*
X62475172Y-64286579D01*
X62624717Y-64226723D01*
X62690224Y-64209774D01*
X62775726Y-64186919D01*
X62814914Y-64153035D01*
X62824642Y-64092974D01*
X62824657Y-64088958D01*
X62824657Y-63994481D01*
X62742370Y-64072289D01*
X62607752Y-64155092D01*
X62459608Y-64172162D01*
X62311134Y-64126695D01*
X62175530Y-64021886D01*
X62095817Y-63915731D01*
X62006053Y-63766772D01*
X61959884Y-63873880D01*
X61871958Y-64029807D01*
X61758637Y-64163183D01*
X61635780Y-64259185D01*
X61519247Y-64302992D01*
X61499474Y-64304192D01*
X61403333Y-64268155D01*
X61320328Y-64167380D01*
X61257905Y-64012865D01*
X61236081Y-63915101D01*
X61217814Y-63770437D01*
X61215694Y-63622534D01*
X61229835Y-63441280D01*
X61238130Y-63368675D01*
X61254155Y-63219235D01*
X61263217Y-63100614D01*
X61264069Y-63031154D01*
X61261726Y-63021107D01*
X61218602Y-63011026D01*
X61170641Y-63061472D01*
X61128218Y-63159157D01*
X61114997Y-63209045D01*
X61030885Y-63497947D01*
X60916931Y-63759537D01*
X60779692Y-63986604D01*
X60625727Y-64171937D01*
X60461593Y-64308324D01*
X60293849Y-64388554D01*
X60129053Y-64405414D01*
X60044679Y-64386023D01*
X59912471Y-64306047D01*
X59808395Y-64168190D01*
X59727999Y-63965911D01*
X59707619Y-63890831D01*
X59650470Y-63661490D01*
X59521561Y-63827719D01*
X59388651Y-63963819D01*
X59262449Y-64026466D01*
X59147693Y-64018220D01*
X59049122Y-63941640D01*
X58971473Y-63799285D01*
X58919486Y-63593714D01*
X58907083Y-63495861D01*
X58884061Y-63258533D01*
X58835872Y-63372605D01*
X58804570Y-63466211D01*
X58767530Y-63605229D01*
X58732406Y-63760747D01*
X58730145Y-63771857D01*
X58688914Y-63948314D01*
X58645114Y-64061699D01*
X58590140Y-64124638D01*
X58515390Y-64149761D01*
X58471090Y-64152096D01*
X58410335Y-64147446D01*
X58364282Y-64127387D01*
X58330933Y-64082754D01*
X58308289Y-64004384D01*
X58294352Y-63883112D01*
X58287122Y-63709773D01*
X58284601Y-63475204D01*
X58284523Y-63296697D01*
X58285554Y-62586711D01*
X58374304Y-62494852D01*
X58469635Y-62428747D01*
X58574843Y-62403738D01*
X58667805Y-62422010D01*
X58713492Y-62461354D01*
X58735423Y-62516715D01*
X58735707Y-62602322D01*
X58718834Y-62718016D01*
X58697254Y-62865061D01*
X58676949Y-63044088D01*
X58664929Y-63182485D01*
X58645974Y-63448653D01*
X58721360Y-63235432D01*
X58804370Y-63026205D01*
X58885305Y-62880892D01*
X58971812Y-62788261D01*
X59057447Y-62741825D01*
X59156781Y-62717793D01*
X59230358Y-62733556D01*
X59248656Y-62744145D01*
X59294125Y-62784327D01*
X59305740Y-62841098D01*
X59293399Y-62929097D01*
X59280569Y-63035770D01*
X59271066Y-63187657D01*
X59266747Y-63353945D01*
X59266666Y-63372605D01*
X59267789Y-63524372D01*
X59273846Y-63615351D01*
X59287877Y-63660767D01*
X59312921Y-63675847D01*
X59327379Y-63676797D01*
X59383692Y-63643588D01*
X59453576Y-63554140D01*
X59529070Y-63423722D01*
X59602212Y-63267603D01*
X59665040Y-63101050D01*
X59707949Y-62946949D01*
X59724617Y-62885421D01*
X60140117Y-62885421D01*
X60152183Y-62925683D01*
X60196290Y-62935206D01*
X60209754Y-62935330D01*
X60295036Y-62902226D01*
X60339800Y-62850821D01*
X60374554Y-62753634D01*
X60386855Y-62637281D01*
X60378509Y-62524747D01*
X60351318Y-62439017D01*
X60307086Y-62403073D01*
X60304659Y-62402994D01*
X60260848Y-62438108D01*
X60215442Y-62532963D01*
X60174634Y-62671832D01*
X60151185Y-62792740D01*
X60140117Y-62885421D01*
X59724617Y-62885421D01*
X59783733Y-62667197D01*
X59876905Y-62430919D01*
X59982715Y-62246800D01*
X60096415Y-62123524D01*
X60184084Y-62076198D01*
X60292193Y-62080116D01*
G37*
D12*
%TO.C,D1*%
X122490000Y-85800000D02*
X123480000Y-85800000D01*
X123480000Y-83880000D02*
X123480000Y-87720000D01*
X123480000Y-87720000D02*
X131320000Y-87720000D01*
X124620000Y-83880000D02*
X124620000Y-87720000D01*
X124740000Y-83880000D02*
X124740000Y-87720000D01*
X124860000Y-83880000D02*
X124860000Y-87720000D01*
X131320000Y-83880000D02*
X123480000Y-83880000D01*
X131320000Y-87720000D02*
X131320000Y-83880000D01*
X132310000Y-85800000D02*
X131320000Y-85800000D01*
%TO.C,J8*%
X83670000Y-51270000D02*
X85000000Y-51270000D01*
X83670000Y-52600000D02*
X83670000Y-51270000D01*
X83670000Y-53870000D02*
X83670000Y-81870000D01*
X83670000Y-53870000D02*
X86330000Y-53870000D01*
X83670000Y-81870000D02*
X86330000Y-81870000D01*
X86330000Y-53870000D02*
X86330000Y-81870000D01*
%TO.C,TP1*%
X52690000Y-126305000D02*
G75*
G02*
X50790000Y-126305000I-950000J0D01*
G01*
X50790000Y-126305000D02*
G75*
G02*
X52690000Y-126305000I950000J0D01*
G01*
%TO.C,U1*%
X60080000Y-124270000D02*
X60080000Y-119629000D01*
X63349000Y-124270000D02*
X63349000Y-122760000D01*
X67050000Y-124270000D02*
X67050000Y-122760000D01*
X70320000Y-119629000D02*
X60080000Y-119629000D01*
X70320000Y-122760000D02*
X60080000Y-122760000D01*
X70320000Y-124270000D02*
X60080000Y-124270000D01*
X70320000Y-124270000D02*
X70320000Y-119629000D01*
%TO.C,R12*%
X103090000Y-108200000D02*
X103780000Y-108200000D01*
X103780000Y-106480000D02*
X103780000Y-109920000D01*
X103780000Y-109920000D02*
X113020000Y-109920000D01*
X113020000Y-106480000D02*
X103780000Y-106480000D01*
X113020000Y-109920000D02*
X113020000Y-106480000D01*
X113710000Y-108200000D02*
X113020000Y-108200000D01*
%TO.C,C1*%
X61630000Y-111030000D02*
X61945000Y-111030000D01*
X61630000Y-115970000D02*
X61630000Y-111030000D01*
X61630000Y-115970000D02*
X61945000Y-115970000D01*
X64055000Y-111030000D02*
X64370000Y-111030000D01*
X64055000Y-115970000D02*
X64370000Y-115970000D01*
X64370000Y-115970000D02*
X64370000Y-111030000D01*
%TO.C,Q1*%
X54000000Y-71440000D02*
X53200000Y-71440000D01*
X54000000Y-71440000D02*
X54800000Y-71440000D01*
X54000000Y-74560000D02*
X53200000Y-74560000D01*
X54000000Y-74560000D02*
X54800000Y-74560000D01*
X52700000Y-71490000D02*
X52460000Y-71160000D01*
X52940000Y-71160000D01*
X52700000Y-71490000D01*
G36*
X52700000Y-71490000D02*
G01*
X52460000Y-71160000D01*
X52940000Y-71160000D01*
X52700000Y-71490000D01*
G37*
%TO.C,C2*%
X66130000Y-111030000D02*
X66130000Y-115970000D01*
X66445000Y-111030000D02*
X66130000Y-111030000D01*
X66445000Y-115970000D02*
X66130000Y-115970000D01*
X68870000Y-111030000D02*
X68555000Y-111030000D01*
X68870000Y-111030000D02*
X68870000Y-115970000D01*
X68870000Y-115970000D02*
X68555000Y-115970000D01*
%TO.C,RV1*%
X91615000Y-127115000D02*
X91615000Y-136885000D01*
X91615000Y-127115000D02*
X101385000Y-127115000D01*
X91615000Y-136885000D02*
X101385000Y-136885000D01*
X101385000Y-127115000D02*
X101385000Y-136885000D01*
%TO.C,Q6*%
X153315000Y-112690000D02*
X153315000Y-122930000D01*
X156446000Y-112690000D02*
X156446000Y-122930000D01*
X157956000Y-112690000D02*
X153315000Y-112690000D01*
X157956000Y-112690000D02*
X157956000Y-122930000D01*
X157956000Y-115960000D02*
X156446000Y-115960000D01*
X157956000Y-119661000D02*
X156446000Y-119661000D01*
X157956000Y-122930000D02*
X153315000Y-122930000D01*
%TO.C,U3*%
X105990000Y-111670000D02*
X105990000Y-121950000D01*
X105990000Y-121950000D02*
X116390000Y-121950000D01*
X106050000Y-114160000D02*
X106050000Y-119460000D01*
X106050000Y-119460000D02*
X116330000Y-119460000D01*
X116330000Y-114160000D02*
X106050000Y-114160000D01*
X116330000Y-115810000D02*
X116330000Y-114160000D01*
X116330000Y-119460000D02*
X116330000Y-117810000D01*
X116390000Y-111670000D02*
X105990000Y-111670000D01*
X116390000Y-121950000D02*
X116390000Y-111670000D01*
X116330000Y-117810000D02*
G75*
G02*
X116330000Y-115810000I0J1000000D01*
G01*
%TO.C,TP2*%
X65720000Y-93500000D02*
G75*
G02*
X63820000Y-93500000I-950000J0D01*
G01*
X63820000Y-93500000D02*
G75*
G02*
X65720000Y-93500000I950000J0D01*
G01*
%TO.C,R13*%
X91280000Y-91380000D02*
X91280000Y-100620000D01*
X91280000Y-100620000D02*
X94720000Y-100620000D01*
X93000000Y-90690000D02*
X93000000Y-91380000D01*
X93000000Y-101310000D02*
X93000000Y-100620000D01*
X94720000Y-91380000D02*
X91280000Y-91380000D01*
X94720000Y-100620000D02*
X94720000Y-91380000D01*
%TO.C,R15*%
X99090000Y-85800000D02*
X99780000Y-85800000D01*
X99780000Y-84080000D02*
X99780000Y-87520000D01*
X99780000Y-87520000D02*
X109020000Y-87520000D01*
X109020000Y-84080000D02*
X99780000Y-84080000D01*
X109020000Y-87520000D02*
X109020000Y-84080000D01*
X109710000Y-85800000D02*
X109020000Y-85800000D01*
%TO.C,TPQ1*%
X108350000Y-96200000D02*
G75*
G02*
X106450000Y-96200000I-950000J0D01*
G01*
X106450000Y-96200000D02*
G75*
G02*
X108350000Y-96200000I950000J0D01*
G01*
%TO.C,R5*%
X65810000Y-105664000D02*
X66500000Y-105664000D01*
X66500000Y-103944000D02*
X66500000Y-107384000D01*
X66500000Y-107384000D02*
X75740000Y-107384000D01*
X75740000Y-103944000D02*
X66500000Y-103944000D01*
X75740000Y-107384000D02*
X75740000Y-103944000D01*
X76430000Y-105664000D02*
X75740000Y-105664000D01*
%TO.C,J5*%
X110540000Y-127340000D02*
X111600000Y-127340000D01*
X110540000Y-128400000D02*
X110540000Y-127340000D01*
X110540000Y-129400000D02*
X110540000Y-135460000D01*
X110540000Y-129400000D02*
X112660000Y-129400000D01*
X110540000Y-135460000D02*
X112660000Y-135460000D01*
X112660000Y-129400000D02*
X112660000Y-135460000D01*
%TD*%
M02*
