%TF.GenerationSoftware,KiCad,Pcbnew,8.0.4*%
%TF.CreationDate,2024-11-25T19:05:08-08:00*%
%TF.ProjectId,Senior Design,53656e69-6f72-4204-9465-7369676e2e6b,rev?*%
%TF.SameCoordinates,Original*%
%TF.FileFunction,Copper,L1,Top*%
%TF.FilePolarity,Positive*%
%FSLAX46Y46*%
G04 Gerber Fmt 4.6, Leading zero omitted, Abs format (unit mm)*
G04 Created by KiCad (PCBNEW 8.0.4) date 2024-11-25 19:05:08*
%MOMM*%
%LPD*%
G01*
G04 APERTURE LIST*
G04 Aperture macros list*
%AMRoundRect*
0 Rectangle with rounded corners*
0 $1 Rounding radius*
0 $2 $3 $4 $5 $6 $7 $8 $9 X,Y pos of 4 corners*
0 Add a 4 corners polygon primitive as box body*
4,1,4,$2,$3,$4,$5,$6,$7,$8,$9,$2,$3,0*
0 Add four circle primitives for the rounded corners*
1,1,$1+$1,$2,$3*
1,1,$1+$1,$4,$5*
1,1,$1+$1,$6,$7*
1,1,$1+$1,$8,$9*
0 Add four rect primitives between the rounded corners*
20,1,$1+$1,$2,$3,$4,$5,0*
20,1,$1+$1,$4,$5,$6,$7,0*
20,1,$1+$1,$6,$7,$8,$9,0*
20,1,$1+$1,$8,$9,$2,$3,0*%
G04 Aperture macros list end*
%TA.AperFunction,ComponentPad*%
%ADD10C,1.600000*%
%TD*%
%TA.AperFunction,ComponentPad*%
%ADD11R,1.350000X1.350000*%
%TD*%
%TA.AperFunction,ComponentPad*%
%ADD12O,1.350000X1.350000*%
%TD*%
%TA.AperFunction,SMDPad,CuDef*%
%ADD13C,1.500000*%
%TD*%
%TA.AperFunction,ComponentPad*%
%ADD14R,1.600000X1.600000*%
%TD*%
%TA.AperFunction,ComponentPad*%
%ADD15O,1.600000X1.600000*%
%TD*%
%TA.AperFunction,ComponentPad*%
%ADD16C,1.650000*%
%TD*%
%TA.AperFunction,ComponentPad*%
%ADD17R,1.500000X1.500000*%
%TD*%
%TA.AperFunction,ComponentPad*%
%ADD18C,1.500000*%
%TD*%
%TA.AperFunction,ComponentPad*%
%ADD19C,2.800000*%
%TD*%
%TA.AperFunction,ComponentPad*%
%ADD20R,2.600000X2.600000*%
%TD*%
%TA.AperFunction,ComponentPad*%
%ADD21C,2.600000*%
%TD*%
%TA.AperFunction,SMDPad,CuDef*%
%ADD22RoundRect,0.150000X0.150000X-0.512500X0.150000X0.512500X-0.150000X0.512500X-0.150000X-0.512500X0*%
%TD*%
%TA.AperFunction,ComponentPad*%
%ADD23C,3.900000*%
%TD*%
%TA.AperFunction,ConnectorPad*%
%ADD24C,7.000000*%
%TD*%
%TA.AperFunction,ComponentPad*%
%ADD25R,2.400000X2.400000*%
%TD*%
%TA.AperFunction,ComponentPad*%
%ADD26O,2.400000X2.400000*%
%TD*%
%TA.AperFunction,ComponentPad*%
%ADD27R,1.700000X1.700000*%
%TD*%
%TA.AperFunction,ComponentPad*%
%ADD28O,1.700000X1.700000*%
%TD*%
%TA.AperFunction,SMDPad,CuDef*%
%ADD29R,0.550000X1.600000*%
%TD*%
%TA.AperFunction,SMDPad,CuDef*%
%ADD30R,1.600000X0.550000*%
%TD*%
%TA.AperFunction,ComponentPad*%
%ADD31R,2.000000X1.905000*%
%TD*%
%TA.AperFunction,ComponentPad*%
%ADD32O,2.000000X1.905000*%
%TD*%
%TA.AperFunction,ComponentPad*%
%ADD33R,1.905000X2.000000*%
%TD*%
%TA.AperFunction,ComponentPad*%
%ADD34O,1.905000X2.000000*%
%TD*%
%TA.AperFunction,SMDPad,CuDef*%
%ADD35RoundRect,0.150000X-0.512500X-0.150000X0.512500X-0.150000X0.512500X0.150000X-0.512500X0.150000X0*%
%TD*%
%TA.AperFunction,ComponentPad*%
%ADD36C,1.440000*%
%TD*%
%TA.AperFunction,ViaPad*%
%ADD37C,0.600000*%
%TD*%
%TA.AperFunction,Conductor*%
%ADD38C,0.500000*%
%TD*%
%TA.AperFunction,Conductor*%
%ADD39C,0.600000*%
%TD*%
%TA.AperFunction,Conductor*%
%ADD40C,1.000000*%
%TD*%
%TA.AperFunction,Conductor*%
%ADD41C,0.550000*%
%TD*%
G04 APERTURE END LIST*
D10*
%TO.P,C3,1*%
%TO.N,Net-(C3-Pad1)*%
X119900000Y-111600000D03*
%TO.P,C3,2*%
%TO.N,Net-(C3-Pad2)*%
X124900000Y-111600000D03*
%TD*%
D11*
%TO.P,J6,1,Pin_1*%
%TO.N,/Microprocessor & Connectors/Volume_D_btn_I*%
X121600000Y-128400000D03*
D12*
%TO.P,J6,2,Pin_2*%
%TO.N,/Microprocessor & Connectors/Volume_D_btn_O*%
X121600000Y-130400000D03*
%TO.P,J6,3,Pin_3*%
%TO.N,/Microprocessor & Connectors/Volume_U_btn_I*%
X121600000Y-132400000D03*
%TO.P,J6,4,Pin_4*%
%TO.N,/Microprocessor & Connectors/Volume_U_btn_O*%
X121600000Y-134400000D03*
%TD*%
D13*
%TO.P,TP3,1,1*%
%TO.N,/Microprocessor & Connectors/3_3VDC*%
X64000000Y-72800000D03*
%TD*%
D14*
%TO.P,C6,1*%
%TO.N,Net-(C6-Pad1)*%
X128600000Y-66500000D03*
D10*
%TO.P,C6,2*%
%TO.N,Net-(J10-Pin_1)*%
X128600000Y-64000000D03*
%TD*%
%TO.P,R10,1*%
%TO.N,Net-(U3A--)*%
X130200000Y-103950000D03*
D15*
%TO.P,R10,2*%
%TO.N,GND*%
X130200000Y-91250000D03*
%TD*%
D10*
%TO.P,R9,1*%
%TO.N,5VDC*%
X88000000Y-89650000D03*
D15*
%TO.P,R9,2*%
%TO.N,Net-(U3A--)*%
X88000000Y-102350000D03*
%TD*%
D16*
%TO.P,J4,1*%
%TO.N,/Microprocessor & Connectors/MISO*%
X57540000Y-102500000D03*
%TO.P,J4,2*%
%TO.N,5VDC*%
X55000000Y-102500000D03*
%TO.P,J4,3*%
%TO.N,/Microprocessor & Connectors/SCK*%
X57540000Y-99960000D03*
%TO.P,J4,4*%
%TO.N,/Microprocessor & Connectors/MOSI*%
X55000000Y-99960000D03*
%TO.P,J4,5*%
%TO.N,/Microprocessor & Connectors/RESET*%
X57540000Y-97420000D03*
%TO.P,J4,6*%
%TO.N,GND*%
X55000000Y-97420000D03*
%TD*%
D10*
%TO.P,C9,1*%
%TO.N,5VDC*%
X70866000Y-93004000D03*
%TO.P,C9,2*%
%TO.N,GND*%
X70866000Y-98004000D03*
%TD*%
%TO.P,R14,1*%
%TO.N,20VDC*%
X139400000Y-105350000D03*
D15*
%TO.P,R14,2*%
%TO.N,Net-(D1-A)*%
X139400000Y-92650000D03*
%TD*%
D10*
%TO.P,R18,1*%
%TO.N,Net-(Q5-E)*%
X133750000Y-74650000D03*
D15*
%TO.P,R18,2*%
%TO.N,Net-(C6-Pad1)*%
X121050000Y-74650000D03*
%TD*%
D10*
%TO.P,R4,1*%
%TO.N,5VDC*%
X62366666Y-89550000D03*
D15*
%TO.P,R4,2*%
%TO.N,/Microprocessor & Connectors/RX-O*%
X62366666Y-76850000D03*
%TD*%
D10*
%TO.P,R6,1*%
%TO.N,/Microprocessor & Connectors/3_3VDC*%
X66294000Y-56134000D03*
D15*
%TO.P,R6,2*%
%TO.N,GND*%
X78994000Y-56134000D03*
%TD*%
D10*
%TO.P,R3,1*%
%TO.N,5VDC*%
X67933332Y-89550000D03*
D15*
%TO.P,R3,2*%
%TO.N,/Microprocessor & Connectors/3_3VDC*%
X67933332Y-76850000D03*
%TD*%
D17*
%TO.P,Q4,1,E*%
%TO.N,Net-(Q4-E)*%
X143530000Y-74915000D03*
D18*
%TO.P,Q4,2,B*%
%TO.N,Net-(D2-K)*%
X140990000Y-72375000D03*
%TO.P,Q4,3,C*%
%TO.N,Net-(Q4-C)*%
X143530000Y-69835000D03*
%TD*%
D19*
%TO.P,J1,1,Pin_1*%
%TO.N,Net-(J1-Pin_1)*%
X71400000Y-133500000D03*
%TD*%
D10*
%TO.P,R8,1*%
%TO.N,Net-(U3A-+)*%
X121050000Y-79800000D03*
D15*
%TO.P,R8,2*%
%TO.N,GND*%
X133750000Y-79800000D03*
%TD*%
D20*
%TO.P,J10,1,Pin_1*%
%TO.N,Net-(J10-Pin_1)*%
X143000000Y-56000000D03*
D21*
%TO.P,J10,2,Pin_2*%
%TO.N,GND*%
X137920000Y-56000000D03*
%TD*%
D22*
%TO.P,Q2,1,G*%
%TO.N,/Microprocessor & Connectors/3_3VDC*%
X77820000Y-74677500D03*
%TO.P,Q2,2,S*%
%TO.N,/Microprocessor & Connectors/TX-I*%
X79720000Y-74677500D03*
%TO.P,Q2,3,D*%
%TO.N,/Microprocessor & Connectors/TX-O*%
X78770000Y-72402500D03*
%TD*%
D10*
%TO.P,R11,1*%
%TO.N,Net-(U3A--)*%
X130200000Y-107050000D03*
D15*
%TO.P,R11,2*%
%TO.N,Net-(C3-Pad1)*%
X130200000Y-119750000D03*
%TD*%
D17*
%TO.P,Q5,1,E*%
%TO.N,Net-(Q5-E)*%
X143950000Y-121140000D03*
D18*
%TO.P,Q5,2,B*%
%TO.N,Net-(D1-A)*%
X141410000Y-118600000D03*
%TO.P,Q5,3,C*%
%TO.N,Net-(Q5-C)*%
X143950000Y-116060000D03*
%TD*%
D10*
%TO.P,R2,1*%
%TO.N,/Microprocessor & Connectors/3_3VDC*%
X73500000Y-76850000D03*
D15*
%TO.P,R2,2*%
%TO.N,/Microprocessor & Connectors/TX-I*%
X73500000Y-89550000D03*
%TD*%
D10*
%TO.P,R7,1*%
%TO.N,5VDC*%
X83000000Y-89650000D03*
D15*
%TO.P,R7,2*%
%TO.N,Net-(U3A-+)*%
X83000000Y-102350000D03*
%TD*%
D10*
%TO.P,R1,1*%
%TO.N,/Microprocessor & Connectors/3_3VDC*%
X56800000Y-76850000D03*
D15*
%TO.P,R1,2*%
%TO.N,/Microprocessor & Connectors/RX-I*%
X56800000Y-89550000D03*
%TD*%
D10*
%TO.P,R16,1*%
%TO.N,Net-(Q5-C)*%
X144600000Y-93000000D03*
D15*
%TO.P,R16,2*%
%TO.N,20VDC*%
X144600000Y-105700000D03*
%TD*%
D23*
%TO.P,H1,1,1*%
%TO.N,GND*%
X55500000Y-54500000D03*
D24*
X55500000Y-54500000D03*
%TD*%
D25*
%TO.P,D2,1,K*%
%TO.N,Net-(D2-K)*%
X98050000Y-91000000D03*
D26*
%TO.P,D2,2,A*%
%TO.N,Net-(D1-K)*%
X110750000Y-91000000D03*
%TD*%
D13*
%TO.P,TP4,1,1*%
%TO.N,/Microprocessor & Connectors/3_3VDC*%
X72500000Y-71000000D03*
%TD*%
D27*
%TO.P,J9,1,Pin_1*%
%TO.N,GND*%
X113000000Y-52600000D03*
D28*
%TO.P,J9,2,Pin_2*%
%TO.N,unconnected-(J9-Pin_2-Pad2)*%
X113000000Y-55140000D03*
%TO.P,J9,3,Pin_3*%
%TO.N,unconnected-(J9-Pin_3-Pad3)*%
X113000000Y-57680000D03*
%TO.P,J9,4,Pin_4*%
%TO.N,unconnected-(J9-Pin_4-Pad4)*%
X113000000Y-60220000D03*
%TO.P,J9,5,Pin_5*%
%TO.N,unconnected-(J9-Pin_5-Pad5)*%
X113000000Y-62760000D03*
%TO.P,J9,6,Pin_6*%
%TO.N,unconnected-(J9-Pin_6-Pad6)*%
X113000000Y-65300000D03*
%TO.P,J9,7,Pin_7*%
%TO.N,unconnected-(J9-Pin_7-Pad7)*%
X113000000Y-67840000D03*
%TO.P,J9,8,Pin_8*%
%TO.N,unconnected-(J9-Pin_8-Pad8)*%
X113000000Y-70380000D03*
%TO.P,J9,9,Pin_9*%
%TO.N,/Microprocessor & Connectors/RX-I*%
X113000000Y-72920000D03*
%TO.P,J9,10,Pin_10*%
%TO.N,/Microprocessor & Connectors/TX-I*%
X113000000Y-75460000D03*
%TO.P,J9,11,Pin_11*%
%TO.N,unconnected-(J9-Pin_11-Pad11)*%
X113000000Y-78000000D03*
%TO.P,J9,12,Pin_12*%
%TO.N,unconnected-(J9-Pin_12-Pad12)*%
X113000000Y-80540000D03*
%TD*%
D17*
%TO.P,Q3,1,E*%
%TO.N,GND*%
X110270000Y-104540000D03*
D18*
%TO.P,Q3,2,B*%
%TO.N,Net-(Q3-B)*%
X107730000Y-102000000D03*
%TO.P,Q3,3,C*%
%TO.N,Net-(D2-K)*%
X110270000Y-99460000D03*
%TD*%
D10*
%TO.P,R19,1*%
%TO.N,Net-(C6-Pad1)*%
X114400000Y-85050000D03*
D15*
%TO.P,R19,2*%
%TO.N,Net-(Q4-E)*%
X114400000Y-97750000D03*
%TD*%
D10*
%TO.P,C10,1*%
%TO.N,Analog Signal*%
X125000000Y-99500000D03*
%TO.P,C10,2*%
%TO.N,Net-(U3A-+)*%
X125000000Y-94500000D03*
%TD*%
D13*
%TO.P,TPQ2,1,1*%
%TO.N,Net-(Q5-C)*%
X153000000Y-93000000D03*
%TD*%
%TO.P,Analog1,1,1*%
%TO.N,Analog Signal*%
X121500000Y-70250000D03*
%TD*%
D10*
%TO.P,R17,1*%
%TO.N,Net-(Q4-C)*%
X155350000Y-86000000D03*
D15*
%TO.P,R17,2*%
%TO.N,GND*%
X142650000Y-86000000D03*
%TD*%
D13*
%TO.P,20v1,1,1*%
%TO.N,20VDC*%
X125600000Y-121000000D03*
%TD*%
%TO.P,PAOut1,1,1*%
%TO.N,Net-(C6-Pad1)*%
X128000000Y-56000000D03*
%TD*%
D10*
%TO.P,C4,1*%
%TO.N,Net-(D2-K)*%
X99100000Y-96200000D03*
%TO.P,C4,2*%
%TO.N,GND*%
X104100000Y-96200000D03*
%TD*%
D29*
%TO.P,U2,1,PD3*%
%TO.N,unconnected-(U2-PD3-Pad1)*%
X83700000Y-117750000D03*
%TO.P,U2,2,PD4*%
%TO.N,unconnected-(U2-PD4-Pad2)*%
X84500000Y-117750000D03*
%TO.P,U2,3,PE0*%
%TO.N,unconnected-(U2-PE0-Pad3)*%
X85300000Y-117750000D03*
%TO.P,U2,4,VCC*%
%TO.N,5VDC*%
X86100000Y-117750000D03*
%TO.P,U2,5,GND*%
%TO.N,GND*%
X86900000Y-117750000D03*
%TO.P,U2,6,PE1*%
%TO.N,unconnected-(U2-PE1-Pad6)*%
X87700000Y-117750000D03*
%TO.P,U2,7,XTAL1/PB6*%
%TO.N,/Microprocessor & Connectors/Pair_btn_I*%
X88500000Y-117750000D03*
%TO.P,U2,8,XTAL2/PB7*%
%TO.N,/Microprocessor & Connectors/Pair_btn_O*%
X89300000Y-117750000D03*
D30*
%TO.P,U2,9,PD5*%
%TO.N,unconnected-(U2-PD5-Pad9)*%
X90750000Y-116300000D03*
%TO.P,U2,10,PD6*%
%TO.N,unconnected-(U2-PD6-Pad10)*%
X90750000Y-115500000D03*
%TO.P,U2,11,PD7*%
%TO.N,unconnected-(U2-PD7-Pad11)*%
X90750000Y-114700000D03*
%TO.P,U2,12,PB0*%
%TO.N,/Microprocessor & Connectors/Power_btn_I*%
X90750000Y-113900000D03*
%TO.P,U2,13,PB1*%
%TO.N,/Microprocessor & Connectors/Power_btn_O*%
X90750000Y-113100000D03*
%TO.P,U2,14,PB2*%
%TO.N,unconnected-(U2-PB2-Pad14)*%
X90750000Y-112300000D03*
%TO.P,U2,15,PB3*%
%TO.N,/Microprocessor & Connectors/MOSI*%
X90750000Y-111500000D03*
%TO.P,U2,16,PB4*%
%TO.N,/Microprocessor & Connectors/MISO*%
X90750000Y-110700000D03*
D29*
%TO.P,U2,17,PB5*%
%TO.N,/Microprocessor & Connectors/SCK*%
X89300000Y-109250000D03*
%TO.P,U2,18,AVCC*%
%TO.N,5VDC*%
X88500000Y-109250000D03*
%TO.P,U2,19,PE2*%
%TO.N,unconnected-(U2-PE2-Pad19)*%
X87700000Y-109250000D03*
%TO.P,U2,20,AREF*%
%TO.N,unconnected-(U2-AREF-Pad20)*%
X86900000Y-109250000D03*
%TO.P,U2,21,GND*%
%TO.N,GND*%
X86100000Y-109250000D03*
%TO.P,U2,22,PE3*%
%TO.N,unconnected-(U2-PE3-Pad22)*%
X85300000Y-109250000D03*
%TO.P,U2,23,PC0*%
%TO.N,/Microprocessor & Connectors/Volume_D_btn_I*%
X84500000Y-109250000D03*
%TO.P,U2,24,PC1*%
%TO.N,/Microprocessor & Connectors/Volume_D_btn_O*%
X83700000Y-109250000D03*
D30*
%TO.P,U2,25,PC2*%
%TO.N,/Microprocessor & Connectors/Volume_U_btn_I*%
X82250000Y-110700000D03*
%TO.P,U2,26,PC3*%
%TO.N,/Microprocessor & Connectors/Volume_U_btn_O*%
X82250000Y-111500000D03*
%TO.P,U2,27,PC4*%
%TO.N,/Microprocessor & Connectors/Pair_LED_O*%
X82250000Y-112300000D03*
%TO.P,U2,28,PC5*%
%TO.N,/Microprocessor & Connectors/Power_LED_O*%
X82250000Y-113100000D03*
%TO.P,U2,29,~{RESET}/PC6*%
%TO.N,/Microprocessor & Connectors/RESET*%
X82250000Y-113900000D03*
%TO.P,U2,30,PD0*%
%TO.N,/Microprocessor & Connectors/RX-O*%
X82250000Y-114700000D03*
%TO.P,U2,31,PD1*%
%TO.N,/Microprocessor & Connectors/TX-O*%
X82250000Y-115500000D03*
%TO.P,U2,32,PD2*%
%TO.N,unconnected-(U2-PD2-Pad32)*%
X82250000Y-116300000D03*
%TD*%
D19*
%TO.P,J2,1,Pin_1*%
%TO.N,GND*%
X63600000Y-133500000D03*
%TD*%
D27*
%TO.P,J7,1,Pin_1*%
%TO.N,/Microprocessor & Connectors/Pair_LED_O*%
X84200000Y-133525000D03*
D28*
%TO.P,J7,2,Pin_2*%
%TO.N,/Microprocessor & Connectors/Power_LED_O*%
X84200000Y-136065000D03*
%TD*%
D27*
%TO.P,J3,1,Pin_1*%
%TO.N,Net-(J1-Pin_1)*%
X78200000Y-133325000D03*
D28*
%TO.P,J3,2,Pin_2*%
%TO.N,20VDC*%
X78200000Y-135865000D03*
%TD*%
D10*
%TO.P,C5,1*%
%TO.N,20VDC*%
X130200000Y-124700000D03*
%TO.P,C5,2*%
%TO.N,GND*%
X130200000Y-129700000D03*
%TD*%
%TO.P,C8,1*%
%TO.N,5VDC*%
X74916000Y-93004000D03*
%TO.P,C8,2*%
%TO.N,GND*%
X74916000Y-98004000D03*
%TD*%
D31*
%TO.P,Q7,1,B*%
%TO.N,Net-(Q4-C)*%
X154178000Y-69695000D03*
D32*
%TO.P,Q7,2,C*%
%TO.N,Net-(Q4-E)*%
X154178000Y-72235000D03*
%TO.P,Q7,3,E*%
%TO.N,GND*%
X154178000Y-74775000D03*
%TD*%
D25*
%TO.P,D1,1,K*%
%TO.N,Net-(D1-K)*%
X121050000Y-85800000D03*
D26*
%TO.P,D1,2,A*%
%TO.N,Net-(D1-A)*%
X133750000Y-85800000D03*
%TD*%
D27*
%TO.P,J8,1,Pin_1*%
%TO.N,Analog Signal*%
X85000000Y-52600000D03*
D28*
%TO.P,J8,2,Pin_2*%
%TO.N,unconnected-(J8-Pin_2-Pad2)*%
X85000000Y-55140000D03*
%TO.P,J8,3,Pin_3*%
%TO.N,unconnected-(J8-Pin_3-Pad3)*%
X85000000Y-57680000D03*
%TO.P,J8,4,Pin_4*%
%TO.N,unconnected-(J8-Pin_4-Pad4)*%
X85000000Y-60220000D03*
%TO.P,J8,5,Pin_5*%
%TO.N,unconnected-(J8-Pin_5-Pad5)*%
X85000000Y-62760000D03*
%TO.P,J8,6,Pin_6*%
%TO.N,unconnected-(J8-Pin_6-Pad6)*%
X85000000Y-65300000D03*
%TO.P,J8,7,Pin_7*%
%TO.N,GND*%
X85000000Y-67840000D03*
%TO.P,J8,8,Pin_8*%
%TO.N,unconnected-(J8-Pin_8-Pad8)*%
X85000000Y-70380000D03*
%TO.P,J8,9,Pin_9*%
%TO.N,unconnected-(J8-Pin_9-Pad9)*%
X85000000Y-72920000D03*
%TO.P,J8,10,Pin_10*%
%TO.N,5VDC*%
X85000000Y-75460000D03*
%TO.P,J8,11,Pin_11*%
%TO.N,unconnected-(J8-Pin_11-Pad11)*%
X85000000Y-78000000D03*
%TO.P,J8,12,Pin_12*%
%TO.N,unconnected-(J8-Pin_12-Pad12)*%
X85000000Y-80540000D03*
%TD*%
D13*
%TO.P,TP1,1,1*%
%TO.N,20VDC*%
X51740000Y-126305000D03*
%TD*%
D33*
%TO.P,U1,1,VO*%
%TO.N,5VDC*%
X67740000Y-121000000D03*
D34*
%TO.P,U1,2,GND*%
%TO.N,GND*%
X65200000Y-121000000D03*
%TO.P,U1,3,VI*%
%TO.N,20VDC*%
X62660000Y-121000000D03*
%TD*%
D10*
%TO.P,R12,1*%
%TO.N,Net-(C3-Pad2)*%
X114750000Y-108200000D03*
D15*
%TO.P,R12,2*%
%TO.N,Net-(Q3-B)*%
X102050000Y-108200000D03*
%TD*%
D10*
%TO.P,C1,1*%
%TO.N,20VDC*%
X63000000Y-116000000D03*
%TO.P,C1,2*%
%TO.N,GND*%
X63000000Y-111000000D03*
%TD*%
D23*
%TO.P,H2,1,1*%
%TO.N,GND*%
X154200000Y-133500000D03*
D24*
X154200000Y-133500000D03*
%TD*%
D35*
%TO.P,Q1,1,G*%
%TO.N,/Microprocessor & Connectors/3_3VDC*%
X52862500Y-72050000D03*
%TO.P,Q1,2,S*%
%TO.N,/Microprocessor & Connectors/RX-I*%
X52862500Y-73950000D03*
%TO.P,Q1,3,D*%
%TO.N,/Microprocessor & Connectors/RX-O*%
X55137500Y-73000000D03*
%TD*%
D10*
%TO.P,C2,1*%
%TO.N,5VDC*%
X67500000Y-111000000D03*
%TO.P,C2,2*%
%TO.N,GND*%
X67500000Y-116000000D03*
%TD*%
D36*
%TO.P,RV1,1,1*%
%TO.N,Net-(Q3-B)*%
X96515000Y-134540000D03*
%TO.P,RV1,2,2*%
X99055000Y-132000000D03*
%TO.P,RV1,3,3*%
%TO.N,GND*%
X96515000Y-129460000D03*
%TD*%
D31*
%TO.P,Q6,1,B*%
%TO.N,Net-(Q5-C)*%
X154686000Y-115270000D03*
D32*
%TO.P,Q6,2,C*%
%TO.N,Net-(Q5-E)*%
X154686000Y-117810000D03*
%TO.P,Q6,3,E*%
%TO.N,20VDC*%
X154686000Y-120350000D03*
%TD*%
D23*
%TO.P,H3,1,1*%
%TO.N,GND*%
X154200000Y-54000000D03*
D24*
X154200000Y-54000000D03*
%TD*%
D14*
%TO.P,U3,1,OUTA*%
%TO.N,Net-(U3-OUTA)*%
X115000000Y-113000000D03*
D15*
%TO.P,U3,2,NEGA*%
%TO.N,Net-(U3-NEGA)*%
X112460000Y-113000000D03*
%TO.P,U3,3,POSA*%
%TO.N,Analog Signal*%
X109920000Y-113000000D03*
%TO.P,U3,4,V-*%
%TO.N,GND*%
X107380000Y-113000000D03*
%TO.P,U3,5,POSB*%
%TO.N,unconnected-(U3-POSB-Pad5)*%
X107380000Y-120620000D03*
%TO.P,U3,6,NEGB*%
%TO.N,unconnected-(U3-NEGB-Pad6)*%
X109920000Y-120620000D03*
%TO.P,U3,7,OUTB*%
%TO.N,unconnected-(U3-OUTB-Pad7)*%
X112460000Y-120620000D03*
%TO.P,U3,8,V+*%
%TO.N,5VDC*%
X115000000Y-120620000D03*
%TD*%
D23*
%TO.P,H4,1,1*%
%TO.N,GND*%
X55500000Y-133500000D03*
D24*
X55500000Y-133500000D03*
%TD*%
D13*
%TO.P,TP2,1,1*%
%TO.N,5VDC*%
X64770000Y-93500000D03*
%TD*%
D10*
%TO.P,R13,1*%
%TO.N,Net-(Q3-B)*%
X93000000Y-89650000D03*
D15*
%TO.P,R13,2*%
%TO.N,GND*%
X93000000Y-102350000D03*
%TD*%
D10*
%TO.P,R15,1*%
%TO.N,Net-(Q3-B)*%
X98050000Y-85800000D03*
D15*
%TO.P,R15,2*%
%TO.N,Net-(C6-Pad1)*%
X110750000Y-85800000D03*
%TD*%
D13*
%TO.P,TPQ1,1,1*%
%TO.N,GND*%
X107400000Y-96200000D03*
%TD*%
D10*
%TO.P,R5,1*%
%TO.N,5VDC*%
X64770000Y-105664000D03*
D15*
%TO.P,R5,2*%
%TO.N,/Microprocessor & Connectors/TX-O*%
X77470000Y-105664000D03*
%TD*%
D11*
%TO.P,J5,1,Pin_1*%
%TO.N,/Microprocessor & Connectors/Power_btn_I*%
X111600000Y-128400000D03*
D12*
%TO.P,J5,2,Pin_2*%
%TO.N,/Microprocessor & Connectors/Power_btn_O*%
X111600000Y-130400000D03*
%TO.P,J5,3,Pin_3*%
%TO.N,/Microprocessor & Connectors/Pair_btn_I*%
X111600000Y-132400000D03*
%TO.P,J5,4,Pin_4*%
%TO.N,/Microprocessor & Connectors/Pair_btn_O*%
X111600000Y-134400000D03*
%TD*%
D37*
%TO.N,/Microprocessor & Connectors/3_3VDC*%
X57000000Y-72000000D03*
%TO.N,/Microprocessor & Connectors/RX-O*%
X51750000Y-79750000D03*
%TO.N,/Microprocessor & Connectors/RX-I*%
X55000000Y-75000000D03*
%TO.N,GND*%
X86868000Y-116078000D03*
X86106000Y-110998000D03*
%TO.N,Analog Signal*%
X118165000Y-71065000D03*
X124000000Y-104090000D03*
%TO.N,5VDC*%
X88392000Y-111252000D03*
X86106000Y-119888000D03*
%TO.N,/Microprocessor & Connectors/MISO*%
X93726000Y-109982000D03*
X82804000Y-107696000D03*
%TO.N,/Microprocessor & Connectors/MOSI*%
X76962000Y-123952000D03*
X76962000Y-109220000D03*
X97028000Y-111252000D03*
X97790000Y-124206000D03*
%TO.N,/Microprocessor & Connectors/Power_btn_O*%
X96774000Y-113030000D03*
X96774000Y-122682000D03*
%TO.N,/Microprocessor & Connectors/Pair_btn_O*%
X89500000Y-119634000D03*
%TO.N,/Microprocessor & Connectors/Pair_btn_I*%
X88500000Y-119634000D03*
%TO.N,/Microprocessor & Connectors/Volume_U_btn_O*%
X81280000Y-136652000D03*
X79756000Y-112014000D03*
%TO.N,/Microprocessor & Connectors/Volume_U_btn_I*%
X80530000Y-124968000D03*
X78740000Y-111252000D03*
%TO.N,/Microprocessor & Connectors/Volume_D_btn_O*%
X84074000Y-106934000D03*
%TO.N,/Microprocessor & Connectors/Volume_D_btn_I*%
X85598000Y-107696000D03*
%TO.N,/Microprocessor & Connectors/Pair_LED_O*%
X84074000Y-112268000D03*
%TO.N,/Microprocessor & Connectors/Power_LED_O*%
X84328000Y-113030000D03*
%TO.N,/Microprocessor & Connectors/TX-I*%
X80000000Y-80000000D03*
%TO.N,/Microprocessor & Connectors/3_3VDC*%
X75000000Y-73500000D03*
%TO.N,/Microprocessor & Connectors/RX-O*%
X51500000Y-73000000D03*
X51054000Y-113030000D03*
%TO.N,/Microprocessor & Connectors/TX-O*%
X78486000Y-115824000D03*
X78500000Y-70500000D03*
%TO.N,Net-(Q5-C)*%
X149352000Y-92650000D03*
%TO.N,Net-(U3A-+)*%
X124200000Y-83000000D03*
%TD*%
D38*
%TO.N,/Microprocessor & Connectors/RX-O*%
X52000000Y-79500000D02*
X59716666Y-79500000D01*
X51750000Y-79750000D02*
X52000000Y-79500000D01*
X59716666Y-79500000D02*
X62366666Y-76850000D01*
D39*
%TO.N,/Microprocessor & Connectors/3_3VDC*%
X57000000Y-72000000D02*
X56950000Y-72050000D01*
%TO.N,/Microprocessor & Connectors/RX-I*%
X62000000Y-75000000D02*
X55000000Y-75000000D01*
X55000000Y-75000000D02*
X53950000Y-73950000D01*
X53950000Y-73950000D02*
X52862500Y-73950000D01*
%TO.N,/Microprocessor & Connectors/RX-O*%
X55137500Y-73000000D02*
X51500000Y-73000000D01*
D38*
%TO.N,Net-(D2-K)*%
X137792767Y-72375000D02*
X140990000Y-72375000D01*
X98050000Y-95150000D02*
X99100000Y-96200000D01*
X99100000Y-96200000D02*
X102360000Y-99460000D01*
X98050000Y-91000000D02*
X98050000Y-95150000D01*
X102360000Y-99460000D02*
X110270000Y-99460000D01*
X110707767Y-99460000D02*
X137792767Y-72375000D01*
X110270000Y-99460000D02*
X110707767Y-99460000D01*
%TO.N,GND*%
X86100000Y-110992000D02*
X86106000Y-110998000D01*
X86900000Y-116110000D02*
X86868000Y-116078000D01*
X86900000Y-117750000D02*
X86900000Y-116110000D01*
X107400000Y-96200000D02*
X104100000Y-96200000D01*
X86100000Y-109250000D02*
X86100000Y-110992000D01*
%TO.N,20VDC*%
X129300000Y-124700000D02*
X130200000Y-124700000D01*
X51740000Y-126305000D02*
X57355000Y-126305000D01*
X125600000Y-121000000D02*
X129300000Y-124700000D01*
X57355000Y-126305000D02*
X62660000Y-121000000D01*
%TO.N,Net-(C3-Pad2)*%
X114750000Y-108200000D02*
X121500000Y-108200000D01*
X121500000Y-108200000D02*
X124900000Y-111600000D01*
D39*
%TO.N,Analog Signal*%
X109920000Y-111191522D02*
X117021522Y-104090000D01*
D40*
X120685000Y-71065000D02*
X121500000Y-70250000D01*
D39*
X109920000Y-113000000D02*
X109920000Y-111191522D01*
X117021522Y-104090000D02*
X124000000Y-104090000D01*
D40*
X118165000Y-71065000D02*
X120685000Y-71065000D01*
D38*
%TO.N,5VDC*%
X88500000Y-111144000D02*
X88392000Y-111252000D01*
D41*
X86100000Y-117750000D02*
X86100000Y-119882000D01*
D38*
X66548000Y-92964000D02*
X66548000Y-93500000D01*
X67933332Y-91578668D02*
X66548000Y-92964000D01*
D41*
X86100000Y-119882000D02*
X86106000Y-119888000D01*
D38*
X66548000Y-93500000D02*
X64770000Y-93500000D01*
X88500000Y-109250000D02*
X88500000Y-111144000D01*
X67933332Y-89550000D02*
X67933332Y-91578668D01*
%TO.N,Net-(D1-K)*%
X115850000Y-91000000D02*
X110750000Y-91000000D01*
X121050000Y-85800000D02*
X115850000Y-91000000D01*
D39*
%TO.N,Net-(J10-Pin_1)*%
X134000000Y-61500000D02*
X131500000Y-64000000D01*
X137500000Y-61500000D02*
X134000000Y-61500000D01*
X143000000Y-56000000D02*
X137500000Y-61500000D01*
X131500000Y-64000000D02*
X128600000Y-64000000D01*
D38*
%TO.N,Net-(C6-Pad1)*%
X125500000Y-66500000D02*
X124000000Y-65000000D01*
X124000000Y-60000000D02*
X128000000Y-56000000D01*
X128600000Y-67100000D02*
X128600000Y-66500000D01*
X110750000Y-85800000D02*
X113650000Y-85800000D01*
X124000000Y-65000000D02*
X124000000Y-60000000D01*
X121050000Y-74650000D02*
X128600000Y-67100000D01*
X113650000Y-85800000D02*
X114400000Y-85050000D01*
X128600000Y-66500000D02*
X125500000Y-66500000D01*
%TO.N,Net-(J1-Pin_1)*%
X71400000Y-133500000D02*
X78025000Y-133500000D01*
X78025000Y-133500000D02*
X78200000Y-133325000D01*
%TO.N,/Microprocessor & Connectors/SCK*%
X81750000Y-102867767D02*
X85828233Y-106946000D01*
X86626000Y-106946000D02*
X87380000Y-107700000D01*
X64297968Y-99960000D02*
X64407968Y-99850000D01*
X57540000Y-99960000D02*
X64297968Y-99960000D01*
X87380000Y-107700000D02*
X89525000Y-107700000D01*
X85828233Y-106946000D02*
X86626000Y-106946000D01*
X81750000Y-102070000D02*
X81750000Y-102867767D01*
X64407968Y-99850000D02*
X79530000Y-99850000D01*
X89525000Y-107700000D02*
X89525000Y-109250000D01*
X79530000Y-99850000D02*
X81750000Y-102070000D01*
%TO.N,/Microprocessor & Connectors/MISO*%
X93200000Y-110700000D02*
X93200000Y-110508000D01*
X62990000Y-107950000D02*
X57540000Y-102500000D01*
X82550000Y-107950000D02*
X62990000Y-107950000D01*
X82804000Y-107696000D02*
X82550000Y-107950000D01*
X90750000Y-110700000D02*
X93200000Y-110700000D01*
X93200000Y-110508000D02*
X93726000Y-109982000D01*
%TO.N,/Microprocessor & Connectors/MOSI*%
X55000000Y-99960000D02*
X53725000Y-101235000D01*
X53725000Y-101235000D02*
X53725000Y-105033000D01*
X97028000Y-111252000D02*
X96774000Y-111252000D01*
X57912000Y-109220000D02*
X76962000Y-109220000D01*
X53725000Y-105033000D02*
X57912000Y-109220000D01*
X96526000Y-111500000D02*
X90750000Y-111500000D01*
X97536000Y-123952000D02*
X97790000Y-124206000D01*
X76962000Y-123952000D02*
X97536000Y-123952000D01*
X96774000Y-111252000D02*
X96526000Y-111500000D01*
%TO.N,/Microprocessor & Connectors/RESET*%
X56265000Y-96145000D02*
X53969000Y-96145000D01*
X53025000Y-105322950D02*
X61602050Y-113900000D01*
X53025000Y-97089000D02*
X53025000Y-105322950D01*
X53969000Y-96145000D02*
X53025000Y-97089000D01*
X57540000Y-97420000D02*
X56265000Y-96145000D01*
X61602050Y-113900000D02*
X82250000Y-113900000D01*
%TO.N,/Microprocessor & Connectors/Power_btn_O*%
X96774000Y-122682000D02*
X97326661Y-122682000D01*
X96704000Y-113100000D02*
X96774000Y-113030000D01*
X90750000Y-113100000D02*
X96704000Y-113100000D01*
X102870000Y-128225339D02*
X102870000Y-128497950D01*
X104772050Y-130400000D02*
X111600000Y-130400000D01*
X102870000Y-128497950D02*
X104772050Y-130400000D01*
X97326661Y-122682000D02*
X102870000Y-128225339D01*
%TO.N,/Microprocessor & Connectors/Power_btn_I*%
X103232000Y-113900000D02*
X90750000Y-113900000D01*
X103762000Y-128400000D02*
X103632000Y-128270000D01*
X111600000Y-128400000D02*
X103762000Y-128400000D01*
X103632000Y-114300000D02*
X103232000Y-113900000D01*
X103632000Y-128270000D02*
X103632000Y-114300000D01*
%TO.N,/Microprocessor & Connectors/Pair_btn_O*%
X89300000Y-117750000D02*
X89300000Y-119434000D01*
X89300000Y-119434000D02*
X89500000Y-119634000D01*
%TO.N,/Microprocessor & Connectors/Pair_btn_I*%
X88500000Y-117750000D02*
X88500000Y-119634000D01*
%TO.N,/Microprocessor & Connectors/Volume_U_btn_O*%
X121600000Y-134400000D02*
X118635000Y-137365000D01*
X80524000Y-111500000D02*
X80010000Y-112014000D01*
X82250000Y-111500000D02*
X80524000Y-111500000D01*
X81993000Y-137365000D02*
X81280000Y-136652000D01*
X80010000Y-112014000D02*
X79756000Y-112014000D01*
X118635000Y-137365000D02*
X81993000Y-137365000D01*
%TO.N,/Microprocessor & Connectors/Volume_U_btn_I*%
X86347646Y-124968000D02*
X86607823Y-125228177D01*
X80530000Y-124968000D02*
X86347646Y-124968000D01*
X86607823Y-136646011D02*
X86607823Y-125228177D01*
X79502000Y-110744000D02*
X79248000Y-110744000D01*
X79546000Y-110700000D02*
X79502000Y-110744000D01*
X79248000Y-110744000D02*
X78740000Y-111252000D01*
X121600000Y-132400000D02*
X117353989Y-136646011D01*
X82250000Y-110700000D02*
X79546000Y-110700000D01*
X117353989Y-136646011D02*
X86607823Y-136646011D01*
%TO.N,/Microprocessor & Connectors/Volume_D_btn_O*%
X83700000Y-107308000D02*
X83700000Y-109250000D01*
X84074000Y-106934000D02*
X83700000Y-107308000D01*
%TO.N,/Microprocessor & Connectors/Volume_D_btn_I*%
X84836000Y-107696000D02*
X84500000Y-108032000D01*
X85598000Y-107696000D02*
X84836000Y-107696000D01*
X84500000Y-108032000D02*
X84500000Y-109250000D01*
%TO.N,/Microprocessor & Connectors/Pair_LED_O*%
X84074000Y-112268000D02*
X82282000Y-112268000D01*
X82282000Y-112268000D02*
X82250000Y-112300000D01*
%TO.N,/Microprocessor & Connectors/Power_LED_O*%
X82320000Y-113030000D02*
X82250000Y-113100000D01*
X84328000Y-113030000D02*
X82320000Y-113030000D01*
%TO.N,/Microprocessor & Connectors/RX-I*%
X79881472Y-82881472D02*
X92047056Y-82881472D01*
X76250000Y-75250000D02*
X79000000Y-78000000D01*
X92047056Y-82881472D02*
X102008528Y-72920000D01*
X102008528Y-72920000D02*
X113000000Y-72920000D01*
X62000000Y-75000000D02*
X62250000Y-75250000D01*
X79000000Y-82000000D02*
X79881472Y-82881472D01*
X79000000Y-78000000D02*
X79000000Y-82000000D01*
X62250000Y-75250000D02*
X76250000Y-75250000D01*
%TO.N,/Microprocessor & Connectors/TX-I*%
X73500000Y-89550000D02*
X77828478Y-89550000D01*
X83378478Y-84000000D02*
X91918478Y-84000000D01*
X77828478Y-89550000D02*
X83378478Y-84000000D01*
D39*
X79720000Y-74677500D02*
X80000000Y-74957500D01*
D38*
X100458478Y-75460000D02*
X113000000Y-75460000D01*
X91918478Y-84000000D02*
X100458478Y-75460000D01*
D39*
X80000000Y-74957500D02*
X80000000Y-80000000D01*
%TO.N,/Microprocessor & Connectors/3_3VDC*%
X76682500Y-73540000D02*
X75040000Y-73540000D01*
X71000000Y-71000000D02*
X66294000Y-66294000D01*
X75000000Y-73500000D02*
X75040000Y-73540000D01*
X66294000Y-56134000D02*
X66294000Y-66294000D01*
X64000000Y-72800000D02*
X62850000Y-71650000D01*
X62850000Y-71650000D02*
X57350000Y-71650000D01*
X72500000Y-71000000D02*
X75000000Y-73500000D01*
X72500000Y-71000000D02*
X71000000Y-71000000D01*
X57350000Y-71650000D02*
X57000000Y-72000000D01*
X77820000Y-74677500D02*
X76682500Y-73540000D01*
X56950000Y-72050000D02*
X52862500Y-72050000D01*
D38*
%TO.N,/Microprocessor & Connectors/RX-O*%
X51054000Y-113030000D02*
X52724000Y-114700000D01*
X52724000Y-114700000D02*
X82250000Y-114700000D01*
%TO.N,/Microprocessor & Connectors/TX-O*%
X78810000Y-115500000D02*
X78486000Y-115824000D01*
D39*
X78770000Y-72402500D02*
X78770000Y-70770000D01*
D38*
X82250000Y-115500000D02*
X78810000Y-115500000D01*
D39*
X78770000Y-70770000D02*
X78500000Y-70500000D01*
D38*
%TO.N,Net-(Q3-B)*%
X100500000Y-102000000D02*
X107730000Y-102000000D01*
X96515000Y-134540000D02*
X99055000Y-132000000D01*
X93000000Y-89650000D02*
X94200000Y-89650000D01*
X96000000Y-97500000D02*
X100500000Y-102000000D01*
X96000000Y-91332233D02*
X96000000Y-97500000D01*
X93000000Y-89650000D02*
X94317767Y-89650000D01*
X94317767Y-89650000D02*
X96000000Y-91332233D01*
X94200000Y-89650000D02*
X98050000Y-85800000D01*
%TO.N,Net-(Q4-C)*%
X143670000Y-69695000D02*
X143530000Y-69835000D01*
X154625000Y-69695000D02*
X143670000Y-69695000D01*
%TO.N,Net-(Q4-E)*%
X154625000Y-72235000D02*
X146210000Y-72235000D01*
X118658000Y-97750000D02*
X141493000Y-74915000D01*
X146210000Y-72235000D02*
X143530000Y-74915000D01*
X114400000Y-97750000D02*
X118658000Y-97750000D01*
X141493000Y-74915000D02*
X143530000Y-74915000D01*
%TO.N,Net-(Q5-E)*%
X154686000Y-117810000D02*
X146812000Y-117810000D01*
X152400000Y-117810000D02*
X155045000Y-117810000D01*
X145500000Y-118000000D02*
X146500000Y-118000000D01*
X143950000Y-121140000D02*
X143950000Y-119550000D01*
X152400000Y-117810000D02*
X154686000Y-117810000D01*
X146500000Y-118000000D02*
X146690000Y-117810000D01*
X143950000Y-119550000D02*
X145500000Y-118000000D01*
X146690000Y-117810000D02*
X146812000Y-117810000D01*
X146812000Y-117810000D02*
X152400000Y-117810000D01*
%TO.N,Net-(Q5-C)*%
X144740000Y-115270000D02*
X143950000Y-116060000D01*
X144600000Y-93000000D02*
X149002000Y-93000000D01*
X149002000Y-93000000D02*
X149352000Y-92650000D01*
D39*
X149702000Y-93000000D02*
X149352000Y-92650000D01*
D38*
X154686000Y-115270000D02*
X144740000Y-115270000D01*
D39*
X153000000Y-93000000D02*
X149702000Y-93000000D01*
%TO.N,Net-(C3-Pad1)*%
X128050000Y-119750000D02*
X120430330Y-112130330D01*
X130200000Y-119750000D02*
X128050000Y-119750000D01*
%TO.N,Net-(U3A-+)*%
X124200000Y-83000000D02*
X124200000Y-82950000D01*
X124200000Y-82950000D02*
X121050000Y-79800000D01*
%TO.N,Net-(U3A--)*%
X129540000Y-103290000D02*
X130200000Y-103950000D01*
X109020000Y-103290000D02*
X129540000Y-103290000D01*
X130200000Y-107050000D02*
X130200000Y-103950000D01*
X90650000Y-105000000D02*
X107310000Y-105000000D01*
X107310000Y-105000000D02*
X109020000Y-103290000D01*
X88000000Y-102350000D02*
X90650000Y-105000000D01*
%TD*%
M02*
