%TF.GenerationSoftware,KiCad,Pcbnew,8.0.4*%
%TF.CreationDate,2024-11-25T19:05:08-08:00*%
%TF.ProjectId,Senior Design,53656e69-6f72-4204-9465-7369676e2e6b,rev?*%
%TF.SameCoordinates,Original*%
%TF.FileFunction,Copper,L4,Bot*%
%TF.FilePolarity,Positive*%
%FSLAX46Y46*%
G04 Gerber Fmt 4.6, Leading zero omitted, Abs format (unit mm)*
G04 Created by KiCad (PCBNEW 8.0.4) date 2024-11-25 19:05:08*
%MOMM*%
%LPD*%
G01*
G04 APERTURE LIST*
%TA.AperFunction,ComponentPad*%
%ADD10C,1.600000*%
%TD*%
%TA.AperFunction,ComponentPad*%
%ADD11R,1.350000X1.350000*%
%TD*%
%TA.AperFunction,ComponentPad*%
%ADD12O,1.350000X1.350000*%
%TD*%
%TA.AperFunction,ComponentPad*%
%ADD13R,1.600000X1.600000*%
%TD*%
%TA.AperFunction,ComponentPad*%
%ADD14O,1.600000X1.600000*%
%TD*%
%TA.AperFunction,ComponentPad*%
%ADD15C,1.650000*%
%TD*%
%TA.AperFunction,ComponentPad*%
%ADD16R,1.500000X1.500000*%
%TD*%
%TA.AperFunction,ComponentPad*%
%ADD17C,1.500000*%
%TD*%
%TA.AperFunction,ComponentPad*%
%ADD18C,2.800000*%
%TD*%
%TA.AperFunction,ComponentPad*%
%ADD19R,2.600000X2.600000*%
%TD*%
%TA.AperFunction,ComponentPad*%
%ADD20C,2.600000*%
%TD*%
%TA.AperFunction,ComponentPad*%
%ADD21C,3.900000*%
%TD*%
%TA.AperFunction,ConnectorPad*%
%ADD22C,7.000000*%
%TD*%
%TA.AperFunction,ComponentPad*%
%ADD23R,2.400000X2.400000*%
%TD*%
%TA.AperFunction,ComponentPad*%
%ADD24O,2.400000X2.400000*%
%TD*%
%TA.AperFunction,ComponentPad*%
%ADD25R,1.700000X1.700000*%
%TD*%
%TA.AperFunction,ComponentPad*%
%ADD26O,1.700000X1.700000*%
%TD*%
%TA.AperFunction,ComponentPad*%
%ADD27R,2.000000X1.905000*%
%TD*%
%TA.AperFunction,ComponentPad*%
%ADD28O,2.000000X1.905000*%
%TD*%
%TA.AperFunction,ComponentPad*%
%ADD29R,1.905000X2.000000*%
%TD*%
%TA.AperFunction,ComponentPad*%
%ADD30O,1.905000X2.000000*%
%TD*%
%TA.AperFunction,ComponentPad*%
%ADD31C,1.440000*%
%TD*%
%TA.AperFunction,ViaPad*%
%ADD32C,0.600000*%
%TD*%
%TA.AperFunction,Conductor*%
%ADD33C,0.500000*%
%TD*%
%TA.AperFunction,Conductor*%
%ADD34C,0.600000*%
%TD*%
G04 APERTURE END LIST*
D10*
%TO.P,C3,1*%
%TO.N,Net-(C3-Pad1)*%
X119900000Y-111600000D03*
%TO.P,C3,2*%
%TO.N,Net-(C3-Pad2)*%
X124900000Y-111600000D03*
%TD*%
D11*
%TO.P,J6,1,Pin_1*%
%TO.N,/Microprocessor & Connectors/Volume_D_btn_I*%
X121600000Y-128400000D03*
D12*
%TO.P,J6,2,Pin_2*%
%TO.N,/Microprocessor & Connectors/Volume_D_btn_O*%
X121600000Y-130400000D03*
%TO.P,J6,3,Pin_3*%
%TO.N,/Microprocessor & Connectors/Volume_U_btn_I*%
X121600000Y-132400000D03*
%TO.P,J6,4,Pin_4*%
%TO.N,/Microprocessor & Connectors/Volume_U_btn_O*%
X121600000Y-134400000D03*
%TD*%
D13*
%TO.P,C6,1*%
%TO.N,Net-(C6-Pad1)*%
X128600000Y-66500000D03*
D10*
%TO.P,C6,2*%
%TO.N,Net-(J10-Pin_1)*%
X128600000Y-64000000D03*
%TD*%
%TO.P,R10,1*%
%TO.N,Net-(U3A--)*%
X130200000Y-103950000D03*
D14*
%TO.P,R10,2*%
%TO.N,GND*%
X130200000Y-91250000D03*
%TD*%
D10*
%TO.P,R9,1*%
%TO.N,5VDC*%
X88000000Y-89650000D03*
D14*
%TO.P,R9,2*%
%TO.N,Net-(U3A--)*%
X88000000Y-102350000D03*
%TD*%
D15*
%TO.P,J4,1*%
%TO.N,/Microprocessor & Connectors/MISO*%
X57540000Y-102500000D03*
%TO.P,J4,2*%
%TO.N,5VDC*%
X55000000Y-102500000D03*
%TO.P,J4,3*%
%TO.N,/Microprocessor & Connectors/SCK*%
X57540000Y-99960000D03*
%TO.P,J4,4*%
%TO.N,/Microprocessor & Connectors/MOSI*%
X55000000Y-99960000D03*
%TO.P,J4,5*%
%TO.N,/Microprocessor & Connectors/RESET*%
X57540000Y-97420000D03*
%TO.P,J4,6*%
%TO.N,GND*%
X55000000Y-97420000D03*
%TD*%
D10*
%TO.P,C9,1*%
%TO.N,5VDC*%
X70866000Y-93004000D03*
%TO.P,C9,2*%
%TO.N,GND*%
X70866000Y-98004000D03*
%TD*%
%TO.P,R14,1*%
%TO.N,20VDC*%
X139400000Y-105350000D03*
D14*
%TO.P,R14,2*%
%TO.N,Net-(D1-A)*%
X139400000Y-92650000D03*
%TD*%
D10*
%TO.P,R18,1*%
%TO.N,Net-(Q5-E)*%
X133750000Y-74650000D03*
D14*
%TO.P,R18,2*%
%TO.N,Net-(C6-Pad1)*%
X121050000Y-74650000D03*
%TD*%
D10*
%TO.P,R4,1*%
%TO.N,5VDC*%
X62366666Y-89550000D03*
D14*
%TO.P,R4,2*%
%TO.N,/Microprocessor & Connectors/RX-O*%
X62366666Y-76850000D03*
%TD*%
D10*
%TO.P,R6,1*%
%TO.N,/Microprocessor & Connectors/3_3VDC*%
X66294000Y-56134000D03*
D14*
%TO.P,R6,2*%
%TO.N,GND*%
X78994000Y-56134000D03*
%TD*%
D10*
%TO.P,R3,1*%
%TO.N,5VDC*%
X67933332Y-89550000D03*
D14*
%TO.P,R3,2*%
%TO.N,/Microprocessor & Connectors/3_3VDC*%
X67933332Y-76850000D03*
%TD*%
D16*
%TO.P,Q4,1,E*%
%TO.N,Net-(Q4-E)*%
X143530000Y-74915000D03*
D17*
%TO.P,Q4,2,B*%
%TO.N,Net-(D2-K)*%
X140990000Y-72375000D03*
%TO.P,Q4,3,C*%
%TO.N,Net-(Q4-C)*%
X143530000Y-69835000D03*
%TD*%
D18*
%TO.P,J1,1,Pin_1*%
%TO.N,Net-(J1-Pin_1)*%
X71400000Y-133500000D03*
%TD*%
D10*
%TO.P,R8,1*%
%TO.N,Net-(U3A-+)*%
X121050000Y-79800000D03*
D14*
%TO.P,R8,2*%
%TO.N,GND*%
X133750000Y-79800000D03*
%TD*%
D19*
%TO.P,J10,1,Pin_1*%
%TO.N,Net-(J10-Pin_1)*%
X143000000Y-56000000D03*
D20*
%TO.P,J10,2,Pin_2*%
%TO.N,GND*%
X137920000Y-56000000D03*
%TD*%
D10*
%TO.P,R11,1*%
%TO.N,Net-(U3A--)*%
X130200000Y-107050000D03*
D14*
%TO.P,R11,2*%
%TO.N,Net-(C3-Pad1)*%
X130200000Y-119750000D03*
%TD*%
D16*
%TO.P,Q5,1,E*%
%TO.N,Net-(Q5-E)*%
X143950000Y-121140000D03*
D17*
%TO.P,Q5,2,B*%
%TO.N,Net-(D1-A)*%
X141410000Y-118600000D03*
%TO.P,Q5,3,C*%
%TO.N,Net-(Q5-C)*%
X143950000Y-116060000D03*
%TD*%
D10*
%TO.P,R2,1*%
%TO.N,/Microprocessor & Connectors/3_3VDC*%
X73500000Y-76850000D03*
D14*
%TO.P,R2,2*%
%TO.N,/Microprocessor & Connectors/TX-I*%
X73500000Y-89550000D03*
%TD*%
D10*
%TO.P,R7,1*%
%TO.N,5VDC*%
X83000000Y-89650000D03*
D14*
%TO.P,R7,2*%
%TO.N,Net-(U3A-+)*%
X83000000Y-102350000D03*
%TD*%
D10*
%TO.P,R1,1*%
%TO.N,/Microprocessor & Connectors/3_3VDC*%
X56800000Y-76850000D03*
D14*
%TO.P,R1,2*%
%TO.N,/Microprocessor & Connectors/RX-I*%
X56800000Y-89550000D03*
%TD*%
D10*
%TO.P,R16,1*%
%TO.N,Net-(Q5-C)*%
X144600000Y-93000000D03*
D14*
%TO.P,R16,2*%
%TO.N,20VDC*%
X144600000Y-105700000D03*
%TD*%
D21*
%TO.P,H1,1,1*%
%TO.N,GND*%
X55500000Y-54500000D03*
D22*
X55500000Y-54500000D03*
%TD*%
D23*
%TO.P,D2,1,K*%
%TO.N,Net-(D2-K)*%
X98050000Y-91000000D03*
D24*
%TO.P,D2,2,A*%
%TO.N,Net-(D1-K)*%
X110750000Y-91000000D03*
%TD*%
D25*
%TO.P,J9,1,Pin_1*%
%TO.N,GND*%
X113000000Y-52600000D03*
D26*
%TO.P,J9,2,Pin_2*%
%TO.N,unconnected-(J9-Pin_2-Pad2)*%
X113000000Y-55140000D03*
%TO.P,J9,3,Pin_3*%
%TO.N,unconnected-(J9-Pin_3-Pad3)*%
X113000000Y-57680000D03*
%TO.P,J9,4,Pin_4*%
%TO.N,unconnected-(J9-Pin_4-Pad4)*%
X113000000Y-60220000D03*
%TO.P,J9,5,Pin_5*%
%TO.N,unconnected-(J9-Pin_5-Pad5)*%
X113000000Y-62760000D03*
%TO.P,J9,6,Pin_6*%
%TO.N,unconnected-(J9-Pin_6-Pad6)*%
X113000000Y-65300000D03*
%TO.P,J9,7,Pin_7*%
%TO.N,unconnected-(J9-Pin_7-Pad7)*%
X113000000Y-67840000D03*
%TO.P,J9,8,Pin_8*%
%TO.N,unconnected-(J9-Pin_8-Pad8)*%
X113000000Y-70380000D03*
%TO.P,J9,9,Pin_9*%
%TO.N,/Microprocessor & Connectors/RX-I*%
X113000000Y-72920000D03*
%TO.P,J9,10,Pin_10*%
%TO.N,/Microprocessor & Connectors/TX-I*%
X113000000Y-75460000D03*
%TO.P,J9,11,Pin_11*%
%TO.N,unconnected-(J9-Pin_11-Pad11)*%
X113000000Y-78000000D03*
%TO.P,J9,12,Pin_12*%
%TO.N,unconnected-(J9-Pin_12-Pad12)*%
X113000000Y-80540000D03*
%TD*%
D16*
%TO.P,Q3,1,E*%
%TO.N,GND*%
X110270000Y-104540000D03*
D17*
%TO.P,Q3,2,B*%
%TO.N,Net-(Q3-B)*%
X107730000Y-102000000D03*
%TO.P,Q3,3,C*%
%TO.N,Net-(D2-K)*%
X110270000Y-99460000D03*
%TD*%
D10*
%TO.P,R19,1*%
%TO.N,Net-(C6-Pad1)*%
X114400000Y-85050000D03*
D14*
%TO.P,R19,2*%
%TO.N,Net-(Q4-E)*%
X114400000Y-97750000D03*
%TD*%
D10*
%TO.P,C10,1*%
%TO.N,Analog Signal*%
X125000000Y-99500000D03*
%TO.P,C10,2*%
%TO.N,Net-(U3A-+)*%
X125000000Y-94500000D03*
%TD*%
%TO.P,R17,1*%
%TO.N,Net-(Q4-C)*%
X155350000Y-86000000D03*
D14*
%TO.P,R17,2*%
%TO.N,GND*%
X142650000Y-86000000D03*
%TD*%
D10*
%TO.P,C4,1*%
%TO.N,Net-(D2-K)*%
X99100000Y-96200000D03*
%TO.P,C4,2*%
%TO.N,GND*%
X104100000Y-96200000D03*
%TD*%
D18*
%TO.P,J2,1,Pin_1*%
%TO.N,GND*%
X63600000Y-133500000D03*
%TD*%
D25*
%TO.P,J7,1,Pin_1*%
%TO.N,/Microprocessor & Connectors/Pair_LED_O*%
X84200000Y-133525000D03*
D26*
%TO.P,J7,2,Pin_2*%
%TO.N,/Microprocessor & Connectors/Power_LED_O*%
X84200000Y-136065000D03*
%TD*%
D25*
%TO.P,J3,1,Pin_1*%
%TO.N,Net-(J1-Pin_1)*%
X78200000Y-133325000D03*
D26*
%TO.P,J3,2,Pin_2*%
%TO.N,20VDC*%
X78200000Y-135865000D03*
%TD*%
D10*
%TO.P,C5,1*%
%TO.N,20VDC*%
X130200000Y-124700000D03*
%TO.P,C5,2*%
%TO.N,GND*%
X130200000Y-129700000D03*
%TD*%
%TO.P,C8,1*%
%TO.N,5VDC*%
X74916000Y-93004000D03*
%TO.P,C8,2*%
%TO.N,GND*%
X74916000Y-98004000D03*
%TD*%
D27*
%TO.P,Q7,1,B*%
%TO.N,Net-(Q4-C)*%
X154178000Y-69695000D03*
D28*
%TO.P,Q7,2,C*%
%TO.N,Net-(Q4-E)*%
X154178000Y-72235000D03*
%TO.P,Q7,3,E*%
%TO.N,GND*%
X154178000Y-74775000D03*
%TD*%
D23*
%TO.P,D1,1,K*%
%TO.N,Net-(D1-K)*%
X121050000Y-85800000D03*
D24*
%TO.P,D1,2,A*%
%TO.N,Net-(D1-A)*%
X133750000Y-85800000D03*
%TD*%
D25*
%TO.P,J8,1,Pin_1*%
%TO.N,Analog Signal*%
X85000000Y-52600000D03*
D26*
%TO.P,J8,2,Pin_2*%
%TO.N,unconnected-(J8-Pin_2-Pad2)*%
X85000000Y-55140000D03*
%TO.P,J8,3,Pin_3*%
%TO.N,unconnected-(J8-Pin_3-Pad3)*%
X85000000Y-57680000D03*
%TO.P,J8,4,Pin_4*%
%TO.N,unconnected-(J8-Pin_4-Pad4)*%
X85000000Y-60220000D03*
%TO.P,J8,5,Pin_5*%
%TO.N,unconnected-(J8-Pin_5-Pad5)*%
X85000000Y-62760000D03*
%TO.P,J8,6,Pin_6*%
%TO.N,unconnected-(J8-Pin_6-Pad6)*%
X85000000Y-65300000D03*
%TO.P,J8,7,Pin_7*%
%TO.N,GND*%
X85000000Y-67840000D03*
%TO.P,J8,8,Pin_8*%
%TO.N,unconnected-(J8-Pin_8-Pad8)*%
X85000000Y-70380000D03*
%TO.P,J8,9,Pin_9*%
%TO.N,unconnected-(J8-Pin_9-Pad9)*%
X85000000Y-72920000D03*
%TO.P,J8,10,Pin_10*%
%TO.N,5VDC*%
X85000000Y-75460000D03*
%TO.P,J8,11,Pin_11*%
%TO.N,unconnected-(J8-Pin_11-Pad11)*%
X85000000Y-78000000D03*
%TO.P,J8,12,Pin_12*%
%TO.N,unconnected-(J8-Pin_12-Pad12)*%
X85000000Y-80540000D03*
%TD*%
D29*
%TO.P,U1,1,VO*%
%TO.N,5VDC*%
X67740000Y-121000000D03*
D30*
%TO.P,U1,2,GND*%
%TO.N,GND*%
X65200000Y-121000000D03*
%TO.P,U1,3,VI*%
%TO.N,20VDC*%
X62660000Y-121000000D03*
%TD*%
D10*
%TO.P,R12,1*%
%TO.N,Net-(C3-Pad2)*%
X114750000Y-108200000D03*
D14*
%TO.P,R12,2*%
%TO.N,Net-(Q3-B)*%
X102050000Y-108200000D03*
%TD*%
D10*
%TO.P,C1,1*%
%TO.N,20VDC*%
X63000000Y-116000000D03*
%TO.P,C1,2*%
%TO.N,GND*%
X63000000Y-111000000D03*
%TD*%
D21*
%TO.P,H2,1,1*%
%TO.N,GND*%
X154200000Y-133500000D03*
D22*
X154200000Y-133500000D03*
%TD*%
D10*
%TO.P,C2,1*%
%TO.N,5VDC*%
X67500000Y-111000000D03*
%TO.P,C2,2*%
%TO.N,GND*%
X67500000Y-116000000D03*
%TD*%
D31*
%TO.P,RV1,1,1*%
%TO.N,Net-(Q3-B)*%
X96515000Y-134540000D03*
%TO.P,RV1,2,2*%
X99055000Y-132000000D03*
%TO.P,RV1,3,3*%
%TO.N,GND*%
X96515000Y-129460000D03*
%TD*%
D27*
%TO.P,Q6,1,B*%
%TO.N,Net-(Q5-C)*%
X154686000Y-115270000D03*
D28*
%TO.P,Q6,2,C*%
%TO.N,Net-(Q5-E)*%
X154686000Y-117810000D03*
%TO.P,Q6,3,E*%
%TO.N,20VDC*%
X154686000Y-120350000D03*
%TD*%
D21*
%TO.P,H3,1,1*%
%TO.N,GND*%
X154200000Y-54000000D03*
D22*
X154200000Y-54000000D03*
%TD*%
D13*
%TO.P,U3,1,OUTA*%
%TO.N,Net-(U3-OUTA)*%
X115000000Y-113000000D03*
D14*
%TO.P,U3,2,NEGA*%
%TO.N,Net-(U3-NEGA)*%
X112460000Y-113000000D03*
%TO.P,U3,3,POSA*%
%TO.N,Analog Signal*%
X109920000Y-113000000D03*
%TO.P,U3,4,V-*%
%TO.N,GND*%
X107380000Y-113000000D03*
%TO.P,U3,5,POSB*%
%TO.N,unconnected-(U3-POSB-Pad5)*%
X107380000Y-120620000D03*
%TO.P,U3,6,NEGB*%
%TO.N,unconnected-(U3-NEGB-Pad6)*%
X109920000Y-120620000D03*
%TO.P,U3,7,OUTB*%
%TO.N,unconnected-(U3-OUTB-Pad7)*%
X112460000Y-120620000D03*
%TO.P,U3,8,V+*%
%TO.N,5VDC*%
X115000000Y-120620000D03*
%TD*%
D21*
%TO.P,H4,1,1*%
%TO.N,GND*%
X55500000Y-133500000D03*
D22*
X55500000Y-133500000D03*
%TD*%
D10*
%TO.P,R13,1*%
%TO.N,Net-(Q3-B)*%
X93000000Y-89650000D03*
D14*
%TO.P,R13,2*%
%TO.N,GND*%
X93000000Y-102350000D03*
%TD*%
D10*
%TO.P,R15,1*%
%TO.N,Net-(Q3-B)*%
X98050000Y-85800000D03*
D14*
%TO.P,R15,2*%
%TO.N,Net-(C6-Pad1)*%
X110750000Y-85800000D03*
%TD*%
D10*
%TO.P,R5,1*%
%TO.N,5VDC*%
X64770000Y-105664000D03*
D14*
%TO.P,R5,2*%
%TO.N,/Microprocessor & Connectors/TX-O*%
X77470000Y-105664000D03*
%TD*%
D11*
%TO.P,J5,1,Pin_1*%
%TO.N,/Microprocessor & Connectors/Power_btn_I*%
X111600000Y-128400000D03*
D12*
%TO.P,J5,2,Pin_2*%
%TO.N,/Microprocessor & Connectors/Power_btn_O*%
X111600000Y-130400000D03*
%TO.P,J5,3,Pin_3*%
%TO.N,/Microprocessor & Connectors/Pair_btn_I*%
X111600000Y-132400000D03*
%TO.P,J5,4,Pin_4*%
%TO.N,/Microprocessor & Connectors/Pair_btn_O*%
X111600000Y-134400000D03*
%TD*%
D32*
%TO.N,/Microprocessor & Connectors/3_3VDC*%
X57000000Y-72000000D03*
%TO.N,/Microprocessor & Connectors/RX-O*%
X51750000Y-79750000D03*
%TO.N,/Microprocessor & Connectors/RX-I*%
X55000000Y-75000000D03*
%TO.N,GND*%
X86868000Y-116078000D03*
X86106000Y-110998000D03*
%TO.N,Analog Signal*%
X118165000Y-71065000D03*
X124000000Y-104090000D03*
%TO.N,5VDC*%
X88392000Y-111252000D03*
X86106000Y-119888000D03*
%TO.N,/Microprocessor & Connectors/MISO*%
X93726000Y-109982000D03*
X82804000Y-107696000D03*
%TO.N,/Microprocessor & Connectors/MOSI*%
X76962000Y-123952000D03*
X76962000Y-109220000D03*
X97028000Y-111252000D03*
X97790000Y-124206000D03*
%TO.N,/Microprocessor & Connectors/Power_btn_O*%
X96774000Y-113030000D03*
X96774000Y-122682000D03*
%TO.N,/Microprocessor & Connectors/Pair_btn_O*%
X89500000Y-119634000D03*
%TO.N,/Microprocessor & Connectors/Pair_btn_I*%
X88500000Y-119634000D03*
%TO.N,/Microprocessor & Connectors/Volume_U_btn_O*%
X81280000Y-136652000D03*
X79756000Y-112014000D03*
%TO.N,/Microprocessor & Connectors/Volume_U_btn_I*%
X80530000Y-124968000D03*
X78740000Y-111252000D03*
%TO.N,/Microprocessor & Connectors/Volume_D_btn_O*%
X84074000Y-106934000D03*
%TO.N,/Microprocessor & Connectors/Volume_D_btn_I*%
X85598000Y-107696000D03*
%TO.N,/Microprocessor & Connectors/Pair_LED_O*%
X84074000Y-112268000D03*
%TO.N,/Microprocessor & Connectors/Power_LED_O*%
X84328000Y-113030000D03*
%TO.N,/Microprocessor & Connectors/TX-I*%
X80000000Y-80000000D03*
%TO.N,/Microprocessor & Connectors/3_3VDC*%
X75000000Y-73500000D03*
%TO.N,/Microprocessor & Connectors/RX-O*%
X51500000Y-73000000D03*
X51054000Y-113030000D03*
%TO.N,/Microprocessor & Connectors/TX-O*%
X78486000Y-115824000D03*
X78500000Y-70500000D03*
%TO.N,Net-(Q5-C)*%
X149352000Y-92650000D03*
%TO.N,Net-(U3A-+)*%
X124200000Y-83000000D03*
%TD*%
D33*
%TO.N,/Microprocessor & Connectors/RX-O*%
X51750000Y-79750000D02*
X51054000Y-80446000D01*
X51054000Y-80446000D02*
X51054000Y-113030000D01*
X51750000Y-79750000D02*
X51054000Y-79054000D01*
X51054000Y-79054000D02*
X51054000Y-73446000D01*
X51054000Y-73446000D02*
X51500000Y-73000000D01*
D34*
%TO.N,/Microprocessor & Connectors/3_3VDC*%
X57000000Y-72000000D02*
X57000000Y-76650000D01*
X57000000Y-76650000D02*
X56800000Y-76850000D01*
%TO.N,/Microprocessor & Connectors/RX-I*%
X55000000Y-87750000D02*
X55000000Y-75000000D01*
X56800000Y-89550000D02*
X55000000Y-87750000D01*
%TO.N,Analog Signal*%
X118165000Y-71065000D02*
X118165000Y-77284189D01*
X126300000Y-78061522D02*
X119303478Y-71065000D01*
X86350000Y-53950000D02*
X85000000Y-52600000D01*
X112440811Y-81890000D02*
X86350000Y-55799189D01*
X113559189Y-81890000D02*
X112440811Y-81890000D01*
X124000000Y-100500000D02*
X125000000Y-99500000D01*
X86350000Y-55799189D02*
X86350000Y-53950000D01*
X118165000Y-77284189D02*
X113559189Y-81890000D01*
X126300000Y-98200000D02*
X126300000Y-78061522D01*
X119303478Y-71065000D02*
X118165000Y-71065000D01*
X124000000Y-104090000D02*
X124000000Y-100500000D01*
X125000000Y-99500000D02*
X126300000Y-98200000D01*
D33*
%TO.N,Net-(D1-A)*%
X141410000Y-94660000D02*
X141410000Y-118600000D01*
X139400000Y-91450000D02*
X133750000Y-85800000D01*
X139400000Y-92650000D02*
X141410000Y-94660000D01*
X139400000Y-92650000D02*
X139400000Y-91450000D01*
%TO.N,Net-(C6-Pad1)*%
X117567767Y-85050000D02*
X122300000Y-80317767D01*
X114400000Y-85050000D02*
X117567767Y-85050000D01*
X122300000Y-75900000D02*
X121050000Y-74650000D01*
X122300000Y-80317767D02*
X122300000Y-75900000D01*
%TO.N,/Microprocessor & Connectors/MISO*%
X83492050Y-109982000D02*
X93726000Y-109982000D01*
X82804000Y-107696000D02*
X82800000Y-107700000D01*
X82800000Y-107700000D02*
X82800000Y-109289950D01*
X82800000Y-109289950D02*
X83492050Y-109982000D01*
%TO.N,/Microprocessor & Connectors/MOSI*%
X97790000Y-124206000D02*
X97790000Y-112014000D01*
X76962000Y-109220000D02*
X76962000Y-123952000D01*
X97790000Y-112014000D02*
X97028000Y-111252000D01*
%TO.N,/Microprocessor & Connectors/Power_btn_O*%
X96774000Y-113030000D02*
X96774000Y-122682000D01*
%TO.N,/Microprocessor & Connectors/Pair_btn_O*%
X99800370Y-134400000D02*
X89500000Y-124099630D01*
X111600000Y-134400000D02*
X99800370Y-134400000D01*
X89500000Y-124099630D02*
X89500000Y-119634000D01*
%TO.N,/Microprocessor & Connectors/Pair_btn_I*%
X112065991Y-135525000D02*
X112725000Y-134865991D01*
X88500000Y-124089580D02*
X88500000Y-119634000D01*
X88500000Y-124089580D02*
X99935420Y-135525000D01*
X112725000Y-134865991D02*
X112725000Y-133525000D01*
X99935420Y-135525000D02*
X112065991Y-135525000D01*
X112725000Y-133525000D02*
X111600000Y-132400000D01*
%TO.N,/Microprocessor & Connectors/Volume_U_btn_O*%
X81534000Y-113792000D02*
X79756000Y-112014000D01*
X81280000Y-136652000D02*
X81534000Y-136398000D01*
X81534000Y-136398000D02*
X81534000Y-113792000D01*
%TO.N,/Microprocessor & Connectors/Volume_U_btn_I*%
X78740000Y-112058661D02*
X78740000Y-111252000D01*
X80580000Y-124918000D02*
X80580000Y-113898661D01*
X80580000Y-113898661D02*
X78740000Y-112058661D01*
X80530000Y-124968000D02*
X80580000Y-124918000D01*
%TO.N,/Microprocessor & Connectors/Volume_D_btn_O*%
X111210000Y-106000000D02*
X111210000Y-113517767D01*
X122725000Y-125032767D02*
X122725000Y-129275000D01*
X84074000Y-106934000D02*
X85576050Y-106934000D01*
X109212943Y-100100000D02*
X111470000Y-102357057D01*
X92410050Y-100100000D02*
X109212943Y-100100000D01*
X85576050Y-106934000D02*
X92410050Y-100100000D01*
X111210000Y-113517767D02*
X122725000Y-125032767D01*
X111470000Y-105740000D02*
X111210000Y-106000000D01*
X122725000Y-129275000D02*
X121600000Y-130400000D01*
X111470000Y-102357057D02*
X111470000Y-105740000D01*
%TO.N,/Microprocessor & Connectors/Volume_D_btn_I*%
X92700000Y-100800000D02*
X85804000Y-107696000D01*
X85804000Y-107696000D02*
X85598000Y-107696000D01*
X105410000Y-109982000D02*
X107188000Y-109982000D01*
X121600000Y-125027968D02*
X110822032Y-114250000D01*
X121600000Y-128400000D02*
X121600000Y-125027968D01*
X108930000Y-108240000D02*
X108930000Y-101502943D01*
X104140000Y-111252000D02*
X105410000Y-109982000D01*
X110822032Y-114250000D02*
X105614000Y-114250000D01*
X108930000Y-101502943D02*
X108227057Y-100800000D01*
X105614000Y-114250000D02*
X104140000Y-112776000D01*
X107188000Y-109982000D02*
X108930000Y-108240000D01*
X108227057Y-100800000D02*
X92700000Y-100800000D01*
X104140000Y-112776000D02*
X104140000Y-111252000D01*
%TO.N,/Microprocessor & Connectors/Pair_LED_O*%
X84200000Y-133525000D02*
X84836000Y-132889000D01*
X86614000Y-113284000D02*
X85598000Y-112268000D01*
X84836000Y-132889000D02*
X84836000Y-115570000D01*
X85598000Y-112268000D02*
X84074000Y-112268000D01*
X84836000Y-115570000D02*
X86614000Y-113792000D01*
X86614000Y-113792000D02*
X86614000Y-113284000D01*
%TO.N,/Microprocessor & Connectors/Power_LED_O*%
X84136000Y-115508000D02*
X84136000Y-115254000D01*
X85852000Y-113538000D02*
X85344000Y-113030000D01*
X84328000Y-113030000D02*
X85344000Y-113030000D01*
X82900000Y-134765000D02*
X82900000Y-116744000D01*
X82900000Y-116744000D02*
X84136000Y-115508000D01*
X84200000Y-136065000D02*
X82900000Y-134765000D01*
X84136000Y-115254000D02*
X85852000Y-113538000D01*
D34*
%TO.N,/Microprocessor & Connectors/TX-I*%
X73500000Y-86500000D02*
X73500000Y-89550000D01*
X80000000Y-80000000D02*
X73500000Y-86500000D01*
%TO.N,/Microprocessor & Connectors/3_3VDC*%
X75000000Y-73500000D02*
X75000000Y-75350000D01*
X75000000Y-75350000D02*
X73500000Y-76850000D01*
D33*
%TO.N,/Microprocessor & Connectors/TX-O*%
X82000000Y-80000000D02*
X82000000Y-72690000D01*
X78500000Y-70500000D02*
X78770000Y-70500000D01*
X79810000Y-70500000D02*
X78500000Y-70500000D01*
X78486000Y-115824000D02*
X78486000Y-113792000D01*
X78486000Y-113792000D02*
X77750000Y-113056000D01*
X77750000Y-113056000D02*
X77750000Y-84250000D01*
X82000000Y-72690000D02*
X79810000Y-70500000D01*
X77750000Y-84250000D02*
X82000000Y-80000000D01*
%TO.N,Net-(Q3-B)*%
X99055000Y-111195000D02*
X102050000Y-108200000D01*
X107730000Y-102000000D02*
X102050000Y-107680000D01*
X102050000Y-107680000D02*
X102050000Y-108200000D01*
X99055000Y-132000000D02*
X99055000Y-111195000D01*
%TO.N,Net-(Q4-C)*%
X156149999Y-71219999D02*
X154625000Y-69695000D01*
X155350000Y-86000000D02*
X156149999Y-85200001D01*
X156149999Y-85200001D02*
X156149999Y-71219999D01*
%TO.N,Net-(Q5-E)*%
X142610000Y-94870050D02*
X142610000Y-119800000D01*
X133750000Y-74650000D02*
X140650000Y-81550000D01*
X142610000Y-119800000D02*
X143950000Y-121140000D01*
X140650000Y-81550000D02*
X140650000Y-92910050D01*
X140650000Y-92910050D02*
X142610000Y-94870050D01*
%TO.N,Net-(Q5-C)*%
X149352000Y-92650000D02*
X149352000Y-96520000D01*
X155045000Y-102213000D02*
X155045000Y-115270000D01*
X149352000Y-96520000D02*
X155045000Y-102213000D01*
D34*
%TO.N,Net-(U3A-+)*%
X90850000Y-94500000D02*
X83000000Y-102350000D01*
X125000000Y-94500000D02*
X90850000Y-94500000D01*
X125000000Y-83800000D02*
X125000000Y-94500000D01*
X124200000Y-83000000D02*
X125000000Y-83800000D01*
%TD*%
M02*
