%TF.GenerationSoftware,KiCad,Pcbnew,8.0.4*%
%TF.CreationDate,2024-11-25T19:05:08-08:00*%
%TF.ProjectId,Senior Design,53656e69-6f72-4204-9465-7369676e2e6b,rev?*%
%TF.SameCoordinates,Original*%
%TF.FileFunction,Copper,L3,Inr*%
%TF.FilePolarity,Positive*%
%FSLAX46Y46*%
G04 Gerber Fmt 4.6, Leading zero omitted, Abs format (unit mm)*
G04 Created by KiCad (PCBNEW 8.0.4) date 2024-11-25 19:05:08*
%MOMM*%
%LPD*%
G01*
G04 APERTURE LIST*
%TA.AperFunction,ComponentPad*%
%ADD10C,1.600000*%
%TD*%
%TA.AperFunction,ComponentPad*%
%ADD11R,1.350000X1.350000*%
%TD*%
%TA.AperFunction,ComponentPad*%
%ADD12O,1.350000X1.350000*%
%TD*%
%TA.AperFunction,ComponentPad*%
%ADD13R,1.600000X1.600000*%
%TD*%
%TA.AperFunction,ComponentPad*%
%ADD14O,1.600000X1.600000*%
%TD*%
%TA.AperFunction,ComponentPad*%
%ADD15C,1.650000*%
%TD*%
%TA.AperFunction,ComponentPad*%
%ADD16R,1.500000X1.500000*%
%TD*%
%TA.AperFunction,ComponentPad*%
%ADD17C,1.500000*%
%TD*%
%TA.AperFunction,ComponentPad*%
%ADD18C,2.800000*%
%TD*%
%TA.AperFunction,ComponentPad*%
%ADD19R,2.600000X2.600000*%
%TD*%
%TA.AperFunction,ComponentPad*%
%ADD20C,2.600000*%
%TD*%
%TA.AperFunction,ComponentPad*%
%ADD21C,3.900000*%
%TD*%
%TA.AperFunction,ComponentPad*%
%ADD22R,2.400000X2.400000*%
%TD*%
%TA.AperFunction,ComponentPad*%
%ADD23O,2.400000X2.400000*%
%TD*%
%TA.AperFunction,ComponentPad*%
%ADD24R,1.700000X1.700000*%
%TD*%
%TA.AperFunction,ComponentPad*%
%ADD25O,1.700000X1.700000*%
%TD*%
%TA.AperFunction,ComponentPad*%
%ADD26R,2.000000X1.905000*%
%TD*%
%TA.AperFunction,ComponentPad*%
%ADD27O,2.000000X1.905000*%
%TD*%
%TA.AperFunction,ComponentPad*%
%ADD28R,1.905000X2.000000*%
%TD*%
%TA.AperFunction,ComponentPad*%
%ADD29O,1.905000X2.000000*%
%TD*%
%TA.AperFunction,ComponentPad*%
%ADD30C,1.440000*%
%TD*%
%TA.AperFunction,ViaPad*%
%ADD31C,0.600000*%
%TD*%
%TA.AperFunction,Conductor*%
%ADD32C,1.000000*%
%TD*%
G04 APERTURE END LIST*
D10*
%TO.N,Net-(C3-Pad1)*%
%TO.C,C3*%
X119900000Y-111600000D03*
%TO.N,Net-(C3-Pad2)*%
X124900000Y-111600000D03*
%TD*%
D11*
%TO.N,/Microprocessor & Connectors/Volume_D_btn_I*%
%TO.C,J6*%
X121600000Y-128400000D03*
D12*
%TO.N,/Microprocessor & Connectors/Volume_D_btn_O*%
X121600000Y-130400000D03*
%TO.N,/Microprocessor & Connectors/Volume_U_btn_I*%
X121600000Y-132400000D03*
%TO.N,/Microprocessor & Connectors/Volume_U_btn_O*%
X121600000Y-134400000D03*
%TD*%
D13*
%TO.N,Net-(C6-Pad1)*%
%TO.C,C6*%
X128600000Y-66500000D03*
D10*
%TO.N,Net-(J10-Pin_1)*%
X128600000Y-64000000D03*
%TD*%
%TO.N,Net-(U3A--)*%
%TO.C,R10*%
X130200000Y-103950000D03*
D14*
%TO.N,GND*%
X130200000Y-91250000D03*
%TD*%
D10*
%TO.N,5VDC*%
%TO.C,R9*%
X88000000Y-89650000D03*
D14*
%TO.N,Net-(U3A--)*%
X88000000Y-102350000D03*
%TD*%
D15*
%TO.N,/Microprocessor & Connectors/MISO*%
%TO.C,J4*%
X57540000Y-102500000D03*
%TO.N,5VDC*%
X55000000Y-102500000D03*
%TO.N,/Microprocessor & Connectors/SCK*%
X57540000Y-99960000D03*
%TO.N,/Microprocessor & Connectors/MOSI*%
X55000000Y-99960000D03*
%TO.N,/Microprocessor & Connectors/RESET*%
X57540000Y-97420000D03*
%TO.N,GND*%
X55000000Y-97420000D03*
%TD*%
D10*
%TO.N,5VDC*%
%TO.C,C9*%
X70866000Y-93004000D03*
%TO.N,GND*%
X70866000Y-98004000D03*
%TD*%
%TO.N,20VDC*%
%TO.C,R14*%
X139400000Y-105350000D03*
D14*
%TO.N,Net-(D1-A)*%
X139400000Y-92650000D03*
%TD*%
D10*
%TO.N,Net-(Q5-E)*%
%TO.C,R18*%
X133750000Y-74650000D03*
D14*
%TO.N,Net-(C6-Pad1)*%
X121050000Y-74650000D03*
%TD*%
D10*
%TO.N,5VDC*%
%TO.C,R4*%
X62366666Y-89550000D03*
D14*
%TO.N,/Microprocessor & Connectors/RX-O*%
X62366666Y-76850000D03*
%TD*%
D10*
%TO.N,/Microprocessor & Connectors/3_3VDC*%
%TO.C,R6*%
X66294000Y-56134000D03*
D14*
%TO.N,GND*%
X78994000Y-56134000D03*
%TD*%
D10*
%TO.N,5VDC*%
%TO.C,R3*%
X67933332Y-89550000D03*
D14*
%TO.N,/Microprocessor & Connectors/3_3VDC*%
X67933332Y-76850000D03*
%TD*%
D16*
%TO.N,Net-(Q4-E)*%
%TO.C,Q4*%
X143530000Y-74915000D03*
D17*
%TO.N,Net-(D2-K)*%
X140990000Y-72375000D03*
%TO.N,Net-(Q4-C)*%
X143530000Y-69835000D03*
%TD*%
D18*
%TO.N,Net-(J1-Pin_1)*%
%TO.C,J1*%
X71400000Y-133500000D03*
%TD*%
D10*
%TO.N,Net-(U3A-+)*%
%TO.C,R8*%
X121050000Y-79800000D03*
D14*
%TO.N,GND*%
X133750000Y-79800000D03*
%TD*%
D19*
%TO.N,Net-(J10-Pin_1)*%
%TO.C,J10*%
X143000000Y-56000000D03*
D20*
%TO.N,GND*%
X137920000Y-56000000D03*
%TD*%
D10*
%TO.N,Net-(U3A--)*%
%TO.C,R11*%
X130200000Y-107050000D03*
D14*
%TO.N,Net-(C3-Pad1)*%
X130200000Y-119750000D03*
%TD*%
D16*
%TO.N,Net-(Q5-E)*%
%TO.C,Q5*%
X143950000Y-121140000D03*
D17*
%TO.N,Net-(D1-A)*%
X141410000Y-118600000D03*
%TO.N,Net-(Q5-C)*%
X143950000Y-116060000D03*
%TD*%
D10*
%TO.N,/Microprocessor & Connectors/3_3VDC*%
%TO.C,R2*%
X73500000Y-76850000D03*
D14*
%TO.N,/Microprocessor & Connectors/TX-I*%
X73500000Y-89550000D03*
%TD*%
D10*
%TO.N,5VDC*%
%TO.C,R7*%
X83000000Y-89650000D03*
D14*
%TO.N,Net-(U3A-+)*%
X83000000Y-102350000D03*
%TD*%
D10*
%TO.N,/Microprocessor & Connectors/3_3VDC*%
%TO.C,R1*%
X56800000Y-76850000D03*
D14*
%TO.N,/Microprocessor & Connectors/RX-I*%
X56800000Y-89550000D03*
%TD*%
D10*
%TO.N,Net-(Q5-C)*%
%TO.C,R16*%
X144600000Y-93000000D03*
D14*
%TO.N,20VDC*%
X144600000Y-105700000D03*
%TD*%
D21*
%TO.N,GND*%
%TO.C,H1*%
X55500000Y-54500000D03*
%TD*%
D22*
%TO.N,Net-(D2-K)*%
%TO.C,D2*%
X98050000Y-91000000D03*
D23*
%TO.N,Net-(D1-K)*%
X110750000Y-91000000D03*
%TD*%
D24*
%TO.N,GND*%
%TO.C,J9*%
X113000000Y-52600000D03*
D25*
%TO.N,unconnected-(J9-Pin_2-Pad2)*%
X113000000Y-55140000D03*
%TO.N,unconnected-(J9-Pin_3-Pad3)*%
X113000000Y-57680000D03*
%TO.N,unconnected-(J9-Pin_4-Pad4)*%
X113000000Y-60220000D03*
%TO.N,unconnected-(J9-Pin_5-Pad5)*%
X113000000Y-62760000D03*
%TO.N,unconnected-(J9-Pin_6-Pad6)*%
X113000000Y-65300000D03*
%TO.N,unconnected-(J9-Pin_7-Pad7)*%
X113000000Y-67840000D03*
%TO.N,unconnected-(J9-Pin_8-Pad8)*%
X113000000Y-70380000D03*
%TO.N,/Microprocessor & Connectors/RX-I*%
X113000000Y-72920000D03*
%TO.N,/Microprocessor & Connectors/TX-I*%
X113000000Y-75460000D03*
%TO.N,unconnected-(J9-Pin_11-Pad11)*%
X113000000Y-78000000D03*
%TO.N,unconnected-(J9-Pin_12-Pad12)*%
X113000000Y-80540000D03*
%TD*%
D16*
%TO.N,GND*%
%TO.C,Q3*%
X110270000Y-104540000D03*
D17*
%TO.N,Net-(Q3-B)*%
X107730000Y-102000000D03*
%TO.N,Net-(D2-K)*%
X110270000Y-99460000D03*
%TD*%
D10*
%TO.N,Net-(C6-Pad1)*%
%TO.C,R19*%
X114400000Y-85050000D03*
D14*
%TO.N,Net-(Q4-E)*%
X114400000Y-97750000D03*
%TD*%
D10*
%TO.N,Analog Signal*%
%TO.C,C10*%
X125000000Y-99500000D03*
%TO.N,Net-(U3A-+)*%
X125000000Y-94500000D03*
%TD*%
%TO.N,Net-(Q4-C)*%
%TO.C,R17*%
X155350000Y-86000000D03*
D14*
%TO.N,GND*%
X142650000Y-86000000D03*
%TD*%
D10*
%TO.N,Net-(D2-K)*%
%TO.C,C4*%
X99100000Y-96200000D03*
%TO.N,GND*%
X104100000Y-96200000D03*
%TD*%
D18*
%TO.N,GND*%
%TO.C,J2*%
X63600000Y-133500000D03*
%TD*%
D24*
%TO.N,/Microprocessor & Connectors/Pair_LED_O*%
%TO.C,J7*%
X84200000Y-133525000D03*
D25*
%TO.N,/Microprocessor & Connectors/Power_LED_O*%
X84200000Y-136065000D03*
%TD*%
D24*
%TO.N,Net-(J1-Pin_1)*%
%TO.C,J3*%
X78200000Y-133325000D03*
D25*
%TO.N,20VDC*%
X78200000Y-135865000D03*
%TD*%
D10*
%TO.N,20VDC*%
%TO.C,C5*%
X130200000Y-124700000D03*
%TO.N,GND*%
X130200000Y-129700000D03*
%TD*%
%TO.N,5VDC*%
%TO.C,C8*%
X74916000Y-93004000D03*
%TO.N,GND*%
X74916000Y-98004000D03*
%TD*%
D26*
%TO.N,Net-(Q4-C)*%
%TO.C,Q7*%
X154178000Y-69695000D03*
D27*
%TO.N,Net-(Q4-E)*%
X154178000Y-72235000D03*
%TO.N,GND*%
X154178000Y-74775000D03*
%TD*%
D22*
%TO.N,Net-(D1-K)*%
%TO.C,D1*%
X121050000Y-85800000D03*
D23*
%TO.N,Net-(D1-A)*%
X133750000Y-85800000D03*
%TD*%
D24*
%TO.N,Analog Signal*%
%TO.C,J8*%
X85000000Y-52600000D03*
D25*
%TO.N,unconnected-(J8-Pin_2-Pad2)*%
X85000000Y-55140000D03*
%TO.N,unconnected-(J8-Pin_3-Pad3)*%
X85000000Y-57680000D03*
%TO.N,unconnected-(J8-Pin_4-Pad4)*%
X85000000Y-60220000D03*
%TO.N,unconnected-(J8-Pin_5-Pad5)*%
X85000000Y-62760000D03*
%TO.N,unconnected-(J8-Pin_6-Pad6)*%
X85000000Y-65300000D03*
%TO.N,GND*%
X85000000Y-67840000D03*
%TO.N,unconnected-(J8-Pin_8-Pad8)*%
X85000000Y-70380000D03*
%TO.N,unconnected-(J8-Pin_9-Pad9)*%
X85000000Y-72920000D03*
%TO.N,5VDC*%
X85000000Y-75460000D03*
%TO.N,unconnected-(J8-Pin_11-Pad11)*%
X85000000Y-78000000D03*
%TO.N,unconnected-(J8-Pin_12-Pad12)*%
X85000000Y-80540000D03*
%TD*%
D28*
%TO.N,5VDC*%
%TO.C,U1*%
X67740000Y-121000000D03*
D29*
%TO.N,GND*%
X65200000Y-121000000D03*
%TO.N,20VDC*%
X62660000Y-121000000D03*
%TD*%
D10*
%TO.N,Net-(C3-Pad2)*%
%TO.C,R12*%
X114750000Y-108200000D03*
D14*
%TO.N,Net-(Q3-B)*%
X102050000Y-108200000D03*
%TD*%
D10*
%TO.N,20VDC*%
%TO.C,C1*%
X63000000Y-116000000D03*
%TO.N,GND*%
X63000000Y-111000000D03*
%TD*%
D21*
%TO.N,GND*%
%TO.C,H2*%
X154200000Y-133500000D03*
%TD*%
D10*
%TO.N,5VDC*%
%TO.C,C2*%
X67500000Y-111000000D03*
%TO.N,GND*%
X67500000Y-116000000D03*
%TD*%
D30*
%TO.N,Net-(Q3-B)*%
%TO.C,RV1*%
X96515000Y-134540000D03*
X99055000Y-132000000D03*
%TO.N,GND*%
X96515000Y-129460000D03*
%TD*%
D26*
%TO.N,Net-(Q5-C)*%
%TO.C,Q6*%
X154686000Y-115270000D03*
D27*
%TO.N,Net-(Q5-E)*%
X154686000Y-117810000D03*
%TO.N,20VDC*%
X154686000Y-120350000D03*
%TD*%
D21*
%TO.N,GND*%
%TO.C,H3*%
X154200000Y-54000000D03*
%TD*%
D13*
%TO.N,Net-(U3-OUTA)*%
%TO.C,U3*%
X115000000Y-113000000D03*
D14*
%TO.N,Net-(U3-NEGA)*%
X112460000Y-113000000D03*
%TO.N,Analog Signal*%
X109920000Y-113000000D03*
%TO.N,GND*%
X107380000Y-113000000D03*
%TO.N,unconnected-(U3-POSB-Pad5)*%
X107380000Y-120620000D03*
%TO.N,unconnected-(U3-NEGB-Pad6)*%
X109920000Y-120620000D03*
%TO.N,unconnected-(U3-OUTB-Pad7)*%
X112460000Y-120620000D03*
%TO.N,5VDC*%
X115000000Y-120620000D03*
%TD*%
D21*
%TO.N,GND*%
%TO.C,H4*%
X55500000Y-133500000D03*
%TD*%
D10*
%TO.N,Net-(Q3-B)*%
%TO.C,R13*%
X93000000Y-89650000D03*
D14*
%TO.N,GND*%
X93000000Y-102350000D03*
%TD*%
D10*
%TO.N,Net-(Q3-B)*%
%TO.C,R15*%
X98050000Y-85800000D03*
D14*
%TO.N,Net-(C6-Pad1)*%
X110750000Y-85800000D03*
%TD*%
D10*
%TO.N,5VDC*%
%TO.C,R5*%
X64770000Y-105664000D03*
D14*
%TO.N,/Microprocessor & Connectors/TX-O*%
X77470000Y-105664000D03*
%TD*%
D11*
%TO.N,/Microprocessor & Connectors/Power_btn_I*%
%TO.C,J5*%
X111600000Y-128400000D03*
D12*
%TO.N,/Microprocessor & Connectors/Power_btn_O*%
X111600000Y-130400000D03*
%TO.N,/Microprocessor & Connectors/Pair_btn_I*%
X111600000Y-132400000D03*
%TO.N,/Microprocessor & Connectors/Pair_btn_O*%
X111600000Y-134400000D03*
%TD*%
D31*
%TO.N,/Microprocessor & Connectors/3_3VDC*%
X57000000Y-72000000D03*
%TO.N,/Microprocessor & Connectors/RX-O*%
X51750000Y-79750000D03*
%TO.N,/Microprocessor & Connectors/RX-I*%
X55000000Y-75000000D03*
%TO.N,GND*%
X86868000Y-116078000D03*
X86106000Y-110998000D03*
%TO.N,Analog Signal*%
X118165000Y-71065000D03*
X124000000Y-104090000D03*
%TO.N,5VDC*%
X88392000Y-111252000D03*
X86106000Y-119888000D03*
%TO.N,/Microprocessor & Connectors/MISO*%
X93726000Y-109982000D03*
X82804000Y-107696000D03*
%TO.N,/Microprocessor & Connectors/MOSI*%
X76962000Y-123952000D03*
X76962000Y-109220000D03*
X97028000Y-111252000D03*
X97790000Y-124206000D03*
%TO.N,/Microprocessor & Connectors/Power_btn_O*%
X96774000Y-113030000D03*
X96774000Y-122682000D03*
%TO.N,/Microprocessor & Connectors/Pair_btn_O*%
X89500000Y-119634000D03*
%TO.N,/Microprocessor & Connectors/Pair_btn_I*%
X88500000Y-119634000D03*
%TO.N,/Microprocessor & Connectors/Volume_U_btn_O*%
X81280000Y-136652000D03*
X79756000Y-112014000D03*
%TO.N,/Microprocessor & Connectors/Volume_U_btn_I*%
X80530000Y-124968000D03*
X78740000Y-111252000D03*
%TO.N,/Microprocessor & Connectors/Volume_D_btn_O*%
X84074000Y-106934000D03*
%TO.N,/Microprocessor & Connectors/Volume_D_btn_I*%
X85598000Y-107696000D03*
%TO.N,/Microprocessor & Connectors/Pair_LED_O*%
X84074000Y-112268000D03*
%TO.N,/Microprocessor & Connectors/Power_LED_O*%
X84328000Y-113030000D03*
%TO.N,/Microprocessor & Connectors/TX-I*%
X80000000Y-80000000D03*
%TO.N,/Microprocessor & Connectors/3_3VDC*%
X75000000Y-73500000D03*
%TO.N,/Microprocessor & Connectors/RX-O*%
X51500000Y-73000000D03*
X51054000Y-113030000D03*
%TO.N,/Microprocessor & Connectors/TX-O*%
X78486000Y-115824000D03*
X78500000Y-70500000D03*
%TO.N,Net-(Q5-C)*%
X149352000Y-92650000D03*
%TO.N,Net-(U3A-+)*%
X124200000Y-83000000D03*
%TD*%
D32*
%TO.N,20VDC*%
X78200000Y-135865000D02*
X77815000Y-136250000D01*
%TD*%
%TA.AperFunction,Conductor*%
%TO.N,/Microprocessor & Connectors/3_3VDC*%
G36*
X82443039Y-66519685D02*
G01*
X82488794Y-66572489D01*
X82500000Y-66624000D01*
X82500000Y-83365769D01*
X82480315Y-83432808D01*
X82427511Y-83478563D01*
X82366190Y-83489380D01*
X51114190Y-81009062D01*
X51048918Y-80984136D01*
X51007484Y-80927877D01*
X51000000Y-80885451D01*
X51000000Y-80431440D01*
X51019685Y-80364401D01*
X51072489Y-80318646D01*
X51141647Y-80308702D01*
X51205203Y-80337727D01*
X51211681Y-80343759D01*
X51247738Y-80379816D01*
X51400478Y-80475789D01*
X51570745Y-80535368D01*
X51570750Y-80535369D01*
X51749996Y-80555565D01*
X51750000Y-80555565D01*
X51750004Y-80555565D01*
X51929249Y-80535369D01*
X51929252Y-80535368D01*
X51929255Y-80535368D01*
X52099522Y-80475789D01*
X52252262Y-80379816D01*
X52379816Y-80252262D01*
X52475789Y-80099522D01*
X52510615Y-79999996D01*
X79194435Y-79999996D01*
X79194435Y-80000003D01*
X79214630Y-80179249D01*
X79214631Y-80179254D01*
X79274211Y-80349523D01*
X79353549Y-80475788D01*
X79370184Y-80502262D01*
X79497738Y-80629816D01*
X79650478Y-80725789D01*
X79820745Y-80785368D01*
X79820750Y-80785369D01*
X79999996Y-80805565D01*
X80000000Y-80805565D01*
X80000004Y-80805565D01*
X80179249Y-80785369D01*
X80179252Y-80785368D01*
X80179255Y-80785368D01*
X80349522Y-80725789D01*
X80502262Y-80629816D01*
X80629816Y-80502262D01*
X80725789Y-80349522D01*
X80785368Y-80179255D01*
X80805565Y-80000000D01*
X80797593Y-79929249D01*
X80785369Y-79820750D01*
X80785368Y-79820745D01*
X80725788Y-79650476D01*
X80686582Y-79588080D01*
X80629816Y-79497738D01*
X80502262Y-79370184D01*
X80349523Y-79274211D01*
X80179254Y-79214631D01*
X80179249Y-79214630D01*
X80000004Y-79194435D01*
X79999996Y-79194435D01*
X79820750Y-79214630D01*
X79820745Y-79214631D01*
X79650476Y-79274211D01*
X79497737Y-79370184D01*
X79370184Y-79497737D01*
X79274211Y-79650476D01*
X79214631Y-79820745D01*
X79214630Y-79820750D01*
X79194435Y-79999996D01*
X52510615Y-79999996D01*
X52535368Y-79929255D01*
X52535369Y-79929249D01*
X52555565Y-79750003D01*
X52555565Y-79749996D01*
X52535369Y-79570750D01*
X52535368Y-79570745D01*
X52475788Y-79400476D01*
X52379815Y-79247737D01*
X52252262Y-79120184D01*
X52099523Y-79024211D01*
X51929254Y-78964631D01*
X51929249Y-78964630D01*
X51750004Y-78944435D01*
X51749996Y-78944435D01*
X51570750Y-78964630D01*
X51570745Y-78964631D01*
X51400476Y-79024211D01*
X51247737Y-79120184D01*
X51211681Y-79156241D01*
X51150358Y-79189726D01*
X51080666Y-79184742D01*
X51024733Y-79142870D01*
X51000316Y-79077406D01*
X51000000Y-79068560D01*
X51000000Y-76849997D01*
X55495034Y-76849997D01*
X55495034Y-76850002D01*
X55514858Y-77076599D01*
X55514860Y-77076610D01*
X55573730Y-77296317D01*
X55573735Y-77296331D01*
X55669863Y-77502478D01*
X55720974Y-77575472D01*
X56400000Y-76896446D01*
X56400000Y-76902661D01*
X56427259Y-77004394D01*
X56479920Y-77095606D01*
X56554394Y-77170080D01*
X56645606Y-77222741D01*
X56747339Y-77250000D01*
X56753553Y-77250000D01*
X56074526Y-77929025D01*
X56147513Y-77980132D01*
X56147521Y-77980136D01*
X56353668Y-78076264D01*
X56353682Y-78076269D01*
X56573389Y-78135139D01*
X56573400Y-78135141D01*
X56799998Y-78154966D01*
X56800002Y-78154966D01*
X57026599Y-78135141D01*
X57026610Y-78135139D01*
X57246317Y-78076269D01*
X57246331Y-78076264D01*
X57452478Y-77980136D01*
X57525471Y-77929024D01*
X56846447Y-77250000D01*
X56852661Y-77250000D01*
X56954394Y-77222741D01*
X57045606Y-77170080D01*
X57120080Y-77095606D01*
X57172741Y-77004394D01*
X57200000Y-76902661D01*
X57200000Y-76896447D01*
X57879024Y-77575471D01*
X57930136Y-77502478D01*
X58026264Y-77296331D01*
X58026269Y-77296317D01*
X58085139Y-77076610D01*
X58085141Y-77076599D01*
X58104966Y-76850002D01*
X58104966Y-76849998D01*
X61061198Y-76849998D01*
X61061198Y-76850001D01*
X61081030Y-77076686D01*
X61081032Y-77076697D01*
X61139924Y-77296488D01*
X61139927Y-77296497D01*
X61236097Y-77502732D01*
X61236098Y-77502734D01*
X61366620Y-77689141D01*
X61527524Y-77850045D01*
X61527527Y-77850047D01*
X61713932Y-77980568D01*
X61920170Y-78076739D01*
X62139974Y-78135635D01*
X62301896Y-78149801D01*
X62366664Y-78155468D01*
X62366666Y-78155468D01*
X62366668Y-78155468D01*
X62423339Y-78150509D01*
X62593358Y-78135635D01*
X62813162Y-78076739D01*
X63019400Y-77980568D01*
X63205805Y-77850047D01*
X63366713Y-77689139D01*
X63497234Y-77502734D01*
X63593405Y-77296496D01*
X63652301Y-77076692D01*
X63672134Y-76850000D01*
X63652301Y-76623308D01*
X63646055Y-76599999D01*
X66654459Y-76599999D01*
X66654460Y-76600000D01*
X67617646Y-76600000D01*
X67613252Y-76604394D01*
X67560591Y-76695606D01*
X67533332Y-76797339D01*
X67533332Y-76902661D01*
X67560591Y-77004394D01*
X67613252Y-77095606D01*
X67617646Y-77100000D01*
X66654460Y-77100000D01*
X66707062Y-77296317D01*
X66707066Y-77296326D01*
X66803197Y-77502482D01*
X66933674Y-77688820D01*
X67094511Y-77849657D01*
X67280849Y-77980134D01*
X67487005Y-78076265D01*
X67487014Y-78076269D01*
X67683331Y-78128872D01*
X67683332Y-78128871D01*
X67683332Y-77165686D01*
X67687726Y-77170080D01*
X67778938Y-77222741D01*
X67880671Y-77250000D01*
X67985993Y-77250000D01*
X68087726Y-77222741D01*
X68178938Y-77170080D01*
X68183332Y-77165686D01*
X68183332Y-78128872D01*
X68379649Y-78076269D01*
X68379658Y-78076265D01*
X68585814Y-77980134D01*
X68772152Y-77849657D01*
X68932989Y-77688820D01*
X69063466Y-77502482D01*
X69159597Y-77296326D01*
X69159601Y-77296317D01*
X69212204Y-77100000D01*
X68249018Y-77100000D01*
X68253412Y-77095606D01*
X68306073Y-77004394D01*
X68333332Y-76902661D01*
X68333332Y-76849997D01*
X72195034Y-76849997D01*
X72195034Y-76850002D01*
X72214858Y-77076599D01*
X72214860Y-77076610D01*
X72273730Y-77296317D01*
X72273735Y-77296331D01*
X72369863Y-77502478D01*
X72420974Y-77575472D01*
X73100000Y-76896446D01*
X73100000Y-76902661D01*
X73127259Y-77004394D01*
X73179920Y-77095606D01*
X73254394Y-77170080D01*
X73345606Y-77222741D01*
X73447339Y-77250000D01*
X73453553Y-77250000D01*
X72774526Y-77929025D01*
X72847513Y-77980132D01*
X72847521Y-77980136D01*
X73053668Y-78076264D01*
X73053682Y-78076269D01*
X73273389Y-78135139D01*
X73273400Y-78135141D01*
X73499998Y-78154966D01*
X73500002Y-78154966D01*
X73726599Y-78135141D01*
X73726610Y-78135139D01*
X73946317Y-78076269D01*
X73946331Y-78076264D01*
X74152478Y-77980136D01*
X74225471Y-77929024D01*
X73546447Y-77250000D01*
X73552661Y-77250000D01*
X73654394Y-77222741D01*
X73745606Y-77170080D01*
X73820080Y-77095606D01*
X73872741Y-77004394D01*
X73900000Y-76902661D01*
X73900000Y-76896447D01*
X74579024Y-77575471D01*
X74630136Y-77502478D01*
X74726264Y-77296331D01*
X74726269Y-77296317D01*
X74785139Y-77076610D01*
X74785141Y-77076599D01*
X74804966Y-76850002D01*
X74804966Y-76849997D01*
X74785141Y-76623400D01*
X74785139Y-76623389D01*
X74726269Y-76403682D01*
X74726264Y-76403668D01*
X74630136Y-76197521D01*
X74630132Y-76197513D01*
X74579025Y-76124526D01*
X73900000Y-76803551D01*
X73900000Y-76797339D01*
X73872741Y-76695606D01*
X73820080Y-76604394D01*
X73745606Y-76529920D01*
X73654394Y-76477259D01*
X73552661Y-76450000D01*
X73546448Y-76450000D01*
X74225472Y-75770974D01*
X74152478Y-75719863D01*
X73946331Y-75623735D01*
X73946317Y-75623730D01*
X73726610Y-75564860D01*
X73726599Y-75564858D01*
X73500002Y-75545034D01*
X73499998Y-75545034D01*
X73273400Y-75564858D01*
X73273389Y-75564860D01*
X73053682Y-75623730D01*
X73053673Y-75623734D01*
X72847516Y-75719866D01*
X72847512Y-75719868D01*
X72774526Y-75770973D01*
X72774526Y-75770974D01*
X73453553Y-76450000D01*
X73447339Y-76450000D01*
X73345606Y-76477259D01*
X73254394Y-76529920D01*
X73179920Y-76604394D01*
X73127259Y-76695606D01*
X73100000Y-76797339D01*
X73100000Y-76803552D01*
X72420974Y-76124526D01*
X72420973Y-76124526D01*
X72369868Y-76197512D01*
X72369866Y-76197516D01*
X72273734Y-76403673D01*
X72273730Y-76403682D01*
X72214860Y-76623389D01*
X72214858Y-76623400D01*
X72195034Y-76849997D01*
X68333332Y-76849997D01*
X68333332Y-76797339D01*
X68306073Y-76695606D01*
X68253412Y-76604394D01*
X68249018Y-76600000D01*
X69212204Y-76600000D01*
X69212204Y-76599999D01*
X69159601Y-76403682D01*
X69159597Y-76403673D01*
X69063466Y-76197517D01*
X68932989Y-76011179D01*
X68772152Y-75850342D01*
X68585814Y-75719865D01*
X68379660Y-75623734D01*
X68183332Y-75571127D01*
X68183332Y-76534314D01*
X68178938Y-76529920D01*
X68087726Y-76477259D01*
X67985993Y-76450000D01*
X67880671Y-76450000D01*
X67778938Y-76477259D01*
X67687726Y-76529920D01*
X67683332Y-76534314D01*
X67683332Y-75571127D01*
X67487003Y-75623734D01*
X67280849Y-75719865D01*
X67094511Y-75850342D01*
X66933674Y-76011179D01*
X66803197Y-76197517D01*
X66707066Y-76403673D01*
X66707062Y-76403682D01*
X66654459Y-76599999D01*
X63646055Y-76599999D01*
X63593405Y-76403504D01*
X63497234Y-76197266D01*
X63366713Y-76010861D01*
X63366711Y-76010858D01*
X63205807Y-75849954D01*
X63019400Y-75719432D01*
X63019398Y-75719431D01*
X62813163Y-75623261D01*
X62813154Y-75623258D01*
X62593363Y-75564366D01*
X62593359Y-75564365D01*
X62593358Y-75564365D01*
X62593357Y-75564364D01*
X62593352Y-75564364D01*
X62366668Y-75544532D01*
X62366664Y-75544532D01*
X62139979Y-75564364D01*
X62139968Y-75564366D01*
X61920177Y-75623258D01*
X61920168Y-75623261D01*
X61713933Y-75719431D01*
X61713931Y-75719432D01*
X61527524Y-75849954D01*
X61366620Y-76010858D01*
X61236098Y-76197265D01*
X61236097Y-76197267D01*
X61139927Y-76403502D01*
X61139924Y-76403511D01*
X61081032Y-76623302D01*
X61081030Y-76623313D01*
X61061198Y-76849998D01*
X58104966Y-76849998D01*
X58104966Y-76849997D01*
X58085141Y-76623400D01*
X58085139Y-76623389D01*
X58026269Y-76403682D01*
X58026264Y-76403668D01*
X57930136Y-76197521D01*
X57930132Y-76197513D01*
X57879025Y-76124526D01*
X57200000Y-76803551D01*
X57200000Y-76797339D01*
X57172741Y-76695606D01*
X57120080Y-76604394D01*
X57045606Y-76529920D01*
X56954394Y-76477259D01*
X56852661Y-76450000D01*
X56846448Y-76450000D01*
X57525472Y-75770974D01*
X57452478Y-75719863D01*
X57246331Y-75623735D01*
X57246317Y-75623730D01*
X57026610Y-75564860D01*
X57026599Y-75564858D01*
X56800002Y-75545034D01*
X56799998Y-75545034D01*
X56573400Y-75564858D01*
X56573389Y-75564860D01*
X56353682Y-75623730D01*
X56353673Y-75623734D01*
X56147516Y-75719866D01*
X56147512Y-75719868D01*
X56074526Y-75770973D01*
X56074526Y-75770974D01*
X56753553Y-76450000D01*
X56747339Y-76450000D01*
X56645606Y-76477259D01*
X56554394Y-76529920D01*
X56479920Y-76604394D01*
X56427259Y-76695606D01*
X56400000Y-76797339D01*
X56400000Y-76803552D01*
X55720974Y-76124526D01*
X55720973Y-76124526D01*
X55669868Y-76197512D01*
X55669866Y-76197516D01*
X55573734Y-76403673D01*
X55573730Y-76403682D01*
X55514860Y-76623389D01*
X55514858Y-76623400D01*
X55495034Y-76849997D01*
X51000000Y-76849997D01*
X51000000Y-74999996D01*
X54194435Y-74999996D01*
X54194435Y-75000003D01*
X54214630Y-75179249D01*
X54214631Y-75179254D01*
X54274211Y-75349523D01*
X54370184Y-75502262D01*
X54497738Y-75629816D01*
X54588080Y-75686582D01*
X54641054Y-75719868D01*
X54650478Y-75725789D01*
X54820745Y-75785368D01*
X54820750Y-75785369D01*
X54999996Y-75805565D01*
X55000000Y-75805565D01*
X55000004Y-75805565D01*
X55179249Y-75785369D01*
X55179252Y-75785368D01*
X55179255Y-75785368D01*
X55349522Y-75725789D01*
X55502262Y-75629816D01*
X55629816Y-75502262D01*
X55725789Y-75349522D01*
X55785368Y-75179255D01*
X55805565Y-75000000D01*
X55785368Y-74820745D01*
X55725789Y-74650478D01*
X55629816Y-74497738D01*
X55502262Y-74370184D01*
X55349523Y-74274211D01*
X55179254Y-74214631D01*
X55179249Y-74214630D01*
X55000004Y-74194435D01*
X54999996Y-74194435D01*
X54820750Y-74214630D01*
X54820745Y-74214631D01*
X54650476Y-74274211D01*
X54497737Y-74370184D01*
X54370184Y-74497737D01*
X54274211Y-74650476D01*
X54214631Y-74820745D01*
X54214630Y-74820750D01*
X54194435Y-74999996D01*
X51000000Y-74999996D01*
X51000000Y-73847896D01*
X51019685Y-73780857D01*
X51072489Y-73735102D01*
X51141647Y-73725158D01*
X51164955Y-73730855D01*
X51320737Y-73785366D01*
X51320743Y-73785367D01*
X51320745Y-73785368D01*
X51320746Y-73785368D01*
X51320750Y-73785369D01*
X51499996Y-73805565D01*
X51500000Y-73805565D01*
X51500004Y-73805565D01*
X51679249Y-73785369D01*
X51679252Y-73785368D01*
X51679255Y-73785368D01*
X51849522Y-73725789D01*
X52002262Y-73629816D01*
X52129816Y-73502262D01*
X52225789Y-73349522D01*
X52285368Y-73179255D01*
X52305565Y-73000000D01*
X52285368Y-72820745D01*
X52225789Y-72650478D01*
X52129816Y-72497738D01*
X52002262Y-72370184D01*
X51849523Y-72274211D01*
X51679254Y-72214631D01*
X51679249Y-72214630D01*
X51500004Y-72194435D01*
X51499996Y-72194435D01*
X51320750Y-72214630D01*
X51320742Y-72214632D01*
X51164954Y-72269145D01*
X51095176Y-72272706D01*
X51034548Y-72237977D01*
X51002321Y-72175984D01*
X51000000Y-72152103D01*
X51000000Y-70499996D01*
X77694435Y-70499996D01*
X77694435Y-70500003D01*
X77714630Y-70679249D01*
X77714631Y-70679254D01*
X77774211Y-70849523D01*
X77870184Y-71002262D01*
X77997738Y-71129816D01*
X78150478Y-71225789D01*
X78320745Y-71285368D01*
X78320750Y-71285369D01*
X78499996Y-71305565D01*
X78500000Y-71305565D01*
X78500004Y-71305565D01*
X78679249Y-71285369D01*
X78679252Y-71285368D01*
X78679255Y-71285368D01*
X78849522Y-71225789D01*
X79002262Y-71129816D01*
X79129816Y-71002262D01*
X79225789Y-70849522D01*
X79285368Y-70679255D01*
X79305565Y-70500000D01*
X79285368Y-70320745D01*
X79225789Y-70150478D01*
X79129816Y-69997738D01*
X79002262Y-69870184D01*
X78849523Y-69774211D01*
X78679254Y-69714631D01*
X78679249Y-69714630D01*
X78500004Y-69694435D01*
X78499996Y-69694435D01*
X78320750Y-69714630D01*
X78320745Y-69714631D01*
X78150476Y-69774211D01*
X77997737Y-69870184D01*
X77870184Y-69997737D01*
X77774211Y-70150476D01*
X77714631Y-70320745D01*
X77714630Y-70320750D01*
X77694435Y-70499996D01*
X51000000Y-70499996D01*
X51000000Y-66624000D01*
X51019685Y-66556961D01*
X51072489Y-66511206D01*
X51124000Y-66500000D01*
X82376000Y-66500000D01*
X82443039Y-66519685D01*
G37*
%TD.AperFunction*%
%TD*%
%TA.AperFunction,Conductor*%
%TO.N,5VDC*%
G36*
X56337865Y-100562504D02*
G01*
X56382381Y-100613878D01*
X56387699Y-100625282D01*
X56520730Y-100815269D01*
X56684731Y-100979270D01*
X56874718Y-101112301D01*
X56886121Y-101117618D01*
X56938560Y-101163790D01*
X56957712Y-101230984D01*
X56937496Y-101297865D01*
X56886123Y-101342381D01*
X56874720Y-101347698D01*
X56874714Y-101347701D01*
X56684735Y-101480726D01*
X56684729Y-101480731D01*
X56520731Y-101644729D01*
X56520726Y-101644735D01*
X56387701Y-101834714D01*
X56387697Y-101834722D01*
X56382104Y-101846716D01*
X56335929Y-101899154D01*
X56268735Y-101918303D01*
X56201855Y-101898084D01*
X56157342Y-101846711D01*
X56151869Y-101834975D01*
X56151866Y-101834969D01*
X56096975Y-101756577D01*
X56096975Y-101756576D01*
X55523787Y-102329764D01*
X55512518Y-102287708D01*
X55440110Y-102162292D01*
X55337708Y-102059890D01*
X55212292Y-101987482D01*
X55170234Y-101976212D01*
X55743422Y-101403023D01*
X55665029Y-101348132D01*
X55653286Y-101342656D01*
X55600848Y-101296482D01*
X55581697Y-101229289D01*
X55601914Y-101162408D01*
X55653289Y-101117893D01*
X55665282Y-101112301D01*
X55855269Y-100979270D01*
X56019270Y-100815269D01*
X56152301Y-100625282D01*
X56157618Y-100613878D01*
X56203790Y-100561440D01*
X56270984Y-100542288D01*
X56337865Y-100562504D01*
G37*
%TD.AperFunction*%
%TA.AperFunction,Conductor*%
G36*
X101366181Y-70364306D02*
G01*
X111817135Y-73630229D01*
X111875251Y-73669014D01*
X111881722Y-73677461D01*
X111961505Y-73791401D01*
X112128597Y-73958493D01*
X112128603Y-73958498D01*
X112314158Y-74088425D01*
X112357783Y-74143002D01*
X112364977Y-74212500D01*
X112333454Y-74274855D01*
X112314158Y-74291575D01*
X112128597Y-74421505D01*
X111961505Y-74588597D01*
X111825965Y-74782169D01*
X111825964Y-74782171D01*
X111726098Y-74996335D01*
X111726094Y-74996344D01*
X111664938Y-75224586D01*
X111664936Y-75224596D01*
X111644341Y-75459999D01*
X111644341Y-75460000D01*
X111664936Y-75695403D01*
X111664938Y-75695413D01*
X111726094Y-75923655D01*
X111726096Y-75923659D01*
X111726097Y-75923663D01*
X111825847Y-76137578D01*
X111825965Y-76137830D01*
X111825967Y-76137834D01*
X111961501Y-76331395D01*
X111961506Y-76331402D01*
X112128597Y-76498493D01*
X112128603Y-76498498D01*
X112314158Y-76628425D01*
X112357783Y-76683002D01*
X112364977Y-76752500D01*
X112333454Y-76814855D01*
X112314158Y-76831575D01*
X112128597Y-76961505D01*
X111961505Y-77128597D01*
X111825965Y-77322169D01*
X111825964Y-77322171D01*
X111726098Y-77536335D01*
X111726094Y-77536344D01*
X111664938Y-77764586D01*
X111664936Y-77764596D01*
X111644341Y-77999999D01*
X111644341Y-78000000D01*
X111664936Y-78235403D01*
X111664938Y-78235413D01*
X111726094Y-78463655D01*
X111726096Y-78463659D01*
X111726097Y-78463663D01*
X111749740Y-78514365D01*
X111825965Y-78677830D01*
X111825967Y-78677834D01*
X111961501Y-78871395D01*
X111961506Y-78871402D01*
X112128597Y-79038493D01*
X112128603Y-79038498D01*
X112314158Y-79168425D01*
X112357783Y-79223002D01*
X112364977Y-79292500D01*
X112333454Y-79354855D01*
X112314158Y-79371575D01*
X112128597Y-79501505D01*
X111961505Y-79668597D01*
X111825965Y-79862169D01*
X111825964Y-79862171D01*
X111726098Y-80076335D01*
X111726094Y-80076344D01*
X111664938Y-80304586D01*
X111664936Y-80304596D01*
X111644341Y-80539999D01*
X111644341Y-80540000D01*
X111664936Y-80775403D01*
X111664938Y-80775413D01*
X111726094Y-81003655D01*
X111726096Y-81003659D01*
X111726097Y-81003663D01*
X111773570Y-81105468D01*
X111825965Y-81217830D01*
X111825967Y-81217834D01*
X111934281Y-81372521D01*
X111961505Y-81411401D01*
X112128599Y-81578495D01*
X112225384Y-81646265D01*
X112322165Y-81714032D01*
X112322167Y-81714033D01*
X112322170Y-81714035D01*
X112536337Y-81813903D01*
X112764592Y-81875063D01*
X112952918Y-81891539D01*
X112999999Y-81895659D01*
X113000000Y-81895659D01*
X113000001Y-81895659D01*
X113039234Y-81892226D01*
X113235408Y-81875063D01*
X113463663Y-81813903D01*
X113677830Y-81714035D01*
X113871401Y-81578495D01*
X114038495Y-81411401D01*
X114174035Y-81217830D01*
X114273903Y-81003663D01*
X114335063Y-80775408D01*
X114355659Y-80540000D01*
X114335063Y-80304592D01*
X114273903Y-80076337D01*
X114174035Y-79862171D01*
X114145029Y-79820745D01*
X114038494Y-79668597D01*
X113871402Y-79501506D01*
X113871396Y-79501501D01*
X113685842Y-79371575D01*
X113642217Y-79316998D01*
X113635023Y-79247500D01*
X113666546Y-79185145D01*
X113685842Y-79168425D01*
X113754737Y-79120184D01*
X113871401Y-79038495D01*
X114038495Y-78871401D01*
X114174035Y-78677830D01*
X114273903Y-78463663D01*
X114335063Y-78235408D01*
X114355659Y-78000000D01*
X114335063Y-77764592D01*
X114273903Y-77536337D01*
X114174035Y-77322171D01*
X114156058Y-77296496D01*
X114038494Y-77128597D01*
X113871402Y-76961506D01*
X113871396Y-76961501D01*
X113685842Y-76831575D01*
X113642217Y-76776998D01*
X113635023Y-76707500D01*
X113666546Y-76645145D01*
X113685842Y-76628425D01*
X113708026Y-76612891D01*
X113871401Y-76498495D01*
X114038495Y-76331401D01*
X114174035Y-76137830D01*
X114273903Y-75923663D01*
X114335063Y-75695408D01*
X114355659Y-75460000D01*
X114335063Y-75224592D01*
X114288626Y-75051285D01*
X114273905Y-74996344D01*
X114273904Y-74996343D01*
X114273903Y-74996337D01*
X114174035Y-74782171D01*
X114081489Y-74650000D01*
X114038494Y-74588597D01*
X114010570Y-74560673D01*
X113977085Y-74499350D01*
X113982069Y-74429658D01*
X114023941Y-74373725D01*
X114089405Y-74349308D01*
X114135234Y-74354635D01*
X120994336Y-76498105D01*
X121419472Y-76630960D01*
X121477589Y-76669745D01*
X121505511Y-76733793D01*
X121494373Y-76802769D01*
X121451712Y-76852193D01*
X99943725Y-91324856D01*
X99877116Y-91345951D01*
X99809676Y-91327686D01*
X99762817Y-91275859D01*
X99750499Y-91221981D01*
X99750499Y-89752128D01*
X99744091Y-89692517D01*
X99734487Y-89666768D01*
X99693797Y-89557671D01*
X99693793Y-89557664D01*
X99607547Y-89442455D01*
X99607544Y-89442452D01*
X99492335Y-89356206D01*
X99492328Y-89356202D01*
X99357482Y-89305908D01*
X99357483Y-89305908D01*
X99297883Y-89299501D01*
X99297881Y-89299500D01*
X99297873Y-89299500D01*
X99297864Y-89299500D01*
X96802129Y-89299500D01*
X96802123Y-89299501D01*
X96742516Y-89305908D01*
X96607671Y-89356202D01*
X96607664Y-89356206D01*
X96492455Y-89442452D01*
X96492452Y-89442455D01*
X96406206Y-89557664D01*
X96406202Y-89557671D01*
X96355908Y-89692517D01*
X96349501Y-89752116D01*
X96349501Y-89752123D01*
X96349500Y-89752135D01*
X96349500Y-92247870D01*
X96349501Y-92247876D01*
X96355908Y-92307483D01*
X96406202Y-92442328D01*
X96406206Y-92442335D01*
X96492452Y-92557544D01*
X96492455Y-92557547D01*
X96607664Y-92643793D01*
X96607671Y-92643797D01*
X96742517Y-92694091D01*
X96742516Y-92694091D01*
X96749444Y-92694835D01*
X96802127Y-92700500D01*
X97492979Y-92700499D01*
X97560016Y-92720183D01*
X97605771Y-92772987D01*
X97615715Y-92842146D01*
X97586690Y-92905702D01*
X97562203Y-92927376D01*
X94528930Y-94968457D01*
X94462321Y-94989552D01*
X94439334Y-94987895D01*
X79500001Y-92500000D01*
X79500000Y-92500000D01*
X78566762Y-104632088D01*
X78541993Y-104697421D01*
X78485836Y-104738991D01*
X78416118Y-104743601D01*
X78355446Y-104710259D01*
X78309141Y-104663954D01*
X78122734Y-104533432D01*
X78122732Y-104533431D01*
X77916497Y-104437261D01*
X77916488Y-104437258D01*
X77696697Y-104378366D01*
X77696693Y-104378365D01*
X77696692Y-104378365D01*
X77696691Y-104378364D01*
X77696686Y-104378364D01*
X77470002Y-104358532D01*
X77469998Y-104358532D01*
X77243313Y-104378364D01*
X77243302Y-104378366D01*
X77023511Y-104437258D01*
X77023502Y-104437261D01*
X76817267Y-104533431D01*
X76817265Y-104533432D01*
X76630858Y-104663954D01*
X76469954Y-104824858D01*
X76339432Y-105011265D01*
X76339431Y-105011267D01*
X76243261Y-105217502D01*
X76243258Y-105217511D01*
X76184366Y-105437302D01*
X76184364Y-105437313D01*
X76164532Y-105663998D01*
X76164532Y-105664001D01*
X76184364Y-105890686D01*
X76184366Y-105890697D01*
X76243258Y-106110488D01*
X76243261Y-106110497D01*
X76339431Y-106316732D01*
X76339432Y-106316734D01*
X76469954Y-106503141D01*
X76630858Y-106664045D01*
X76630861Y-106664047D01*
X76817266Y-106794568D01*
X77023504Y-106890739D01*
X77023509Y-106890740D01*
X77023511Y-106890741D01*
X77076415Y-106904916D01*
X77243308Y-106949635D01*
X77405230Y-106963801D01*
X77469998Y-106969468D01*
X77470000Y-106969468D01*
X77470002Y-106969468D01*
X77526673Y-106964509D01*
X77696692Y-106949635D01*
X77916496Y-106890739D01*
X78122734Y-106794568D01*
X78309139Y-106664047D01*
X78470047Y-106503139D01*
X78600568Y-106316734D01*
X78696739Y-106110496D01*
X78755635Y-105890692D01*
X78775468Y-105664000D01*
X78772427Y-105629241D01*
X78786193Y-105560742D01*
X78834808Y-105510559D01*
X78894202Y-105494447D01*
X108893757Y-105071918D01*
X108961064Y-105090657D01*
X109007558Y-105142811D01*
X109019500Y-105195905D01*
X109019500Y-105337869D01*
X109019501Y-105337876D01*
X109025908Y-105397483D01*
X109076202Y-105532328D01*
X109076206Y-105532335D01*
X109162452Y-105647544D01*
X109162455Y-105647547D01*
X109277664Y-105733793D01*
X109277671Y-105733797D01*
X109412517Y-105784091D01*
X109412516Y-105784091D01*
X109419444Y-105784835D01*
X109472127Y-105790500D01*
X111067872Y-105790499D01*
X111127483Y-105784091D01*
X111262331Y-105733796D01*
X111377546Y-105647546D01*
X111463796Y-105532331D01*
X111514091Y-105397483D01*
X111520500Y-105337873D01*
X111520499Y-105157185D01*
X111540183Y-105090149D01*
X111592987Y-105044394D01*
X111642749Y-105033200D01*
X113900371Y-105001403D01*
X113967681Y-105020142D01*
X114014175Y-105072296D01*
X114022821Y-105096990D01*
X114427218Y-106815678D01*
X114423411Y-106885444D01*
X114382490Y-106942077D01*
X114338610Y-106963853D01*
X114303514Y-106973257D01*
X114303502Y-106973261D01*
X114097267Y-107069431D01*
X114097265Y-107069432D01*
X113910858Y-107199954D01*
X113749954Y-107360858D01*
X113619432Y-107547265D01*
X113619431Y-107547267D01*
X113523261Y-107753502D01*
X113523258Y-107753511D01*
X113464366Y-107973302D01*
X113464364Y-107973313D01*
X113444532Y-108199998D01*
X113444532Y-108200001D01*
X113464364Y-108426686D01*
X113464366Y-108426697D01*
X113523258Y-108646488D01*
X113523261Y-108646497D01*
X113619431Y-108852732D01*
X113619432Y-108852734D01*
X113749954Y-109039141D01*
X113910858Y-109200045D01*
X113910861Y-109200047D01*
X114097266Y-109330568D01*
X114303504Y-109426739D01*
X114523308Y-109485635D01*
X114685230Y-109499801D01*
X114749998Y-109505468D01*
X114750000Y-109505468D01*
X114750002Y-109505468D01*
X114874102Y-109494610D01*
X114946927Y-109488239D01*
X115015427Y-109502006D01*
X115065610Y-109550621D01*
X115078438Y-109583366D01*
X115540492Y-111547099D01*
X115536685Y-111616865D01*
X115495764Y-111673498D01*
X115430722Y-111699017D01*
X115419788Y-111699500D01*
X114152129Y-111699500D01*
X114152123Y-111699501D01*
X114092516Y-111705908D01*
X113957671Y-111756202D01*
X113957664Y-111756206D01*
X113842455Y-111842452D01*
X113842452Y-111842455D01*
X113756206Y-111957664D01*
X113756202Y-111957671D01*
X113705908Y-112092516D01*
X113702137Y-112127596D01*
X113675398Y-112192146D01*
X113618006Y-112231994D01*
X113548180Y-112234487D01*
X113488092Y-112198834D01*
X113477273Y-112185462D01*
X113460045Y-112160858D01*
X113299141Y-111999954D01*
X113112734Y-111869432D01*
X113112732Y-111869431D01*
X112906497Y-111773261D01*
X112906488Y-111773258D01*
X112686697Y-111714366D01*
X112686693Y-111714365D01*
X112686692Y-111714365D01*
X112686691Y-111714364D01*
X112686686Y-111714364D01*
X112460002Y-111694532D01*
X112459998Y-111694532D01*
X112233313Y-111714364D01*
X112233302Y-111714366D01*
X112013511Y-111773258D01*
X112013502Y-111773261D01*
X111807267Y-111869431D01*
X111807265Y-111869432D01*
X111620858Y-111999954D01*
X111459954Y-112160858D01*
X111329432Y-112347265D01*
X111329431Y-112347267D01*
X111302382Y-112405275D01*
X111256209Y-112457714D01*
X111189016Y-112476866D01*
X111122135Y-112456650D01*
X111077618Y-112405275D01*
X111061994Y-112371769D01*
X111050568Y-112347266D01*
X110920047Y-112160861D01*
X110920045Y-112160858D01*
X110759141Y-111999954D01*
X110572734Y-111869432D01*
X110572732Y-111869431D01*
X110366497Y-111773261D01*
X110366488Y-111773258D01*
X110146697Y-111714366D01*
X110146693Y-111714365D01*
X110146692Y-111714365D01*
X110146691Y-111714364D01*
X110146686Y-111714364D01*
X109920002Y-111694532D01*
X109919998Y-111694532D01*
X109693313Y-111714364D01*
X109693302Y-111714366D01*
X109473511Y-111773258D01*
X109473502Y-111773261D01*
X109267267Y-111869431D01*
X109267265Y-111869432D01*
X109080858Y-111999954D01*
X108919954Y-112160858D01*
X108789432Y-112347265D01*
X108789431Y-112347267D01*
X108762382Y-112405275D01*
X108716209Y-112457714D01*
X108649016Y-112476866D01*
X108582135Y-112456650D01*
X108537618Y-112405275D01*
X108521994Y-112371769D01*
X108510568Y-112347266D01*
X108380047Y-112160861D01*
X108380045Y-112160858D01*
X108219141Y-111999954D01*
X108032734Y-111869432D01*
X108032732Y-111869431D01*
X107826497Y-111773261D01*
X107826488Y-111773258D01*
X107606697Y-111714366D01*
X107606693Y-111714365D01*
X107606692Y-111714365D01*
X107606691Y-111714364D01*
X107606686Y-111714364D01*
X107380002Y-111694532D01*
X107379998Y-111694532D01*
X107153313Y-111714364D01*
X107153302Y-111714366D01*
X106933511Y-111773258D01*
X106933502Y-111773261D01*
X106727267Y-111869431D01*
X106727265Y-111869432D01*
X106540858Y-111999954D01*
X106379954Y-112160858D01*
X106249432Y-112347265D01*
X106249431Y-112347267D01*
X106153261Y-112553502D01*
X106153258Y-112553511D01*
X106094366Y-112773302D01*
X106094364Y-112773313D01*
X106074532Y-112999998D01*
X106074532Y-113000001D01*
X106094364Y-113226686D01*
X106094366Y-113226697D01*
X106153258Y-113446488D01*
X106153261Y-113446497D01*
X106249431Y-113652732D01*
X106249432Y-113652734D01*
X106379954Y-113839141D01*
X106540858Y-114000045D01*
X106540861Y-114000047D01*
X106727266Y-114130568D01*
X106933504Y-114226739D01*
X107153308Y-114285635D01*
X107315230Y-114299801D01*
X107379998Y-114305468D01*
X107380000Y-114305468D01*
X107380002Y-114305468D01*
X107436807Y-114300498D01*
X107606692Y-114285635D01*
X107826496Y-114226739D01*
X108032734Y-114130568D01*
X108219139Y-114000047D01*
X108380047Y-113839139D01*
X108510568Y-113652734D01*
X108537618Y-113594724D01*
X108583790Y-113542285D01*
X108650983Y-113523133D01*
X108717865Y-113543348D01*
X108762382Y-113594725D01*
X108789429Y-113652728D01*
X108789432Y-113652734D01*
X108919954Y-113839141D01*
X109080858Y-114000045D01*
X109080861Y-114000047D01*
X109267266Y-114130568D01*
X109473504Y-114226739D01*
X109693308Y-114285635D01*
X109855230Y-114299801D01*
X109919998Y-114305468D01*
X109920000Y-114305468D01*
X109920002Y-114305468D01*
X109976807Y-114300498D01*
X110146692Y-114285635D01*
X110366496Y-114226739D01*
X110572734Y-114130568D01*
X110759139Y-114000047D01*
X110920047Y-113839139D01*
X111050568Y-113652734D01*
X111077618Y-113594724D01*
X111123790Y-113542285D01*
X111190983Y-113523133D01*
X111257865Y-113543348D01*
X111302382Y-113594725D01*
X111329429Y-113652728D01*
X111329432Y-113652734D01*
X111459954Y-113839141D01*
X111620858Y-114000045D01*
X111620861Y-114000047D01*
X111807266Y-114130568D01*
X112013504Y-114226739D01*
X112233308Y-114285635D01*
X112395230Y-114299801D01*
X112459998Y-114305468D01*
X112460000Y-114305468D01*
X112460002Y-114305468D01*
X112516807Y-114300498D01*
X112686692Y-114285635D01*
X112906496Y-114226739D01*
X113112734Y-114130568D01*
X113299139Y-114000047D01*
X113460047Y-113839139D01*
X113476691Y-113815369D01*
X113477272Y-113814539D01*
X113531848Y-113770913D01*
X113601346Y-113763718D01*
X113663701Y-113795239D01*
X113699116Y-113855468D01*
X113702138Y-113872406D01*
X113705908Y-113907483D01*
X113756202Y-114042328D01*
X113756206Y-114042335D01*
X113842452Y-114157544D01*
X113842455Y-114157547D01*
X113957664Y-114243793D01*
X113957671Y-114243797D01*
X114092517Y-114294091D01*
X114092516Y-114294091D01*
X114099444Y-114294835D01*
X114152127Y-114300500D01*
X115847872Y-114300499D01*
X115907483Y-114294091D01*
X116032491Y-114247465D01*
X116102182Y-114242482D01*
X116163505Y-114275967D01*
X116196528Y-114335247D01*
X117856755Y-121391214D01*
X117852948Y-121460980D01*
X117812027Y-121517613D01*
X117768816Y-121539208D01*
X116506682Y-121884999D01*
X115200042Y-122242982D01*
X115178086Y-122246917D01*
X98486179Y-123707458D01*
X98417679Y-123693692D01*
X98387689Y-123671611D01*
X98292262Y-123576184D01*
X98139523Y-123480211D01*
X97969254Y-123420631D01*
X97969249Y-123420630D01*
X97790004Y-123400435D01*
X97789996Y-123400435D01*
X97610750Y-123420630D01*
X97610742Y-123420632D01*
X97441627Y-123479808D01*
X97371848Y-123483369D01*
X97311221Y-123448640D01*
X97278994Y-123386647D01*
X97285399Y-123317071D01*
X97312988Y-123275089D01*
X97403816Y-123184262D01*
X97499789Y-123031522D01*
X97559368Y-122861255D01*
X97579565Y-122682000D01*
X97563195Y-122536714D01*
X97559369Y-122502750D01*
X97559368Y-122502745D01*
X97538585Y-122443350D01*
X97499789Y-122332478D01*
X97403816Y-122179738D01*
X97276262Y-122052184D01*
X97183768Y-121994066D01*
X97123523Y-121956211D01*
X96953254Y-121896631D01*
X96953249Y-121896630D01*
X96774004Y-121876435D01*
X96773996Y-121876435D01*
X96594750Y-121896630D01*
X96594745Y-121896631D01*
X96424476Y-121956211D01*
X96271737Y-122052184D01*
X96144184Y-122179737D01*
X96048211Y-122332476D01*
X95988631Y-122502745D01*
X95988630Y-122502750D01*
X95968435Y-122681996D01*
X95968435Y-122682003D01*
X95988630Y-122861249D01*
X95988631Y-122861254D01*
X96048211Y-123031523D01*
X96120416Y-123146435D01*
X96144184Y-123184262D01*
X96271738Y-123311816D01*
X96424478Y-123407789D01*
X96594739Y-123467366D01*
X96594745Y-123467368D01*
X96594750Y-123467369D01*
X96773996Y-123487565D01*
X96774000Y-123487565D01*
X96774004Y-123487565D01*
X96953249Y-123467369D01*
X96953251Y-123467368D01*
X96953255Y-123467368D01*
X96953258Y-123467366D01*
X96953262Y-123467366D01*
X97122371Y-123408192D01*
X97192150Y-123404630D01*
X97252777Y-123439358D01*
X97285005Y-123501352D01*
X97278600Y-123570927D01*
X97251008Y-123612914D01*
X97160180Y-123703742D01*
X97113353Y-123778267D01*
X97061019Y-123824557D01*
X97019169Y-123835822D01*
X81459239Y-125197316D01*
X81390739Y-125183550D01*
X81340555Y-125134935D01*
X81324621Y-125066907D01*
X81325210Y-125059904D01*
X81335565Y-124968002D01*
X81335565Y-124967996D01*
X81315369Y-124788750D01*
X81315368Y-124788745D01*
X81255788Y-124618476D01*
X81159815Y-124465737D01*
X81032262Y-124338184D01*
X80879523Y-124242211D01*
X80709254Y-124182631D01*
X80709249Y-124182630D01*
X80530004Y-124162435D01*
X80529996Y-124162435D01*
X80350750Y-124182630D01*
X80350745Y-124182631D01*
X80180476Y-124242211D01*
X80027737Y-124338184D01*
X79900184Y-124465737D01*
X79804211Y-124618476D01*
X79744631Y-124788745D01*
X79744630Y-124788750D01*
X79724435Y-124967996D01*
X79724435Y-124968003D01*
X79744630Y-125147249D01*
X79744632Y-125147257D01*
X79759877Y-125190824D01*
X79763438Y-125260602D01*
X79728709Y-125321230D01*
X79666716Y-125353457D01*
X79653644Y-125355306D01*
X77999986Y-125500000D01*
X66174321Y-126978209D01*
X66105358Y-126966992D01*
X66053407Y-126920271D01*
X66036942Y-126877351D01*
X65950942Y-126404352D01*
X65949376Y-126392513D01*
X65745999Y-123951996D01*
X76156435Y-123951996D01*
X76156435Y-123952003D01*
X76176630Y-124131249D01*
X76176631Y-124131254D01*
X76236211Y-124301523D01*
X76259247Y-124338184D01*
X76332184Y-124454262D01*
X76459738Y-124581816D01*
X76612478Y-124677789D01*
X76699565Y-124708262D01*
X76782745Y-124737368D01*
X76782750Y-124737369D01*
X76961996Y-124757565D01*
X76962000Y-124757565D01*
X76962004Y-124757565D01*
X77141249Y-124737369D01*
X77141252Y-124737368D01*
X77141255Y-124737368D01*
X77311522Y-124677789D01*
X77464262Y-124581816D01*
X77591816Y-124454262D01*
X77687789Y-124301522D01*
X77747368Y-124131255D01*
X77747369Y-124131249D01*
X77767565Y-123952003D01*
X77767565Y-123951996D01*
X77747369Y-123772750D01*
X77747368Y-123772745D01*
X77711980Y-123671611D01*
X77687789Y-123602478D01*
X77671267Y-123576184D01*
X77602894Y-123467369D01*
X77591816Y-123449738D01*
X77464262Y-123322184D01*
X77456125Y-123317071D01*
X77311523Y-123226211D01*
X77141254Y-123166631D01*
X77141249Y-123166630D01*
X76962004Y-123146435D01*
X76961996Y-123146435D01*
X76782750Y-123166630D01*
X76782745Y-123166631D01*
X76612476Y-123226211D01*
X76459737Y-123322184D01*
X76332184Y-123449737D01*
X76236211Y-123602476D01*
X76176631Y-123772745D01*
X76176630Y-123772750D01*
X76156435Y-123951996D01*
X65745999Y-123951996D01*
X65628059Y-122536714D01*
X65642109Y-122468274D01*
X65690930Y-122418292D01*
X65713306Y-122408490D01*
X65757758Y-122394048D01*
X65961538Y-122290217D01*
X66144663Y-122157168D01*
X66210465Y-122133690D01*
X66278519Y-122149515D01*
X66327214Y-122199621D01*
X66333726Y-122214153D01*
X66344144Y-122242083D01*
X66344149Y-122242093D01*
X66430309Y-122357187D01*
X66430312Y-122357190D01*
X66545406Y-122443350D01*
X66545413Y-122443354D01*
X66680120Y-122493596D01*
X66680127Y-122493598D01*
X66739655Y-122499999D01*
X66739672Y-122500000D01*
X67490000Y-122500000D01*
X67490000Y-121490747D01*
X67527708Y-121512518D01*
X67667591Y-121550000D01*
X67812409Y-121550000D01*
X67952292Y-121512518D01*
X67990000Y-121490747D01*
X67990000Y-122500000D01*
X68740328Y-122500000D01*
X68740344Y-122499999D01*
X68799872Y-122493598D01*
X68799879Y-122493596D01*
X68934586Y-122443354D01*
X68934593Y-122443350D01*
X69049687Y-122357190D01*
X69049690Y-122357187D01*
X69135850Y-122242093D01*
X69135854Y-122242086D01*
X69186096Y-122107379D01*
X69186098Y-122107372D01*
X69192499Y-122047841D01*
X69192500Y-122047827D01*
X69192500Y-121250000D01*
X68230748Y-121250000D01*
X68252518Y-121212292D01*
X68290000Y-121072409D01*
X68290000Y-120927591D01*
X68252518Y-120787708D01*
X68230748Y-120750000D01*
X69192500Y-120750000D01*
X69192500Y-120619998D01*
X106074532Y-120619998D01*
X106074532Y-120620001D01*
X106094364Y-120846686D01*
X106094366Y-120846697D01*
X106153258Y-121066488D01*
X106153261Y-121066497D01*
X106249431Y-121272732D01*
X106249432Y-121272734D01*
X106379954Y-121459141D01*
X106540858Y-121620045D01*
X106540861Y-121620047D01*
X106727266Y-121750568D01*
X106933504Y-121846739D01*
X107153308Y-121905635D01*
X107315230Y-121919801D01*
X107379998Y-121925468D01*
X107380000Y-121925468D01*
X107380002Y-121925468D01*
X107436673Y-121920509D01*
X107606692Y-121905635D01*
X107826496Y-121846739D01*
X108032734Y-121750568D01*
X108219139Y-121620047D01*
X108380047Y-121459139D01*
X108510568Y-121272734D01*
X108537618Y-121214724D01*
X108583790Y-121162285D01*
X108650983Y-121143133D01*
X108717865Y-121163348D01*
X108762382Y-121214725D01*
X108789429Y-121272728D01*
X108789432Y-121272734D01*
X108919954Y-121459141D01*
X109080858Y-121620045D01*
X109080861Y-121620047D01*
X109267266Y-121750568D01*
X109473504Y-121846739D01*
X109693308Y-121905635D01*
X109855230Y-121919801D01*
X109919998Y-121925468D01*
X109920000Y-121925468D01*
X109920002Y-121925468D01*
X109976673Y-121920509D01*
X110146692Y-121905635D01*
X110366496Y-121846739D01*
X110572734Y-121750568D01*
X110759139Y-121620047D01*
X110920047Y-121459139D01*
X111050568Y-121272734D01*
X111077618Y-121214724D01*
X111123790Y-121162285D01*
X111190983Y-121143133D01*
X111257865Y-121163348D01*
X111302382Y-121214725D01*
X111329429Y-121272728D01*
X111329432Y-121272734D01*
X111459954Y-121459141D01*
X111620858Y-121620045D01*
X111620861Y-121620047D01*
X111807266Y-121750568D01*
X112013504Y-121846739D01*
X112233308Y-121905635D01*
X112395230Y-121919801D01*
X112459998Y-121925468D01*
X112460000Y-121925468D01*
X112460002Y-121925468D01*
X112516673Y-121920509D01*
X112686692Y-121905635D01*
X112906496Y-121846739D01*
X113112734Y-121750568D01*
X113299139Y-121620047D01*
X113460047Y-121459139D01*
X113590568Y-121272734D01*
X113617895Y-121214129D01*
X113664064Y-121161695D01*
X113731257Y-121142542D01*
X113798139Y-121162757D01*
X113842657Y-121214133D01*
X113869865Y-121272482D01*
X114000342Y-121458820D01*
X114161179Y-121619657D01*
X114347517Y-121750134D01*
X114553673Y-121846265D01*
X114553682Y-121846269D01*
X114749999Y-121898872D01*
X114750000Y-121898871D01*
X114750000Y-120935686D01*
X114754394Y-120940080D01*
X114845606Y-120992741D01*
X114947339Y-121020000D01*
X115052661Y-121020000D01*
X115154394Y-120992741D01*
X115245606Y-120940080D01*
X115250000Y-120935686D01*
X115250000Y-121898872D01*
X115446317Y-121846269D01*
X115446326Y-121846265D01*
X115652482Y-121750134D01*
X115838820Y-121619657D01*
X115999657Y-121458820D01*
X116130134Y-121272482D01*
X116226265Y-121066326D01*
X116226269Y-121066317D01*
X116278872Y-120870000D01*
X115315686Y-120870000D01*
X115320080Y-120865606D01*
X115372741Y-120774394D01*
X115400000Y-120672661D01*
X115400000Y-120567339D01*
X115372741Y-120465606D01*
X115320080Y-120374394D01*
X115315686Y-120370000D01*
X116278872Y-120370000D01*
X116278872Y-120369999D01*
X116226269Y-120173682D01*
X116226265Y-120173673D01*
X116130134Y-119967517D01*
X115999657Y-119781179D01*
X115838820Y-119620342D01*
X115652482Y-119489865D01*
X115446328Y-119393734D01*
X115250000Y-119341127D01*
X115250000Y-120304314D01*
X115245606Y-120299920D01*
X115154394Y-120247259D01*
X115052661Y-120220000D01*
X114947339Y-120220000D01*
X114845606Y-120247259D01*
X114754394Y-120299920D01*
X114750000Y-120304314D01*
X114750000Y-119341127D01*
X114553671Y-119393734D01*
X114347517Y-119489865D01*
X114161179Y-119620342D01*
X114000342Y-119781179D01*
X113869867Y-119967515D01*
X113842657Y-120025867D01*
X113796484Y-120078306D01*
X113729290Y-120097457D01*
X113662409Y-120077241D01*
X113617893Y-120025865D01*
X113604959Y-119998129D01*
X113590568Y-119967266D01*
X113460047Y-119780861D01*
X113460045Y-119780858D01*
X113299141Y-119619954D01*
X113112734Y-119489432D01*
X113112732Y-119489431D01*
X112906497Y-119393261D01*
X112906488Y-119393258D01*
X112686697Y-119334366D01*
X112686693Y-119334365D01*
X112686692Y-119334365D01*
X112686691Y-119334364D01*
X112686686Y-119334364D01*
X112460002Y-119314532D01*
X112459998Y-119314532D01*
X112233313Y-119334364D01*
X112233302Y-119334366D01*
X112013511Y-119393258D01*
X112013502Y-119393261D01*
X111807267Y-119489431D01*
X111807265Y-119489432D01*
X111620858Y-119619954D01*
X111459954Y-119780858D01*
X111329432Y-119967265D01*
X111329431Y-119967267D01*
X111302382Y-120025275D01*
X111256209Y-120077714D01*
X111189016Y-120096866D01*
X111122135Y-120076650D01*
X111077618Y-120025275D01*
X111068599Y-120005934D01*
X111050568Y-119967266D01*
X110920047Y-119780861D01*
X110920045Y-119780858D01*
X110759141Y-119619954D01*
X110572734Y-119489432D01*
X110572732Y-119489431D01*
X110366497Y-119393261D01*
X110366488Y-119393258D01*
X110146697Y-119334366D01*
X110146693Y-119334365D01*
X110146692Y-119334365D01*
X110146691Y-119334364D01*
X110146686Y-119334364D01*
X109920002Y-119314532D01*
X109919998Y-119314532D01*
X109693313Y-119334364D01*
X109693302Y-119334366D01*
X109473511Y-119393258D01*
X109473502Y-119393261D01*
X109267267Y-119489431D01*
X109267265Y-119489432D01*
X109080858Y-119619954D01*
X108919954Y-119780858D01*
X108789432Y-119967265D01*
X108789431Y-119967267D01*
X108762382Y-120025275D01*
X108716209Y-120077714D01*
X108649016Y-120096866D01*
X108582135Y-120076650D01*
X108537618Y-120025275D01*
X108528599Y-120005934D01*
X108510568Y-119967266D01*
X108380047Y-119780861D01*
X108380045Y-119780858D01*
X108219141Y-119619954D01*
X108032734Y-119489432D01*
X108032732Y-119489431D01*
X107826497Y-119393261D01*
X107826488Y-119393258D01*
X107606697Y-119334366D01*
X107606693Y-119334365D01*
X107606692Y-119334365D01*
X107606691Y-119334364D01*
X107606686Y-119334364D01*
X107380002Y-119314532D01*
X107379998Y-119314532D01*
X107153313Y-119334364D01*
X107153302Y-119334366D01*
X106933511Y-119393258D01*
X106933502Y-119393261D01*
X106727267Y-119489431D01*
X106727265Y-119489432D01*
X106540858Y-119619954D01*
X106379954Y-119780858D01*
X106249432Y-119967265D01*
X106249431Y-119967267D01*
X106153261Y-120173502D01*
X106153258Y-120173511D01*
X106094366Y-120393302D01*
X106094364Y-120393313D01*
X106074532Y-120619998D01*
X69192500Y-120619998D01*
X69192500Y-119952172D01*
X69192499Y-119952155D01*
X69186098Y-119892627D01*
X69186096Y-119892620D01*
X69135854Y-119757913D01*
X69135850Y-119757906D01*
X69049690Y-119642812D01*
X69049687Y-119642809D01*
X69037914Y-119633996D01*
X87694435Y-119633996D01*
X87694435Y-119634003D01*
X87714630Y-119813249D01*
X87714631Y-119813254D01*
X87774211Y-119983523D01*
X87833396Y-120077714D01*
X87870184Y-120136262D01*
X87997738Y-120263816D01*
X88150478Y-120359789D01*
X88320745Y-120419368D01*
X88320750Y-120419369D01*
X88499996Y-120439565D01*
X88500000Y-120439565D01*
X88500004Y-120439565D01*
X88679249Y-120419369D01*
X88679252Y-120419368D01*
X88679255Y-120419368D01*
X88849522Y-120359789D01*
X88928774Y-120309992D01*
X88934027Y-120306691D01*
X89001264Y-120287690D01*
X89065973Y-120306691D01*
X89150475Y-120359788D01*
X89320745Y-120419368D01*
X89320750Y-120419369D01*
X89499996Y-120439565D01*
X89500000Y-120439565D01*
X89500004Y-120439565D01*
X89679249Y-120419369D01*
X89679252Y-120419368D01*
X89679255Y-120419368D01*
X89849522Y-120359789D01*
X90002262Y-120263816D01*
X90129816Y-120136262D01*
X90225789Y-119983522D01*
X90285368Y-119813255D01*
X90289018Y-119780861D01*
X90305565Y-119634003D01*
X90305565Y-119633996D01*
X90285369Y-119454750D01*
X90285368Y-119454745D01*
X90270511Y-119412285D01*
X90225789Y-119284478D01*
X90129816Y-119131738D01*
X90002262Y-119004184D01*
X89964265Y-118980309D01*
X89849523Y-118908211D01*
X89679254Y-118848631D01*
X89679249Y-118848630D01*
X89500004Y-118828435D01*
X89499996Y-118828435D01*
X89320750Y-118848630D01*
X89320737Y-118848633D01*
X89150479Y-118908209D01*
X89065971Y-118961309D01*
X88998734Y-118980309D01*
X88934029Y-118961309D01*
X88849520Y-118908209D01*
X88679262Y-118848633D01*
X88679249Y-118848630D01*
X88500004Y-118828435D01*
X88499996Y-118828435D01*
X88320750Y-118848630D01*
X88320745Y-118848631D01*
X88150476Y-118908211D01*
X87997737Y-119004184D01*
X87870184Y-119131737D01*
X87774211Y-119284476D01*
X87714631Y-119454745D01*
X87714630Y-119454750D01*
X87694435Y-119633996D01*
X69037914Y-119633996D01*
X68934593Y-119556649D01*
X68934586Y-119556645D01*
X68799879Y-119506403D01*
X68799872Y-119506401D01*
X68740344Y-119500000D01*
X67990000Y-119500000D01*
X67990000Y-120509252D01*
X67952292Y-120487482D01*
X67812409Y-120450000D01*
X67667591Y-120450000D01*
X67527708Y-120487482D01*
X67490000Y-120509252D01*
X67490000Y-119500000D01*
X66739655Y-119500000D01*
X66680127Y-119506401D01*
X66680120Y-119506403D01*
X66545413Y-119556645D01*
X66545406Y-119556649D01*
X66430312Y-119642809D01*
X66430309Y-119642812D01*
X66344149Y-119757906D01*
X66344146Y-119757912D01*
X66333726Y-119785848D01*
X66291853Y-119841780D01*
X66226388Y-119866195D01*
X66158115Y-119851342D01*
X66144664Y-119842832D01*
X65961538Y-119709783D01*
X65830100Y-119642812D01*
X65757755Y-119605950D01*
X65540248Y-119535278D01*
X65471862Y-119524447D01*
X65408727Y-119494518D01*
X65371796Y-119435206D01*
X65367690Y-119412285D01*
X65140492Y-116685908D01*
X65140224Y-116681883D01*
X65106130Y-115999998D01*
X66194532Y-115999998D01*
X66194532Y-116000001D01*
X66214364Y-116226686D01*
X66214366Y-116226697D01*
X66273258Y-116446488D01*
X66273261Y-116446497D01*
X66369431Y-116652732D01*
X66369432Y-116652734D01*
X66499954Y-116839141D01*
X66660858Y-117000045D01*
X66660861Y-117000047D01*
X66847266Y-117130568D01*
X67053504Y-117226739D01*
X67273308Y-117285635D01*
X67435230Y-117299801D01*
X67499998Y-117305468D01*
X67500000Y-117305468D01*
X67500002Y-117305468D01*
X67556673Y-117300509D01*
X67726692Y-117285635D01*
X67946496Y-117226739D01*
X68152734Y-117130568D01*
X68339139Y-117000047D01*
X68500047Y-116839139D01*
X68630568Y-116652734D01*
X68726739Y-116446496D01*
X68785635Y-116226692D01*
X68805468Y-116000000D01*
X68790070Y-115823996D01*
X77680435Y-115823996D01*
X77680435Y-115824003D01*
X77700630Y-116003249D01*
X77700631Y-116003254D01*
X77760211Y-116173523D01*
X77848407Y-116313885D01*
X77856184Y-116326262D01*
X77983738Y-116453816D01*
X78030709Y-116483330D01*
X78122025Y-116540708D01*
X78136478Y-116549789D01*
X78223565Y-116580262D01*
X78306745Y-116609368D01*
X78306750Y-116609369D01*
X78485996Y-116629565D01*
X78486000Y-116629565D01*
X78486004Y-116629565D01*
X78665249Y-116609369D01*
X78665252Y-116609368D01*
X78665255Y-116609368D01*
X78835522Y-116549789D01*
X78988262Y-116453816D01*
X79115816Y-116326262D01*
X79211789Y-116173522D01*
X79245215Y-116077996D01*
X86062435Y-116077996D01*
X86062435Y-116078003D01*
X86082630Y-116257249D01*
X86082631Y-116257254D01*
X86142211Y-116427523D01*
X86238184Y-116580262D01*
X86365738Y-116707816D01*
X86453162Y-116762748D01*
X86506850Y-116796483D01*
X86518478Y-116803789D01*
X86688745Y-116863368D01*
X86688750Y-116863369D01*
X86867996Y-116883565D01*
X86868000Y-116883565D01*
X86868004Y-116883565D01*
X87047249Y-116863369D01*
X87047252Y-116863368D01*
X87047255Y-116863368D01*
X87217522Y-116803789D01*
X87370262Y-116707816D01*
X87497816Y-116580262D01*
X87593789Y-116427522D01*
X87653368Y-116257255D01*
X87656812Y-116226692D01*
X87673565Y-116078003D01*
X87673565Y-116077996D01*
X87653369Y-115898750D01*
X87653368Y-115898745D01*
X87627215Y-115824003D01*
X87593789Y-115728478D01*
X87497816Y-115575738D01*
X87370262Y-115448184D01*
X87318919Y-115415923D01*
X87217523Y-115352211D01*
X87047254Y-115292631D01*
X87047249Y-115292630D01*
X86868004Y-115272435D01*
X86867996Y-115272435D01*
X86688750Y-115292630D01*
X86688745Y-115292631D01*
X86518476Y-115352211D01*
X86365737Y-115448184D01*
X86238184Y-115575737D01*
X86142211Y-115728476D01*
X86082631Y-115898745D01*
X86082630Y-115898750D01*
X86062435Y-116077996D01*
X79245215Y-116077996D01*
X79271368Y-116003255D01*
X79271735Y-115999998D01*
X79291565Y-115824003D01*
X79291565Y-115823996D01*
X79271369Y-115644750D01*
X79271368Y-115644745D01*
X79216212Y-115487119D01*
X79211789Y-115474478D01*
X79195267Y-115448184D01*
X79131856Y-115347266D01*
X79115816Y-115321738D01*
X78988262Y-115194184D01*
X78935224Y-115160858D01*
X78835523Y-115098211D01*
X78665254Y-115038631D01*
X78665249Y-115038630D01*
X78486004Y-115018435D01*
X78485996Y-115018435D01*
X78306750Y-115038630D01*
X78306745Y-115038631D01*
X78136476Y-115098211D01*
X77983737Y-115194184D01*
X77856184Y-115321737D01*
X77760211Y-115474476D01*
X77700631Y-115644745D01*
X77700630Y-115644750D01*
X77680435Y-115823996D01*
X68790070Y-115823996D01*
X68785635Y-115773308D01*
X68733648Y-115579290D01*
X68726741Y-115553511D01*
X68726738Y-115553502D01*
X68660915Y-115412345D01*
X68630568Y-115347266D01*
X68500047Y-115160861D01*
X68500045Y-115160858D01*
X68339141Y-114999954D01*
X68152734Y-114869432D01*
X68152732Y-114869431D01*
X67946497Y-114773261D01*
X67946488Y-114773258D01*
X67726697Y-114714366D01*
X67726693Y-114714365D01*
X67726692Y-114714365D01*
X67726691Y-114714364D01*
X67726686Y-114714364D01*
X67500002Y-114694532D01*
X67499998Y-114694532D01*
X67273313Y-114714364D01*
X67273302Y-114714366D01*
X67053511Y-114773258D01*
X67053502Y-114773261D01*
X66847267Y-114869431D01*
X66847265Y-114869432D01*
X66660858Y-114999954D01*
X66499954Y-115160858D01*
X66369432Y-115347265D01*
X66369431Y-115347267D01*
X66273261Y-115553502D01*
X66273258Y-115553511D01*
X66214366Y-115773302D01*
X66214364Y-115773313D01*
X66194532Y-115999998D01*
X65106130Y-115999998D01*
X65010952Y-114096422D01*
X64995203Y-113994026D01*
X64982436Y-113945102D01*
X64946135Y-113848052D01*
X64939993Y-113839140D01*
X64916937Y-113805684D01*
X64895468Y-113745622D01*
X64666666Y-110999997D01*
X66195034Y-110999997D01*
X66195034Y-111000002D01*
X66214858Y-111226599D01*
X66214860Y-111226610D01*
X66273730Y-111446317D01*
X66273735Y-111446331D01*
X66369863Y-111652478D01*
X66420974Y-111725472D01*
X67100000Y-111046446D01*
X67100000Y-111052661D01*
X67127259Y-111154394D01*
X67179920Y-111245606D01*
X67254394Y-111320080D01*
X67345606Y-111372741D01*
X67447339Y-111400000D01*
X67453553Y-111400000D01*
X66774526Y-112079025D01*
X66847513Y-112130132D01*
X66847521Y-112130136D01*
X67053668Y-112226264D01*
X67053682Y-112226269D01*
X67273389Y-112285139D01*
X67273400Y-112285141D01*
X67499998Y-112304966D01*
X67500002Y-112304966D01*
X67726599Y-112285141D01*
X67726610Y-112285139D01*
X67946317Y-112226269D01*
X67946331Y-112226264D01*
X68152478Y-112130136D01*
X68225471Y-112079024D01*
X67546447Y-111400000D01*
X67552661Y-111400000D01*
X67654394Y-111372741D01*
X67745606Y-111320080D01*
X67820080Y-111245606D01*
X67872741Y-111154394D01*
X67900000Y-111052661D01*
X67900000Y-111046447D01*
X68579024Y-111725471D01*
X68630136Y-111652478D01*
X68726264Y-111446331D01*
X68726269Y-111446317D01*
X68778337Y-111251996D01*
X77934435Y-111251996D01*
X77934435Y-111252003D01*
X77954630Y-111431249D01*
X77954631Y-111431254D01*
X78014211Y-111601523D01*
X78092093Y-111725471D01*
X78110184Y-111754262D01*
X78237738Y-111881816D01*
X78390478Y-111977789D01*
X78453822Y-111999954D01*
X78560745Y-112037368D01*
X78560750Y-112037369D01*
X78739996Y-112057565D01*
X78740000Y-112057565D01*
X78740004Y-112057565D01*
X78829423Y-112047490D01*
X78898244Y-112059545D01*
X78949624Y-112106894D01*
X78966526Y-112156824D01*
X78970630Y-112193249D01*
X79030210Y-112363521D01*
X79101430Y-112476866D01*
X79126184Y-112516262D01*
X79253738Y-112643816D01*
X79406478Y-112739789D01*
X79493565Y-112770262D01*
X79576745Y-112799368D01*
X79576750Y-112799369D01*
X79755996Y-112819565D01*
X79756000Y-112819565D01*
X79756004Y-112819565D01*
X79935249Y-112799369D01*
X79935252Y-112799368D01*
X79935255Y-112799368D01*
X80105522Y-112739789D01*
X80258262Y-112643816D01*
X80385816Y-112516262D01*
X80481789Y-112363522D01*
X80515215Y-112267996D01*
X83268435Y-112267996D01*
X83268435Y-112268003D01*
X83288630Y-112447249D01*
X83288631Y-112447254D01*
X83348211Y-112617523D01*
X83444184Y-112770262D01*
X83498587Y-112824665D01*
X83532072Y-112885988D01*
X83534126Y-112926229D01*
X83522435Y-113029996D01*
X83522435Y-113030003D01*
X83542630Y-113209249D01*
X83542631Y-113209254D01*
X83602211Y-113379523D01*
X83644294Y-113446497D01*
X83698184Y-113532262D01*
X83825738Y-113659816D01*
X83978478Y-113755789D01*
X84091220Y-113795239D01*
X84148745Y-113815368D01*
X84148750Y-113815369D01*
X84327996Y-113835565D01*
X84328000Y-113835565D01*
X84328004Y-113835565D01*
X84507249Y-113815369D01*
X84507252Y-113815368D01*
X84507255Y-113815368D01*
X84677522Y-113755789D01*
X84830262Y-113659816D01*
X84957816Y-113532262D01*
X85053789Y-113379522D01*
X85113368Y-113209255D01*
X85133565Y-113030000D01*
X85133565Y-113029996D01*
X95968435Y-113029996D01*
X95968435Y-113030003D01*
X95988630Y-113209249D01*
X95988631Y-113209254D01*
X96048211Y-113379523D01*
X96090294Y-113446497D01*
X96144184Y-113532262D01*
X96271738Y-113659816D01*
X96424478Y-113755789D01*
X96537220Y-113795239D01*
X96594745Y-113815368D01*
X96594750Y-113815369D01*
X96773996Y-113835565D01*
X96774000Y-113835565D01*
X96774004Y-113835565D01*
X96953249Y-113815369D01*
X96953252Y-113815368D01*
X96953255Y-113815368D01*
X97123522Y-113755789D01*
X97276262Y-113659816D01*
X97403816Y-113532262D01*
X97499789Y-113379522D01*
X97559368Y-113209255D01*
X97579565Y-113030000D01*
X97563299Y-112885635D01*
X97559369Y-112850750D01*
X97559368Y-112850745D01*
X97532273Y-112773313D01*
X97499789Y-112680478D01*
X97403816Y-112527738D01*
X97276262Y-112400184D01*
X97231040Y-112371769D01*
X97123520Y-112304209D01*
X97079861Y-112288932D01*
X97023085Y-112248210D01*
X96997339Y-112183257D01*
X97010796Y-112114695D01*
X97059184Y-112064293D01*
X97106933Y-112048671D01*
X97150050Y-112043813D01*
X97207249Y-112037369D01*
X97207252Y-112037368D01*
X97207255Y-112037368D01*
X97377522Y-111977789D01*
X97530262Y-111881816D01*
X97657816Y-111754262D01*
X97753789Y-111601522D01*
X97813368Y-111431255D01*
X97822123Y-111353553D01*
X97833565Y-111252003D01*
X97833565Y-111251996D01*
X97813369Y-111072750D01*
X97813368Y-111072745D01*
X97787215Y-110998003D01*
X97753789Y-110902478D01*
X97657816Y-110749738D01*
X97530262Y-110622184D01*
X97377523Y-110526211D01*
X97207254Y-110466631D01*
X97207249Y-110466630D01*
X97028004Y-110446435D01*
X97027996Y-110446435D01*
X96848750Y-110466630D01*
X96848745Y-110466631D01*
X96678476Y-110526211D01*
X96525737Y-110622184D01*
X96398184Y-110749737D01*
X96302211Y-110902476D01*
X96242631Y-111072745D01*
X96242630Y-111072750D01*
X96222435Y-111251996D01*
X96222435Y-111252003D01*
X96242630Y-111431249D01*
X96242631Y-111431254D01*
X96302211Y-111601523D01*
X96380093Y-111725471D01*
X96398184Y-111754262D01*
X96525738Y-111881816D01*
X96678478Y-111977789D01*
X96678480Y-111977790D01*
X96722137Y-111993067D01*
X96778913Y-112033788D01*
X96804660Y-112098741D01*
X96791204Y-112167303D01*
X96742816Y-112217705D01*
X96695066Y-112233328D01*
X96594749Y-112244630D01*
X96594745Y-112244631D01*
X96424476Y-112304211D01*
X96271737Y-112400184D01*
X96144184Y-112527737D01*
X96048211Y-112680476D01*
X95988631Y-112850745D01*
X95988630Y-112850750D01*
X95968435Y-113029996D01*
X85133565Y-113029996D01*
X85117299Y-112885635D01*
X85113369Y-112850750D01*
X85113368Y-112850745D01*
X85086273Y-112773313D01*
X85053789Y-112680478D01*
X84957816Y-112527738D01*
X84903412Y-112473334D01*
X84869927Y-112412011D01*
X84867873Y-112371769D01*
X84879565Y-112268002D01*
X84879565Y-112267996D01*
X84859369Y-112088750D01*
X84859368Y-112088745D01*
X84848458Y-112057565D01*
X84799789Y-111918478D01*
X84703816Y-111765738D01*
X84576262Y-111638184D01*
X84423523Y-111542211D01*
X84253254Y-111482631D01*
X84253249Y-111482630D01*
X84074004Y-111462435D01*
X84073996Y-111462435D01*
X83894750Y-111482630D01*
X83894745Y-111482631D01*
X83724476Y-111542211D01*
X83571737Y-111638184D01*
X83444184Y-111765737D01*
X83348211Y-111918476D01*
X83288631Y-112088745D01*
X83288630Y-112088750D01*
X83268435Y-112267996D01*
X80515215Y-112267996D01*
X80541368Y-112193255D01*
X80542246Y-112185462D01*
X80561565Y-112014003D01*
X80561565Y-112013996D01*
X80541369Y-111834750D01*
X80541368Y-111834745D01*
X80513885Y-111756204D01*
X80481789Y-111664478D01*
X80465267Y-111638184D01*
X80385815Y-111511737D01*
X80258262Y-111384184D01*
X80105523Y-111288211D01*
X79935254Y-111228631D01*
X79935249Y-111228630D01*
X79756004Y-111208435D01*
X79755996Y-111208435D01*
X79666575Y-111218510D01*
X79597753Y-111206455D01*
X79546374Y-111159106D01*
X79529472Y-111109174D01*
X79525368Y-111072745D01*
X79499212Y-110997996D01*
X85300435Y-110997996D01*
X85300435Y-110998003D01*
X85320630Y-111177249D01*
X85320631Y-111177254D01*
X85380211Y-111347523D01*
X85452416Y-111462435D01*
X85476184Y-111500262D01*
X85603738Y-111627816D01*
X85694080Y-111684582D01*
X85741479Y-111714365D01*
X85756478Y-111723789D01*
X85897852Y-111773258D01*
X85926745Y-111783368D01*
X85926750Y-111783369D01*
X86105996Y-111803565D01*
X86106000Y-111803565D01*
X86106004Y-111803565D01*
X86285249Y-111783369D01*
X86285252Y-111783368D01*
X86285255Y-111783368D01*
X86455522Y-111723789D01*
X86608262Y-111627816D01*
X86735816Y-111500262D01*
X86831789Y-111347522D01*
X86891368Y-111177255D01*
X86894044Y-111153504D01*
X86911565Y-110998003D01*
X86911565Y-110997996D01*
X86891369Y-110818750D01*
X86891368Y-110818745D01*
X86873390Y-110767368D01*
X86831789Y-110648478D01*
X86815267Y-110622184D01*
X86735815Y-110495737D01*
X86608262Y-110368184D01*
X86455523Y-110272211D01*
X86285254Y-110212631D01*
X86285249Y-110212630D01*
X86106004Y-110192435D01*
X86105996Y-110192435D01*
X85926750Y-110212630D01*
X85926745Y-110212631D01*
X85756476Y-110272211D01*
X85603737Y-110368184D01*
X85476184Y-110495737D01*
X85380211Y-110648476D01*
X85320631Y-110818745D01*
X85320630Y-110818750D01*
X85300435Y-110997996D01*
X79499212Y-110997996D01*
X79465789Y-110902478D01*
X79369816Y-110749738D01*
X79242262Y-110622184D01*
X79089523Y-110526211D01*
X78919254Y-110466631D01*
X78919249Y-110466630D01*
X78740004Y-110446435D01*
X78739996Y-110446435D01*
X78560750Y-110466630D01*
X78560745Y-110466631D01*
X78390476Y-110526211D01*
X78237737Y-110622184D01*
X78110184Y-110749737D01*
X78014211Y-110902476D01*
X77954631Y-111072745D01*
X77954630Y-111072750D01*
X77934435Y-111251996D01*
X68778337Y-111251996D01*
X68785139Y-111226610D01*
X68785141Y-111226599D01*
X68804966Y-111000002D01*
X68804966Y-110999997D01*
X68785141Y-110773400D01*
X68785139Y-110773389D01*
X68726269Y-110553682D01*
X68726264Y-110553668D01*
X68630136Y-110347521D01*
X68630132Y-110347513D01*
X68579025Y-110274526D01*
X67900000Y-110953551D01*
X67900000Y-110947339D01*
X67872741Y-110845606D01*
X67820080Y-110754394D01*
X67745606Y-110679920D01*
X67654394Y-110627259D01*
X67552661Y-110600000D01*
X67546448Y-110600000D01*
X68225472Y-109920974D01*
X68152478Y-109869863D01*
X67946331Y-109773735D01*
X67946317Y-109773730D01*
X67726610Y-109714860D01*
X67726599Y-109714858D01*
X67500002Y-109695034D01*
X67499998Y-109695034D01*
X67273400Y-109714858D01*
X67273389Y-109714860D01*
X67053682Y-109773730D01*
X67053673Y-109773734D01*
X66847516Y-109869866D01*
X66847512Y-109869868D01*
X66774526Y-109920973D01*
X66774526Y-109920974D01*
X67453553Y-110600000D01*
X67447339Y-110600000D01*
X67345606Y-110627259D01*
X67254394Y-110679920D01*
X67179920Y-110754394D01*
X67127259Y-110845606D01*
X67100000Y-110947339D01*
X67100000Y-110953552D01*
X66420974Y-110274526D01*
X66420973Y-110274526D01*
X66369868Y-110347512D01*
X66369866Y-110347516D01*
X66273734Y-110553673D01*
X66273730Y-110553682D01*
X66214860Y-110773389D01*
X66214858Y-110773400D01*
X66195034Y-110999997D01*
X64666666Y-110999997D01*
X64518333Y-109219996D01*
X76156435Y-109219996D01*
X76156435Y-109220003D01*
X76176630Y-109399249D01*
X76176631Y-109399254D01*
X76236211Y-109569523D01*
X76275769Y-109632478D01*
X76332184Y-109722262D01*
X76459738Y-109849816D01*
X76491651Y-109869868D01*
X76572983Y-109920973D01*
X76612478Y-109945789D01*
X76715952Y-109981996D01*
X76782745Y-110005368D01*
X76782750Y-110005369D01*
X76961996Y-110025565D01*
X76962000Y-110025565D01*
X76962004Y-110025565D01*
X77141249Y-110005369D01*
X77141252Y-110005368D01*
X77141255Y-110005368D01*
X77208048Y-109981996D01*
X92920435Y-109981996D01*
X92920435Y-109982003D01*
X92940630Y-110161249D01*
X92940631Y-110161254D01*
X93000211Y-110331523D01*
X93023247Y-110368184D01*
X93096184Y-110484262D01*
X93223738Y-110611816D01*
X93376478Y-110707789D01*
X93528149Y-110760861D01*
X93546745Y-110767368D01*
X93546750Y-110767369D01*
X93725996Y-110787565D01*
X93726000Y-110787565D01*
X93726004Y-110787565D01*
X93905249Y-110767369D01*
X93905252Y-110767368D01*
X93905255Y-110767368D01*
X94075522Y-110707789D01*
X94228262Y-110611816D01*
X94355816Y-110484262D01*
X94451789Y-110331522D01*
X94511368Y-110161255D01*
X94511369Y-110161249D01*
X94531565Y-109982003D01*
X94531565Y-109981996D01*
X94511369Y-109802750D01*
X94511368Y-109802745D01*
X94480615Y-109714858D01*
X94451789Y-109632478D01*
X94355816Y-109479738D01*
X94228262Y-109352184D01*
X94075523Y-109256211D01*
X93905254Y-109196631D01*
X93905249Y-109196630D01*
X93726004Y-109176435D01*
X93725996Y-109176435D01*
X93546750Y-109196630D01*
X93546745Y-109196631D01*
X93376476Y-109256211D01*
X93223737Y-109352184D01*
X93096184Y-109479737D01*
X93000211Y-109632476D01*
X92940631Y-109802745D01*
X92940630Y-109802750D01*
X92920435Y-109981996D01*
X77208048Y-109981996D01*
X77311522Y-109945789D01*
X77464262Y-109849816D01*
X77591816Y-109722262D01*
X77687789Y-109569522D01*
X77747368Y-109399255D01*
X77755107Y-109330568D01*
X77767565Y-109220003D01*
X77767565Y-109219996D01*
X77747369Y-109040750D01*
X77747368Y-109040745D01*
X77687788Y-108870476D01*
X77591815Y-108717737D01*
X77464262Y-108590184D01*
X77311523Y-108494211D01*
X77141254Y-108434631D01*
X77141249Y-108434630D01*
X76962004Y-108414435D01*
X76961996Y-108414435D01*
X76782750Y-108434630D01*
X76782745Y-108434631D01*
X76612476Y-108494211D01*
X76459737Y-108590184D01*
X76332184Y-108717737D01*
X76236211Y-108870476D01*
X76176631Y-109040745D01*
X76176630Y-109040750D01*
X76156435Y-109219996D01*
X64518333Y-109219996D01*
X64500000Y-109000000D01*
X60029129Y-107695996D01*
X81998435Y-107695996D01*
X81998435Y-107696003D01*
X82018630Y-107875249D01*
X82018631Y-107875254D01*
X82078211Y-108045523D01*
X82174184Y-108198262D01*
X82301738Y-108325816D01*
X82454478Y-108421789D01*
X82624745Y-108481368D01*
X82624750Y-108481369D01*
X82803996Y-108501565D01*
X82804000Y-108501565D01*
X82804004Y-108501565D01*
X82983249Y-108481369D01*
X82983252Y-108481368D01*
X82983255Y-108481368D01*
X83153522Y-108421789D01*
X83306262Y-108325816D01*
X83433816Y-108198262D01*
X83529789Y-108045522D01*
X83589368Y-107875255D01*
X83600439Y-107776991D01*
X83627505Y-107712579D01*
X83685099Y-107673023D01*
X83754936Y-107670884D01*
X83764614Y-107673834D01*
X83894737Y-107719366D01*
X83894743Y-107719367D01*
X83894745Y-107719368D01*
X83894746Y-107719368D01*
X83894750Y-107719369D01*
X84073996Y-107739565D01*
X84074000Y-107739565D01*
X84074004Y-107739565D01*
X84253249Y-107719369D01*
X84253252Y-107719368D01*
X84253255Y-107719368D01*
X84423522Y-107659789D01*
X84576262Y-107563816D01*
X84586089Y-107553988D01*
X84647409Y-107520503D01*
X84717101Y-107525485D01*
X84773036Y-107567354D01*
X84797455Y-107632818D01*
X84796992Y-107655549D01*
X84795024Y-107673023D01*
X84792436Y-107695996D01*
X84792435Y-107696001D01*
X84792435Y-107696003D01*
X84812630Y-107875249D01*
X84812631Y-107875254D01*
X84872211Y-108045523D01*
X84968184Y-108198262D01*
X85095738Y-108325816D01*
X85248478Y-108421789D01*
X85418745Y-108481368D01*
X85418750Y-108481369D01*
X85597996Y-108501565D01*
X85598000Y-108501565D01*
X85598004Y-108501565D01*
X85777249Y-108481369D01*
X85777252Y-108481368D01*
X85777255Y-108481368D01*
X85947522Y-108421789D01*
X86100262Y-108325816D01*
X86226080Y-108199998D01*
X100744532Y-108199998D01*
X100744532Y-108200001D01*
X100764364Y-108426686D01*
X100764366Y-108426697D01*
X100823258Y-108646488D01*
X100823261Y-108646497D01*
X100919431Y-108852732D01*
X100919432Y-108852734D01*
X101049954Y-109039141D01*
X101210858Y-109200045D01*
X101210861Y-109200047D01*
X101397266Y-109330568D01*
X101603504Y-109426739D01*
X101823308Y-109485635D01*
X101985230Y-109499801D01*
X102049998Y-109505468D01*
X102050000Y-109505468D01*
X102050002Y-109505468D01*
X102106673Y-109500509D01*
X102276692Y-109485635D01*
X102496496Y-109426739D01*
X102702734Y-109330568D01*
X102889139Y-109200047D01*
X103050047Y-109039139D01*
X103180568Y-108852734D01*
X103276739Y-108646496D01*
X103335635Y-108426692D01*
X103355468Y-108200000D01*
X103335635Y-107973308D01*
X103276739Y-107753504D01*
X103180568Y-107547266D01*
X103050047Y-107360861D01*
X103050045Y-107360858D01*
X102889141Y-107199954D01*
X102702734Y-107069432D01*
X102702732Y-107069431D01*
X102496497Y-106973261D01*
X102496488Y-106973258D01*
X102276697Y-106914366D01*
X102276693Y-106914365D01*
X102276692Y-106914365D01*
X102276691Y-106914364D01*
X102276686Y-106914364D01*
X102050002Y-106894532D01*
X102049998Y-106894532D01*
X101823313Y-106914364D01*
X101823302Y-106914366D01*
X101603511Y-106973258D01*
X101603502Y-106973261D01*
X101397267Y-107069431D01*
X101397265Y-107069432D01*
X101210858Y-107199954D01*
X101049954Y-107360858D01*
X100919432Y-107547265D01*
X100919431Y-107547267D01*
X100823261Y-107753502D01*
X100823258Y-107753511D01*
X100764366Y-107973302D01*
X100764364Y-107973313D01*
X100744532Y-108199998D01*
X86226080Y-108199998D01*
X86227816Y-108198262D01*
X86323789Y-108045522D01*
X86383368Y-107875255D01*
X86383369Y-107875249D01*
X86403565Y-107696003D01*
X86403565Y-107695996D01*
X86383369Y-107516750D01*
X86383368Y-107516745D01*
X86323788Y-107346476D01*
X86284231Y-107283522D01*
X86227816Y-107193738D01*
X86100262Y-107066184D01*
X85990432Y-106997173D01*
X85947523Y-106970211D01*
X85777254Y-106910631D01*
X85777249Y-106910630D01*
X85598004Y-106890435D01*
X85597996Y-106890435D01*
X85418750Y-106910630D01*
X85418745Y-106910631D01*
X85248476Y-106970211D01*
X85095737Y-107066184D01*
X85085906Y-107076015D01*
X85024582Y-107109498D01*
X84954891Y-107104511D01*
X84898958Y-107062638D01*
X84874544Y-106997173D01*
X84875008Y-106974447D01*
X84879565Y-106934002D01*
X84879565Y-106933996D01*
X84859369Y-106754750D01*
X84859368Y-106754745D01*
X84799788Y-106584476D01*
X84760582Y-106522080D01*
X84703816Y-106431738D01*
X84576262Y-106304184D01*
X84423523Y-106208211D01*
X84253254Y-106148631D01*
X84253249Y-106148630D01*
X84074004Y-106128435D01*
X84073996Y-106128435D01*
X83894750Y-106148630D01*
X83894745Y-106148631D01*
X83724476Y-106208211D01*
X83571737Y-106304184D01*
X83444184Y-106431737D01*
X83348211Y-106584476D01*
X83288631Y-106754745D01*
X83288630Y-106754750D01*
X83277560Y-106853007D01*
X83250494Y-106917421D01*
X83192899Y-106956977D01*
X83123062Y-106959114D01*
X83113386Y-106956166D01*
X82983257Y-106910632D01*
X82983249Y-106910630D01*
X82804004Y-106890435D01*
X82803996Y-106890435D01*
X82624750Y-106910630D01*
X82624745Y-106910631D01*
X82454476Y-106970211D01*
X82301737Y-107066184D01*
X82174184Y-107193737D01*
X82078211Y-107346476D01*
X82018631Y-107516745D01*
X82018630Y-107516750D01*
X81998435Y-107695996D01*
X60029129Y-107695996D01*
X53062275Y-105663997D01*
X63465034Y-105663997D01*
X63465034Y-105664002D01*
X63484858Y-105890599D01*
X63484860Y-105890610D01*
X63543730Y-106110317D01*
X63543735Y-106110331D01*
X63639863Y-106316478D01*
X63690974Y-106389472D01*
X64370000Y-105710446D01*
X64370000Y-105716661D01*
X64397259Y-105818394D01*
X64449920Y-105909606D01*
X64524394Y-105984080D01*
X64615606Y-106036741D01*
X64717339Y-106064000D01*
X64723553Y-106064000D01*
X64044526Y-106743025D01*
X64117513Y-106794132D01*
X64117521Y-106794136D01*
X64323668Y-106890264D01*
X64323682Y-106890269D01*
X64543389Y-106949139D01*
X64543400Y-106949141D01*
X64769998Y-106968966D01*
X64770002Y-106968966D01*
X64996599Y-106949141D01*
X64996610Y-106949139D01*
X65216317Y-106890269D01*
X65216331Y-106890264D01*
X65422478Y-106794136D01*
X65495471Y-106743024D01*
X64816447Y-106064000D01*
X64822661Y-106064000D01*
X64924394Y-106036741D01*
X65015606Y-105984080D01*
X65090080Y-105909606D01*
X65142741Y-105818394D01*
X65170000Y-105716661D01*
X65170000Y-105710447D01*
X65849024Y-106389471D01*
X65900136Y-106316478D01*
X65996264Y-106110331D01*
X65996269Y-106110317D01*
X66055139Y-105890610D01*
X66055141Y-105890599D01*
X66074966Y-105664002D01*
X66074966Y-105663997D01*
X66055141Y-105437400D01*
X66055139Y-105437389D01*
X65996269Y-105217682D01*
X65996264Y-105217668D01*
X65900136Y-105011521D01*
X65900132Y-105011513D01*
X65849025Y-104938526D01*
X65170000Y-105617551D01*
X65170000Y-105611339D01*
X65142741Y-105509606D01*
X65090080Y-105418394D01*
X65015606Y-105343920D01*
X64924394Y-105291259D01*
X64822661Y-105264000D01*
X64816448Y-105264000D01*
X65495472Y-104584974D01*
X65422478Y-104533863D01*
X65216331Y-104437735D01*
X65216317Y-104437730D01*
X64996610Y-104378860D01*
X64996599Y-104378858D01*
X64770002Y-104359034D01*
X64769998Y-104359034D01*
X64543400Y-104378858D01*
X64543389Y-104378860D01*
X64323682Y-104437730D01*
X64323673Y-104437734D01*
X64117516Y-104533866D01*
X64117512Y-104533868D01*
X64044526Y-104584973D01*
X64044526Y-104584974D01*
X64723553Y-105264000D01*
X64717339Y-105264000D01*
X64615606Y-105291259D01*
X64524394Y-105343920D01*
X64449920Y-105418394D01*
X64397259Y-105509606D01*
X64370000Y-105611339D01*
X64370000Y-105617552D01*
X63690974Y-104938526D01*
X63690973Y-104938526D01*
X63639868Y-105011512D01*
X63639866Y-105011516D01*
X63543734Y-105217673D01*
X63543730Y-105217682D01*
X63484860Y-105437389D01*
X63484858Y-105437400D01*
X63465034Y-105663997D01*
X53062275Y-105663997D01*
X52586856Y-105525333D01*
X52528010Y-105487665D01*
X52498870Y-105424162D01*
X52497620Y-105409569D01*
X52287368Y-97419998D01*
X53669437Y-97419998D01*
X53669437Y-97420001D01*
X53689650Y-97651044D01*
X53689651Y-97651051D01*
X53749678Y-97875074D01*
X53749679Y-97875076D01*
X53749680Y-97875079D01*
X53847699Y-98085282D01*
X53980730Y-98275269D01*
X54144731Y-98439270D01*
X54334718Y-98572301D01*
X54346121Y-98577618D01*
X54398560Y-98623790D01*
X54417712Y-98690984D01*
X54397496Y-98757865D01*
X54346123Y-98802381D01*
X54334720Y-98807698D01*
X54334714Y-98807701D01*
X54144735Y-98940726D01*
X54144729Y-98940731D01*
X53980731Y-99104729D01*
X53980726Y-99104735D01*
X53847701Y-99294714D01*
X53847699Y-99294718D01*
X53749681Y-99504917D01*
X53689651Y-99728948D01*
X53689650Y-99728955D01*
X53669437Y-99959998D01*
X53669437Y-99960001D01*
X53689650Y-100191044D01*
X53689651Y-100191051D01*
X53749678Y-100415074D01*
X53749679Y-100415076D01*
X53749680Y-100415079D01*
X53847699Y-100625282D01*
X53980730Y-100815269D01*
X54144731Y-100979270D01*
X54334718Y-101112301D01*
X54346710Y-101117893D01*
X54399149Y-101164062D01*
X54418303Y-101231255D01*
X54398089Y-101298137D01*
X54346717Y-101342655D01*
X54334966Y-101348134D01*
X54256576Y-101403022D01*
X54829766Y-101976212D01*
X54787708Y-101987482D01*
X54662292Y-102059890D01*
X54559890Y-102162292D01*
X54487482Y-102287708D01*
X54476212Y-102329766D01*
X53903022Y-101756576D01*
X53848134Y-101834967D01*
X53750152Y-102045090D01*
X53750148Y-102045099D01*
X53690147Y-102269031D01*
X53690145Y-102269041D01*
X53669939Y-102499999D01*
X53669939Y-102500000D01*
X53690145Y-102730958D01*
X53690147Y-102730968D01*
X53750148Y-102954900D01*
X53750152Y-102954909D01*
X53848133Y-103165030D01*
X53903023Y-103243422D01*
X54476212Y-102670233D01*
X54487482Y-102712292D01*
X54559890Y-102837708D01*
X54662292Y-102940110D01*
X54787708Y-103012518D01*
X54829765Y-103023787D01*
X54256576Y-103596975D01*
X54334969Y-103651867D01*
X54545090Y-103749847D01*
X54545099Y-103749851D01*
X54769031Y-103809852D01*
X54769041Y-103809854D01*
X54999999Y-103830061D01*
X55000001Y-103830061D01*
X55230958Y-103809854D01*
X55230968Y-103809852D01*
X55454900Y-103749851D01*
X55454909Y-103749847D01*
X55665030Y-103651867D01*
X55665034Y-103651865D01*
X55743422Y-103596976D01*
X55743422Y-103596975D01*
X55170235Y-103023787D01*
X55212292Y-103012518D01*
X55337708Y-102940110D01*
X55440110Y-102837708D01*
X55512518Y-102712292D01*
X55523787Y-102670234D01*
X56096975Y-103243422D01*
X56096976Y-103243422D01*
X56151864Y-103165034D01*
X56157339Y-103153294D01*
X56203509Y-103100852D01*
X56270701Y-103081697D01*
X56337584Y-103101909D01*
X56382105Y-103153286D01*
X56387699Y-103165282D01*
X56520730Y-103355269D01*
X56684731Y-103519270D01*
X56874718Y-103652301D01*
X57084921Y-103750320D01*
X57308950Y-103810349D01*
X57473985Y-103824787D01*
X57539998Y-103830563D01*
X57540000Y-103830563D01*
X57540002Y-103830563D01*
X57597762Y-103825509D01*
X57771050Y-103810349D01*
X57995079Y-103750320D01*
X58205282Y-103652301D01*
X58395269Y-103519270D01*
X58559270Y-103355269D01*
X58692301Y-103165282D01*
X58790320Y-102955079D01*
X58850349Y-102731050D01*
X58870563Y-102500000D01*
X58870497Y-102499250D01*
X58862040Y-102402583D01*
X58850349Y-102268950D01*
X58790320Y-102044921D01*
X58692301Y-101834719D01*
X58692299Y-101834716D01*
X58692298Y-101834714D01*
X58559273Y-101644735D01*
X58559268Y-101644729D01*
X58395269Y-101480730D01*
X58284292Y-101403023D01*
X58205282Y-101347699D01*
X58193878Y-101342381D01*
X58141440Y-101296210D01*
X58122288Y-101229016D01*
X58142504Y-101162135D01*
X58193878Y-101117618D01*
X58205282Y-101112301D01*
X58395269Y-100979270D01*
X58559270Y-100815269D01*
X58692301Y-100625282D01*
X58790320Y-100415079D01*
X58850349Y-100191050D01*
X58870563Y-99960000D01*
X58850349Y-99728950D01*
X58790320Y-99504921D01*
X58692301Y-99294719D01*
X58692299Y-99294716D01*
X58692298Y-99294714D01*
X58559273Y-99104735D01*
X58559268Y-99104729D01*
X58395269Y-98940730D01*
X58309349Y-98880568D01*
X58205282Y-98807699D01*
X58193878Y-98802381D01*
X58141440Y-98756210D01*
X58122288Y-98689016D01*
X58142504Y-98622135D01*
X58193878Y-98577618D01*
X58205282Y-98572301D01*
X58395269Y-98439270D01*
X58559270Y-98275269D01*
X58692301Y-98085282D01*
X58730204Y-98003998D01*
X69560532Y-98003998D01*
X69560532Y-98004001D01*
X69580364Y-98230686D01*
X69580366Y-98230697D01*
X69639258Y-98450488D01*
X69639261Y-98450497D01*
X69735431Y-98656732D01*
X69735432Y-98656734D01*
X69865954Y-98843141D01*
X70026858Y-99004045D01*
X70026861Y-99004047D01*
X70213266Y-99134568D01*
X70419504Y-99230739D01*
X70639308Y-99289635D01*
X70801230Y-99303801D01*
X70865998Y-99309468D01*
X70866000Y-99309468D01*
X70866002Y-99309468D01*
X70922673Y-99304509D01*
X71092692Y-99289635D01*
X71312496Y-99230739D01*
X71518734Y-99134568D01*
X71705139Y-99004047D01*
X71866047Y-98843139D01*
X71996568Y-98656734D01*
X72092739Y-98450496D01*
X72151635Y-98230692D01*
X72171468Y-98004000D01*
X72171468Y-98003998D01*
X73610532Y-98003998D01*
X73610532Y-98004001D01*
X73630364Y-98230686D01*
X73630366Y-98230697D01*
X73689258Y-98450488D01*
X73689261Y-98450497D01*
X73785431Y-98656732D01*
X73785432Y-98656734D01*
X73915954Y-98843141D01*
X74076858Y-99004045D01*
X74076861Y-99004047D01*
X74263266Y-99134568D01*
X74469504Y-99230739D01*
X74689308Y-99289635D01*
X74851230Y-99303801D01*
X74915998Y-99309468D01*
X74916000Y-99309468D01*
X74916002Y-99309468D01*
X74972673Y-99304509D01*
X75142692Y-99289635D01*
X75362496Y-99230739D01*
X75568734Y-99134568D01*
X75755139Y-99004047D01*
X75916047Y-98843139D01*
X76046568Y-98656734D01*
X76142739Y-98450496D01*
X76201635Y-98230692D01*
X76221468Y-98004000D01*
X76201635Y-97777308D01*
X76142739Y-97557504D01*
X76046568Y-97351266D01*
X75916047Y-97164861D01*
X75916045Y-97164858D01*
X75755141Y-97003954D01*
X75568734Y-96873432D01*
X75568732Y-96873431D01*
X75362497Y-96777261D01*
X75362488Y-96777258D01*
X75142697Y-96718366D01*
X75142693Y-96718365D01*
X75142692Y-96718365D01*
X75142691Y-96718364D01*
X75142686Y-96718364D01*
X74916002Y-96698532D01*
X74915998Y-96698532D01*
X74689313Y-96718364D01*
X74689302Y-96718366D01*
X74469511Y-96777258D01*
X74469502Y-96777261D01*
X74263267Y-96873431D01*
X74263265Y-96873432D01*
X74076858Y-97003954D01*
X73915954Y-97164858D01*
X73785432Y-97351265D01*
X73785431Y-97351267D01*
X73689261Y-97557502D01*
X73689258Y-97557511D01*
X73630366Y-97777302D01*
X73630364Y-97777313D01*
X73610532Y-98003998D01*
X72171468Y-98003998D01*
X72151635Y-97777308D01*
X72092739Y-97557504D01*
X71996568Y-97351266D01*
X71866047Y-97164861D01*
X71866045Y-97164858D01*
X71705141Y-97003954D01*
X71518734Y-96873432D01*
X71518732Y-96873431D01*
X71312497Y-96777261D01*
X71312488Y-96777258D01*
X71092697Y-96718366D01*
X71092693Y-96718365D01*
X71092692Y-96718365D01*
X71092691Y-96718364D01*
X71092686Y-96718364D01*
X70866002Y-96698532D01*
X70865998Y-96698532D01*
X70639313Y-96718364D01*
X70639302Y-96718366D01*
X70419511Y-96777258D01*
X70419502Y-96777261D01*
X70213267Y-96873431D01*
X70213265Y-96873432D01*
X70026858Y-97003954D01*
X69865954Y-97164858D01*
X69735432Y-97351265D01*
X69735431Y-97351267D01*
X69639261Y-97557502D01*
X69639258Y-97557511D01*
X69580366Y-97777302D01*
X69580364Y-97777313D01*
X69560532Y-98003998D01*
X58730204Y-98003998D01*
X58790320Y-97875079D01*
X58850349Y-97651050D01*
X58870563Y-97420000D01*
X58850349Y-97188950D01*
X58790320Y-96964921D01*
X58692301Y-96754719D01*
X58692299Y-96754716D01*
X58692298Y-96754714D01*
X58559273Y-96564735D01*
X58559268Y-96564729D01*
X58395269Y-96400730D01*
X58395263Y-96400726D01*
X58205282Y-96267699D01*
X57995079Y-96169680D01*
X57995076Y-96169679D01*
X57995074Y-96169678D01*
X57771051Y-96109651D01*
X57771044Y-96109650D01*
X57540002Y-96089437D01*
X57539998Y-96089437D01*
X57308955Y-96109650D01*
X57308948Y-96109651D01*
X57084917Y-96169681D01*
X56874718Y-96267699D01*
X56874714Y-96267701D01*
X56684735Y-96400726D01*
X56684729Y-96400731D01*
X56520731Y-96564729D01*
X56520726Y-96564735D01*
X56387701Y-96754714D01*
X56387698Y-96754720D01*
X56382381Y-96766123D01*
X56336207Y-96818562D01*
X56269013Y-96837712D01*
X56202133Y-96817495D01*
X56157619Y-96766123D01*
X56152301Y-96754720D01*
X56152298Y-96754714D01*
X56019273Y-96564735D01*
X56019268Y-96564729D01*
X55855269Y-96400730D01*
X55855263Y-96400726D01*
X55665282Y-96267699D01*
X55455079Y-96169680D01*
X55455076Y-96169679D01*
X55455074Y-96169678D01*
X55231051Y-96109651D01*
X55231044Y-96109650D01*
X55000002Y-96089437D01*
X54999998Y-96089437D01*
X54768955Y-96109650D01*
X54768948Y-96109651D01*
X54544917Y-96169681D01*
X54334718Y-96267699D01*
X54334714Y-96267701D01*
X54144735Y-96400726D01*
X54144729Y-96400731D01*
X53980731Y-96564729D01*
X53980726Y-96564735D01*
X53847701Y-96754714D01*
X53847699Y-96754718D01*
X53749681Y-96964917D01*
X53689651Y-97188948D01*
X53689650Y-97188955D01*
X53669437Y-97419998D01*
X52287368Y-97419998D01*
X52171158Y-93003997D01*
X69561034Y-93003997D01*
X69561034Y-93004002D01*
X69580858Y-93230599D01*
X69580860Y-93230610D01*
X69639730Y-93450317D01*
X69639735Y-93450331D01*
X69735863Y-93656478D01*
X69786974Y-93729472D01*
X70466000Y-93050446D01*
X70466000Y-93056661D01*
X70493259Y-93158394D01*
X70545920Y-93249606D01*
X70620394Y-93324080D01*
X70711606Y-93376741D01*
X70813339Y-93404000D01*
X70819553Y-93404000D01*
X70140526Y-94083025D01*
X70213513Y-94134132D01*
X70213521Y-94134136D01*
X70419668Y-94230264D01*
X70419682Y-94230269D01*
X70639389Y-94289139D01*
X70639400Y-94289141D01*
X70865998Y-94308966D01*
X70866002Y-94308966D01*
X71092599Y-94289141D01*
X71092610Y-94289139D01*
X71312317Y-94230269D01*
X71312331Y-94230264D01*
X71518478Y-94134136D01*
X71591471Y-94083024D01*
X70912447Y-93404000D01*
X70918661Y-93404000D01*
X71020394Y-93376741D01*
X71111606Y-93324080D01*
X71186080Y-93249606D01*
X71238741Y-93158394D01*
X71266000Y-93056661D01*
X71266000Y-93050447D01*
X71945024Y-93729471D01*
X71996136Y-93656478D01*
X72092264Y-93450331D01*
X72092269Y-93450317D01*
X72151139Y-93230610D01*
X72151141Y-93230599D01*
X72170966Y-93004002D01*
X72170966Y-93003997D01*
X73611034Y-93003997D01*
X73611034Y-93004002D01*
X73630858Y-93230599D01*
X73630860Y-93230610D01*
X73689730Y-93450317D01*
X73689735Y-93450331D01*
X73785863Y-93656478D01*
X73836974Y-93729472D01*
X74516000Y-93050446D01*
X74516000Y-93056661D01*
X74543259Y-93158394D01*
X74595920Y-93249606D01*
X74670394Y-93324080D01*
X74761606Y-93376741D01*
X74863339Y-93404000D01*
X74869553Y-93404000D01*
X74190526Y-94083025D01*
X74263513Y-94134132D01*
X74263521Y-94134136D01*
X74469668Y-94230264D01*
X74469682Y-94230269D01*
X74689389Y-94289139D01*
X74689400Y-94289141D01*
X74915998Y-94308966D01*
X74916002Y-94308966D01*
X75142599Y-94289141D01*
X75142610Y-94289139D01*
X75362317Y-94230269D01*
X75362331Y-94230264D01*
X75568478Y-94134136D01*
X75641471Y-94083024D01*
X74962447Y-93404000D01*
X74968661Y-93404000D01*
X75070394Y-93376741D01*
X75161606Y-93324080D01*
X75236080Y-93249606D01*
X75288741Y-93158394D01*
X75316000Y-93056661D01*
X75316000Y-93050447D01*
X75995024Y-93729471D01*
X76046136Y-93656478D01*
X76142264Y-93450331D01*
X76142269Y-93450317D01*
X76201139Y-93230610D01*
X76201141Y-93230599D01*
X76220966Y-93004002D01*
X76220966Y-93003997D01*
X76201141Y-92777400D01*
X76201139Y-92777389D01*
X76142269Y-92557682D01*
X76142264Y-92557668D01*
X76046136Y-92351521D01*
X76046132Y-92351513D01*
X75995025Y-92278526D01*
X75316000Y-92957551D01*
X75316000Y-92951339D01*
X75288741Y-92849606D01*
X75236080Y-92758394D01*
X75161606Y-92683920D01*
X75070394Y-92631259D01*
X74968661Y-92604000D01*
X74962448Y-92604000D01*
X75641472Y-91924974D01*
X75568478Y-91873863D01*
X75362331Y-91777735D01*
X75362317Y-91777730D01*
X75142610Y-91718860D01*
X75142599Y-91718858D01*
X74916002Y-91699034D01*
X74915998Y-91699034D01*
X74689400Y-91718858D01*
X74689389Y-91718860D01*
X74469682Y-91777730D01*
X74469673Y-91777734D01*
X74263516Y-91873866D01*
X74263512Y-91873868D01*
X74190526Y-91924973D01*
X74190526Y-91924974D01*
X74869553Y-92604000D01*
X74863339Y-92604000D01*
X74761606Y-92631259D01*
X74670394Y-92683920D01*
X74595920Y-92758394D01*
X74543259Y-92849606D01*
X74516000Y-92951339D01*
X74516000Y-92957552D01*
X73836974Y-92278526D01*
X73836973Y-92278526D01*
X73785868Y-92351512D01*
X73785866Y-92351516D01*
X73689734Y-92557673D01*
X73689730Y-92557682D01*
X73630860Y-92777389D01*
X73630858Y-92777400D01*
X73611034Y-93003997D01*
X72170966Y-93003997D01*
X72151141Y-92777400D01*
X72151139Y-92777389D01*
X72092269Y-92557682D01*
X72092264Y-92557668D01*
X71996136Y-92351521D01*
X71996132Y-92351513D01*
X71945025Y-92278526D01*
X71266000Y-92957551D01*
X71266000Y-92951339D01*
X71238741Y-92849606D01*
X71186080Y-92758394D01*
X71111606Y-92683920D01*
X71020394Y-92631259D01*
X70918661Y-92604000D01*
X70912448Y-92604000D01*
X71591472Y-91924974D01*
X71518478Y-91873863D01*
X71312331Y-91777735D01*
X71312317Y-91777730D01*
X71092610Y-91718860D01*
X71092599Y-91718858D01*
X70866002Y-91699034D01*
X70865998Y-91699034D01*
X70639400Y-91718858D01*
X70639389Y-91718860D01*
X70419682Y-91777730D01*
X70419673Y-91777734D01*
X70213516Y-91873866D01*
X70213512Y-91873868D01*
X70140526Y-91924973D01*
X70140526Y-91924974D01*
X70819553Y-92604000D01*
X70813339Y-92604000D01*
X70711606Y-92631259D01*
X70620394Y-92683920D01*
X70545920Y-92758394D01*
X70493259Y-92849606D01*
X70466000Y-92951339D01*
X70466000Y-92957552D01*
X69786974Y-92278526D01*
X69786973Y-92278526D01*
X69735868Y-92351512D01*
X69735866Y-92351516D01*
X69639734Y-92557673D01*
X69639730Y-92557682D01*
X69580860Y-92777389D01*
X69580858Y-92777400D01*
X69561034Y-93003997D01*
X52171158Y-93003997D01*
X52080263Y-89549998D01*
X55494532Y-89549998D01*
X55494532Y-89550001D01*
X55514364Y-89776686D01*
X55514366Y-89776697D01*
X55573258Y-89996488D01*
X55573261Y-89996497D01*
X55669431Y-90202732D01*
X55669432Y-90202734D01*
X55799954Y-90389141D01*
X55960858Y-90550045D01*
X55960861Y-90550047D01*
X56147266Y-90680568D01*
X56353504Y-90776739D01*
X56353509Y-90776740D01*
X56353511Y-90776741D01*
X56367790Y-90780567D01*
X56573308Y-90835635D01*
X56735230Y-90849801D01*
X56799998Y-90855468D01*
X56800000Y-90855468D01*
X56800002Y-90855468D01*
X56856673Y-90850509D01*
X57026692Y-90835635D01*
X57246496Y-90776739D01*
X57452734Y-90680568D01*
X57639139Y-90550047D01*
X57800047Y-90389139D01*
X57930568Y-90202734D01*
X58026739Y-89996496D01*
X58085635Y-89776692D01*
X58104797Y-89557669D01*
X58105468Y-89550001D01*
X58105468Y-89549998D01*
X58105468Y-89549997D01*
X61061700Y-89549997D01*
X61061700Y-89550002D01*
X61081524Y-89776599D01*
X61081526Y-89776610D01*
X61140396Y-89996317D01*
X61140401Y-89996331D01*
X61236529Y-90202478D01*
X61287640Y-90275472D01*
X61966666Y-89596446D01*
X61966666Y-89602661D01*
X61993925Y-89704394D01*
X62046586Y-89795606D01*
X62121060Y-89870080D01*
X62212272Y-89922741D01*
X62314005Y-89950000D01*
X62320219Y-89950000D01*
X61641192Y-90629025D01*
X61714179Y-90680132D01*
X61714187Y-90680136D01*
X61920334Y-90776264D01*
X61920348Y-90776269D01*
X62140055Y-90835139D01*
X62140066Y-90835141D01*
X62366664Y-90854966D01*
X62366668Y-90854966D01*
X62593265Y-90835141D01*
X62593276Y-90835139D01*
X62812983Y-90776269D01*
X62812997Y-90776264D01*
X63019144Y-90680136D01*
X63092137Y-90629024D01*
X62413113Y-89950000D01*
X62419327Y-89950000D01*
X62521060Y-89922741D01*
X62612272Y-89870080D01*
X62686746Y-89795606D01*
X62739407Y-89704394D01*
X62766666Y-89602661D01*
X62766666Y-89596447D01*
X63445690Y-90275471D01*
X63496802Y-90202478D01*
X63592930Y-89996331D01*
X63592935Y-89996317D01*
X63651805Y-89776610D01*
X63651807Y-89776599D01*
X63671632Y-89550002D01*
X63671632Y-89549997D01*
X66628366Y-89549997D01*
X66628366Y-89550002D01*
X66648190Y-89776599D01*
X66648192Y-89776610D01*
X66707062Y-89996317D01*
X66707067Y-89996331D01*
X66803195Y-90202478D01*
X66854306Y-90275472D01*
X67533332Y-89596446D01*
X67533332Y-89602661D01*
X67560591Y-89704394D01*
X67613252Y-89795606D01*
X67687726Y-89870080D01*
X67778938Y-89922741D01*
X67880671Y-89950000D01*
X67886885Y-89950000D01*
X67207858Y-90629025D01*
X67280845Y-90680132D01*
X67280853Y-90680136D01*
X67487000Y-90776264D01*
X67487014Y-90776269D01*
X67706721Y-90835139D01*
X67706732Y-90835141D01*
X67933330Y-90854966D01*
X67933334Y-90854966D01*
X68159931Y-90835141D01*
X68159942Y-90835139D01*
X68379649Y-90776269D01*
X68379663Y-90776264D01*
X68585810Y-90680136D01*
X68658803Y-90629024D01*
X67979779Y-89950000D01*
X67985993Y-89950000D01*
X68087726Y-89922741D01*
X68178938Y-89870080D01*
X68253412Y-89795606D01*
X68306073Y-89704394D01*
X68333332Y-89602661D01*
X68333332Y-89596447D01*
X69012356Y-90275471D01*
X69063468Y-90202478D01*
X69159596Y-89996331D01*
X69159601Y-89996317D01*
X69218471Y-89776610D01*
X69218473Y-89776599D01*
X69238298Y-89550002D01*
X69238298Y-89549998D01*
X72194532Y-89549998D01*
X72194532Y-89550001D01*
X72214364Y-89776686D01*
X72214366Y-89776697D01*
X72273258Y-89996488D01*
X72273261Y-89996497D01*
X72369431Y-90202732D01*
X72369432Y-90202734D01*
X72499954Y-90389141D01*
X72660858Y-90550045D01*
X72660861Y-90550047D01*
X72847266Y-90680568D01*
X73053504Y-90776739D01*
X73053509Y-90776740D01*
X73053511Y-90776741D01*
X73067790Y-90780567D01*
X73273308Y-90835635D01*
X73435230Y-90849801D01*
X73499998Y-90855468D01*
X73500000Y-90855468D01*
X73500002Y-90855468D01*
X73556673Y-90850509D01*
X73726692Y-90835635D01*
X73946496Y-90776739D01*
X74152734Y-90680568D01*
X74339139Y-90550047D01*
X74500047Y-90389139D01*
X74630568Y-90202734D01*
X74726739Y-89996496D01*
X74785635Y-89776692D01*
X74796719Y-89649997D01*
X81695034Y-89649997D01*
X81695034Y-89650002D01*
X81714858Y-89876599D01*
X81714860Y-89876610D01*
X81773730Y-90096317D01*
X81773735Y-90096331D01*
X81869863Y-90302478D01*
X81920974Y-90375472D01*
X82600000Y-89696446D01*
X82600000Y-89702661D01*
X82627259Y-89804394D01*
X82679920Y-89895606D01*
X82754394Y-89970080D01*
X82845606Y-90022741D01*
X82947339Y-90050000D01*
X82953553Y-90050000D01*
X82274526Y-90729025D01*
X82347513Y-90780132D01*
X82347521Y-90780136D01*
X82553668Y-90876264D01*
X82553682Y-90876269D01*
X82773389Y-90935139D01*
X82773400Y-90935141D01*
X82999998Y-90954966D01*
X83000002Y-90954966D01*
X83226599Y-90935141D01*
X83226610Y-90935139D01*
X83446317Y-90876269D01*
X83446331Y-90876264D01*
X83652478Y-90780136D01*
X83725471Y-90729024D01*
X83046447Y-90050000D01*
X83052661Y-90050000D01*
X83154394Y-90022741D01*
X83245606Y-89970080D01*
X83320080Y-89895606D01*
X83372741Y-89804394D01*
X83400000Y-89702661D01*
X83400000Y-89696447D01*
X84079024Y-90375471D01*
X84130136Y-90302478D01*
X84226264Y-90096331D01*
X84226269Y-90096317D01*
X84285139Y-89876610D01*
X84285141Y-89876599D01*
X84304966Y-89650002D01*
X84304966Y-89649997D01*
X86695034Y-89649997D01*
X86695034Y-89650002D01*
X86714858Y-89876599D01*
X86714860Y-89876610D01*
X86773730Y-90096317D01*
X86773735Y-90096331D01*
X86869863Y-90302478D01*
X86920974Y-90375472D01*
X87600000Y-89696446D01*
X87600000Y-89702661D01*
X87627259Y-89804394D01*
X87679920Y-89895606D01*
X87754394Y-89970080D01*
X87845606Y-90022741D01*
X87947339Y-90050000D01*
X87953553Y-90050000D01*
X87274526Y-90729025D01*
X87347513Y-90780132D01*
X87347521Y-90780136D01*
X87553668Y-90876264D01*
X87553682Y-90876269D01*
X87773389Y-90935139D01*
X87773400Y-90935141D01*
X87999998Y-90954966D01*
X88000002Y-90954966D01*
X88226599Y-90935141D01*
X88226610Y-90935139D01*
X88446317Y-90876269D01*
X88446331Y-90876264D01*
X88652478Y-90780136D01*
X88725471Y-90729024D01*
X88046447Y-90050000D01*
X88052661Y-90050000D01*
X88154394Y-90022741D01*
X88245606Y-89970080D01*
X88320080Y-89895606D01*
X88372741Y-89804394D01*
X88400000Y-89702661D01*
X88400000Y-89696447D01*
X89079024Y-90375471D01*
X89130136Y-90302478D01*
X89226264Y-90096331D01*
X89226269Y-90096317D01*
X89285139Y-89876610D01*
X89285141Y-89876599D01*
X89304966Y-89650002D01*
X89304966Y-89649998D01*
X91694532Y-89649998D01*
X91694532Y-89650001D01*
X91714364Y-89876686D01*
X91714366Y-89876697D01*
X91773258Y-90096488D01*
X91773261Y-90096497D01*
X91869431Y-90302732D01*
X91869432Y-90302734D01*
X91999954Y-90489141D01*
X92160858Y-90650045D01*
X92160861Y-90650047D01*
X92347266Y-90780568D01*
X92553504Y-90876739D01*
X92773308Y-90935635D01*
X92935230Y-90949801D01*
X92999998Y-90955468D01*
X93000000Y-90955468D01*
X93000002Y-90955468D01*
X93056673Y-90950509D01*
X93226692Y-90935635D01*
X93446496Y-90876739D01*
X93652734Y-90780568D01*
X93839139Y-90650047D01*
X94000047Y-90489139D01*
X94130568Y-90302734D01*
X94226739Y-90096496D01*
X94285635Y-89876692D01*
X94305468Y-89650000D01*
X94285635Y-89423308D01*
X94226739Y-89203504D01*
X94130568Y-88997266D01*
X94000047Y-88810861D01*
X94000045Y-88810858D01*
X93839141Y-88649954D01*
X93652734Y-88519432D01*
X93652732Y-88519431D01*
X93446497Y-88423261D01*
X93446488Y-88423258D01*
X93226697Y-88364366D01*
X93226693Y-88364365D01*
X93226692Y-88364365D01*
X93226691Y-88364364D01*
X93226686Y-88364364D01*
X93000002Y-88344532D01*
X92999998Y-88344532D01*
X92773313Y-88364364D01*
X92773302Y-88364366D01*
X92553511Y-88423258D01*
X92553502Y-88423261D01*
X92347267Y-88519431D01*
X92347265Y-88519432D01*
X92160858Y-88649954D01*
X91999954Y-88810858D01*
X91869432Y-88997265D01*
X91869431Y-88997267D01*
X91773261Y-89203502D01*
X91773258Y-89203511D01*
X91714366Y-89423302D01*
X91714364Y-89423313D01*
X91694532Y-89649998D01*
X89304966Y-89649998D01*
X89304966Y-89649997D01*
X89285141Y-89423400D01*
X89285139Y-89423389D01*
X89226269Y-89203682D01*
X89226264Y-89203668D01*
X89130136Y-88997521D01*
X89130132Y-88997513D01*
X89079025Y-88924526D01*
X88400000Y-89603551D01*
X88400000Y-89597339D01*
X88372741Y-89495606D01*
X88320080Y-89404394D01*
X88245606Y-89329920D01*
X88154394Y-89277259D01*
X88052661Y-89250000D01*
X88046448Y-89250000D01*
X88725472Y-88570974D01*
X88652478Y-88519863D01*
X88446331Y-88423735D01*
X88446317Y-88423730D01*
X88226610Y-88364860D01*
X88226599Y-88364858D01*
X88000002Y-88345034D01*
X87999998Y-88345034D01*
X87773400Y-88364858D01*
X87773389Y-88364860D01*
X87553682Y-88423730D01*
X87553673Y-88423734D01*
X87347516Y-88519866D01*
X87347512Y-88519868D01*
X87274526Y-88570973D01*
X87274526Y-88570974D01*
X87953553Y-89250000D01*
X87947339Y-89250000D01*
X87845606Y-89277259D01*
X87754394Y-89329920D01*
X87679920Y-89404394D01*
X87627259Y-89495606D01*
X87600000Y-89597339D01*
X87600000Y-89603552D01*
X86920974Y-88924526D01*
X86920973Y-88924526D01*
X86869868Y-88997512D01*
X86869866Y-88997516D01*
X86773734Y-89203673D01*
X86773730Y-89203682D01*
X86714860Y-89423389D01*
X86714858Y-89423400D01*
X86695034Y-89649997D01*
X84304966Y-89649997D01*
X84285141Y-89423400D01*
X84285139Y-89423389D01*
X84226269Y-89203682D01*
X84226264Y-89203668D01*
X84130136Y-88997521D01*
X84130132Y-88997513D01*
X84079025Y-88924526D01*
X83400000Y-89603551D01*
X83400000Y-89597339D01*
X83372741Y-89495606D01*
X83320080Y-89404394D01*
X83245606Y-89329920D01*
X83154394Y-89277259D01*
X83052661Y-89250000D01*
X83046448Y-89250000D01*
X83725472Y-88570974D01*
X83652478Y-88519863D01*
X83446331Y-88423735D01*
X83446317Y-88423730D01*
X83226610Y-88364860D01*
X83226599Y-88364858D01*
X83000002Y-88345034D01*
X82999998Y-88345034D01*
X82773400Y-88364858D01*
X82773389Y-88364860D01*
X82553682Y-88423730D01*
X82553673Y-88423734D01*
X82347516Y-88519866D01*
X82347512Y-88519868D01*
X82274526Y-88570973D01*
X82274526Y-88570974D01*
X82953553Y-89250000D01*
X82947339Y-89250000D01*
X82845606Y-89277259D01*
X82754394Y-89329920D01*
X82679920Y-89404394D01*
X82627259Y-89495606D01*
X82600000Y-89597339D01*
X82600000Y-89603552D01*
X81920974Y-88924526D01*
X81920973Y-88924526D01*
X81869868Y-88997512D01*
X81869866Y-88997516D01*
X81773734Y-89203673D01*
X81773730Y-89203682D01*
X81714860Y-89423389D01*
X81714858Y-89423400D01*
X81695034Y-89649997D01*
X74796719Y-89649997D01*
X74804797Y-89557669D01*
X74805468Y-89550001D01*
X74805468Y-89549998D01*
X74788513Y-89356202D01*
X74785635Y-89323308D01*
X74726739Y-89103504D01*
X74630568Y-88897266D01*
X74500047Y-88710861D01*
X74500045Y-88710858D01*
X74339141Y-88549954D01*
X74152734Y-88419432D01*
X74152732Y-88419431D01*
X73946497Y-88323261D01*
X73946488Y-88323258D01*
X73726697Y-88264366D01*
X73726693Y-88264365D01*
X73726692Y-88264365D01*
X73726691Y-88264364D01*
X73726686Y-88264364D01*
X73500002Y-88244532D01*
X73499998Y-88244532D01*
X73273313Y-88264364D01*
X73273302Y-88264366D01*
X73053511Y-88323258D01*
X73053502Y-88323261D01*
X72847267Y-88419431D01*
X72847265Y-88419432D01*
X72660858Y-88549954D01*
X72499954Y-88710858D01*
X72369432Y-88897265D01*
X72369431Y-88897267D01*
X72273261Y-89103502D01*
X72273258Y-89103511D01*
X72214366Y-89323302D01*
X72214364Y-89323313D01*
X72194532Y-89549998D01*
X69238298Y-89549998D01*
X69238298Y-89549997D01*
X69218473Y-89323400D01*
X69218471Y-89323389D01*
X69159601Y-89103682D01*
X69159596Y-89103668D01*
X69063468Y-88897521D01*
X69063464Y-88897513D01*
X69012357Y-88824526D01*
X68333332Y-89503551D01*
X68333332Y-89497339D01*
X68306073Y-89395606D01*
X68253412Y-89304394D01*
X68178938Y-89229920D01*
X68087726Y-89177259D01*
X67985993Y-89150000D01*
X67979780Y-89150000D01*
X68658804Y-88470974D01*
X68585810Y-88419863D01*
X68379663Y-88323735D01*
X68379649Y-88323730D01*
X68159942Y-88264860D01*
X68159931Y-88264858D01*
X67933334Y-88245034D01*
X67933330Y-88245034D01*
X67706732Y-88264858D01*
X67706721Y-88264860D01*
X67487014Y-88323730D01*
X67487005Y-88323734D01*
X67280848Y-88419866D01*
X67280844Y-88419868D01*
X67207858Y-88470973D01*
X67207858Y-88470974D01*
X67886885Y-89150000D01*
X67880671Y-89150000D01*
X67778938Y-89177259D01*
X67687726Y-89229920D01*
X67613252Y-89304394D01*
X67560591Y-89395606D01*
X67533332Y-89497339D01*
X67533332Y-89503552D01*
X66854306Y-88824526D01*
X66854305Y-88824526D01*
X66803200Y-88897512D01*
X66803198Y-88897516D01*
X66707066Y-89103673D01*
X66707062Y-89103682D01*
X66648192Y-89323389D01*
X66648190Y-89323400D01*
X66628366Y-89549997D01*
X63671632Y-89549997D01*
X63651807Y-89323400D01*
X63651805Y-89323389D01*
X63592935Y-89103682D01*
X63592930Y-89103668D01*
X63496802Y-88897521D01*
X63496798Y-88897513D01*
X63445691Y-88824526D01*
X62766666Y-89503551D01*
X62766666Y-89497339D01*
X62739407Y-89395606D01*
X62686746Y-89304394D01*
X62612272Y-89229920D01*
X62521060Y-89177259D01*
X62419327Y-89150000D01*
X62413114Y-89150000D01*
X63092138Y-88470974D01*
X63019144Y-88419863D01*
X62812997Y-88323735D01*
X62812983Y-88323730D01*
X62593276Y-88264860D01*
X62593265Y-88264858D01*
X62366668Y-88245034D01*
X62366664Y-88245034D01*
X62140066Y-88264858D01*
X62140055Y-88264860D01*
X61920348Y-88323730D01*
X61920339Y-88323734D01*
X61714182Y-88419866D01*
X61714178Y-88419868D01*
X61641192Y-88470973D01*
X61641192Y-88470974D01*
X62320219Y-89150000D01*
X62314005Y-89150000D01*
X62212272Y-89177259D01*
X62121060Y-89229920D01*
X62046586Y-89304394D01*
X61993925Y-89395606D01*
X61966666Y-89497339D01*
X61966666Y-89503552D01*
X61287640Y-88824526D01*
X61287639Y-88824526D01*
X61236534Y-88897512D01*
X61236532Y-88897516D01*
X61140400Y-89103673D01*
X61140396Y-89103682D01*
X61081526Y-89323389D01*
X61081524Y-89323400D01*
X61061700Y-89549997D01*
X58105468Y-89549997D01*
X58088513Y-89356202D01*
X58085635Y-89323308D01*
X58026739Y-89103504D01*
X57930568Y-88897266D01*
X57800047Y-88710861D01*
X57800045Y-88710858D01*
X57639141Y-88549954D01*
X57452734Y-88419432D01*
X57452732Y-88419431D01*
X57246497Y-88323261D01*
X57246488Y-88323258D01*
X57026697Y-88264366D01*
X57026693Y-88264365D01*
X57026692Y-88264365D01*
X57026691Y-88264364D01*
X57026686Y-88264364D01*
X56800002Y-88244532D01*
X56799998Y-88244532D01*
X56573313Y-88264364D01*
X56573302Y-88264366D01*
X56353511Y-88323258D01*
X56353502Y-88323261D01*
X56147267Y-88419431D01*
X56147265Y-88419432D01*
X55960858Y-88549954D01*
X55799954Y-88710858D01*
X55669432Y-88897265D01*
X55669431Y-88897267D01*
X55573261Y-89103502D01*
X55573258Y-89103511D01*
X55514366Y-89323302D01*
X55514364Y-89323313D01*
X55494532Y-89549998D01*
X52080263Y-89549998D01*
X52003295Y-86625223D01*
X52021209Y-86557691D01*
X52072791Y-86510563D01*
X52125248Y-86497979D01*
X83000000Y-86000000D01*
X83000000Y-85799998D01*
X96744532Y-85799998D01*
X96744532Y-85800001D01*
X96764364Y-86026686D01*
X96764366Y-86026697D01*
X96823258Y-86246488D01*
X96823261Y-86246497D01*
X96919431Y-86452732D01*
X96919432Y-86452734D01*
X97049954Y-86639141D01*
X97210858Y-86800045D01*
X97210861Y-86800047D01*
X97397266Y-86930568D01*
X97603504Y-87026739D01*
X97823308Y-87085635D01*
X97985230Y-87099801D01*
X98049998Y-87105468D01*
X98050000Y-87105468D01*
X98050002Y-87105468D01*
X98106673Y-87100509D01*
X98276692Y-87085635D01*
X98496496Y-87026739D01*
X98702734Y-86930568D01*
X98889139Y-86800047D01*
X99050047Y-86639139D01*
X99180568Y-86452734D01*
X99276739Y-86246496D01*
X99335635Y-86026692D01*
X99355468Y-85800000D01*
X99335635Y-85573308D01*
X99276739Y-85353504D01*
X99180568Y-85147266D01*
X99050047Y-84960861D01*
X99050045Y-84960858D01*
X98889141Y-84799954D01*
X98702734Y-84669432D01*
X98702732Y-84669431D01*
X98496497Y-84573261D01*
X98496488Y-84573258D01*
X98276697Y-84514366D01*
X98276693Y-84514365D01*
X98276692Y-84514365D01*
X98276691Y-84514364D01*
X98276686Y-84514364D01*
X98050002Y-84494532D01*
X98049998Y-84494532D01*
X97823313Y-84514364D01*
X97823302Y-84514366D01*
X97603511Y-84573258D01*
X97603502Y-84573261D01*
X97397267Y-84669431D01*
X97397265Y-84669432D01*
X97210858Y-84799954D01*
X97049954Y-84960858D01*
X96919432Y-85147265D01*
X96919431Y-85147267D01*
X96823261Y-85353502D01*
X96823258Y-85353511D01*
X96764366Y-85573302D01*
X96764364Y-85573313D01*
X96744532Y-85799998D01*
X83000000Y-85799998D01*
X83000000Y-71119736D01*
X83019685Y-71052697D01*
X83072489Y-71006942D01*
X83119660Y-70995812D01*
X83704142Y-70975359D01*
X83771825Y-70992686D01*
X83819399Y-71043857D01*
X83820856Y-71046875D01*
X83825963Y-71057828D01*
X83825965Y-71057831D01*
X83961501Y-71251395D01*
X83961506Y-71251402D01*
X84128597Y-71418493D01*
X84128603Y-71418498D01*
X84314158Y-71548425D01*
X84357783Y-71603002D01*
X84364977Y-71672500D01*
X84333454Y-71734855D01*
X84314158Y-71751575D01*
X84128597Y-71881505D01*
X83961505Y-72048597D01*
X83825965Y-72242169D01*
X83825964Y-72242171D01*
X83726098Y-72456335D01*
X83726094Y-72456344D01*
X83664938Y-72684586D01*
X83664936Y-72684596D01*
X83644341Y-72919999D01*
X83644341Y-72920000D01*
X83664936Y-73155403D01*
X83664938Y-73155413D01*
X83726094Y-73383655D01*
X83726096Y-73383659D01*
X83726097Y-73383663D01*
X83825965Y-73597830D01*
X83825967Y-73597834D01*
X83961501Y-73791395D01*
X83961506Y-73791402D01*
X84128597Y-73958493D01*
X84128603Y-73958498D01*
X84314594Y-74088730D01*
X84358219Y-74143307D01*
X84365413Y-74212805D01*
X84333890Y-74275160D01*
X84314595Y-74291880D01*
X84128922Y-74421890D01*
X84128920Y-74421891D01*
X83961891Y-74588920D01*
X83961886Y-74588926D01*
X83826400Y-74782420D01*
X83826399Y-74782422D01*
X83726570Y-74996507D01*
X83726567Y-74996513D01*
X83669364Y-75209999D01*
X83669364Y-75210000D01*
X84566988Y-75210000D01*
X84534075Y-75267007D01*
X84500000Y-75394174D01*
X84500000Y-75525826D01*
X84534075Y-75652993D01*
X84566988Y-75710000D01*
X83669364Y-75710000D01*
X83726567Y-75923486D01*
X83726570Y-75923492D01*
X83826399Y-76137578D01*
X83961894Y-76331082D01*
X84128917Y-76498105D01*
X84314595Y-76628119D01*
X84358219Y-76682696D01*
X84365412Y-76752195D01*
X84333890Y-76814549D01*
X84314595Y-76831269D01*
X84128594Y-76961508D01*
X83961505Y-77128597D01*
X83825965Y-77322169D01*
X83825964Y-77322171D01*
X83726098Y-77536335D01*
X83726094Y-77536344D01*
X83664938Y-77764586D01*
X83664936Y-77764596D01*
X83644341Y-77999999D01*
X83644341Y-78000000D01*
X83664936Y-78235403D01*
X83664938Y-78235413D01*
X83726094Y-78463655D01*
X83726096Y-78463659D01*
X83726097Y-78463663D01*
X83749740Y-78514365D01*
X83825965Y-78677830D01*
X83825967Y-78677834D01*
X83961501Y-78871395D01*
X83961506Y-78871402D01*
X84128597Y-79038493D01*
X84128603Y-79038498D01*
X84314158Y-79168425D01*
X84357783Y-79223002D01*
X84364977Y-79292500D01*
X84333454Y-79354855D01*
X84314158Y-79371575D01*
X84128597Y-79501505D01*
X83961505Y-79668597D01*
X83825965Y-79862169D01*
X83825964Y-79862171D01*
X83726098Y-80076335D01*
X83726094Y-80076344D01*
X83664938Y-80304586D01*
X83664936Y-80304596D01*
X83644341Y-80539999D01*
X83644341Y-80540000D01*
X83664936Y-80775403D01*
X83664938Y-80775413D01*
X83726094Y-81003655D01*
X83726096Y-81003659D01*
X83726097Y-81003663D01*
X83773570Y-81105468D01*
X83825965Y-81217830D01*
X83825967Y-81217834D01*
X83934281Y-81372521D01*
X83961505Y-81411401D01*
X84128599Y-81578495D01*
X84225384Y-81646265D01*
X84322165Y-81714032D01*
X84322167Y-81714033D01*
X84322170Y-81714035D01*
X84536337Y-81813903D01*
X84764592Y-81875063D01*
X84952918Y-81891539D01*
X84999999Y-81895659D01*
X85000000Y-81895659D01*
X85000001Y-81895659D01*
X85039234Y-81892226D01*
X85235408Y-81875063D01*
X85463663Y-81813903D01*
X85677830Y-81714035D01*
X85871401Y-81578495D01*
X86038495Y-81411401D01*
X86174035Y-81217830D01*
X86273903Y-81003663D01*
X86335063Y-80775408D01*
X86355659Y-80540000D01*
X86335063Y-80304592D01*
X86273903Y-80076337D01*
X86174035Y-79862171D01*
X86145029Y-79820745D01*
X86038494Y-79668597D01*
X85871402Y-79501506D01*
X85871396Y-79501501D01*
X85685842Y-79371575D01*
X85642217Y-79316998D01*
X85635023Y-79247500D01*
X85666546Y-79185145D01*
X85685842Y-79168425D01*
X85754737Y-79120184D01*
X85871401Y-79038495D01*
X86038495Y-78871401D01*
X86174035Y-78677830D01*
X86273903Y-78463663D01*
X86335063Y-78235408D01*
X86355659Y-78000000D01*
X86335063Y-77764592D01*
X86273903Y-77536337D01*
X86174035Y-77322171D01*
X86156058Y-77296496D01*
X86038494Y-77128597D01*
X85871402Y-76961506D01*
X85871401Y-76961505D01*
X85685405Y-76831269D01*
X85641781Y-76776692D01*
X85634588Y-76707193D01*
X85666110Y-76644839D01*
X85685405Y-76628119D01*
X85871082Y-76498105D01*
X86038105Y-76331082D01*
X86173600Y-76137578D01*
X86273429Y-75923492D01*
X86273432Y-75923486D01*
X86330636Y-75710000D01*
X85433012Y-75710000D01*
X85465925Y-75652993D01*
X85500000Y-75525826D01*
X85500000Y-75394174D01*
X85465925Y-75267007D01*
X85433012Y-75210000D01*
X86330636Y-75210000D01*
X86330635Y-75209999D01*
X86273432Y-74996513D01*
X86273429Y-74996507D01*
X86173600Y-74782422D01*
X86173599Y-74782420D01*
X86038113Y-74588926D01*
X86038108Y-74588920D01*
X85871078Y-74421890D01*
X85685405Y-74291879D01*
X85641780Y-74237302D01*
X85634588Y-74167804D01*
X85666110Y-74105449D01*
X85685406Y-74088730D01*
X85816030Y-73997266D01*
X85871401Y-73958495D01*
X86038495Y-73791401D01*
X86174035Y-73597830D01*
X86273903Y-73383663D01*
X86335063Y-73155408D01*
X86355659Y-72920000D01*
X86335063Y-72684592D01*
X86273903Y-72456337D01*
X86174035Y-72242171D01*
X86038495Y-72048599D01*
X86038494Y-72048597D01*
X85871402Y-71881506D01*
X85871396Y-71881501D01*
X85685842Y-71751575D01*
X85642217Y-71696998D01*
X85635023Y-71627500D01*
X85666546Y-71565145D01*
X85685842Y-71548425D01*
X85758230Y-71497738D01*
X85871401Y-71418495D01*
X86038495Y-71251401D01*
X86174035Y-71057830D01*
X86221993Y-70954982D01*
X86268161Y-70902548D01*
X86330028Y-70883468D01*
X101324865Y-70358739D01*
X101366181Y-70364306D01*
G37*
%TD.AperFunction*%
%TD*%
%TA.AperFunction,Conductor*%
%TO.N,20VDC*%
G36*
X158741194Y-102687467D02*
G01*
X158787769Y-102739549D01*
X158799793Y-102793314D01*
X158705184Y-126464378D01*
X158685232Y-126531338D01*
X158632245Y-126576881D01*
X158584882Y-126587827D01*
X128011483Y-127499657D01*
X127988643Y-127498225D01*
X112000001Y-124999999D01*
X111999997Y-125000000D01*
X100468927Y-132114915D01*
X100401538Y-132133366D01*
X100334871Y-132112454D01*
X100290093Y-132058819D01*
X100281401Y-132005414D01*
X100280162Y-132005414D01*
X100280162Y-131999998D01*
X100274844Y-131939215D01*
X100261549Y-131787253D01*
X100213550Y-131608117D01*
X100206278Y-131580977D01*
X100206277Y-131580976D01*
X100206276Y-131580970D01*
X100116021Y-131387419D01*
X99993529Y-131212481D01*
X99993527Y-131212478D01*
X99842521Y-131061472D01*
X99667578Y-130938977D01*
X99667579Y-130938977D01*
X99538547Y-130878809D01*
X99474030Y-130848724D01*
X99474026Y-130848723D01*
X99474022Y-130848721D01*
X99267752Y-130793452D01*
X99267748Y-130793451D01*
X99267747Y-130793451D01*
X99267746Y-130793450D01*
X99267741Y-130793450D01*
X99055002Y-130774838D01*
X99054998Y-130774838D01*
X98842258Y-130793450D01*
X98842247Y-130793452D01*
X98635977Y-130848721D01*
X98635968Y-130848725D01*
X98442421Y-130938977D01*
X98267478Y-131061472D01*
X98116472Y-131212478D01*
X97993977Y-131387421D01*
X97903725Y-131580968D01*
X97903721Y-131580977D01*
X97848452Y-131787247D01*
X97848450Y-131787258D01*
X97829838Y-131999998D01*
X97829838Y-132000001D01*
X97848450Y-132212741D01*
X97848452Y-132212752D01*
X97903721Y-132419022D01*
X97903723Y-132419026D01*
X97903724Y-132419030D01*
X97910082Y-132432664D01*
X97993977Y-132612578D01*
X97993978Y-132612580D01*
X97993979Y-132612581D01*
X98004161Y-132627123D01*
X98116472Y-132787521D01*
X98267478Y-132938527D01*
X98267481Y-132938529D01*
X98442419Y-133061021D01*
X98442420Y-133061021D01*
X98442421Y-133061022D01*
X98442424Y-133061024D01*
X98514918Y-133094828D01*
X98567358Y-133141000D01*
X98586510Y-133208193D01*
X98566295Y-133275074D01*
X98527627Y-133312738D01*
X97662142Y-133846761D01*
X97594753Y-133865212D01*
X97528086Y-133844300D01*
X97495454Y-133812356D01*
X97453527Y-133752478D01*
X97302521Y-133601472D01*
X97127578Y-133478977D01*
X97127579Y-133478977D01*
X96958211Y-133400000D01*
X96934030Y-133388724D01*
X96934026Y-133388723D01*
X96934022Y-133388721D01*
X96727752Y-133333452D01*
X96727748Y-133333451D01*
X96727747Y-133333451D01*
X96727746Y-133333450D01*
X96727741Y-133333450D01*
X96515002Y-133314838D01*
X96514998Y-133314838D01*
X96302258Y-133333450D01*
X96302247Y-133333452D01*
X96095977Y-133388721D01*
X96095968Y-133388725D01*
X95902421Y-133478977D01*
X95727478Y-133601472D01*
X95576472Y-133752478D01*
X95453977Y-133927421D01*
X95363725Y-134120968D01*
X95363721Y-134120977D01*
X95308452Y-134327247D01*
X95308450Y-134327258D01*
X95289838Y-134539998D01*
X95289838Y-134540001D01*
X95308450Y-134752741D01*
X95308452Y-134752752D01*
X95363721Y-134959022D01*
X95363724Y-134959031D01*
X95427869Y-135096588D01*
X95438361Y-135165665D01*
X95409841Y-135229449D01*
X95380600Y-135254521D01*
X90125296Y-138497155D01*
X90060214Y-138515627D01*
X54502690Y-138524435D01*
X54497296Y-138524319D01*
X54114324Y-138507739D01*
X54103636Y-138506812D01*
X53726158Y-138457535D01*
X53715592Y-138455688D01*
X53608461Y-138432142D01*
X53343797Y-138373974D01*
X53333438Y-138371223D01*
X52970088Y-138257679D01*
X52959997Y-138254039D01*
X52607825Y-138109517D01*
X52598093Y-138105022D01*
X52478516Y-138043383D01*
X52259728Y-137930602D01*
X52250415Y-137925279D01*
X51928388Y-137722266D01*
X51919569Y-137716158D01*
X51616307Y-137486081D01*
X51608050Y-137479234D01*
X51325792Y-137223795D01*
X51318157Y-137216260D01*
X51289331Y-137185236D01*
X51059037Y-136937386D01*
X51052103Y-136929245D01*
X50818033Y-136628990D01*
X50811824Y-136620270D01*
X50639431Y-136354613D01*
X50604600Y-136300938D01*
X50599155Y-136291696D01*
X50523603Y-136149738D01*
X50420301Y-135955639D01*
X50415682Y-135945972D01*
X50366129Y-135829596D01*
X50266545Y-135595721D01*
X50262777Y-135585688D01*
X50259446Y-135575500D01*
X50144467Y-135223849D01*
X50141590Y-135213566D01*
X50054988Y-134842816D01*
X50053008Y-134832301D01*
X50051065Y-134818797D01*
X50002009Y-134477942D01*
X50000747Y-134459559D01*
X50006410Y-133499994D01*
X53044655Y-133499994D01*
X53044655Y-133500005D01*
X53064014Y-133807725D01*
X53064015Y-133807732D01*
X53064016Y-133807736D01*
X53107712Y-134036801D01*
X53121795Y-134110623D01*
X53217078Y-134403874D01*
X53217080Y-134403879D01*
X53348362Y-134682867D01*
X53348366Y-134682873D01*
X53513577Y-134943206D01*
X53513579Y-134943209D01*
X53513584Y-134943216D01*
X53645678Y-135102889D01*
X53710132Y-135180800D01*
X53744987Y-135213531D01*
X53881885Y-135342088D01*
X53934902Y-135391874D01*
X53934912Y-135391882D01*
X54184348Y-135573108D01*
X54184353Y-135573110D01*
X54184360Y-135573116D01*
X54454565Y-135721663D01*
X54454570Y-135721665D01*
X54454572Y-135721666D01*
X54454573Y-135721667D01*
X54741253Y-135835171D01*
X54741256Y-135835172D01*
X55039910Y-135911853D01*
X55039914Y-135911854D01*
X55104091Y-135919961D01*
X55345816Y-135950499D01*
X55345825Y-135950499D01*
X55345828Y-135950500D01*
X55345830Y-135950500D01*
X55654170Y-135950500D01*
X55654172Y-135950500D01*
X55654175Y-135950499D01*
X55654183Y-135950499D01*
X55846439Y-135926211D01*
X55960086Y-135911854D01*
X56258743Y-135835172D01*
X56258746Y-135835171D01*
X56545426Y-135721667D01*
X56545427Y-135721666D01*
X56545425Y-135721666D01*
X56545435Y-135721663D01*
X56815640Y-135573116D01*
X57065096Y-135391876D01*
X57289869Y-135180799D01*
X57486416Y-134943216D01*
X57651635Y-134682871D01*
X57658120Y-134669091D01*
X57757514Y-134457868D01*
X57782922Y-134403873D01*
X57878206Y-134110619D01*
X57935984Y-133807736D01*
X57938285Y-133771160D01*
X57955345Y-133500005D01*
X57955345Y-133499998D01*
X61694645Y-133499998D01*
X61694645Y-133500001D01*
X61714039Y-133771160D01*
X61714040Y-133771167D01*
X61771823Y-134036793D01*
X61771825Y-134036801D01*
X61841223Y-134222864D01*
X61866830Y-134291519D01*
X61997109Y-134530107D01*
X61997110Y-134530108D01*
X61997113Y-134530113D01*
X62160029Y-134747742D01*
X62160033Y-134747746D01*
X62160038Y-134747752D01*
X62352247Y-134939961D01*
X62352253Y-134939966D01*
X62352258Y-134939971D01*
X62569887Y-135102887D01*
X62569891Y-135102889D01*
X62569892Y-135102890D01*
X62808481Y-135233169D01*
X62808480Y-135233169D01*
X62808484Y-135233170D01*
X62808487Y-135233172D01*
X63063199Y-135328175D01*
X63328840Y-135385961D01*
X63580605Y-135403967D01*
X63599999Y-135405355D01*
X63600000Y-135405355D01*
X63600001Y-135405355D01*
X63618100Y-135404060D01*
X63871160Y-135385961D01*
X64136801Y-135328175D01*
X64391513Y-135233172D01*
X64391517Y-135233169D01*
X64391519Y-135233169D01*
X64539105Y-135152581D01*
X64630113Y-135102887D01*
X64847742Y-134939971D01*
X65039971Y-134747742D01*
X65202887Y-134530113D01*
X65333172Y-134291513D01*
X65428175Y-134036801D01*
X65485961Y-133771160D01*
X65505355Y-133500000D01*
X65505355Y-133499998D01*
X69494645Y-133499998D01*
X69494645Y-133500001D01*
X69514039Y-133771160D01*
X69514040Y-133771167D01*
X69571823Y-134036793D01*
X69571825Y-134036801D01*
X69641223Y-134222864D01*
X69666830Y-134291519D01*
X69797109Y-134530107D01*
X69797110Y-134530108D01*
X69797113Y-134530113D01*
X69960029Y-134747742D01*
X69960033Y-134747746D01*
X69960038Y-134747752D01*
X70152247Y-134939961D01*
X70152253Y-134939966D01*
X70152258Y-134939971D01*
X70369887Y-135102887D01*
X70369891Y-135102889D01*
X70369892Y-135102890D01*
X70608481Y-135233169D01*
X70608480Y-135233169D01*
X70608484Y-135233170D01*
X70608487Y-135233172D01*
X70863199Y-135328175D01*
X71128840Y-135385961D01*
X71380605Y-135403967D01*
X71399999Y-135405355D01*
X71400000Y-135405355D01*
X71400001Y-135405355D01*
X71418100Y-135404060D01*
X71671160Y-135385961D01*
X71936801Y-135328175D01*
X72191513Y-135233172D01*
X72191517Y-135233169D01*
X72191519Y-135233169D01*
X72339105Y-135152581D01*
X72430113Y-135102887D01*
X72647742Y-134939971D01*
X72839971Y-134747742D01*
X73002887Y-134530113D01*
X73133172Y-134291513D01*
X73228175Y-134036801D01*
X73285961Y-133771160D01*
X73305355Y-133500000D01*
X73285961Y-133228840D01*
X73228175Y-132963199D01*
X73133172Y-132708487D01*
X73133170Y-132708484D01*
X73133169Y-132708480D01*
X73002890Y-132469892D01*
X73002889Y-132469891D01*
X73002887Y-132469887D01*
X72970883Y-132427135D01*
X76849500Y-132427135D01*
X76849500Y-134222870D01*
X76849501Y-134222876D01*
X76855908Y-134282483D01*
X76906202Y-134417328D01*
X76906206Y-134417335D01*
X76992452Y-134532544D01*
X76992455Y-134532547D01*
X77107664Y-134618793D01*
X77107671Y-134618797D01*
X77107674Y-134618798D01*
X77239598Y-134668002D01*
X77295531Y-134709873D01*
X77319949Y-134775337D01*
X77305098Y-134843610D01*
X77283947Y-134871865D01*
X77161886Y-134993926D01*
X77026400Y-135187420D01*
X77026399Y-135187422D01*
X76926570Y-135401507D01*
X76926567Y-135401513D01*
X76869364Y-135614999D01*
X76869364Y-135615000D01*
X77766988Y-135615000D01*
X77734075Y-135672007D01*
X77700000Y-135799174D01*
X77700000Y-135930826D01*
X77734075Y-136057993D01*
X77766988Y-136115000D01*
X76869364Y-136115000D01*
X76926567Y-136328486D01*
X76926570Y-136328492D01*
X77026399Y-136542578D01*
X77161894Y-136736082D01*
X77328917Y-136903105D01*
X77522421Y-137038600D01*
X77736507Y-137138429D01*
X77736516Y-137138433D01*
X77950000Y-137195634D01*
X77950000Y-136298012D01*
X78007007Y-136330925D01*
X78134174Y-136365000D01*
X78265826Y-136365000D01*
X78392993Y-136330925D01*
X78450000Y-136298012D01*
X78450000Y-137195633D01*
X78663483Y-137138433D01*
X78663492Y-137138429D01*
X78877578Y-137038600D01*
X79071082Y-136903105D01*
X79238105Y-136736082D01*
X79296984Y-136651996D01*
X80474435Y-136651996D01*
X80474435Y-136652003D01*
X80494630Y-136831249D01*
X80494631Y-136831254D01*
X80554211Y-137001523D01*
X80618285Y-137103495D01*
X80650184Y-137154262D01*
X80777738Y-137281816D01*
X80930478Y-137377789D01*
X81100745Y-137437368D01*
X81100750Y-137437369D01*
X81279996Y-137457565D01*
X81280000Y-137457565D01*
X81280004Y-137457565D01*
X81459249Y-137437369D01*
X81459252Y-137437368D01*
X81459255Y-137437368D01*
X81629522Y-137377789D01*
X81782262Y-137281816D01*
X81909816Y-137154262D01*
X82005789Y-137001522D01*
X82065368Y-136831255D01*
X82075331Y-136742830D01*
X82085565Y-136652003D01*
X82085565Y-136651996D01*
X82065369Y-136472750D01*
X82065368Y-136472745D01*
X82015743Y-136330925D01*
X82005789Y-136302478D01*
X82004821Y-136300938D01*
X81966582Y-136240080D01*
X81909816Y-136149738D01*
X81825077Y-136064999D01*
X82844341Y-136064999D01*
X82844341Y-136065000D01*
X82864936Y-136300403D01*
X82864938Y-136300413D01*
X82926094Y-136528655D01*
X82926096Y-136528659D01*
X82926097Y-136528663D01*
X82983610Y-136652000D01*
X83025965Y-136742830D01*
X83025967Y-136742834D01*
X83087880Y-136831254D01*
X83161505Y-136936401D01*
X83328599Y-137103495D01*
X83378490Y-137138429D01*
X83522165Y-137239032D01*
X83522167Y-137239033D01*
X83522170Y-137239035D01*
X83736337Y-137338903D01*
X83964592Y-137400063D01*
X84152918Y-137416539D01*
X84199999Y-137420659D01*
X84200000Y-137420659D01*
X84200001Y-137420659D01*
X84239234Y-137417226D01*
X84435408Y-137400063D01*
X84663663Y-137338903D01*
X84877830Y-137239035D01*
X85071401Y-137103495D01*
X85238495Y-136936401D01*
X85374035Y-136742830D01*
X85473903Y-136528663D01*
X85535063Y-136300408D01*
X85555659Y-136065000D01*
X85535063Y-135829592D01*
X85473903Y-135601337D01*
X85374035Y-135387171D01*
X85373186Y-135385959D01*
X85238496Y-135193600D01*
X85197477Y-135152581D01*
X85116567Y-135071671D01*
X85083084Y-135010351D01*
X85088068Y-134940659D01*
X85129939Y-134884725D01*
X85160915Y-134867810D01*
X85292331Y-134818796D01*
X85407546Y-134732546D01*
X85493796Y-134617331D01*
X85544091Y-134482483D01*
X85550500Y-134422873D01*
X85550499Y-132627128D01*
X85544091Y-132567517D01*
X85507679Y-132469892D01*
X85493797Y-132432671D01*
X85493793Y-132432664D01*
X85407547Y-132317455D01*
X85407544Y-132317452D01*
X85292335Y-132231206D01*
X85292328Y-132231202D01*
X85157482Y-132180908D01*
X85157483Y-132180908D01*
X85097883Y-132174501D01*
X85097881Y-132174500D01*
X85097873Y-132174500D01*
X85097864Y-132174500D01*
X83302129Y-132174500D01*
X83302123Y-132174501D01*
X83242516Y-132180908D01*
X83107671Y-132231202D01*
X83107664Y-132231206D01*
X82992455Y-132317452D01*
X82992452Y-132317455D01*
X82906206Y-132432664D01*
X82906202Y-132432671D01*
X82855908Y-132567517D01*
X82851064Y-132612578D01*
X82849501Y-132627123D01*
X82849500Y-132627135D01*
X82849500Y-134422870D01*
X82849501Y-134422876D01*
X82855908Y-134482483D01*
X82906202Y-134617328D01*
X82906206Y-134617335D01*
X82992452Y-134732544D01*
X82992455Y-134732547D01*
X83107664Y-134818793D01*
X83107671Y-134818797D01*
X83239081Y-134867810D01*
X83295015Y-134909681D01*
X83319432Y-134975145D01*
X83304580Y-135043418D01*
X83283430Y-135071673D01*
X83161503Y-135193600D01*
X83025965Y-135387169D01*
X83025964Y-135387171D01*
X82926098Y-135601335D01*
X82926094Y-135601344D01*
X82864938Y-135829586D01*
X82864936Y-135829596D01*
X82844341Y-136064999D01*
X81825077Y-136064999D01*
X81782262Y-136022184D01*
X81707190Y-135975013D01*
X81629523Y-135926211D01*
X81459254Y-135866631D01*
X81459249Y-135866630D01*
X81280004Y-135846435D01*
X81279996Y-135846435D01*
X81100750Y-135866630D01*
X81100745Y-135866631D01*
X80930476Y-135926211D01*
X80777737Y-136022184D01*
X80650184Y-136149737D01*
X80554211Y-136302476D01*
X80494631Y-136472745D01*
X80494630Y-136472750D01*
X80474435Y-136651996D01*
X79296984Y-136651996D01*
X79373600Y-136542578D01*
X79473429Y-136328492D01*
X79473432Y-136328486D01*
X79530636Y-136115000D01*
X78633012Y-136115000D01*
X78665925Y-136057993D01*
X78700000Y-135930826D01*
X78700000Y-135799174D01*
X78665925Y-135672007D01*
X78633012Y-135615000D01*
X79530636Y-135615000D01*
X79530635Y-135614999D01*
X79473432Y-135401513D01*
X79473429Y-135401507D01*
X79373600Y-135187422D01*
X79373599Y-135187420D01*
X79238113Y-134993926D01*
X79238108Y-134993920D01*
X79116053Y-134871865D01*
X79082568Y-134810542D01*
X79087552Y-134740850D01*
X79129424Y-134684917D01*
X79160400Y-134668002D01*
X79292331Y-134618796D01*
X79407546Y-134532546D01*
X79493796Y-134417331D01*
X79544091Y-134282483D01*
X79550500Y-134222873D01*
X79550499Y-132427128D01*
X79544091Y-132367517D01*
X79525296Y-132317126D01*
X79493797Y-132232671D01*
X79493793Y-132232664D01*
X79407547Y-132117455D01*
X79407544Y-132117452D01*
X79292335Y-132031206D01*
X79292328Y-132031202D01*
X79157482Y-131980908D01*
X79157483Y-131980908D01*
X79097883Y-131974501D01*
X79097881Y-131974500D01*
X79097873Y-131974500D01*
X79097864Y-131974500D01*
X77302129Y-131974500D01*
X77302123Y-131974501D01*
X77242516Y-131980908D01*
X77107671Y-132031202D01*
X77107664Y-132031206D01*
X76992455Y-132117452D01*
X76992452Y-132117455D01*
X76906206Y-132232664D01*
X76906202Y-132232671D01*
X76855908Y-132367517D01*
X76850370Y-132419031D01*
X76849501Y-132427123D01*
X76849500Y-132427135D01*
X72970883Y-132427135D01*
X72839971Y-132252258D01*
X72839966Y-132252253D01*
X72839961Y-132252247D01*
X72647752Y-132060038D01*
X72647746Y-132060033D01*
X72647742Y-132060029D01*
X72430113Y-131897113D01*
X72430108Y-131897110D01*
X72430107Y-131897109D01*
X72191518Y-131766830D01*
X72191519Y-131766830D01*
X72141920Y-131748330D01*
X71936801Y-131671825D01*
X71936794Y-131671823D01*
X71936793Y-131671823D01*
X71671167Y-131614040D01*
X71671160Y-131614039D01*
X71400001Y-131594645D01*
X71399999Y-131594645D01*
X71128839Y-131614039D01*
X71128832Y-131614040D01*
X70863206Y-131671823D01*
X70863202Y-131671824D01*
X70863199Y-131671825D01*
X70735843Y-131719326D01*
X70608480Y-131766830D01*
X70369892Y-131897109D01*
X70369891Y-131897110D01*
X70152259Y-132060028D01*
X70152247Y-132060038D01*
X69960038Y-132252247D01*
X69960028Y-132252259D01*
X69797110Y-132469891D01*
X69797109Y-132469892D01*
X69666830Y-132708480D01*
X69637350Y-132787519D01*
X69571825Y-132963199D01*
X69571824Y-132963202D01*
X69571823Y-132963206D01*
X69514040Y-133228832D01*
X69514039Y-133228839D01*
X69494645Y-133499998D01*
X65505355Y-133499998D01*
X65485961Y-133228840D01*
X65428175Y-132963199D01*
X65333172Y-132708487D01*
X65333170Y-132708484D01*
X65333169Y-132708480D01*
X65202890Y-132469892D01*
X65202889Y-132469891D01*
X65202887Y-132469887D01*
X65039971Y-132252258D01*
X65039966Y-132252253D01*
X65039961Y-132252247D01*
X64847752Y-132060038D01*
X64847746Y-132060033D01*
X64847742Y-132060029D01*
X64630113Y-131897113D01*
X64630108Y-131897110D01*
X64630107Y-131897109D01*
X64391518Y-131766830D01*
X64391519Y-131766830D01*
X64341920Y-131748330D01*
X64136801Y-131671825D01*
X64136794Y-131671823D01*
X64136793Y-131671823D01*
X63871167Y-131614040D01*
X63871160Y-131614039D01*
X63600001Y-131594645D01*
X63599999Y-131594645D01*
X63328839Y-131614039D01*
X63328832Y-131614040D01*
X63063206Y-131671823D01*
X63063202Y-131671824D01*
X63063199Y-131671825D01*
X62935843Y-131719326D01*
X62808480Y-131766830D01*
X62569892Y-131897109D01*
X62569891Y-131897110D01*
X62352259Y-132060028D01*
X62352247Y-132060038D01*
X62160038Y-132252247D01*
X62160028Y-132252259D01*
X61997110Y-132469891D01*
X61997109Y-132469892D01*
X61866830Y-132708480D01*
X61837350Y-132787519D01*
X61771825Y-132963199D01*
X61771824Y-132963202D01*
X61771823Y-132963206D01*
X61714040Y-133228832D01*
X61714039Y-133228839D01*
X61694645Y-133499998D01*
X57955345Y-133499998D01*
X57955345Y-133499994D01*
X57935985Y-133192274D01*
X57935984Y-133192267D01*
X57935984Y-133192264D01*
X57878206Y-132889381D01*
X57782922Y-132596127D01*
X57769459Y-132567516D01*
X57651637Y-132317132D01*
X57651633Y-132317126D01*
X57486422Y-132056793D01*
X57486420Y-132056791D01*
X57486416Y-132056784D01*
X57289869Y-131819201D01*
X57065096Y-131608124D01*
X57065093Y-131608122D01*
X57065087Y-131608117D01*
X56815651Y-131426891D01*
X56815644Y-131426886D01*
X56815640Y-131426884D01*
X56545435Y-131278337D01*
X56545432Y-131278335D01*
X56545427Y-131278333D01*
X56545426Y-131278332D01*
X56258746Y-131164828D01*
X56258743Y-131164827D01*
X55960089Y-131088146D01*
X55960076Y-131088144D01*
X55654183Y-131049500D01*
X55654172Y-131049500D01*
X55345828Y-131049500D01*
X55345816Y-131049500D01*
X55039923Y-131088144D01*
X55039910Y-131088146D01*
X54741256Y-131164827D01*
X54741253Y-131164828D01*
X54454573Y-131278332D01*
X54454572Y-131278333D01*
X54184360Y-131426884D01*
X54184348Y-131426891D01*
X53934912Y-131608117D01*
X53934902Y-131608125D01*
X53710132Y-131819199D01*
X53645676Y-131897113D01*
X53534748Y-132031202D01*
X53513577Y-132056793D01*
X53348366Y-132317126D01*
X53348362Y-132317132D01*
X53217080Y-132596120D01*
X53217078Y-132596125D01*
X53121795Y-132889376D01*
X53064015Y-133192267D01*
X53064014Y-133192274D01*
X53044655Y-133499994D01*
X50006410Y-133499994D01*
X50109684Y-115999997D01*
X61695034Y-115999997D01*
X61695034Y-116000002D01*
X61714858Y-116226599D01*
X61714860Y-116226610D01*
X61773730Y-116446317D01*
X61773735Y-116446331D01*
X61869863Y-116652478D01*
X61920974Y-116725472D01*
X62600000Y-116046446D01*
X62600000Y-116052661D01*
X62627259Y-116154394D01*
X62679920Y-116245606D01*
X62754394Y-116320080D01*
X62845606Y-116372741D01*
X62947339Y-116400000D01*
X62953553Y-116400000D01*
X62274526Y-117079025D01*
X62347513Y-117130132D01*
X62347521Y-117130136D01*
X62553668Y-117226264D01*
X62553682Y-117226269D01*
X62773389Y-117285139D01*
X62773400Y-117285141D01*
X62999998Y-117304966D01*
X63000002Y-117304966D01*
X63226599Y-117285141D01*
X63226610Y-117285139D01*
X63446317Y-117226269D01*
X63446331Y-117226264D01*
X63652478Y-117130136D01*
X63725471Y-117079024D01*
X63046447Y-116400000D01*
X63052661Y-116400000D01*
X63154394Y-116372741D01*
X63245606Y-116320080D01*
X63320080Y-116245606D01*
X63372741Y-116154394D01*
X63400000Y-116052661D01*
X63400000Y-116046447D01*
X64079024Y-116725471D01*
X64130136Y-116652478D01*
X64226264Y-116446331D01*
X64226269Y-116446317D01*
X64285139Y-116226610D01*
X64285141Y-116226599D01*
X64304966Y-116000002D01*
X64304966Y-115999997D01*
X64285141Y-115773400D01*
X64285139Y-115773389D01*
X64226269Y-115553682D01*
X64226264Y-115553668D01*
X64130136Y-115347521D01*
X64130132Y-115347513D01*
X64079025Y-115274526D01*
X63400000Y-115953551D01*
X63400000Y-115947339D01*
X63372741Y-115845606D01*
X63320080Y-115754394D01*
X63245606Y-115679920D01*
X63154394Y-115627259D01*
X63052661Y-115600000D01*
X63046448Y-115600000D01*
X63725472Y-114920974D01*
X63652478Y-114869863D01*
X63446331Y-114773735D01*
X63446317Y-114773730D01*
X63226610Y-114714860D01*
X63226599Y-114714858D01*
X63000002Y-114695034D01*
X62999998Y-114695034D01*
X62773400Y-114714858D01*
X62773389Y-114714860D01*
X62553682Y-114773730D01*
X62553673Y-114773734D01*
X62347516Y-114869866D01*
X62347512Y-114869868D01*
X62274526Y-114920973D01*
X62274526Y-114920974D01*
X62953553Y-115600000D01*
X62947339Y-115600000D01*
X62845606Y-115627259D01*
X62754394Y-115679920D01*
X62679920Y-115754394D01*
X62627259Y-115845606D01*
X62600000Y-115947339D01*
X62600000Y-115953552D01*
X61920974Y-115274526D01*
X61920973Y-115274526D01*
X61869868Y-115347512D01*
X61869866Y-115347516D01*
X61773734Y-115553673D01*
X61773730Y-115553682D01*
X61714860Y-115773389D01*
X61714858Y-115773400D01*
X61695034Y-115999997D01*
X50109684Y-115999997D01*
X50118049Y-114582551D01*
X50138129Y-114515632D01*
X50191202Y-114470190D01*
X50238050Y-114459351D01*
X64378247Y-114003921D01*
X64445885Y-114021438D01*
X64493316Y-114072741D01*
X64506083Y-114121665D01*
X64773350Y-119467018D01*
X64757038Y-119534957D01*
X64706585Y-119583291D01*
X64687826Y-119591140D01*
X64642240Y-119605952D01*
X64438461Y-119709783D01*
X64342402Y-119779575D01*
X64253434Y-119844214D01*
X64253432Y-119844216D01*
X64253431Y-119844216D01*
X64091716Y-120005931D01*
X64091709Y-120005940D01*
X64030007Y-120090864D01*
X63974677Y-120133530D01*
X63905063Y-120139508D01*
X63843269Y-120106901D01*
X63829372Y-120090863D01*
X63767907Y-120006263D01*
X63767902Y-120006257D01*
X63606242Y-119844597D01*
X63421276Y-119710211D01*
X63217568Y-119606417D01*
X63000124Y-119535765D01*
X62910000Y-119521490D01*
X62910000Y-120509252D01*
X62872292Y-120487482D01*
X62732409Y-120450000D01*
X62587591Y-120450000D01*
X62447708Y-120487482D01*
X62410000Y-120509252D01*
X62410000Y-119521490D01*
X62409999Y-119521490D01*
X62319875Y-119535765D01*
X62102431Y-119606417D01*
X61898723Y-119710211D01*
X61713757Y-119844597D01*
X61552097Y-120006257D01*
X61417711Y-120191223D01*
X61313917Y-120394929D01*
X61243265Y-120612371D01*
X61221468Y-120750000D01*
X62169252Y-120750000D01*
X62147482Y-120787708D01*
X62110000Y-120927591D01*
X62110000Y-121072409D01*
X62147482Y-121212292D01*
X62169252Y-121250000D01*
X61221468Y-121250000D01*
X61243265Y-121387628D01*
X61313917Y-121605070D01*
X61417711Y-121808776D01*
X61552097Y-121993742D01*
X61713757Y-122155402D01*
X61898723Y-122289788D01*
X62102429Y-122393582D01*
X62319871Y-122464234D01*
X62410000Y-122478509D01*
X62410000Y-121490747D01*
X62447708Y-121512518D01*
X62587591Y-121550000D01*
X62732409Y-121550000D01*
X62872292Y-121512518D01*
X62910000Y-121490747D01*
X62910000Y-122478508D01*
X63000128Y-122464234D01*
X63217570Y-122393582D01*
X63421276Y-122289788D01*
X63606242Y-122155402D01*
X63767905Y-121993739D01*
X63829371Y-121909137D01*
X63884701Y-121866470D01*
X63954314Y-121860491D01*
X64016109Y-121893096D01*
X64030007Y-121909134D01*
X64091714Y-121994066D01*
X64253434Y-122155786D01*
X64438462Y-122290217D01*
X64642242Y-122394048D01*
X64642244Y-122394048D01*
X64642247Y-122394050D01*
X64642245Y-122394050D01*
X64843022Y-122459285D01*
X64900698Y-122498722D01*
X64927897Y-122563080D01*
X64928550Y-122571024D01*
X64999999Y-123999992D01*
X64999999Y-123999996D01*
X65000000Y-124000000D01*
X66000000Y-129500000D01*
X81500000Y-132000000D01*
X90771007Y-129459998D01*
X95289838Y-129459998D01*
X95289838Y-129460001D01*
X95308450Y-129672741D01*
X95308452Y-129672752D01*
X95363721Y-129879022D01*
X95363723Y-129879026D01*
X95363724Y-129879030D01*
X95406171Y-129970058D01*
X95453977Y-130072578D01*
X95576472Y-130247521D01*
X95727478Y-130398527D01*
X95727481Y-130398529D01*
X95902419Y-130521021D01*
X95902421Y-130521022D01*
X95902420Y-130521022D01*
X95966936Y-130551106D01*
X96095970Y-130611276D01*
X96302253Y-130666549D01*
X96454215Y-130679844D01*
X96514998Y-130685162D01*
X96515000Y-130685162D01*
X96515002Y-130685162D01*
X96568186Y-130680508D01*
X96727747Y-130666549D01*
X96934030Y-130611276D01*
X97127581Y-130521021D01*
X97302519Y-130398529D01*
X97453529Y-130247519D01*
X97576021Y-130072581D01*
X97666276Y-129879030D01*
X97721549Y-129672747D01*
X97740162Y-129460000D01*
X97721549Y-129247253D01*
X97666276Y-129040970D01*
X97576021Y-128847419D01*
X97453529Y-128672481D01*
X97453527Y-128672478D01*
X97302521Y-128521472D01*
X97127578Y-128398977D01*
X97127579Y-128398977D01*
X96998547Y-128338809D01*
X96934030Y-128308724D01*
X96934026Y-128308723D01*
X96934022Y-128308721D01*
X96727752Y-128253452D01*
X96727748Y-128253451D01*
X96727747Y-128253451D01*
X96727746Y-128253450D01*
X96727741Y-128253450D01*
X96515002Y-128234838D01*
X96514998Y-128234838D01*
X96302258Y-128253450D01*
X96302247Y-128253452D01*
X96095977Y-128308721D01*
X96095968Y-128308725D01*
X95902421Y-128398977D01*
X95727478Y-128521472D01*
X95576472Y-128672478D01*
X95453977Y-128847421D01*
X95363725Y-129040968D01*
X95363721Y-129040977D01*
X95308452Y-129247247D01*
X95308450Y-129247258D01*
X95289838Y-129459998D01*
X90771007Y-129459998D01*
X108145011Y-124699997D01*
X128895034Y-124699997D01*
X128895034Y-124700002D01*
X128914858Y-124926599D01*
X128914860Y-124926610D01*
X128973730Y-125146317D01*
X128973735Y-125146331D01*
X129069863Y-125352478D01*
X129120974Y-125425472D01*
X129800000Y-124746446D01*
X129800000Y-124752661D01*
X129827259Y-124854394D01*
X129879920Y-124945606D01*
X129954394Y-125020080D01*
X130045606Y-125072741D01*
X130147339Y-125100000D01*
X130153553Y-125100000D01*
X129474526Y-125779025D01*
X129547513Y-125830132D01*
X129547521Y-125830136D01*
X129753668Y-125926264D01*
X129753682Y-125926269D01*
X129973389Y-125985139D01*
X129973400Y-125985141D01*
X130199998Y-126004966D01*
X130200002Y-126004966D01*
X130426599Y-125985141D01*
X130426610Y-125985139D01*
X130646317Y-125926269D01*
X130646331Y-125926264D01*
X130852478Y-125830136D01*
X130925471Y-125779024D01*
X130246447Y-125100000D01*
X130252661Y-125100000D01*
X130354394Y-125072741D01*
X130445606Y-125020080D01*
X130520080Y-124945606D01*
X130572741Y-124854394D01*
X130600000Y-124752661D01*
X130600000Y-124746447D01*
X131279024Y-125425471D01*
X131330136Y-125352478D01*
X131426264Y-125146331D01*
X131426269Y-125146317D01*
X131485139Y-124926610D01*
X131485141Y-124926599D01*
X131504966Y-124700002D01*
X131504966Y-124699997D01*
X131485141Y-124473400D01*
X131485139Y-124473389D01*
X131426269Y-124253682D01*
X131426264Y-124253668D01*
X131330136Y-124047521D01*
X131330132Y-124047513D01*
X131279025Y-123974526D01*
X130600000Y-124653551D01*
X130600000Y-124647339D01*
X130572741Y-124545606D01*
X130520080Y-124454394D01*
X130445606Y-124379920D01*
X130354394Y-124327259D01*
X130252661Y-124300000D01*
X130246448Y-124300000D01*
X130925472Y-123620974D01*
X130852478Y-123569863D01*
X130646331Y-123473735D01*
X130646317Y-123473730D01*
X130426610Y-123414860D01*
X130426599Y-123414858D01*
X130200002Y-123395034D01*
X130199998Y-123395034D01*
X129973400Y-123414858D01*
X129973389Y-123414860D01*
X129753682Y-123473730D01*
X129753673Y-123473734D01*
X129547516Y-123569866D01*
X129547512Y-123569868D01*
X129474526Y-123620973D01*
X129474526Y-123620974D01*
X130153553Y-124300000D01*
X130147339Y-124300000D01*
X130045606Y-124327259D01*
X129954394Y-124379920D01*
X129879920Y-124454394D01*
X129827259Y-124545606D01*
X129800000Y-124647339D01*
X129800000Y-124653552D01*
X129120974Y-123974526D01*
X129120973Y-123974526D01*
X129069868Y-124047512D01*
X129069866Y-124047516D01*
X128973734Y-124253673D01*
X128973730Y-124253682D01*
X128914860Y-124473389D01*
X128914858Y-124473400D01*
X128895034Y-124699997D01*
X108145011Y-124699997D01*
X118000000Y-122000000D01*
X124340915Y-119749998D01*
X128894532Y-119749998D01*
X128894532Y-119750001D01*
X128914364Y-119976686D01*
X128914366Y-119976697D01*
X128973258Y-120196488D01*
X128973261Y-120196497D01*
X129069431Y-120402732D01*
X129069432Y-120402734D01*
X129199954Y-120589141D01*
X129360858Y-120750045D01*
X129360861Y-120750047D01*
X129547266Y-120880568D01*
X129753504Y-120976739D01*
X129973308Y-121035635D01*
X130135230Y-121049801D01*
X130199998Y-121055468D01*
X130200000Y-121055468D01*
X130200002Y-121055468D01*
X130256673Y-121050509D01*
X130426692Y-121035635D01*
X130646496Y-120976739D01*
X130852734Y-120880568D01*
X131039139Y-120750047D01*
X131200047Y-120589139D01*
X131330568Y-120402734D01*
X131358826Y-120342135D01*
X142699500Y-120342135D01*
X142699500Y-121937870D01*
X142699501Y-121937876D01*
X142705908Y-121997483D01*
X142756202Y-122132328D01*
X142756206Y-122132335D01*
X142842452Y-122247544D01*
X142842455Y-122247547D01*
X142957664Y-122333793D01*
X142957671Y-122333797D01*
X143092517Y-122384091D01*
X143092516Y-122384091D01*
X143099444Y-122384835D01*
X143152127Y-122390500D01*
X144747872Y-122390499D01*
X144807483Y-122384091D01*
X144942331Y-122333796D01*
X145057546Y-122247546D01*
X145143796Y-122132331D01*
X145194091Y-121997483D01*
X145200500Y-121937873D01*
X145200499Y-120342128D01*
X145194091Y-120282517D01*
X145162007Y-120196496D01*
X145143797Y-120147671D01*
X145143793Y-120147664D01*
X145057547Y-120032455D01*
X145057544Y-120032452D01*
X144942335Y-119946206D01*
X144942328Y-119946202D01*
X144807482Y-119895908D01*
X144807483Y-119895908D01*
X144747883Y-119889501D01*
X144747881Y-119889500D01*
X144747873Y-119889500D01*
X144747864Y-119889500D01*
X143152129Y-119889500D01*
X143152123Y-119889501D01*
X143092516Y-119895908D01*
X142957671Y-119946202D01*
X142957664Y-119946206D01*
X142842455Y-120032452D01*
X142842452Y-120032455D01*
X142756206Y-120147664D01*
X142756202Y-120147671D01*
X142705908Y-120282517D01*
X142700271Y-120334957D01*
X142699501Y-120342123D01*
X142699500Y-120342135D01*
X131358826Y-120342135D01*
X131426739Y-120196496D01*
X131485635Y-119976692D01*
X131505468Y-119750000D01*
X131501949Y-119709783D01*
X131492865Y-119605952D01*
X131485635Y-119523308D01*
X131426739Y-119303504D01*
X131330568Y-119097266D01*
X131200047Y-118910861D01*
X131200045Y-118910858D01*
X131039141Y-118749954D01*
X130852734Y-118619432D01*
X130852732Y-118619431D01*
X130811063Y-118600000D01*
X140154723Y-118600000D01*
X140168420Y-118756567D01*
X140173793Y-118817975D01*
X140173793Y-118817979D01*
X140230422Y-119029322D01*
X140230424Y-119029326D01*
X140230425Y-119029330D01*
X140262104Y-119097265D01*
X140322897Y-119227638D01*
X140344286Y-119258184D01*
X140448402Y-119406877D01*
X140603123Y-119561598D01*
X140782361Y-119687102D01*
X140980670Y-119779575D01*
X141192023Y-119836207D01*
X141374926Y-119852208D01*
X141409998Y-119855277D01*
X141410000Y-119855277D01*
X141410002Y-119855277D01*
X141438254Y-119852805D01*
X141627977Y-119836207D01*
X141839330Y-119779575D01*
X142037639Y-119687102D01*
X142216877Y-119561598D01*
X142371598Y-119406877D01*
X142497102Y-119227639D01*
X142589575Y-119029330D01*
X142646207Y-118817977D01*
X142665277Y-118600000D01*
X142646207Y-118382023D01*
X142589575Y-118170670D01*
X142497102Y-117972362D01*
X142497100Y-117972359D01*
X142497099Y-117972357D01*
X142371599Y-117793124D01*
X142371596Y-117793121D01*
X142216877Y-117638402D01*
X142037639Y-117512898D01*
X142037640Y-117512898D01*
X142037638Y-117512897D01*
X141938484Y-117466661D01*
X141839330Y-117420425D01*
X141839326Y-117420424D01*
X141839322Y-117420422D01*
X141627977Y-117363793D01*
X141410002Y-117344723D01*
X141409998Y-117344723D01*
X141264682Y-117357436D01*
X141192023Y-117363793D01*
X141192020Y-117363793D01*
X140980677Y-117420422D01*
X140980668Y-117420426D01*
X140782361Y-117512898D01*
X140782357Y-117512900D01*
X140603121Y-117638402D01*
X140448402Y-117793121D01*
X140322900Y-117972357D01*
X140322898Y-117972361D01*
X140230426Y-118170668D01*
X140230422Y-118170677D01*
X140173793Y-118382020D01*
X140173793Y-118382024D01*
X140161437Y-118523261D01*
X140154723Y-118600000D01*
X130811063Y-118600000D01*
X130646497Y-118523261D01*
X130646488Y-118523258D01*
X130426697Y-118464366D01*
X130426693Y-118464365D01*
X130426692Y-118464365D01*
X130426691Y-118464364D01*
X130426686Y-118464364D01*
X130200002Y-118444532D01*
X130199998Y-118444532D01*
X129973313Y-118464364D01*
X129973302Y-118464366D01*
X129753511Y-118523258D01*
X129753502Y-118523261D01*
X129547267Y-118619431D01*
X129547265Y-118619432D01*
X129360858Y-118749954D01*
X129199954Y-118910858D01*
X129069432Y-119097265D01*
X129069431Y-119097267D01*
X128973261Y-119303502D01*
X128973258Y-119303511D01*
X128914366Y-119523302D01*
X128914364Y-119523313D01*
X128894532Y-119749998D01*
X124340915Y-119749998D01*
X133500000Y-116500000D01*
X133630370Y-116060000D01*
X142694723Y-116060000D01*
X142713127Y-116270370D01*
X142713793Y-116277975D01*
X142713793Y-116277979D01*
X142770422Y-116489322D01*
X142770424Y-116489326D01*
X142770425Y-116489330D01*
X142812726Y-116580044D01*
X142862897Y-116687638D01*
X142862898Y-116687639D01*
X142988402Y-116866877D01*
X143143123Y-117021598D01*
X143322361Y-117147102D01*
X143520670Y-117239575D01*
X143732023Y-117296207D01*
X143914926Y-117312208D01*
X143949998Y-117315277D01*
X143950000Y-117315277D01*
X143950002Y-117315277D01*
X143978254Y-117312805D01*
X144167977Y-117296207D01*
X144379330Y-117239575D01*
X144577639Y-117147102D01*
X144756877Y-117021598D01*
X144911598Y-116866877D01*
X145037102Y-116687639D01*
X145129575Y-116489330D01*
X145186207Y-116277977D01*
X145205277Y-116060000D01*
X145186207Y-115842023D01*
X145142772Y-115679920D01*
X145129577Y-115630677D01*
X145129576Y-115630676D01*
X145129575Y-115630670D01*
X145037102Y-115432362D01*
X145037100Y-115432359D01*
X145037099Y-115432357D01*
X144911599Y-115253124D01*
X144852659Y-115194184D01*
X144756877Y-115098402D01*
X144618978Y-115001844D01*
X144577638Y-114972897D01*
X144478484Y-114926661D01*
X144379330Y-114880425D01*
X144379326Y-114880424D01*
X144379322Y-114880422D01*
X144167977Y-114823793D01*
X143950002Y-114804723D01*
X143949998Y-114804723D01*
X143804682Y-114817436D01*
X143732023Y-114823793D01*
X143732020Y-114823793D01*
X143520677Y-114880422D01*
X143520668Y-114880426D01*
X143322361Y-114972898D01*
X143322357Y-114972900D01*
X143143121Y-115098402D01*
X142988402Y-115253121D01*
X142862900Y-115432357D01*
X142862898Y-115432361D01*
X142770426Y-115630668D01*
X142770422Y-115630677D01*
X142713793Y-115842020D01*
X142713793Y-115842023D01*
X142694723Y-116060000D01*
X133630370Y-116060000D01*
X134160848Y-114269635D01*
X153185500Y-114269635D01*
X153185500Y-116270370D01*
X153185501Y-116270376D01*
X153191908Y-116329983D01*
X153242202Y-116464828D01*
X153242206Y-116464835D01*
X153328452Y-116580044D01*
X153328455Y-116580047D01*
X153443664Y-116666293D01*
X153443669Y-116666296D01*
X153471539Y-116676690D01*
X153527473Y-116718561D01*
X153551891Y-116784024D01*
X153537040Y-116852298D01*
X153528525Y-116865759D01*
X153395783Y-117048461D01*
X153291950Y-117252244D01*
X153221278Y-117469750D01*
X153221278Y-117469753D01*
X153185500Y-117695646D01*
X153185500Y-117924353D01*
X153221278Y-118150246D01*
X153221278Y-118150249D01*
X153291950Y-118367755D01*
X153341176Y-118464366D01*
X153395783Y-118571538D01*
X153530214Y-118756566D01*
X153691934Y-118918286D01*
X153776864Y-118979991D01*
X153819529Y-119035321D01*
X153825508Y-119104935D01*
X153792902Y-119166730D01*
X153776864Y-119180627D01*
X153692257Y-119242097D01*
X153530597Y-119403757D01*
X153396211Y-119588723D01*
X153292417Y-119792429D01*
X153221765Y-120009871D01*
X153207491Y-120100000D01*
X154195252Y-120100000D01*
X154173482Y-120137708D01*
X154136000Y-120277591D01*
X154136000Y-120422409D01*
X154173482Y-120562292D01*
X154195252Y-120600000D01*
X153207491Y-120600000D01*
X153221765Y-120690128D01*
X153292417Y-120907570D01*
X153396211Y-121111276D01*
X153530597Y-121296242D01*
X153692257Y-121457902D01*
X153877223Y-121592288D01*
X154080929Y-121696082D01*
X154298371Y-121766734D01*
X154436000Y-121788532D01*
X154436000Y-120840747D01*
X154473708Y-120862518D01*
X154613591Y-120900000D01*
X154758409Y-120900000D01*
X154898292Y-120862518D01*
X154936000Y-120840747D01*
X154936000Y-121788531D01*
X155073628Y-121766734D01*
X155291070Y-121696082D01*
X155494776Y-121592288D01*
X155679742Y-121457902D01*
X155841402Y-121296242D01*
X155975788Y-121111276D01*
X156079582Y-120907570D01*
X156150234Y-120690128D01*
X156164509Y-120600000D01*
X155176748Y-120600000D01*
X155198518Y-120562292D01*
X155236000Y-120422409D01*
X155236000Y-120277591D01*
X155198518Y-120137708D01*
X155176748Y-120100000D01*
X156164509Y-120100000D01*
X156150234Y-120009871D01*
X156079582Y-119792429D01*
X155975788Y-119588723D01*
X155841402Y-119403757D01*
X155679742Y-119242097D01*
X155595135Y-119180626D01*
X155552470Y-119125296D01*
X155546491Y-119055682D01*
X155579097Y-118993887D01*
X155595125Y-118979999D01*
X155680066Y-118918286D01*
X155841786Y-118756566D01*
X155976217Y-118571538D01*
X156080048Y-118367758D01*
X156080049Y-118367755D01*
X156150721Y-118150249D01*
X156150721Y-118150248D01*
X156150722Y-118150245D01*
X156186500Y-117924354D01*
X156186500Y-117695646D01*
X156150722Y-117469755D01*
X156150721Y-117469751D01*
X156150721Y-117469750D01*
X156080049Y-117252244D01*
X156066814Y-117226269D01*
X155976217Y-117048462D01*
X155843472Y-116865755D01*
X155819994Y-116799953D01*
X155835819Y-116731899D01*
X155885925Y-116683204D01*
X155900455Y-116676692D01*
X155928331Y-116666296D01*
X156043546Y-116580046D01*
X156129796Y-116464831D01*
X156180091Y-116329983D01*
X156186500Y-116270373D01*
X156186499Y-114269628D01*
X156180091Y-114210017D01*
X156150458Y-114130568D01*
X156129797Y-114075171D01*
X156129793Y-114075164D01*
X156043547Y-113959955D01*
X156043544Y-113959952D01*
X155928335Y-113873706D01*
X155928328Y-113873702D01*
X155793482Y-113823408D01*
X155793483Y-113823408D01*
X155733883Y-113817001D01*
X155733881Y-113817000D01*
X155733873Y-113817000D01*
X155733864Y-113817000D01*
X153638129Y-113817000D01*
X153638123Y-113817001D01*
X153578516Y-113823408D01*
X153443671Y-113873702D01*
X153443664Y-113873706D01*
X153328455Y-113959952D01*
X153328452Y-113959955D01*
X153242206Y-114075164D01*
X153242202Y-114075171D01*
X153191908Y-114210017D01*
X153188277Y-114243796D01*
X153185501Y-114269623D01*
X153185500Y-114269635D01*
X134160848Y-114269635D01*
X136803704Y-105349997D01*
X138095034Y-105349997D01*
X138095034Y-105350002D01*
X138114858Y-105576599D01*
X138114860Y-105576610D01*
X138173730Y-105796317D01*
X138173735Y-105796331D01*
X138269863Y-106002478D01*
X138320974Y-106075472D01*
X139000000Y-105396446D01*
X139000000Y-105402661D01*
X139027259Y-105504394D01*
X139079920Y-105595606D01*
X139154394Y-105670080D01*
X139245606Y-105722741D01*
X139347339Y-105750000D01*
X139353553Y-105750000D01*
X138674526Y-106429025D01*
X138747513Y-106480132D01*
X138747521Y-106480136D01*
X138953668Y-106576264D01*
X138953682Y-106576269D01*
X139173389Y-106635139D01*
X139173400Y-106635141D01*
X139399998Y-106654966D01*
X139400002Y-106654966D01*
X139626599Y-106635141D01*
X139626610Y-106635139D01*
X139846317Y-106576269D01*
X139846331Y-106576264D01*
X140052478Y-106480136D01*
X140125471Y-106429024D01*
X139446447Y-105750000D01*
X139452661Y-105750000D01*
X139554394Y-105722741D01*
X139645606Y-105670080D01*
X139720080Y-105595606D01*
X139772741Y-105504394D01*
X139800000Y-105402661D01*
X139800000Y-105396447D01*
X140479024Y-106075471D01*
X140530136Y-106002478D01*
X140626264Y-105796331D01*
X140626269Y-105796317D01*
X140685139Y-105576610D01*
X140685141Y-105576599D01*
X140696217Y-105449999D01*
X143321127Y-105449999D01*
X143321128Y-105450000D01*
X144284314Y-105450000D01*
X144279920Y-105454394D01*
X144227259Y-105545606D01*
X144200000Y-105647339D01*
X144200000Y-105752661D01*
X144227259Y-105854394D01*
X144279920Y-105945606D01*
X144284314Y-105950000D01*
X143321128Y-105950000D01*
X143373730Y-106146317D01*
X143373734Y-106146326D01*
X143469865Y-106352482D01*
X143600342Y-106538820D01*
X143761179Y-106699657D01*
X143947517Y-106830134D01*
X144153673Y-106926265D01*
X144153682Y-106926269D01*
X144349999Y-106978872D01*
X144350000Y-106978871D01*
X144350000Y-106015686D01*
X144354394Y-106020080D01*
X144445606Y-106072741D01*
X144547339Y-106100000D01*
X144652661Y-106100000D01*
X144754394Y-106072741D01*
X144845606Y-106020080D01*
X144850000Y-106015686D01*
X144850000Y-106978872D01*
X145046317Y-106926269D01*
X145046326Y-106926265D01*
X145252482Y-106830134D01*
X145438820Y-106699657D01*
X145599657Y-106538820D01*
X145730134Y-106352482D01*
X145826265Y-106146326D01*
X145826269Y-106146317D01*
X145878872Y-105950000D01*
X144915686Y-105950000D01*
X144920080Y-105945606D01*
X144972741Y-105854394D01*
X145000000Y-105752661D01*
X145000000Y-105647339D01*
X144972741Y-105545606D01*
X144920080Y-105454394D01*
X144915686Y-105450000D01*
X145878872Y-105450000D01*
X145878872Y-105449999D01*
X145826269Y-105253682D01*
X145826265Y-105253673D01*
X145730134Y-105047517D01*
X145599657Y-104861179D01*
X145438820Y-104700342D01*
X145252482Y-104569865D01*
X145046328Y-104473734D01*
X144850000Y-104421127D01*
X144850000Y-105384314D01*
X144845606Y-105379920D01*
X144754394Y-105327259D01*
X144652661Y-105300000D01*
X144547339Y-105300000D01*
X144445606Y-105327259D01*
X144354394Y-105379920D01*
X144350000Y-105384314D01*
X144350000Y-104421127D01*
X144153671Y-104473734D01*
X143947517Y-104569865D01*
X143761179Y-104700342D01*
X143600342Y-104861179D01*
X143469865Y-105047517D01*
X143373734Y-105253673D01*
X143373730Y-105253682D01*
X143321127Y-105449999D01*
X140696217Y-105449999D01*
X140704966Y-105350002D01*
X140704966Y-105349997D01*
X140685141Y-105123400D01*
X140685139Y-105123389D01*
X140626269Y-104903682D01*
X140626264Y-104903668D01*
X140530136Y-104697521D01*
X140530132Y-104697513D01*
X140479025Y-104624526D01*
X139800000Y-105303551D01*
X139800000Y-105297339D01*
X139772741Y-105195606D01*
X139720080Y-105104394D01*
X139645606Y-105029920D01*
X139554394Y-104977259D01*
X139452661Y-104950000D01*
X139446448Y-104950000D01*
X140125472Y-104270974D01*
X140052478Y-104219863D01*
X139846331Y-104123735D01*
X139846317Y-104123730D01*
X139626610Y-104064860D01*
X139626599Y-104064858D01*
X139400002Y-104045034D01*
X139399998Y-104045034D01*
X139173400Y-104064858D01*
X139173389Y-104064860D01*
X138953682Y-104123730D01*
X138953673Y-104123734D01*
X138747516Y-104219866D01*
X138747512Y-104219868D01*
X138674526Y-104270973D01*
X138674526Y-104270974D01*
X139353553Y-104950000D01*
X139347339Y-104950000D01*
X139245606Y-104977259D01*
X139154394Y-105029920D01*
X139079920Y-105104394D01*
X139027259Y-105195606D01*
X139000000Y-105297339D01*
X139000000Y-105303552D01*
X138320974Y-104624526D01*
X138320973Y-104624526D01*
X138269868Y-104697512D01*
X138269866Y-104697516D01*
X138173734Y-104903673D01*
X138173730Y-104903682D01*
X138114860Y-105123389D01*
X138114858Y-105123400D01*
X138095034Y-105349997D01*
X136803704Y-105349997D01*
X137474124Y-103087331D01*
X137512042Y-103028648D01*
X137575668Y-102999779D01*
X137591066Y-102998575D01*
X158673858Y-102668834D01*
X158741194Y-102687467D01*
G37*
%TD.AperFunction*%
%TD*%
M02*
